<?xml version="1.0" encoding="utf-8"?>
<!-- Generator: Adobe Illustrator 24.2.0, SVG Export Plug-In . SVG Version: 6.00 Build 0)  -->
<svg version="1.1" id="Layer_1" xmlns="http://www.w3.org/2000/svg" xmlns:xlink="http://www.w3.org/1999/xlink" x="0px" y="0px"
	 viewBox="0 0 138.6 53" style="enable-background:new 0 0 138.6 53;" xml:space="preserve">
<style type="text/css">
	.st0{fill:#409385;}
	.st1{fill:#FFFFFF;}
	.st2{fill:none;stroke:#28334B;stroke-width:2;stroke-linecap:round;stroke-linejoin:round;stroke-miterlimit:10;}
</style>
<path class="st0" d="M109.3,22L71.7,0.6c-0.6-0.4-1.3-0.6-2-0.6l0,0c-1-0.1-2.1,0.1-3,0.7L29.4,22.4c-3.3,1.8-3.3,7,0,8.7L67,52.4
	c0.8,0.5,1.8,0.7,2.7,0.6l0,0c0.8,0,1.6-0.3,2.3-0.7l37.3-21.7C112.6,28.9,112.6,23.7,109.3,22z"/>
<path class="st1" d="M67.2,18.5C67.3,18.6,67.2,18.6,67.2,18.5C67.1,18.5,67.2,18.5,67.2,18.5L67.2,18.5z M54.5,17.9
	c0,0.1-0.2,0-0.2,0s0.2-0.1,0.2-0.2c-0.1,0,0-0.1,0-0.1c-0.2,0-0.6,0-0.6,0.2c0.1,0,0.3,0.2,0.1,0.2c-0.1,0-0.4,0-0.3,0.1
	c0.2,0.1,0.4,0.2,0.5,0.3c0.1,0,0.4-0.3,0.3-0.4C54.5,18,54.7,18,54.5,17.9z M67,18.6C67.1,18.7,67.1,18.6,67,18.6
	C67.1,18.5,67,18.5,67,18.6z M57.3,18.7c0.2,0.2,0.3-0.1,0.3-0.3C57.5,18.4,57.2,18.6,57.3,18.7z M58,17.4c0-0.1-0.2,0-0.3,0
	c-0.3-0.2-0.5-0.4-0.8,0c-0.1-0.1-0.2,0.2-0.2,0c0.1-0.2-0.1-0.3-0.2-0.4c-0.2,0-0.3,0.2-0.5,0.2c0.1-0.2-0.2-0.1-0.4,0
	c-0.3,0.3-0.5,0.8,0.1,0.8c-0.1,0.1-0.5,0-0.1,0.2c0.1,0,0.2-0.1,0.2,0c0.2,0,0.6-0.1,0.8-0.1c-0.3-0.2,0.2,0,0.3-0.2
	c0.2,0.1,0,0.1,0,0.1c0-0.1,0.1,0,0.1,0c0.1,0,0.1,0,0.1,0.1c0,0,0.3,0,0.3,0.1c-0.1,0.1-0.1,0.3,0,0.1c0.1,0,0.6,0.2,0.4,0.4
	c-0.1,0.2-0.3,0.3-0.1,0.4c-0.1,0.1-0.9,0.2-0.5,0.5c0.1,0,0.3-0.2,0.4-0.1c0-0.1,0-0.1,0.1,0c0,0,0.1,0,0.2,0.1
	c0.1,0.1,0.3,0,0.1,0.1c0.2,0.1,0.5,0.2,0.8,0.1c0.1-0.2-0.4-0.1-0.4-0.3c0,0,0.2,0.1,0.1,0c0.1,0,0.5,0.3,0.4,0.1
	c0.1,0,0-0.1,0-0.2c0.1,0.1,0.1,0,0-0.1c-0.1,0-0.1-0.1-0.2-0.2c-0.1,0-0.1,0-0.1,0s0-0.3-0.1-0.1c-0.1-0.1,0-0.1,0.1-0.1
	c-0.1-0.1-0.1-0.2,0.1-0.2c0.1,0.2,0.4-0.2,0.2,0.2c0.2,0.2,0.3,0.2,0.3-0.1c0.1,0,0.4-0.1,0.1-0.2c0.1,0,0.3-0.1,0.1-0.2
	c-0.1,0-0.2,0.1-0.2,0.1c0.1-0.2,0,0-0.2-0.1c-0.1-0.1-0.8-0.1-0.5-0.2c-0.1-0.2,0.1-0.1,0.1-0.1c0-0.1-0.2,0-0.2,0
	c0.1-0.1,0.3-0.2,0.1-0.2c-0.1,0.1-0.1,0.2-0.2,0.1C58.7,17.5,58.2,17.4,58,17.4C57.9,17.8,57.9,17.6,58,17.4z M53.7,17.1
	C53.5,17.2,53.7,17.1,53.7,17.1c0,0.1,0.1,0.1,0.1,0.1c0.1-0.1,0.4-0.1,0.2,0c0,0-0.2,0.1,0,0.1c-0.1,0-0.1,0.1,0,0.1
	c0.1-0.1,0.2-0.1,0.3-0.1h-0.1c0-0.1,0-0.1,0.1-0.1c0-0.4-0.1-0.4-0.5-0.3c-0.1,0,0.1,0.1,0.1,0.1h-0.1l0.1,0.1
	C53.9,17.1,53.6,16.9,53.7,17.1C53.6,17.1,53.7,17,53.7,17.1C53.8,17.1,53.8,17.1,53.7,17.1z M53.8,19l0.1-0.1c0.1,0.1,0-0.1,0,0
	c0.3-0.2-0.4-0.2-0.4-0.3c0.1-0.3-0.4-0.8-0.5-0.5c0,0.1,0.2,0.5,0,0.3c0-0.2-0.2-0.4-0.4-0.3l0.1,0.1h-0.1c-0.1,0.1-0.1,0.1-0.1,0
	c-0.2-0.2-0.3,0.1-0.4,0.1c0.3-0.5-0.7,0.2-0.5,0.2c-0.1,0.1-0.2,0.3,0,0.2c-0.1,0.1,0.2,0,0.3,0c0,0-0.3,0.1-0.3,0.2
	c0.2,0.2,0.6-0.1,0.9,0c0.1,0.1-0.2,0.1-0.3,0.1c-0.6,0.1-0.4,0.4,0.1,0.3c0.1,0,0,0.2,0.2,0.1c0.3-0.1,0.6-0.2,0.8-0.4
	c0,0.1,0.5,0.2,0.6,0C53.9,18.8,53.8,18.9,53.8,19C53.7,19,53.6,19,53.8,19z M54.2,19.1C54.2,19.1,54.3,19.1,54.2,19.1
	c0.1,0.1,0.1,0,0.2,0c0.3,0.2,0.6-0.2,0.2-0.3C54.3,18.7,54.4,19,54.2,19.1z M67.1,18.4C67,18.5,67.2,18.4,67.1,18.4
	C67.3,18.2,67,18.4,67.1,18.4z M56.8,19.8c-0.3,0-0.1-0.1-0.4-0.2c-0.1,0-0.2-0.1-0.2,0c0,0-0.1,0,0,0c0.1-0.3-0.2,0-0.1,0.1
	c0,0.2,0,0.3-0.1,0.4l0.2-0.1c0,0,0,0.2,0.1,0.1c0.1-0.1,0.2-0.3,0.3-0.3C56.5,20,56.8,20,56.8,19.8z M55.1,17.1
	c0,0.1,0.1-0.1,0.2-0.1c0.1,0.1,0.2-0.1,0.3,0v-0.1c0,0.2,0.3,0.1,0.3,0c0.2,0,0.4,0,0.4-0.2c0.2,0.2,0.4,0,0.6-0.1h-0.1
	c0,0,0.1,0,0.1-0.1c-0.2-0.2-0.9,0.1-0.8,0.2c-0.1,0-0.3,0-0.3,0.1c-0.2-0.1-0.4-0.1-0.2-0.2c-0.1,0-1.3-0.2-0.9,0.2
	C55,16.8,55.1,16.5,55.1,17.1z M57.6,18.5c0,0.1,0.2,0.1,0.2,0S57.6,18.4,57.6,18.5z M55.5,14.7c-0.5,0.5,0.4,0,0.5,0
	c0,0.1-0.5,0.2-0.5,0.3c0.2,0.1,0.5-0.2,0.6-0.2c-0.1,0.1-0.4,0.3,0,0.2c0.1,0,0.1-0.2,0.2-0.2c-0.1,0.1,0.1,0,0.1,0
	c-0.3,0.4,0.5-0.2,0.6-0.3c0,0-0.1,0.2-0.2,0.2c0,0,0.2,0,0.1,0c-0.1,0.2-1.1,0.2-0.5,0.5c-0.2-0.1-0.5-0.2-0.7,0
	c-0.1,0.2,0.5,0.2,0.4,0.4c-0.1-0.1-0.9,0.3-0.4,0.3c0.1,0,0.2-0.2,0.2-0.2c-0.2,0.5,0.2,0.3,0.3,0.1c0,0-0.2,0.3-0.3,0.3
	c-0.1-0.1-0.3-0.2-0.4,0c0,0.1,0.1,0.1,0.1,0.1c0,0.1-0.3,0.2-0.3,0.2c0,0.2,0.1,0,0.1,0c0.1,0.1,0.2,0,0.3,0c0.2,0,0.8-0.4,0.8-0.1
	c0.1,0,0.7-0.4,0.3-0.4c-0.2,0.1,0-0.2,0.1-0.2c0.1-0.1-0.1-0.1,0-0.1c0.1,0,0.5-0.2,0.2-0.3c0.3-0.1,0.3-0.2,0-0.2
	c0.4,0,0.2-0.2,0-0.1c0.1,0,0.6-0.1,0.5-0.3c0.2,0.1,0.6-0.3,0.2-0.2c0.3-0.1,0.8-0.5,0.9-0.7c-0.2,0-1.2,0.6-0.3,0.1
	c-0.6,0.1,0.8-0.2,0.7-0.5c0-0.1-0.4,0-0.5,0c-0.1,0-0.4,0.2-0.4,0.2c0.7-0.4-0.9,0-0.7,0.2c-0.1-0.1-0.9-0.1-0.4,0.1
	c-0.4-0.1-1.4,0.3-0.5,0.4c-0.2,0.1-0.6-0.1-0.9-0.1c0.1,0.1,0,0.1-0.1,0.1C56.1,14.4,55.5,14.5,55.5,14.7
	C54.8,14.8,55.2,15,55.5,14.7z M53.9,16.5c0-0.1-0.3,0-0.1,0.1C53.8,16.5,53.9,16.5,53.9,16.5z M56.9,20.4c0,0,0.1-0.2,0-0.2
	C56.8,20.2,56.8,20.4,56.9,20.4z M66.8,19.9c-0.1,0.2,0.4-0.2,0.5-0.2c0-0.1,0-0.2,0-0.3c0.2-0.1,0.1-0.4-0.1-0.3
	c0.1-0.1-0.2,0.1-0.2,0.1c0.1,0,0.1,0,0,0.1c-0.2-0.1-0.1,0.2-0.2,0.2h0.1c-0.1,0.1-0.2,0.2,0,0.1C66.8,19.7,66.6,19.9,66.8,19.9
	C66.7,19.9,66.7,19.9,66.8,19.9z M56.4,20.3c0,0.2,0.3-0.1,0.3-0.2C56.6,20.1,56.3,20.2,56.4,20.3z M54.9,17.1c0-0.3-0.4,0-0.4,0.1
	C54.6,17.3,55,17.3,54.9,17.1z M53.3,16.2C53.3,16.2,53.5,16.1,53.3,16.2c0.1,0,0.2-0.1,0.2,0s-0.2,0-0.2,0.1s0.3-0.1,0.5,0
	c0.1,0.1,0.3,0.2,0.3-0.1c-0.1-0.1,0-0.1-0.1-0.2c-0.2,0-0.2-0.1-0.4,0C53.6,16,53.3,16,53.3,16.2C53.2,16.2,53.3,16.1,53.3,16.2
	C53.4,16.2,53.3,16.2,53.3,16.2z M53.4,16.8c0.2,0-0.1-0.2-0.2-0.2C53.2,16.7,53.3,16.8,53.4,16.8z M54.2,15.6
	c-0.1-0.1-0.2,0-0.2,0.1C54.1,15.8,54.2,15.7,54.2,15.6z M54.4,16.2c-0.1,0.1-0.2,0.1,0,0.1s0.5-0.3,0.1-0.3
	C54.3,15.9,54.1,16.2,54.4,16.2z M52.4,16.7c-0.5,0.2,0.3,0.3,0.3,0h-0.1c0,0,0.2-0.1,0.1-0.1C52.6,16.6,52.5,16.7,52.4,16.7z
	 M52.6,17.2c0,0.1,0.2,0,0,0.1c0.4,0-0.1,0.2-0.2,0.1c0-0.1-0.2,0-0.1-0.1c-0.1-0.2-0.8,0-0.4,0c-0.3,0-0.4,0.3,0,0.1
	c-0.2,0-0.5,0.3,0,0.1c-0.1,0-0.5,0.3-0.1,0.2l0,0c0.1,0.1,0.1-0.1,0.2,0c0.1,0,0.1-0.3,0.2-0.1c0.1,0,0.3-0.1,0.3-0.1l-0.4,0.2
	c0.3,0.1,0.7-0.4,1-0.4c0.2-0.1,0-0.5-0.1-0.2C52.9,17.3,52.8,16.8,52.6,17.2z M54.4,15.5c0,0.1,0.2,0.1,0.3,0.1
	c0,0-0.2,0.1-0.1,0.1c0.1,0.1,0.1,0,0.2,0c0,0.1,0.3-0.2,0.4-0.1c0,0-0.2,0-0.2,0.1l0.3-0.1c0,0-0.8,0.2-0.3,0.2
	c-0.2,0.1,0.1,0,0.2,0c0,0-0.2,0-0.1,0.1c0,0.1,0.3,0,0.3,0c0.1,0-0.1,0,0-0.1c0,0,0.1,0,0.2,0c-0.1-0.2-0.1-0.1,0.1,0
	c0-0.3,0.1,0,0.1-0.3c0,0.1,0.1,0.1,0.1,0c0.1-0.1,0.4-0.2,0.1-0.3c0,0,0,0.1,0,0s-0.2,0.1-0.2,0s-0.1-0.3-0.2-0.2
	c-0.1,0.1,0.1,0.1,0,0.1h-0.1c0-0.2-0.2,0-0.3-0.1s-0.4-0.2-0.5-0.1h0.2c-0.1,0.1-0.5,0.2-0.2,0.2c-0.1,0-0.2,0.2-0.3,0.2
	c0.1,0,0.2,0,0.3,0c0,0-0.1,0,0,0.1C54.7,15.5,54.5,15.5,54.4,15.5z M53.5,17.1c0,0.1,0.3,0,0.2-0.1C53.6,17,53.4,17,53.5,17.1z
	 M51.7,17.5c0,0-0.2,0.1-0.2,0.2C51.5,17.8,51.7,17.6,51.7,17.5z M67.2,18.6C67.2,18.6,67.2,18.7,67.2,18.6
	C67.2,18.7,67.2,18.6,67.2,18.6z M53.1,18c0.1,0.1,0.3,0.2,0.3-0.1C53.4,17.8,53.1,17.9,53.1,18z M53.5,17.4c0-0.1-0.1-0.1-0.1,0
	C53.3,17.5,53.5,17.4,53.5,17.4z M53.4,17c0,0.1,0.2,0.1,0.2,0S53.4,16.9,53.4,17z M54.9,16.3c0.2-0.2-0.3-0.1-0.3,0
	C54.5,16.5,54.9,16.4,54.9,16.3z M56.8,17.3c0.1,0.1,0.4-0.1,0.5-0.1C57.2,16.9,56.4,16.9,56.8,17.3z M55.2,16.2
	c-0.1,0.1,0.2,0.1,0.2,0C55.4,16.2,55.3,16.1,55.2,16.2z M55.3,16.4c0,0.1,0.1,0.1,0.1,0.1S55.4,16.3,55.3,16.4z M88.2,19.1
	c0.1,0.1,0.7,0.1,0.3-0.1c-0.3-0.1-0.1-0.1-0.4-0.2C87.9,18.7,88,19.1,88.2,19.1z M74.7,15.5c0.1,0.2,0.6,0.5,0.7,0.4
	c0-0.1-0.3-0.3-0.2-0.5c0.4-0.9,1.5-0.4,2.1-0.7c0-0.2-0.2-0.2-0.4-0.2c-0.6,0.1-1.3-0.3-1.9,0.3c-0.1,0.1,0,0.2-0.2,0.2
	C74.8,15.2,74.5,15.3,74.7,15.5z M75.4,12.9c0,0-0.2-0.1-0.3,0C75.1,12.9,75.4,13,75.4,12.9z M76.1,12.7L76,12.6
	c0.6,0-0.2-0.1-0.3,0C75.7,12.7,76,12.8,76.1,12.7z M75.6,16.1c0,0,0.2,0.3,0.2,0.2C75.9,16.3,75.6,16,75.6,16.1z M76.2,13.2
	l-0.1-0.1C76,13.2,76.2,13.3,76.2,13.2z M75.9,12.9c0-0.1-0.4-0.2-0.5-0.1C75.5,12.8,75.8,12.9,75.9,12.9z M74.5,12.5
	c-0.5,0.1,0,0.1,0.1,0.2c-0.1-0.2,0.3,0,0.4-0.1c-0.1-0.2-0.7-0.2-0.9-0.2C74.1,12.5,74.5,12.5,74.5,12.5z M74.1,16
	c0.1,0.1,0.2,0,0.2,0C74.3,15.9,74,15.8,74.1,16z M70.6,14.9l0.2-0.1C70.7,14.9,70.6,14.8,70.6,14.9z M52.4,16.6
	c0.1-0.1,0.4,0,0.4-0.1C52.6,16.3,51.9,16.8,52.4,16.6z M76,13c0,0-0.4-0.1-0.4,0S76.1,13.2,76,13C76.1,13.1,76.2,13.1,76,13z
	 M86.9,18.6c0.1,0.2,0.3,0.1,0.6,0.1c0.1,0,0,0.1,0.1,0.1s0.2,0,0.1-0.1c0,0.1,0.3,0.1,0.3,0c-0.1-0.1-0.6-0.6-0.6-0.2
	C87.2,18.2,86.6,18.2,86.9,18.6z M67.2,19C67.2,19,67.2,18.9,67.2,19C67.2,18.9,67.2,18.9,67.2,19z M87.3,19.2
	c0.5,0.4,0.1-0.3-0.1-0.3C87.1,18.9,87.2,19,87.3,19.2C86.9,19.2,87.2,19.1,87.3,19.2z M77,13.2c0.2-0.1-0.1-0.3-0.1-0.1
	C76.5,13,76.7,13.3,77,13.2z M76.2,13.1c0.1,0,0.2,0.2,0.4,0.1C76.7,12.9,75.9,12.9,76.2,13.1z M81.7,15.9c0.1,0,1.1,0.4,0.8,0
	c-0.1-0.1-0.2-0.2-0.3-0.2h0.1C82.1,15.4,81.8,15.8,81.7,15.9z M80.7,15c0.3,0,0.3,0.3,0.5,0.4c0.2,0,0.7,0.5,0.6,0.1
	c0.2-0.2-0.1-0.2-0.2-0.2c0.2-0.1,0,0-0.1-0.2c0.1-0.2,0.1-0.2-0.2-0.4c-0.1,0-0.2,0.1-0.3,0c-0.1,0-0.1,0-0.1,0.1
	C80.8,14.7,80.5,14.8,80.7,15z M92.2,21.2c0.1,0.1,0.6,0,0.3-0.2C92.3,20.8,91.8,21.2,92.2,21.2z M69.9,15.2
	C69.9,15.2,69.8,15.2,69.9,15.2C69.9,15.3,69.9,15.2,69.9,15.2z M69.6,15.5C69.6,15.5,69.7,15.5,69.6,15.5
	C69.7,15.4,69.6,15.4,69.6,15.5z M69.8,15.2C69.8,15.2,69.7,15.3,69.8,15.2C69.8,15.4,69.9,15.3,69.8,15.2z M67.6,18.1
	C67.6,18.1,67.7,18.1,67.6,18.1C67.7,18.1,67.6,18.1,67.6,18.1C67.6,18,67.6,18.2,67.6,18.1z M70.7,14.9
	C70.8,14.8,70.8,14.8,70.7,14.9c0-0.1-0.1-0.1-0.1-0.1C70.6,14.8,70.7,14.9,70.7,14.9z M67.2,18.9C67.3,18.9,67.3,18.8,67.2,18.9
	C67.3,18.8,67.2,18.9,67.2,18.9z M69.8,15.4C69.8,15.4,69.7,15.4,69.8,15.4C69.7,15.5,69.8,15.4,69.8,15.4z M67.3,18.9
	C67.3,18.9,67.4,19,67.3,18.9C67.4,19,67.4,18.9,67.3,18.9z M67.3,18.5C67.3,18.6,67.3,18.5,67.3,18.5c0,0.1-0.1,0.2-0.1,0.2
	c0,0.1,0.1,0,0.1,0l0.1-0.1c-0.1,0.1-0.1,0.5,0,0.2c0-0.2,0,0,0.1-0.1c0.1,0-0.1,0.3,0,0.3c0-0.1,0,0,0.1,0l0.2-0.1v0.2
	c0.1,0,0,0.2,0,0.2c-0.1,0,0,0,0,0c-0.1,0-0.2,0-0.2,0v0.1c0,0,0.1-0.1,0.1,0c0.1,0.1-0.2,0.2-0.1,0.3c0.1,0,0.1,0,0.2,0
	c0.1-0.1,0.2-0.1,0.1,0c-0.2,0-0.3,0.2-0.3,0.3c0.1,0,0.3-0.1,0.4-0.2c0.1-0.1,0.1-0.1,0.3-0.1c0.1,0,0.4-0.1,0.2-0.2
	c0,0,0.1-0.2,0.2-0.3c0.1-0.1-0.2,0-0.2,0s-0.1-0.1-0.1-0.2c0.2,0.1-0.1-0.1-0.1-0.3c0-0.2-0.4-0.1-0.2-0.2c0.2-0.3,0.1-0.4-0.2-0.2
	c0-0.1,0.1-0.1,0-0.1l0.2-0.2l-0.2,0.1c-0.1,0,0,0.1-0.1,0.1c-0.1,0.1,0.2,0.1-0.1,0.1C67.3,18.5,67.2,18.5,67.3,18.5z M67.5,19.2
	C67.5,19.2,67.4,19.2,67.5,19.2C67.5,19.3,67.5,19.2,67.5,19.2z M70,15.3l0.1-0.1C70.1,15.2,70,15.3,70,15.3z M70.2,15
	C70.2,15,70.2,15.1,70.2,15C70.2,15.1,70.3,15,70.2,15z M70.1,15.1C70,15.1,70,15.1,70.1,15.1C70,15.3,70.3,15,70.1,15.1z M70.3,15
	C70.3,14.9,70.2,15,70.3,15C70.3,15,70.4,15,70.3,15z M69.9,15.3C69.9,15.4,69.9,15.3,69.9,15.3c-0.1,0-0.1,0.1-0.1,0.1
	C69.7,15.5,70.1,15.3,69.9,15.3z M69.9,15.5c-0.1,0.1,0,0,0,0.1C69.8,15.6,69.9,15.5,69.9,15.5z M69.9,15.4
	C69.9,15.4,69.8,15.5,69.9,15.4C69.9,15.5,70,15.3,69.9,15.4z M70.4,15c0,0-0.2,0-0.2,0.1C70.3,15.1,70.4,15,70.4,15z M70.5,14.9
	C70.4,14.9,70.4,14.9,70.5,14.9C70.5,15,70.5,14.9,70.5,14.9z M77.4,15.8c-0.2,0.1,0.1,0.2,0.1,0.1C77.5,15.9,77.4,15.8,77.4,15.8z
	 M84.5,27.9C84.5,27.9,84.5,28.1,84.5,27.9c0.2,0.1-0.1,0.5,0.1,0.5c0.2-0.1,0.3-0.4,0.1-0.5c0.1,0,0.2,0,0.3,0
	c0.4-0.1,0.2,0.1,0.3,0.3c0.1,0,0.1-0.1,0.2-0.1c0,0,0-0.2,0-0.1c0.1,0.2,0.3-0.1,0.3,0.1c0.2-0.3,0,0.1,0.2-0.1
	c0.1-0.5,0.3-0.6,0.2-1.1c0-0.1-0.1,0.1-0.1,0.1c-0.1-0.1-0.2,0.2-0.1,0.2c0,0.2-0.5,0.7-0.4,0.3c-0.1,0-0.2,0.2-0.3,0.3
	C85.1,27.4,84.8,27.7,84.5,27.9z M83.7,32.7c-0.2,0-0.2,0.4-0.1,0.4c0,0,0-0.2,0.1-0.1c0,0-0.1-0.1,0-0.1s0-0.1,0-0.1
	C83.6,32.8,83.7,32.7,83.7,32.7z M85.8,36.8c0-0.2,0-0.2-0.1-0.2c0-0.3-0.2-0.4-0.3-0.6c0-0.2,0.1-0.6-0.2-0.7c0-0.2,0-0.9-0.3-0.3
	c-0.1,0.2-0.1,0.7-0.3,0.7c-0.1-0.2-0.6-0.4-0.4-0.6c0.4-0.3-0.1-0.4-0.3-0.5c-0.1,0,0,0.1,0,0.1c-0.2-0.2-0.4,0-0.5,0.2
	c-0.4-0.5-0.8,0.2-1.2,0.5c-1.2-0.1-1.1,0.5-1,1.6c0.1,0.4-0.4,0.7,0.3,0.7c0.2-0.2,0.6,0.1,0.7-0.1c0.5-0.2,1.3,0,1.4,0.5
	c0.1,0,0.2-0.3,0.3-0.3c0,0.1-0.4,0.5,0,0.2c0,0.3,0.2,1,0.6,0.8c0.2-0.1,0.2,0.2,0.4,0.1C85.4,38.8,86.4,37.4,85.8,36.8z
	 M83.2,33.4C83.2,33.5,83.3,33.5,83.2,33.4C83.4,33.4,83.3,33.3,83.2,33.4z M83.6,34.6C83.5,34.6,83.5,34.6,83.6,34.6
	C83.5,34.7,83.8,34.7,83.6,34.6z M86.5,34.2c0.1-0.1-0.1-0.3-0.2-0.3C86.3,33.9,86.5,34.1,86.5,34.2z M84.9,39.4
	c-0.2,0-0.2,0-0.4-0.1C84.2,39.9,85,40,84.9,39.4z M86.1,34.2c-0.4-0.1,0.3,0.3,0.3,0c0.1-0.1-0.1-0.2-0.1,0
	C86.2,34.3,86.2,34.1,86.1,34.2z M85.6,34.1c-0.1-0.4-0.9-0.9-1.2-0.5c-0.2-0.1,0-0.6-0.5-0.4c0,0.1,0.1,0,0.1,0.2
	c0,0.1,0.3,0,0.2,0.1c-0.2-0.1-0.3,0-0.1,0.2c0.2-0.1,0.1,0,0.2,0.1c0.3,0.2,0.6,0.3,0.3,0.6c0.3,0,0.3,0.3,0.6,0.2
	c0.3-0.5,0.6,0.4,0.9,0.4c-0.1-0.2-0.2-0.4-0.3-0.5c-0.1-0.2,0-0.1,0.1-0.1C85.8,34.3,85.7,34.2,85.6,34.1z M86.6,24.8
	c0,0.2-0.3,1.3,0,0.9c0.2,0.4,0-0.1,0-0.3c0.1-0.3,0.3-0.1,0.3,0c0-0.3-0.2-0.7,0-1.1c0-0.3-0.1-0.2-0.1,0
	C86.5,24.2,86.6,24.6,86.6,24.8z M83.3,31.6C83.4,31.6,83.4,31.6,83.3,31.6C83.3,31.5,83.2,31.6,83.3,31.6z M83.2,31.6
	c0,0,0.2-0.1,0.1-0.2C83.3,31.4,83.2,31.6,83.2,31.6z M83.5,31.4C83.4,31.4,83.3,31.4,83.5,31.4c0,0,0,0.3,0,0.1
	C83.5,31.7,83.5,31.4,83.5,31.4z M83.3,31.2C83.4,31.4,83.4,31.2,83.3,31.2C83.3,31.3,83.2,31.3,83.3,31.2z M83.4,31.2v0.1
	c0,0,0,0,0,0.1C83.6,31.5,83.5,31.2,83.4,31.2z M83.1,31.3c-0.1,0.1,0,0.2,0.1,0.2l-0.1,0.1c0.1,0.2,0.1-0.1,0.2-0.2
	C83.3,31.3,83.2,31.2,83.1,31.3z M82.5,32.8c-0.1,0.1-0.1,0.2,0,0.4c-0.1,0.1-0.1,0.3,0.1,0.2c0,0,0-0.4,0.1-0.4c0,0,0,0.1,0,0.2
	c0,0.1,0.1,0.1,0.2,0c0-0.1-0.1-0.1,0-0.2c-0.2,0-0.2,0,0.1,0c0.1-0.1-0.2-0.1-0.2-0.1c-0.1,0-0.2-0.2-0.1-0.2
	c0.2-0.1,0.5,0.3,0.6,0c-0.1,0-0.1,0.1-0.3,0C82.7,32.4,82.6,32.7,82.5,32.8z M83,30.9c0,0,0,0.2,0.1,0.2C83.1,31.1,83,30.9,83,30.9
	z M81.7,33.6C81.7,33.6,81.8,33.7,81.7,33.6C81.9,33.6,81.8,33.5,81.7,33.6z M86.2,26.3c0,0.1-0.2,0.2-0.1,0.4c0.2-0.1,0-0.1,0-0.2
	c0.2,0,0.2,0.1,0.4,0.2c0-0.2,0.3-0.1,0.3-0.2c0-0.3,0-0.1-0.2-0.3c-0.1-0.1-0.1-0.2-0.2-0.3C86.3,25.8,86.4,26.5,86.2,26.3z
	 M69.4,18.6c0,0,0,0.1,0.1,0.1S69.5,18.5,69.4,18.6z M72.5,23c0,0.1-0.2,0-0.3,0.1C72.2,23.2,72.5,23.1,72.5,23z M71.5,23
	c0-0.1-0.3,0-0.3-0.1C71,23,71.4,23,71.5,23z M69.6,18.6c-0.1,0.1,0.1,0.1,0.1,0.2c0,0,0-0.1,0.1-0.1c0,0-0.1,0,0-0.1
	C69.8,18.5,69.7,18.4,69.6,18.6C69.7,18.6,69.6,18.5,69.6,18.6C69.6,18.4,69.6,18.5,69.6,18.6z M71,17.9c-0.1-0.1-0.2,0-0.1,0.1
	C70.8,18,71,17.9,71,17.9z M69.2,22c-0.1,0.2,0,0.5,0.1,0.1c0-0.1,0.1-0.4-0.1-0.3C69.1,21.9,69.2,21.9,69.2,22z M93.2,23.2
	c-0.3-0.1-0.2,0.1,0,0.1C93.5,23.5,93.3,23.2,93.2,23.2z M70.4,18.2c0.1,0,0.1-0.1,0.1-0.2C70.4,18,70.4,18.2,70.4,18.2z M70.6,17.5
	C70.6,17.5,70.6,17.4,70.6,17.5C70.7,17.4,70.5,17.4,70.6,17.5z M69.2,21.6c0,0.3,0.2-0.1,0.1-0.2C69.3,21.5,69.3,21.6,69.2,21.6z
	 M86.8,34.4C86.7,34.2,86.7,34.4,86.8,34.4C86.9,34.6,86.9,34.4,86.8,34.4z M85.1,28c0.2,0.2,0.2-0.3-0.1-0.1
	C84.8,27.9,84.9,28.2,85.1,28z M83.4,33.4C83.3,33.5,83.5,33.5,83.4,33.4l0.3,0.2C83.8,33.5,83.5,33.3,83.4,33.4z M88,40
	c0-0.3-0.2,0-0.3,0.2c-0.2,0.2-0.5,0.2-0.7,0.4c-0.1,0.1,0.1,0.1,0.1,0.1c0.3,0.3,0.4-0.3,0.7-0.4c0,0,0,0.1,0.1,0
	C87.9,40.2,88.1,40.1,88,40C88.2,39.9,88.1,39.9,88,40z M87.2,40.8C87.2,40.7,87.1,40.8,87.2,40.8C87.2,40.8,87.3,40.8,87.2,40.8z
	 M88.8,39.5c-0.2,0.1-0.3-0.1-0.3-0.2c-0.1,0.1-0.1,0-0.1-0.1s-0.3-0.5-0.2-0.1c0.1,0.1,0.2,0.5,0,0.6c0.1,0.2,0.3,0.1,0,0.3
	c0.1,0.2,0.3-0.1,0.3-0.2c0-0.1,0.1-0.1,0.1,0C88.7,39.7,88.9,39.5,88.8,39.5z M68.4,22.3C68.4,22.4,68.5,22.4,68.4,22.3
	C68.5,22.2,68.4,22.2,68.4,22.3z M93,22.7c0,0,0,0.1-0.1,0.1s0,0.1,0,0.1c-0.1,0-0.3-0.1-0.3-0.2c0-0.2-0.2-0.2-0.3-0.3
	c-0.1,0,0-0.2-0.1-0.2s-0.1,0.1-0.1,0.2s-0.4,0.1-0.4,0.1c0.1,0.1,0.3,0.7,0,0.5s-0.9,0.3-1.1,0.4c-0.1-0.1-0.4-0.2-0.5,0
	c-0.1,0,0-0.1,0-0.1s-0.1,0.1-0.2,0c-0.2-0.2-0.4,0.3-0.5,0.4c0,0.1,0.2,0.1,0.2,0.2c-0.1,0.1,0,0.2,0,0.3c-0.2,0.1-0.1,0.4-0.3,0.4
	c-0.2,0-0.1,0.2-0.2,0.3C89,24.9,89,25,88.9,25c-0.5,0.9-0.5-1.1,0-1.2c0.3-0.2,0.6-0.4,0.9-0.6c0.1-0.1,0.1-0.3,0.2-0.3
	c-0.1-0.1-0.2-0.1-0.3,0.1c-0.3,0.2-0.4,0.3-0.3-0.1c-0.3,0-0.7,0.1-0.8,0.3c0,0.1,0.1,0.2-0.1,0.2c-0.1,0-0.3,0-0.3,0
	c0.2-0.1-0.1-0.1-0.2-0.2c-0.3,0.1-0.6-0.2-0.9-0.1c-0.1,0.2-1.4,0.7-1,0.8c0.1,0.1,0.1,0.4,0.4,0.2c0.8,0.2-0.2,1.6-0.6,1.9
	c-0.2,0.1-0.3,0.3-0.5,0.2c-0.1-0.1-0.1-0.2-0.2-0.1s-0.4,0.4-0.5,0.6c0.1,0.2,0.3,0.8,0,0.9c-0.3,0.1-0.3-0.1-0.2-0.3
	c-0.1-0.1,0.1-0.3,0-0.4c-0.3,0-0.1-0.2-0.1-0.3c-0.1-0.4-0.3,0-0.5-0.1c-0.1-0.1,0.1-0.2,0.2-0.3c0-0.1-0.1-0.1-0.1-0.1
	c-0.3,0.2-0.6,0.1-0.4,0.5c0,0.2,0.4,0,0.5,0.2c-0.7,0.4-0.3,0.4-0.2,1c0,0.1-0.2-0.2-0.2-0.1c0,0,0.2,0.2,0.2,0.3
	c0,0.1-0.2,0-0.2,0.1c0.5,0.2-0.3,0.9-0.6,1c-0.3,0.1-0.8-0.1-0.8,0.1s-0.1,0-0.1-0.1c0.2-0.2-0.6-0.3-0.5,0.1
	c0.2,0.6,0.7,1.5-0.3,1.6c0-0.2-0.2-0.7-0.4-0.9c0-0.2-0.1-0.2-0.1,0c-0.3,0.6,0.4,1,0.2,1.6c0,0.1,0.1,0.3,0,0.3
	c-0.4-0.3-0.2-1-0.6-1.4c0-0.4,0.1-1.1,0-1.5c0-0.1-0.1,0.1-0.1,0.1c-0.3,0.1-0.2-0.2-0.1-0.4c0-0.3-0.3-0.7-0.3-0.9
	c-0.2,0-0.4-0.1-0.6-0.1c-0.1,0.2-0.6,0.5-0.8,0.5c-0.2,0.4-0.1,0.9,0.1,1.4c-0.1,0.4-0.3-0.2-0.2-0.3c0-0.3-0.1-0.3-0.1-0.1
	c-0.3,0.1-0.4-0.9-0.5-1.1c-0.2-0.4-0.1-0.9-0.1-1.3c-0.1-0.1-0.1,0.2-0.2,0.1c-0.1,0-0.2-0.3-0.2-0.3h0.2c-0.1,0-0.2-0.2-0.3-0.3
	c-0.1-0.6-1-0.3-1.3-0.8c-0.1-0.3-0.5-0.1-0.6-0.4c-0.2-0.5-0.7-0.9-0.4-0.2c0,0.1,0.2,0.5,0.2,0.5c0,0.1,0-0.2,0-0.2s0,0.3,0.1,0.4
	c0.2,0.2,0.5,0,0.6-0.2c0,0.1,0,0.4,0.2,0.5c0.2,0.1,0.3,0.5,0.1,0.6c0-0.1-0.1,0.1-0.1,0.2c0,0.2-0.3,0.1-0.4,0.3
	c-0.1,0-0.1-0.1-0.2,0c-0.2,0.2-0.7,0.3-1,0.4c-0.3-0.1-0.2-0.8-0.4-1.1c-0.3-0.5-0.4-1.2-0.8-1.7v-0.2c0,0,0,0.3-0.1,0.3
	S73,24.2,73,24.2c0.1,0.6,0.5,1.4,0.6,2c0.2,0.1,0.2,0.4,0.3,0.6c0.2,0.2,0.4,0.4,0.4,0.6c0.3,0.7,1.6-0.6,0.7,1
	c-0.2,0.5-1.1,0.9-1.2,1.6c0,0.5,0.5,1.2,0,1.6c-0.7,0.2-0.4,0.6-0.4,1c-0.3,0.1-0.3,0.2-0.3,0.6c-0.3,0.5-0.7,0.9-1.2,0.9
	c-0.4,0.2-0.5-0.2-0.6-0.5c-0.2-0.4-0.4-0.6-0.4-1.1c-0.2-0.5-0.5-0.9-0.2-1.5c0.2-0.9-0.7-1.4-0.5-2.2c0.1-0.4-0.3-0.3-0.5-0.3
	c-0.2-0.3-0.5-0.2-0.7-0.1c-0.2,0.2-0.5,0.3-0.7,0.3c-0.2,0.1-0.3,0.3-0.5,0.1c-0.5-0.2-1.2-1-1.1-1.5c0.2-0.3-0.1-0.7-0.1-1
	c0.2-0.6,0.6-1.3,1-1.8c0-0.5,0.4-0.8,0.6-1.2c0.2,0.1,0.1,0.1,0.3,0c0.2,0.1,0.6-0.4,0.8-0.4c0.1-0.1,0.2,0,0.3,0
	c0.1-0.1,0.4-0.1,0.5-0.2c0.3-0.2,0.2,0.4,0.1,0.6c0.1,0.2,0.4,0.2,0.6,0.3c0.1,0.2,0.2,0.2,0.4,0.3c0.2,0.2,0.3-0.1,0.2-0.2
	c0-0.2,0.4-0.3,0.4-0.1c0.2,0,0.2,0.2,0.3,0.1c0.2,0.2,0.5,0,0.7,0.1c0.1,0.1,0.3,0.1,0.4-0.1c0.1-0.2,0.3-1,0.1-0.8
	c-0.1-0.1-0.1,0.1-0.3,0c-0.2-0.1-0.2-0.2-0.4-0.1c-0.2,0-0.4-0.5-0.4-0.7c0-0.1-0.1,0.1-0.1,0c0-0.2,0.3-0.1,0.4-0.2
	c-0.1-0.1-0.1-0.1,0.1-0.1c0.1,0.1,0.2-0.2,0.3-0.1c0.2,0,0.2,0.1,0.4,0.2c0.8,0.4,0.8-0.1,0.2-0.6c-0.1-0.1-0.3-0.3-0.1-0.2
	l0.1-0.1l-0.1-0.1c0.1,0,0.3-0.1,0.1-0.1c-0.3,0-0.7,0.2-0.2,0.4c0,0-0.1,0-0.2,0l-0.2,0.1c0-0.1-0.1-0.2-0.1-0.2
	c0.3-0.2-0.1-0.1-0.1-0.3c0.3,0.1,0-0.1-0.1,0c-0.2,0.1-0.1,0.3-0.2,0.4c-0.1,0.3-0.2,0.5,0,0.7c-0.2,0-0.2,0-0.3,0.2
	c0-0.1,0.1-0.1,0-0.2c-0.1,0-0.2-0.1-0.3,0c0,0.1-0.1,0.1-0.1,0.1c-0.1,0.1,0.1,0.2,0,0.3c0,0,0.2,0.2,0.1,0.2c-0.2-0.1,0,0-0.1,0.1
	c-0.1,0,0,0.1,0,0.1c-0.2-0.1-0.3-0.1-0.2-0.3c-0.3-0.1-0.2-0.6-0.4-0.8c-0.3-0.2-0.4-0.4-0.5-0.6c-0.1,0-0.1,0.1-0.1,0
	c-0.1-0.2-0.2,0.2-0.2,0.3c0.2,0.1,0.2,0.2,0.2,0.3c0.1,0.1,0.5,0.3,0.5,0.5c-0.1,0.1-0.1-0.2-0.2-0.1c-0.1,0.1-0.1,0.1,0,0.2
	c0,0.2-0.3,0.2-0.2,0.5c0,0.2-0.4-0.2-0.3-0.2c0.3,0,0.6-0.1,0.4-0.4c-0.1,0-0.1-0.1-0.1-0.1c0-0.1-0.2-0.1-0.3-0.2
	c-0.2-0.1-0.2-0.6-0.5-0.4c-0.2,0.4-0.6,0.1-0.7,0.4c0,0.2,0,0.3-0.2,0.4c-0.3,0.2-0.2,0.5-0.3,0.8c-0.2,0.3-0.4,0.1-0.6,0.4
	c-0.1,0-0.1-0.1-0.1-0.2c-0.1-0.1-0.3,0-0.3,0c0-0.1,0-0.2,0-0.3c-0.2,0,0.1-0.4,0-0.6c0-0.2-0.2-0.4,0.1-0.5c0.2-0.2,1.1,0.2,1-0.6
	c0-0.3,0-0.1-0.2-0.4c-0.1,0-0.4-0.1-0.2-0.1c-0.1-0.1,0-0.1,0.1-0.2c0.5,0.1,0.1-0.4,0.3-0.2c0,0.1,0.3,0,0.2,0
	c0.2-0.1,0.2-0.4,0.4-0.5c0,0,0.1-0.1,0.2-0.1c-0.2,0,0.1-0.2,0.1-0.4c0.1-0.1,0.3-0.1,0.3-0.2c0.1,0,0.2,0,0.3-0.1
	c0,0-0.1-0.1,0-0.1v-0.1c0-0.1-0.1-0.2-0.1-0.3c-0.1-0.2,0.3-0.3,0.3-0.4c0,0,0,0.2,0,0.3c0,0.1-0.3,0.5,0.1,0.5
	c-0.1,0.2,0.1,0,0.2,0s0.2,0.3,0.2,0.1c-0.2,0,0.1,0,0.2-0.1s0.2-0.1,0.3-0.1c0,0,0-0.1,0,0l0.1,0.1c0-0.1,0.1-0.1,0.2-0.2
	c0,0-0.1,0.1,0,0.1c0.1-0.1-0.1-1,0.3-0.5c0.1,0,0.1-0.3,0-0.4c-0.2-0.3,0.3-0.3,0.4-0.2c0.1,0,0,0,0.1-0.1c0.1,0,0.2,0,0.2,0
	c-0.1-0.3-0.4-0.2-0.7-0.1c-0.3,0-0.3-0.4-0.4-0.7c0.1-0.2,0.3-0.3,0.4-0.5c0.3-0.1-0.3-0.4-0.4-0.2c0,0.4-0.6,0.6-0.4,1.1
	c0.1,0.2,0.3,0.2,0.1,0.4c-0.3,0.2,0,0.7-0.4,0.8c-0.3,0.5-0.2-0.2-0.3-0.4c-0.1-0.2-0.1-0.4-0.2-0.5l-0.1,0.2
	c-1.4,0.8-1.7-0.4-1.4-0.7c0.2-0.2,0.4-0.3,0.5-0.6c0.3-0.6,0.6-1.4,1.3-1.5c0.2-0.2,0.5-0.4,0.3,0.1c0.1,0,0.2-0.4,0.2-0.1
	c0.1,0,0.1-0.2,0.2-0.1c0,0-0.1,0.1,0,0.1c0,0.1,0-0.1,0.1-0.1c0.3,0.1,0.3,0.3,0,0.2c0.1,0.1,0.3,0.2,0.4,0.1c0.1,0,0.2,0.1,0,0.1
	c0,0.1,0.2,0.1,0.3,0.1c1.2,0.5,1.2,1.5-0.2,0.6c0.2,0.1,0.2,0.5,0.3,0.7c0.3,0.3,0.5,0.3,0.2-0.1c0.1-0.1,0.4,0.2,0.5,0.2
	c0-0.1-0.1-0.3,0.1-0.3c0.1-0.1,0.3,0,0.4,0.1c0.1-0.1,0-0.2,0-0.3c0.1-0.3-0.2-0.5,0.2-0.2c0.1,0,0.2,0.2,0.1,0.2
	c-0.1,0-0.3,0-0.1,0.2c0.1,0.1,0.3,0.1,0.3-0.1c0.2,0,0.6-0.1,0.8-0.1c0.1,0.2,0.2,0.2,0.4,0.1c0.1,0.1,0.6,0,0.5,0.2
	c0.2,0.1,0.2-0.1,0.2-0.2c0.3,0,0.7,0.3,0.9,0.5c0.1,0.2,0.3,0.4,0.3,0.1c-0.1-0.1-0.4-0.3-0.2-0.5c-0.3-0.4,0.2-0.1,0.3-0.5
	c0.1-0.1,0.5,0.1,0.5,0.2c-0.1,0.2-0.2,0.3-0.1,0.5c0,0.1-0.2,0.4-0.1,0.5c0.3,0.3-0.1,0.5-0.3,0.5c-0.4-0.2,0,0.1,0.2,0.2
	c0.4,0,0.4-0.3,0.5-0.5c0.3-0.1,0.3,0.2,0.4,0.3c0.1-0.5-0.8-0.2-0.4-0.8c-0.2-0.2-0.1-0.4,0.2-0.3c0.1,0,0-0.2,0-0.2
	s0.1,0.1,0.1,0.2C78,16.7,78.5,17,78.6,17c-0.8-0.6,0.2-0.5,0.4,0c0.2,0.1,0.2,0,0.1-0.1s-0.4-0.3-0.2-0.4c0.2-0.1,0.9,0.4,1,0.1
	c0-0.1,0-0.1,0.1-0.2c0.5-0.1,1.3,0.2,1.9,0.2c0.2-0.2,0.7-0.3,0.9,0c0,0.1-0.3,0-0.2,0l0.4,0.2l-0.2,0.1c0.2,0.1,0.2,0.1,0.3,0
	c0.1,0.1,0.3,0.1,0.5,0.2c0.9,0.7-0.6,0.7-1,0.9c0.2,0,1.1,0.2,0.7,0c0.2-0.1,0.4,0.2,0.7,0.3c0.2,0.1,0.9,0.3,0.5,0.3
	c0.1,0.2,0.5,0.3,0.7,0.3c0.1-0.2,0.5,0,0.7,0c0.3,0.2,0,0.5,0.1,0.8c0.1,0.2,0.3,0.3,0.4,0.1c0.1-0.1,0.2,0.2,0.4,0.1
	c0.3,0,0.4,0.3,0.7,0.2c-0.2-0.8,1.5,0.4,1.6,0.7c0.3,0,0.6,0,0.8,0.2c0.2,0.1,0.1,0.2,0.1,0.3c0.1,0.2,0.5,0.2,0.7,0.2
	c0.1,0.1,0.2,0,0.3,0.1s0.2,0.3,0.3,0.2c-0.1-0.6,0.9,0,1.1,0.2c0.4,0.2,0.6,0.6,0.7,0.8C92.8,22,93.9,22.9,93,22.7z M74.9,22.4
	c0-0.2-0.1-0.2-0.2,0c0,0,0-0.2,0-0.3c-0.2-0.1-0.2-0.3-0.3-0.5l0.1,0.1c-0.2-0.3,0.2-0.1,0.3,0c-0.1,0.1-0.1,0.1,0.1,0
	c-0.1-0.1-0.2-0.1-0.1-0.3c0-0.1-0.3-0.2-0.4-0.2c-0.1,0-0.1,0-0.1,0.1c-0.2,0.1-0.1,0-0.3,0.3c0.2,0.2,0.2,0.7,0.5,0.9
	c-0.3,0.2-0.1,0.6,0.2,0.8c0.4,0.2,0.3-0.3,0.2-0.5c0.1,0,0-0.1-0.1-0.1C74.6,22.3,75.2,22.8,74.9,22.4z M52,17.2h0.2
	C52.2,17.1,52,17.2,52,17.2z M57.3,29.5c0,0.1,0.2,0.1,0.3,0C57.5,29.4,57.3,29.4,57.3,29.5z M56.7,24.2L56.7,24.2
	C56.9,24.1,56.4,24.2,56.7,24.2C56.6,24.2,56.7,24.2,56.7,24.2z M56.4,24.1L56.4,24.1C56.4,24.2,56.4,24.2,56.4,24.1z M56.5,24.2
	C56.5,24.2,56.4,24.1,56.5,24.2C56.4,24.2,56.5,24.2,56.5,24.2z M60.3,21.9c0.2-0.5-0.6,0.7-0.5,0.9c0.1,0.1,0.7-0.3,0.5,0
	c0.1,0,0.2-0.2,0.2-0.2c0.1,0.3,0.3-0.1,0.2-0.3c-0.1-0.1-0.1-0.1-0.1-0.2c-0.1,0-0.2,0.1-0.2,0.1C60.3,22.1,60.1,22.2,60.3,21.9z
	 M58.8,29c0,0.1,0.2-0.1,0.2-0.1S58.7,28.9,58.8,29z M57.6,29.1c0.4-0.2-0.1-0.2-0.3-0.3c-0.3-0.1-0.9-0.2-1,0.2
	c0,0,0.6-0.4,0.3-0.2c0.2,0,0.5,0.1,0.7,0.2C57.2,29.3,57.5,29.1,57.6,29.1z M59.2,23.2c-0.1,0.2,0.3,0.2,0.3,0
	C59.4,23.2,59.2,23.2,59.2,23.2S59.2,23.1,59.2,23.2z M59.1,22.6c0,0.1,0.3,0.1,0.3,0C59.5,22.5,59.1,22.5,59.1,22.6z M63.2,31.9
	c0.1,0.5-0.5,1-0.5,1.4c0,0.4,0,1.1-0.3,1.5c-0.1,0.4-0.7,0.4-0.9,0.8c0,0.4-0.1,0.8-0.4,1.2c-0.1,0.2-0.2,0.4-0.3,0.5
	c-0.2,0.1-0.8-0.3-0.3,0.2c0.3,0.4-0.3,0.6-0.6,0.6c0,0.1,0.1,0.2,0,0.3c-0.2,0.1-0.4-0.1-0.3,0.3c0.3,0.3-0.5,0.6-0.1,0.9
	c0.3,0.1-0.1,0.4-0.2,0.6c-0.1,0.1,0.1,0.4,0.1,0.5c0.1,0.1,0.4,0.2,0.5,0.2c-0.3,0.3-1,0.2-1.3-0.2c-0.7-1.3-0.1-3.2-0.1-4.6
	c0-0.4,0.1-0.9-0.3-1c-0.7-0.4-1.6-1.5-1.2-2.4c0.2-0.4,0.5-0.9,0.4-1.3c-0.1-0.1-0.1-0.3-0.2-0.3c-0.2,0-0.2,0.2-0.2,0.3
	c-0.1,0.1-0.2-0.1-0.3-0.1s-0.1,0-0.2,0c-0.3-0.1-0.3-0.6-0.7-0.7c-0.3,0.1-0.5-0.1-0.7-0.4c-0.3,0.1-0.7,0-1-0.2
	c-0.5-0.1-0.3-0.6-0.5-0.9c-0.3-0.4-0.5-0.8-0.8-1.2c0-0.2-0.1-0.5-0.3-0.5c0.1,0.4,0.5,1,0.6,1.4c0.3,0.4-0.1,0.1-0.2-0.1
	c0-0.2,0-0.4-0.2-0.4c-0.2-0.2,0-0.1,0-0.3c-0.1-0.1-0.1-0.2-0.2-0.2c-0.2-0.5-0.3-0.8-0.7-1c-0.6-0.7-0.4-1.6-0.6-2.4
	c0.5,0.2,0.2-0.2-0.1-0.4c-0.5-0.1-0.7-0.7-0.9-1c-0.3,0.2-0.6-0.7-0.9-0.8c-0.2-0.1-0.5-0.3-0.7-0.2c-0.2-0.1-0.6-0.4-0.6,0
	c0,0.1-0.3,0.3-0.4,0.3c-0.1,0,0-0.1,0-0.1V22c0.1-0.1,0.3,0,0.2-0.1c0.2-0.3-0.8,0.4-0.4,0.6c-0.1,0.3-0.5,0.4-0.7,0.7
	c-0.1,0.2-0.4,0.2-0.5,0.3c-0.2,0.2-0.4,0.2,0-0.1c0.3-0.2,0.8-0.5,0.7-0.8c-0.1,0.1-0.3,0.1-0.5,0c-0.2,0.2-0.2-0.1-0.2-0.2
	c-0.2,0.2-0.5,0-0.5-0.3c-0.1-0.4,0.8-0.4,0.5-0.7c0,0,0.1,0,0.1-0.1c-0.1-0.1-0.2,0.1-0.3,0.1c-0.1,0.1-0.5,0-0.4-0.1
	c-0.3,0-0.2-0.2,0.1-0.2c-0.1,0,0.2-0.2,0.2-0.1c0.1,0.2,0.5,0,0.3,0v-0.1c-0.1,0-0.3-0.1-0.4-0.2c-0.1,0-0.4-0.1-0.2-0.2
	c0-0.1,0.2,0,0.3-0.1c0.2-0.5,1-0.8,1.5-0.6c0.6,0.2,1.5,0,2.1,0.3c0.2-0.1,0.1-0.3,0.4-0.2c0.4-0.3,0.7-0.3,0.1,0
	c0.2-0.1,0.6-0.2,0.6-0.4c0.1,0,0.3,0.3,0.3,0.3c0.1,0,0.1-0.2,0.1-0.2c0.1,0.1-0.1,0.3,0.2,0.1c0-0.2,0.2-0.1,0.4-0.1
	c0.4,0.1,0.6-0.1,0.8,0.1c-0.4,0.5,0.5-0.1,0.7,0.1c0.1,0.1,0.2,0.4,0.2,0.1c0,0,0,0,0-0.1c-0.1-0.2,0.2-0.3,0.2-0.4
	c-0.1,0-0.3,0.2-0.3,0.1s0.3-0.3,0.4-0.2c0.1,0.2,0.2,0.1,0.4,0.2c0.3,0.1,0.5-0.2,0.6-0.3c0.2,0,0.3,0,0.2,0.2
	c0.3,0.2,0-0.2,0.2-0.2c0.1,0,0.1-0.1,0.2-0.2c0.1-0.2-0.1,0-0.1-0.1s0.3-0.3,0-0.2c-0.3,0.1-0.4-0.4-0.2-0.5c0.1,0-0.1,0,0-0.1
	C55,18,55,18,55,17.9c0-0.2-0.2-0.4,0-0.5c0-0.1,0.1-0.2,0.2-0.2c0.7-0.2,0.2,0.5-0.1,0.4c0.2,0-0.1,0.3,0,0.3
	c0.2,0,0.3,0.3,0.4,0.4c0,0.1-0.2,0.1-0.2,0.2c0.1,0.1,0.2-0.1,0.3,0c-0.2,0.1,0,0.1,0,0.2c0,0.4,0.1-0.2,0.2-0.2
	c0.1,0,0.3,0.1,0.1,0.3c-0.1,0,0-0.1,0,0c-0.1,0.1,0.2,0.3,0.2,0.2c0.1-0.2,0.1-0.3,0.2-0.5c0-0.1-0.1-0.3,0.1-0.3
	c0.3-0.1,0.6,0.2,0.3,0.3c0,0.1,0.3,0.2,0.1,0.4c-0.1,0.1-0.2,0.3-0.4,0.1l0.1,0.1c-0.1-0.1-0.1,0-0.2,0c0-0.1-0.2-0.1-0.2,0
	c0.1,0,0.1,0.1,0,0.3c-0.1,0.1-0.5-0.1-0.6,0c0.2,0.2,0.9-0.1,0.3,0.4c-0.1,0.1-0.4,0.2-0.6,0.1c0,0,0.2,0,0.1,0.1
	c0.3-0.1,0.3,0.1,0,0.2c-0.1,0.1-0.2,0.4-0.3,0.6c0,0.1-0.1,0.4-0.1,0.5c0.2,0,0.3,0.1,0.3,0.3c0.1,0.2,0.2-0.1,0.4,0
	c0.3,0,0.6,0.3,0.9,0.2c0.4-0.1,0,0.6,0.4,0.8c0.4,0,0.2-0.6,0.1-0.8c0-0.1,0.3-0.2,0.3-0.4c0.3-0.4-0.3-0.5-0.2-0.8
	c0.2-0.5-0.3-0.9,0.5-1c0.3-0.1,0.4,0.3,0.7,0.2c0,0-0.1,0.4,0,0.4c0,0-0.2,0.3-0.1,0.2c0.2,0,0.6,0,0.6-0.4c0-0.5,0.4,0.3,0.6,0.5
	c-0.1,0.3,0.1,0.2,0.2,0.4c0.4-0.1,0.4,0.1,0.1,0.3c0.2-0.1,0.1,0-0.1,0.1c-0.1,0.3,0.2-0.1,0.3-0.1c-0.1,0,0.1-0.1,0.1,0v0.1
	c0,0,0.1-0.1,0.2-0.1c0.2,0.5-0.3,0.5-0.5,0.8c-0.2,0.4-0.9,0.2-1.1,0.6c-0.2,0.2-0.5,0.6-0.5,0.7c0.1-0.1,0.6-0.9,0.9-0.7
	c0.1,0.1-0.1,0,0,0c0.2,0.3-0.1,0.4-0.1,0.4c0,0.1,0.2,0,0.2,0S59,23.1,59,23.2c0.1-0.1,0,0.2,0.2,0.2l0,0c0.1,0.1,0.3-0.1,0.3,0
	c0.1,0,0-0.3,0.2-0.3c0.1,0,0,0.2,0,0.2s0.1,0,0.1,0.1c-0.2,0.1-0.3,0.4-0.6,0.4c-0.1,0.1-0.1,0.4-0.3,0.2c-0.1-0.1,0.1-0.3,0.2-0.4
	c0.1-0.1,0.1,0.1,0.2-0.1c-0.1,0-0.2,0.1-0.1,0c-0.1,0.1-0.2,0.2-0.4,0.3c-0.1,0.2-0.3,0.2-0.4,0.4c-0.1,0.1-0.2,0.5-0.1,0.5
	c0.1,0,0,0,0,0c0.1,0-0.1,0.1-0.1,0.1c0,0.1-0.3,0.2-0.3,0.3l0.2-0.1l0,0h0.1c0,0.1-0.3,0.1-0.3,0.2s-0.1,0.5-0.2,0.2l0.1,0.2
	c0,0.1-0.1,0.3-0.1,0.3c0-0.1,0.1-0.2,0-0.2c0,0,0.1-0.3,0-0.2c-0.1,0.1,0.1,0.4-0.1,0.3c0.1,0,0.1,0.1,0.1,0.2c0.1,0.1,0,0.2,0,0.2
	h0.1c0,0.1-0.2,0.1-0.1,0.1c-0.1,0,0,0.1,0,0.1s-0.1,0.1-0.2,0.1c-0.1,0.2-0.2,0.3-0.3,0.4c-0.6,0.4,0.3,1.3-0.2,1.5
	c-0.3-0.2,0-0.7-0.5-0.8c-0.1,0.1-0.2,0-0.5,0l-0.3,0.1c0,0,0.2,0,0.1,0.1c-0.1,0.1,0.1,0,0.1,0c0,0.1-0.1,0-0.1,0
	c0,0.2-0.2,0-0.3,0c-0.3-0.1-0.6,0.3-0.7,0.6c0.1,0.4-0.1,0.9,0.1,1.3c0.1,0.2,0.2,0.2,0.3,0.3c0.1,0,0.2-0.2,0.3-0.1
	c0.2-0.1,0.1-0.4,0.2-0.6c0.6-0.3,0.3,0,0.3,0.2c0,0,0,0.1,0,0c0,0.1,0,0.3-0.1,0.1c0,0.1,0,0.2,0,0.3c-0.1,0.3,0,0.2,0.2,0.2
	c0.8-0.5,0,1.1,0.8,1c0.6-0.4,0.4,0.4,0.8-0.6c0.5-0.5,1.3-0.5,1.9-0.4c0.3,0.2,0.6,0.6,1.1,0.4c0.3,0.1,0.5,0.6,0.7,0.7
	C62,31.5,63.1,31.4,63.2,31.9z M57.1,24.6c-0.1,0.1-0.7,0.5-0.5,0.3c0-0.1-0.1,0.1-0.1,0.2S57.2,24.8,57.1,24.6z M57.2,24.5
	c0.3,0,0.2-0.3,0.3-0.3C57.5,24.3,56.6,24.7,57.2,24.5z M55.3,24.2c0.1,0,0.4-0.2,0.5-0.3L55.7,24c0.1,0,0.1,0,0.2,0
	c0.1,0,0.2-0.2,0.3-0.1c0.2,0.1-0.2,0.1-0.3,0.2c0,0,0-0.1,0,0c0-0.1-0.2,0.2-0.1,0.3c0,0.1,0.1-0.2,0.1-0.1s-0.1,0.3-0.1,0.5
	c0.1,0.6,0.3,0,0.2-0.2c0-0.1,0.1-0.4,0.1-0.2c0-0.2,0.2-0.3,0.3-0.1c0,0.1,0,0.2-0.1,0.3c0.1-0.1,0.2-0.1,0.2,0.1
	c0.2-0.1,0.1-0.6,0.2-0.5c-0.1,0.1,0.1,0.1,0.1,0c0.1,0,0-0.2-0.1-0.3c-0.2,0-0.5,0.1-0.5-0.1c0-0.1,0-0.2-0.1-0.2
	c0,0-0.2,0-0.2-0.1s-0.1,0-0.1,0c-0.1-0.1-0.1,0-0.2,0.1c0-0.1,0,0-0.1,0C55.8,23.7,55.4,24.1,55.3,24.2z M51.8,20.3
	C51.7,20.3,51.8,20.3,51.8,20.3c-0.1,0-0.3,0.1-0.4,0.1c0.1-0.2,0.2-0.2-0.1-0.1c-0.1,0.1-0.7,0.3-0.5,0.3c0-0.1,0.4-0.2,0.4-0.1
	s-0.2,0-0.2,0.1c0.1,0.1,0,0,0,0.1l-0.1,0.1c0.1,0.1,0.4-0.3,0.4-0.1c0,0.1-0.1,0.1-0.1,0.1s0.3-0.2,0.2-0.2
	C51.7,20.5,51.7,20.5,51.8,20.3z M53,21c-0.2-0.1-0.3,0.2-0.5,0.3c-0.1,0-0.6-0.2-0.3,0c0.1,0.2,0,0.2-0.1,0.3
	c0.1,0.1-0.2,0-0.2,0.1c0.1,0.1,0.4,0.1,0.5-0.1c0.2-0.1,0.3-0.3,0.5-0.4h-0.1c0.1-0.1,0.1,0,0,0c0.2-0.1-0.2,0.1-0.2,0.1
	C52.7,21,53,21.1,53,21z M54.5,23.3C54.6,23.3,54.6,23.2,54.5,23.3C54.6,23.2,54.6,23.4,54.5,23.3c0.1,0,0.2,0.1,0.1,0.1
	c0.1-0.1,0,0.1,0,0.2c0.1,0.1,0-0.1,0.1-0.1c0-0.2-0.2-0.5-0.2-0.7c0,0,0,0-0.1,0c0,0,0.1-0.1,0-0.1c0,0.3,0,0-0.1,0.2
	C54.3,23,54.5,23.3,54.5,23.3z M45.7,22.4h-0.2C45.5,22.5,45.8,22.5,45.7,22.4z M50.7,19c0.2,0,0.3,0.3,0.5,0
	c0.1,0.1,0.2-0.2,0.2-0.3c0.2-0.1,0.4-0.3,0.6-0.4c0.1-0.2-0.4-0.3-0.5-0.1c0,0.1,0.1-0.1,0,0c-0.1,0-0.2-0.1-0.3,0
	c-0.3,0.1-0.5,0-0.3,0.3C50.8,18.5,50.5,19.1,50.7,19z M51.2,17.7c0.1-0.2,0.1,0.1,0.2-0.1c0-0.2,0-0.1,0.1-0.1c0-0.1,0-0.1,0-0.1
	s0.1,0,0.1-0.1c0.1-0.2,0,0.2,0.2,0.1c0.1,0,0.2-0.2,0.1-0.2c-0.1,0,0.1,0,0,0c-0.1,0,0-0.1,0-0.1c-0.3-0.1-0.1,0.1-0.3,0
	C51.5,17.1,50.7,17.8,51.2,17.7z M52.2,16.8H52C52,16.9,52.2,16.9,52.2,16.8z M47.3,22.7C47.3,22.7,47.4,22.6,47.3,22.7
	C47.5,22.6,47.3,22.6,47.3,22.7z M50.1,23.4c-0.3-0.3,0,0.4,0.1,0.4C50.2,23.7,50.1,23.6,50.1,23.4z M47.2,22.8
	c-0.2,0.2,0.2,0.2,0.2,0C47.6,22.8,47.4,22.7,47.2,22.8z M51.2,24.4c-0.1-0.1-0.4-0.4-0.6-0.3C50.6,24.2,51.3,24.8,51.2,24.4z
	 M74.4,31c0-0.1-0.1-0.2-0.1-0.1c-0.1,0.2-0.3,0.4-0.5,0.4c-0.2,0.2,0.1,0.5-0.1,0.7c-0.1,0.4,0.4,1,0.5,0.3
	C74.2,31.9,74.5,31.3,74.4,31z M82.9,30.4c-0.1,0.1,0,0.3,0.1,0.3c-0.1,0.1,0.1,0.2,0.1,0.2c0.1,0.2,0.1-0.2,0.2,0.1
	c0.1,0.2,0.1,0.1,0.1,0h0.1c-0.1,0-0.1-0.1-0.2-0.1s-0.1,0-0.1-0.1s0-0.2,0.1-0.1c0.1-0.1,0-0.3,0.1-0.4
	C82.9,29.9,83.1,30.6,82.9,30.4z M83.3,29.3c0.2-0.3-0.2-0.3-0.2,0C83.1,29.6,83.2,29.6,83.3,29.3z M82.8,31.2
	c0,0.1-0.3,0.2-0.3,0.3C82.6,31.5,82.9,31.2,82.8,31.2z M83.5,31.7C83.5,31.6,83.5,31.6,83.5,31.7c-0.1,0-0.2,0-0.2,0
	c-0.2,0-0.1,0-0.1-0.1c0,0-0.3,0.1-0.2,0.2c0.2-0.1,0.1,0,0.2,0c0,0.1,0,0,0,0c0.1,0,0,0.3,0.2,0.3c0,0,0.1,0.1,0.1,0s0-0.1,0-0.1
	s0,0.3,0,0.1C83.6,32.1,83.6,31.8,83.5,31.7C83.6,31.8,83.6,31.8,83.5,31.7z M82.4,34c0-0.1-0.2-0.2-0.2-0.1
	C82.2,34,82.4,34.1,82.4,34z M82.1,33.7C81.8,33.5,81.9,33.8,82.1,33.7C82.3,33.8,82.1,33.6,82.1,33.7z M82.5,33.9
	c0.1,0,0.3,0.1,0.4,0.1C82.9,33.9,82.7,33.9,82.5,33.9C82.4,33.7,82.2,33.9,82.5,33.9z M82.7,33.5C82.8,33.7,82.8,33.5,82.7,33.5
	C82.8,33.4,82.7,33.4,82.7,33.5z M81.3,32.2c0,0.1-0.1,0.3,0.1,0.3c0,0.1-0.1,0.4,0.2,0.3c0,0.2,0.1,0,0.2,0.1
	c0.2,0.1,0,0.2,0.3,0.1c0,0.2,0.1-0.1,0.1-0.2c0.2-0.1,0.2-0.4,0.3-0.3c0.2,0.1-0.1-0.2,0-0.4c0-0.1,0.1,0,0.1,0
	c-0.1-0.1,0-0.1,0.1-0.1c-0.1-0.1-0.1-0.3-0.2-0.3c-0.2,0.1-0.4,0.3-0.6,0.3c-0.1,0-0.3,0-0.2,0.2C81.4,32.1,81.3,31.8,81.3,32.2z
	 M82.9,34.2c0.1-0.1,0.6-0.1,0.2-0.2C82.9,34,82.6,34.2,82.9,34.2z M58,29.3c0.2-0.1,0.2,0.2,0.2-0.1c0.2-0.1,0.6-0.1,0.2-0.3
	C58.3,28.8,58,29,57.9,29C57.9,29,58,29.1,58,29.3C57.8,29.2,57.6,29.4,58,29.3z M65.9,17.2c0.1,0,0.1-0.1,0.1-0.1
	c0.1-0.1,0.2-0.1,0.1-0.2c-0.1,0-0.3-0.2-0.4-0.1c-0.1,0.2-0.3,0-0.2,0.2c-0.1-0.1-0.2-0.1-0.2,0c-0.2-0.2-0.1,0.4-0.3,0.1
	c0.2-0.1-0.1-0.2-0.2-0.1c0.1,0,0.1,0-0.1,0c0,0.1,0.1,0.1-0.1,0.1c-0.2,0.2,0.2-0.1,0.3,0c0,0-0.2,0.1,0,0.1
	c0.1,0.1-0.3,0.1-0.3,0.2s0.2-0.1,0.3,0s-0.1,0.1-0.1,0.2c0.2-0.1,0.2-0.1,0.4,0C65.6,17.5,65.7,17.3,65.9,17.2z M64.9,15.7
	c-0.3-0.6,0.8-1.3,0-1.7c0.2-0.3,0.4-0.3,0-0.6c-0.1-0.4,0.7-0.7,0.5-0.9c0.2-0.1,0.5-0.2,0.6-0.4c-0.2-0.2-0.7-0.1-0.9,0.2
	c-0.2,0-0.5,0.1-0.6,0.2c0.2-0.4,0-0.2-0.2-0.3c1-0.5-1-0.3-1.4-0.2s-0.5,0.1-0.7,0.4c-0.2,0-0.5,0-0.7,0.1C61,12.8,61,12.8,61.4,13
	c-0.3,0.1-0.8-0.1-1.1,0.1c-0.7,0.2-1.4,0.7-2,1.3c0.1,0.2,0.5-0.2,0.3,0.3c-0.5,0.4-1.7,0.6-0.4,1.1c0.4,0.2,1.3-0.5,1.6,0
	c0.1,0.2,0.4,0.5,0.3,0.7c-0.2,0.2,0.1,0.3,0.1,0.5c-0.2,0.5,0.3,0.3,0.5,0.1c0.1,0.3-0.4,0.3-0.3,0.6c-0.1,0.5,0.5,1.5,0.9,1.6
	c0.8,0.3,0.7-0.9,0.9-1.4c0.1-0.3,0.5-0.4,0.7-0.6c0.1-0.2,0.2-0.4,0.3-0.5C63.9,16.6,64.9,16.3,64.9,15.7z M81.7,29.5
	c0.1,0,0.2-0.2,0.1-0.2c0,0.1-0.2-0.1-0.3,0C81.5,29.4,81.7,29.6,81.7,29.5z M80.7,32.9c0-0.1,0.2-0.5,0-0.5c0-0.1,0-0.3-0.1-0.4
	c0.1-0.2-0.1-0.4-0.2-0.5c-0.2-0.3-0.3-0.8-0.6-0.9c0.1,0.3,0.3,0.8,0.4,1.1C80.2,32.1,80.4,32.9,80.7,32.9z M81.1,32.6
	C81,32.5,81,32.6,81.1,32.6C81.1,32.7,81.1,32.6,81.1,32.6z M81.6,33.5c-0.1-0.1-0.1-0.2-0.3-0.2c-0.1-0.1-0.1,0.1-0.1,0
	c-0.1,0-0.2-0.2-0.3-0.2c-0.1-0.1-0.3,0-0.1,0.1C80.9,33.3,81.3,33.4,81.6,33.5C81.7,33.7,81.8,33.5,81.6,33.5z M80.7,32.3
	c0,0,0.1,0.1,0.1,0.2C81,32.7,80.8,32.2,80.7,32.3C80.8,32.3,80.7,32.3,80.7,32.3z"/>
<polyline class="st2" points="127.7,10.6 137.6,26.1 127.7,41.6 "/>
</svg>
