<?xml version="1.0" encoding="utf-8"?>
<!-- Generator: Adobe Illustrator 24.2.0, SVG Export Plug-In . SVG Version: 6.00 Build 0)  -->
<svg version="1.1" id="Layer_1" xmlns="http://www.w3.org/2000/svg" xmlns:xlink="http://www.w3.org/1999/xlink" x="0px" y="0px"
	 viewBox="0 0 192.6 53" style="enable-background:new 0 0 192.6 53;" xml:space="preserve">
<path style="fill:#409385;" d="M136.3,22L98.7,0.6c-0.6-0.4-1.3-0.6-2-0.6l0,0c-1-0.1-2.1,0.1-3,0.7L56.4,22.4c-3.3,1.8-3.3,7,0,8.7
	L94,52.4c0.8,0.5,1.8,0.7,2.7,0.6l0,0c0.8,0,1.6-0.3,2.3-0.7l37.3-21.7C139.6,28.9,139.6,23.7,136.3,22z"/>
<path style="fill:#FFFFFF;" d="M94.2,18.5C94.3,18.6,94.2,18.6,94.2,18.5C94.1,18.5,94.2,18.5,94.2,18.5L94.2,18.5z M81.5,17.9
	c0,0.1-0.2,0-0.2,0s0.2-0.1,0.2-0.2c-0.1,0,0-0.1,0-0.1c-0.2,0-0.6,0-0.6,0.2c0.1,0,0.3,0.2,0.1,0.2c-0.1,0-0.4,0-0.3,0.1
	c0.2,0.1,0.4,0.2,0.5,0.3c0.1,0,0.4-0.3,0.3-0.4C81.5,18,81.7,18,81.5,17.9z M94,18.6C94.1,18.7,94.1,18.6,94,18.6
	C94.1,18.5,94,18.5,94,18.6z M84.3,18.7c0.2,0.2,0.3-0.1,0.3-0.3C84.5,18.4,84.2,18.6,84.3,18.7z M85,17.4c0-0.1-0.2,0-0.3,0
	c-0.3-0.2-0.5-0.4-0.8,0c-0.1-0.1-0.2,0.2-0.2,0c0.1-0.2-0.1-0.3-0.2-0.4c-0.2,0-0.3,0.2-0.5,0.2c0.1-0.2-0.2-0.1-0.4,0
	c-0.3,0.3-0.5,0.8,0.1,0.8c-0.1,0.1-0.5,0-0.1,0.2c0.1,0,0.2-0.1,0.2,0c0.2,0,0.6-0.1,0.8-0.1c-0.3-0.2,0.2,0,0.3-0.2
	c0.2,0.1,0,0.1,0,0.1c0-0.1,0.1,0,0.1,0c0.1,0,0.1,0,0.1,0.1c0,0,0.3,0,0.3,0.1c-0.1,0.1-0.1,0.3,0,0.1c0.1,0,0.6,0.2,0.4,0.4
	c-0.1,0.2-0.3,0.3-0.1,0.4c-0.1,0.1-0.9,0.2-0.5,0.5c0.1,0,0.3-0.2,0.4-0.1c0-0.1,0-0.1,0.1,0c0,0,0.1,0,0.2,0.1
	c0.1,0.1,0.3,0,0.1,0.1c0.2,0.1,0.5,0.2,0.8,0.1c0.1-0.2-0.4-0.1-0.4-0.3c0,0,0.2,0.1,0.1,0c0.1,0,0.5,0.3,0.4,0.1
	c0.1,0,0-0.1,0-0.2c0.1,0.1,0.1,0,0-0.1c-0.1,0-0.1-0.1-0.2-0.2c-0.1,0-0.1,0-0.1,0s0-0.3-0.1-0.1c-0.1-0.1,0-0.1,0.1-0.1
	c-0.1-0.1-0.1-0.2,0.1-0.2c0.1,0.2,0.4-0.2,0.2,0.2c0.2,0.2,0.3,0.2,0.3-0.1c0.1,0,0.4-0.1,0.1-0.2c0.1,0,0.3-0.1,0.1-0.2
	c-0.1,0-0.2,0.1-0.2,0.1c0.1-0.2,0,0-0.2-0.1c-0.1-0.1-0.8-0.1-0.5-0.2c-0.1-0.2,0.1-0.1,0.1-0.1c0-0.1-0.2,0-0.2,0
	c0.1-0.1,0.3-0.2,0.1-0.2c-0.1,0.1-0.1,0.2-0.2,0.1C85.7,17.5,85.2,17.4,85,17.4C84.9,17.8,84.9,17.6,85,17.4z M80.7,17.1
	C80.5,17.2,80.7,17.1,80.7,17.1c0,0.1,0.1,0.1,0.1,0.1c0.1-0.1,0.4-0.1,0.2,0c0,0-0.2,0.1,0,0.1c-0.1,0-0.1,0.1,0,0.1
	c0.1-0.1,0.2-0.1,0.3-0.1h-0.1c0-0.1,0-0.1,0.1-0.1c0-0.4-0.1-0.4-0.5-0.3c-0.1,0,0.1,0.1,0.1,0.1L80.7,17.1l0.2,0
	C80.9,17.1,80.6,16.9,80.7,17.1C80.6,17.1,80.7,17,80.7,17.1C80.8,17.1,80.8,17.1,80.7,17.1z M80.8,19l0.1-0.1c0.1,0.1,0-0.1,0,0
	c0.3-0.2-0.4-0.2-0.4-0.3c0.1-0.3-0.4-0.8-0.5-0.5c0,0.1,0.2,0.5,0,0.3c0-0.2-0.2-0.4-0.4-0.3l0.1,0.1h-0.1c-0.1,0.1-0.1,0.1-0.1,0
	c-0.2-0.2-0.3,0.1-0.4,0.1c0.3-0.5-0.7,0.2-0.5,0.2c-0.1,0.1-0.2,0.3,0,0.2c-0.1,0.1,0.2,0,0.3,0c0,0-0.3,0.1-0.3,0.2
	c0.2,0.2,0.6-0.1,0.9,0c0.1,0.1-0.2,0.1-0.3,0.1c-0.6,0.1-0.4,0.4,0.1,0.3c0.1,0,0,0.2,0.2,0.1c0.3-0.1,0.6-0.2,0.8-0.4
	c0,0.1,0.5,0.2,0.6,0C80.9,18.8,80.8,18.9,80.8,19C80.7,19,80.6,19,80.8,19z M81.2,19.1C81.2,19.1,81.3,19.1,81.2,19.1
	c0.1,0.1,0.1,0,0.2,0c0.3,0.2,0.6-0.2,0.2-0.3C81.3,18.7,81.4,19,81.2,19.1z M94.1,18.4C94,18.5,94.2,18.4,94.1,18.4
	C94.3,18.2,94,18.4,94.1,18.4z M83.8,19.8c-0.3,0-0.1-0.1-0.4-0.2c-0.1,0-0.2-0.1-0.2,0c0,0-0.1,0,0,0c0.1-0.3-0.2,0-0.1,0.1
	c0,0.2,0,0.3-0.1,0.4l0.2-0.1c0,0,0,0.2,0.1,0.1c0.1-0.1,0.2-0.3,0.3-0.3C83.5,20,83.8,20,83.8,19.8z M82.1,17.1
	c0,0.1,0.1-0.1,0.2-0.1c0.1,0.1,0.2-0.1,0.3,0v-0.1c0,0.2,0.3,0.1,0.3,0c0.2,0,0.4,0,0.4-0.2c0.2,0.2,0.4,0,0.6-0.1h-0.1
	c0,0,0.1,0,0.1-0.1c-0.2-0.2-0.9,0.1-0.8,0.2c-0.1,0-0.3,0-0.3,0.1c-0.2-0.1-0.4-0.1-0.2-0.2c-0.1,0-1.3-0.2-0.9,0.2
	C82,16.8,82.1,16.5,82.1,17.1z M84.6,18.5c0,0.1,0.2,0.1,0.2,0C84.8,18.4,84.6,18.4,84.6,18.5z M82.5,14.7c-0.5,0.5,0.4,0,0.5,0
	c0,0.1-0.5,0.2-0.5,0.3c0.2,0.1,0.5-0.2,0.6-0.2c-0.1,0.1-0.4,0.3,0,0.2c0.1,0,0.1-0.2,0.2-0.2c-0.1,0.1,0.1,0,0.1,0
	c-0.3,0.4,0.5-0.2,0.6-0.3c0,0-0.1,0.2-0.2,0.2c0,0,0.2,0,0.1,0c-0.1,0.2-1.1,0.2-0.5,0.5c-0.2-0.1-0.5-0.2-0.7,0
	c-0.1,0.2,0.5,0.2,0.4,0.4c-0.1-0.1-0.9,0.3-0.4,0.3c0.1,0,0.2-0.2,0.2-0.2c-0.2,0.5,0.2,0.3,0.3,0.1c0,0-0.2,0.3-0.3,0.3
	c-0.1-0.1-0.3-0.2-0.4,0c0,0.1,0.1,0.1,0.1,0.1c0,0.1-0.3,0.2-0.3,0.2c0,0.2,0.1,0,0.1,0c0.1,0.1,0.2,0,0.3,0c0.2,0,0.8-0.4,0.8-0.1
	c0.1,0,0.7-0.4,0.3-0.4c-0.2,0.1,0-0.2,0.1-0.2c0.1-0.1-0.1-0.1,0-0.1s0.5-0.2,0.2-0.3c0.3-0.1,0.3-0.2,0-0.2c0.4,0,0.2-0.2,0-0.1
	c0.1,0,0.6-0.1,0.5-0.3c0.2,0.1,0.6-0.3,0.2-0.2c0.3-0.1,0.8-0.5,0.9-0.7c-0.2,0-1.2,0.6-0.3,0.1c-0.6,0.1,0.8-0.2,0.7-0.5
	c0-0.1-0.4,0-0.5,0c-0.1,0-0.4,0.2-0.4,0.2c0.7-0.4-0.9,0-0.7,0.2c-0.1-0.1-0.9-0.1-0.4,0.1c-0.4-0.1-1.4,0.3-0.5,0.4
	c-0.2,0.1-0.6-0.1-0.9-0.1c0.1,0.1,0,0.1-0.1,0.1C83.1,14.4,82.5,14.5,82.5,14.7C81.8,14.8,82.2,15,82.5,14.7z M80.9,16.5
	c0-0.1-0.3,0-0.1,0.1C80.8,16.5,80.9,16.5,80.9,16.5z M83.9,20.4c0,0,0.1-0.2,0-0.2C83.8,20.2,83.8,20.4,83.9,20.4z M93.8,19.9
	c-0.1,0.2,0.4-0.2,0.5-0.2c0-0.1,0-0.2,0-0.3c0.2-0.1,0.1-0.4-0.1-0.3c0.1-0.1-0.2,0.1-0.2,0.1c0.1,0,0.1,0,0,0.1
	c-0.2-0.1-0.1,0.2-0.2,0.2h0.1c-0.1,0.1-0.2,0.2,0,0.1C93.8,19.7,93.6,19.9,93.8,19.9C93.7,19.9,93.7,19.9,93.8,19.9z M83.4,20.3
	c0,0.2,0.3-0.1,0.3-0.2C83.6,20.1,83.3,20.2,83.4,20.3z M81.9,17.1c0-0.3-0.4,0-0.4,0.1C81.6,17.3,82,17.3,81.9,17.1z M80.3,16.2
	c0,0,0.2-0.1,0.1,0c0,0,0.1-0.1,0.1,0s-0.2,0-0.2,0.1s0.3-0.1,0.5,0c0.1,0.1,0.3,0.2,0.3-0.1c-0.1-0.1,0-0.1-0.1-0.2
	c-0.2,0-0.2-0.1-0.4,0C80.6,16,80.3,16,80.3,16.2C80.2,16.2,80.3,16.1,80.3,16.2C80.4,16.2,80.3,16.2,80.3,16.2z M80.4,16.8
	c0.2,0-0.1-0.2-0.2-0.2C80.2,16.7,80.3,16.8,80.4,16.8z M81.2,15.6c-0.1-0.1-0.2,0-0.2,0.1C81.1,15.8,81.2,15.7,81.2,15.6z
	 M81.4,16.2c-0.1,0.1-0.2,0.1,0,0.1c0.2,0,0.5-0.3,0.1-0.3C81.3,15.9,81.1,16.2,81.4,16.2z M79.4,16.7c-0.5,0.2,0.3,0.3,0.3,0h-0.1
	c0,0,0.2-0.1,0.1-0.1S79.5,16.7,79.4,16.7z M79.6,17.2c0,0.1,0.2,0,0,0.1c0.4,0-0.1,0.2-0.2,0.1c0-0.1-0.2,0-0.1-0.1
	c-0.1-0.2-0.8,0-0.4,0c-0.3,0-0.4,0.3,0,0.1c-0.2,0-0.5,0.3,0,0.1c-0.1,0-0.5,0.3-0.1,0.2l0,0c0.1,0.1,0.1-0.1,0.2,0
	c0.1,0,0.1-0.3,0.2-0.1c0.1,0,0.3-0.1,0.3-0.1l-0.4,0.2c0.3,0.1,0.7-0.4,1-0.4c0.2-0.1,0-0.5-0.1-0.2C79.9,17.3,79.8,16.8,79.6,17.2
	z M81.4,15.5c0,0.1,0.2,0.1,0.3,0.1c0,0-0.2,0.1-0.1,0.1c0.1,0.1,0.1,0,0.2,0c0,0.1,0.3-0.2,0.4-0.1c0,0-0.2,0-0.2,0.1l0.3-0.1
	c0,0-0.8,0.2-0.3,0.2c-0.2,0.1,0.1,0,0.2,0c0,0-0.2,0-0.1,0.1c0,0.1,0.3,0,0.3,0c0.1,0-0.1,0,0-0.1c0,0,0.1,0,0.2,0
	c-0.1-0.2-0.1-0.1,0.1,0c0-0.3,0.1,0,0.1-0.3c0,0.1,0.1,0.1,0.1,0c0.1-0.1,0.4-0.2,0.1-0.3c0,0,0,0.1,0,0s-0.2,0.1-0.2,0
	s-0.1-0.3-0.2-0.2s0.1,0.1,0,0.1h-0.1c0-0.2-0.2,0-0.3-0.1s-0.4-0.2-0.5-0.1h0.2c-0.1,0.1-0.5,0.2-0.2,0.2c-0.1,0-0.2,0.2-0.3,0.2
	c0.1,0,0.2,0,0.3,0c0,0-0.1,0,0,0.1C81.7,15.5,81.5,15.5,81.4,15.5z M80.5,17.1c0,0.1,0.3,0,0.2-0.1C80.6,17,80.4,17,80.5,17.1z
	 M78.7,17.5c0,0-0.2,0.1-0.2,0.2C78.5,17.8,78.7,17.6,78.7,17.5z M94.2,18.6C94.2,18.6,94.2,18.7,94.2,18.6
	C94.2,18.7,94.2,18.6,94.2,18.6z M80.1,18c0.1,0.1,0.3,0.2,0.3-0.1C80.4,17.8,80.1,17.9,80.1,18z M80.5,17.4
	C80.5,17.3,80.4,17.3,80.5,17.4C80.3,17.5,80.5,17.4,80.5,17.4z M80.4,17c0,0.1,0.2,0.1,0.2,0S80.4,16.9,80.4,17z M81.9,16.3
	c0.2-0.2-0.3-0.1-0.3,0C81.5,16.5,81.9,16.4,81.9,16.3z M83.8,17.3c0.1,0.1,0.4-0.1,0.5-0.1C84.2,16.9,83.4,16.9,83.8,17.3z
	 M82.2,16.2c-0.1,0.1,0.2,0.1,0.2,0C82.4,16.2,82.3,16.1,82.2,16.2z M82.3,16.4c0,0.1,0.1,0.1,0.1,0.1S82.4,16.3,82.3,16.4z
	 M115.2,19.1c0.1,0.1,0.7,0.1,0.3-0.1c-0.3-0.1-0.1-0.1-0.4-0.2C114.9,18.7,115,19.1,115.2,19.1z M101.7,15.5
	c0.1,0.2,0.6,0.5,0.7,0.4c0-0.1-0.3-0.3-0.2-0.5c0.4-0.9,1.5-0.4,2.1-0.7c0-0.2-0.2-0.2-0.4-0.2c-0.6,0.1-1.3-0.3-1.9,0.3
	c-0.1,0.1,0,0.2-0.2,0.2C101.8,15.2,101.5,15.3,101.7,15.5z M102.4,12.9c0,0-0.2-0.1-0.3,0C102.1,12.9,102.4,13,102.4,12.9z
	 M103.1,12.7l-0.1-0.1c0.6,0-0.2-0.1-0.3,0C102.7,12.7,103,12.8,103.1,12.7z M102.6,16.1c0,0,0.2,0.3,0.2,0.2
	C102.9,16.3,102.6,16,102.6,16.1z M103.2,13.2l-0.1-0.1C103,13.2,103.2,13.3,103.2,13.2z M102.9,12.9c0-0.1-0.4-0.2-0.5-0.1
	C102.5,12.8,102.8,12.9,102.9,12.9z M101.5,12.5c-0.5,0.1,0,0.1,0.1,0.2c-0.1-0.2,0.3,0,0.4-0.1c-0.1-0.2-0.7-0.2-0.9-0.2
	C101.1,12.5,101.5,12.5,101.5,12.5z M101.1,16c0.1,0.1,0.2,0,0.2,0C101.3,15.9,101,15.8,101.1,16z M97.6,14.9l0.2-0.1
	C97.7,14.9,97.6,14.8,97.6,14.9z M79.4,16.6c0.1-0.1,0.4,0,0.4-0.1C79.6,16.3,78.9,16.8,79.4,16.6z M103,13c0,0-0.4-0.1-0.4,0
	S103.1,13.2,103,13C103.1,13.1,103.2,13.1,103,13z M113.9,18.6c0.1,0.2,0.3,0.1,0.6,0.1c0.1,0,0,0.1,0.1,0.1s0.2,0,0.1-0.1
	c0,0.1,0.3,0.1,0.3,0c-0.1-0.1-0.6-0.6-0.6-0.2C114.2,18.2,113.6,18.2,113.9,18.6z M94.2,19C94.2,19,94.2,18.9,94.2,19
	C94.2,18.9,94.2,18.9,94.2,19z M114.3,19.2c0.5,0.4,0.1-0.3-0.1-0.3C114.1,18.9,114.2,19,114.3,19.2
	C113.9,19.2,114.2,19.1,114.3,19.2z M104,13.2c0.2-0.1-0.1-0.3-0.1-0.1C103.5,13,103.7,13.3,104,13.2z M103.2,13.1
	c0.1,0,0.2,0.2,0.4,0.1C103.7,12.9,102.9,12.9,103.2,13.1z M108.7,15.9c0.1,0,1.1,0.4,0.8,0c-0.1-0.1-0.2-0.2-0.3-0.2h0.1
	C109.1,15.4,108.8,15.8,108.7,15.9z M107.7,15c0.3,0,0.3,0.3,0.5,0.4c0.2,0,0.7,0.5,0.6,0.1c0.2-0.2-0.1-0.2-0.2-0.2
	c0.2-0.1,0,0-0.1-0.2c0.1-0.2,0.1-0.2-0.2-0.4c-0.1,0-0.2,0.1-0.3,0c-0.1,0-0.1,0-0.1,0.1C107.8,14.7,107.5,14.8,107.7,15z
	 M119.2,21.2c0.1,0.1,0.6,0,0.3-0.2C119.3,20.8,118.8,21.2,119.2,21.2z M96.9,15.2C96.9,15.2,96.8,15.2,96.9,15.2
	C96.9,15.3,96.9,15.2,96.9,15.2z M96.6,15.5C96.6,15.5,96.7,15.5,96.6,15.5C96.7,15.4,96.6,15.4,96.6,15.5z M96.8,15.2
	C96.8,15.2,96.7,15.3,96.8,15.2C96.8,15.4,96.9,15.3,96.8,15.2z M94.6,18.1C94.6,18.1,94.7,18.1,94.6,18.1
	C94.7,18.1,94.6,18.1,94.6,18.1C94.6,18,94.6,18.2,94.6,18.1z M97.7,14.9C97.8,14.8,97.8,14.8,97.7,14.9c0-0.1-0.1-0.1-0.1-0.1
	C97.6,14.8,97.7,14.9,97.7,14.9z M94.2,18.9C94.3,18.9,94.3,18.8,94.2,18.9C94.3,18.8,94.2,18.9,94.2,18.9z M96.8,15.4
	C96.8,15.4,96.7,15.4,96.8,15.4C96.7,15.5,96.8,15.4,96.8,15.4z M94.3,18.9C94.3,18.9,94.4,19,94.3,18.9
	C94.4,19,94.4,18.9,94.3,18.9z M94.3,18.5C94.3,18.6,94.3,18.5,94.3,18.5c0,0.1-0.1,0.2-0.1,0.2c0,0.1,0.1,0,0.1,0l0.1-0.1
	c-0.1,0.1-0.1,0.5,0,0.2c0-0.2,0,0,0.1-0.1c0.1,0-0.1,0.3,0,0.3c0-0.1,0,0,0.1,0l0.2-0.1v0.2c0.1,0,0,0.2,0,0.2c-0.1,0,0,0,0,0
	c-0.1,0-0.2,0-0.2,0v0.1c0,0,0.1-0.1,0.1,0c0.1,0.1-0.2,0.2-0.1,0.3c0.1,0,0.1,0,0.2,0c0.1-0.1,0.2-0.1,0.1,0
	c-0.2,0-0.3,0.2-0.3,0.3c0.1,0,0.3-0.1,0.4-0.2c0.1-0.1,0.1-0.1,0.3-0.1c0.1,0,0.4-0.1,0.2-0.2c0,0,0.1-0.2,0.2-0.3
	c0.1-0.1-0.2,0-0.2,0s-0.1-0.1-0.1-0.2c0.2,0.1-0.1-0.1-0.1-0.3c0-0.2-0.4-0.1-0.2-0.2c0.2-0.3,0.1-0.4-0.2-0.2c0-0.1,0.1-0.1,0-0.1
	l0.2-0.2l-0.2,0.1c-0.1,0,0,0.1-0.1,0.1c-0.1,0.1,0.2,0.1-0.1,0.1C94.3,18.5,94.2,18.5,94.3,18.5z M94.5,19.2
	C94.5,19.2,94.4,19.2,94.5,19.2C94.5,19.3,94.5,19.2,94.5,19.2z M97,15.3l0.1-0.1C97.1,15.2,97,15.3,97,15.3z M97.2,15
	C97.2,15,97.2,15.1,97.2,15C97.2,15.1,97.3,15,97.2,15z M97.1,15.1C97,15.1,97,15.1,97.1,15.1C97,15.3,97.3,15,97.1,15.1z M97.3,15
	C97.3,14.9,97.2,15,97.3,15C97.3,15,97.4,15,97.3,15z M96.9,15.3C96.9,15.4,96.9,15.3,96.9,15.3c-0.1,0-0.1,0.1-0.1,0.1
	C96.7,15.5,97.1,15.3,96.9,15.3z M96.9,15.5c-0.1,0.1,0,0,0,0.1C96.8,15.6,96.9,15.5,96.9,15.5z M96.9,15.4
	C96.9,15.4,96.8,15.5,96.9,15.4C96.9,15.5,97,15.3,96.9,15.4z M97.4,15c0,0-0.2,0-0.2,0.1C97.3,15.1,97.4,15,97.4,15z M97.5,14.9
	C97.4,14.9,97.4,14.9,97.5,14.9C97.5,15,97.5,14.9,97.5,14.9z M104.4,15.8c-0.2,0.1,0.1,0.2,0.1,0.1
	C104.5,15.9,104.4,15.8,104.4,15.8z M111.5,27.9C111.5,27.9,111.5,28.1,111.5,27.9c0.2,0.1-0.1,0.5,0.1,0.5c0.2-0.1,0.3-0.4,0.1-0.5
	c0.1,0,0.2,0,0.3,0c0.4-0.1,0.2,0.1,0.3,0.3c0.1,0,0.1-0.1,0.2-0.1c0,0,0-0.2,0-0.1c0.1,0.2,0.3-0.1,0.3,0.1c0.2-0.3,0,0.1,0.2-0.1
	c0.1-0.5,0.3-0.6,0.2-1.1c0-0.1-0.1,0.1-0.1,0.1c-0.1-0.1-0.2,0.2-0.1,0.2c0,0.2-0.5,0.7-0.4,0.3c-0.1,0-0.2,0.2-0.3,0.3
	C112.1,27.4,111.8,27.7,111.5,27.9z M110.7,32.7c-0.2,0-0.2,0.4-0.1,0.4c0,0,0-0.2,0.1-0.1c0,0-0.1-0.1,0-0.1s0-0.1,0-0.1
	C110.6,32.8,110.7,32.7,110.7,32.7z M112.8,36.8c0-0.2,0-0.2-0.1-0.2c0-0.3-0.2-0.4-0.3-0.6c0-0.2,0.1-0.6-0.2-0.7
	c0-0.2,0-0.9-0.3-0.3c-0.1,0.2-0.1,0.7-0.3,0.7c-0.1-0.2-0.6-0.4-0.4-0.6c0.4-0.3-0.1-0.4-0.3-0.5c-0.1,0,0,0.1,0,0.1
	c-0.2-0.2-0.4,0-0.5,0.2c-0.4-0.5-0.8,0.2-1.2,0.5c-1.2-0.1-1.1,0.5-1,1.6c0.1,0.4-0.4,0.7,0.3,0.7c0.2-0.2,0.6,0.1,0.7-0.1
	c0.5-0.2,1.3,0,1.4,0.5c0.1,0,0.2-0.3,0.3-0.3c0,0.1-0.4,0.5,0,0.2c0,0.3,0.2,1,0.6,0.8c0.2-0.1,0.2,0.2,0.4,0.1
	C112.4,38.8,113.4,37.4,112.8,36.8z M110.2,33.4C110.2,33.5,110.3,33.5,110.2,33.4C110.4,33.4,110.3,33.3,110.2,33.4z M110.6,34.6
	C110.5,34.6,110.5,34.6,110.6,34.6C110.5,34.7,110.8,34.7,110.6,34.6z M113.5,34.2c0.1-0.1-0.1-0.3-0.2-0.3
	C113.3,33.9,113.5,34.1,113.5,34.2z M111.9,39.4c-0.2,0-0.2,0-0.4-0.1C111.2,39.9,112,40,111.9,39.4z M113.1,34.2
	c-0.4-0.1,0.3,0.3,0.3,0c0.1-0.1-0.1-0.2-0.1,0C113.2,34.3,113.2,34.1,113.1,34.2z M112.6,34.1c-0.1-0.4-0.9-0.9-1.2-0.5
	c-0.2-0.1,0-0.6-0.5-0.4c0,0.1,0.1,0,0.1,0.2c0,0.1,0.3,0,0.2,0.1c-0.2-0.1-0.3,0-0.1,0.2c0.2-0.1,0.1,0,0.2,0.1
	c0.3,0.2,0.6,0.3,0.3,0.6c0.3,0,0.3,0.3,0.6,0.2c0.3-0.5,0.6,0.4,0.9,0.4c-0.1-0.2-0.2-0.4-0.3-0.5c-0.1-0.2,0-0.1,0.1-0.1
	C112.8,34.3,112.7,34.2,112.6,34.1z M113.6,24.8c0,0.2-0.3,1.3,0,0.9c0.2,0.4,0-0.1,0-0.3c0.1-0.3,0.3-0.1,0.3,0
	c0-0.3-0.2-0.7,0-1.1c0-0.3-0.1-0.2-0.1,0C113.5,24.2,113.6,24.6,113.6,24.8z M110.3,31.6C110.4,31.6,110.4,31.6,110.3,31.6
	C110.3,31.5,110.2,31.6,110.3,31.6z M110.2,31.6c0,0,0.2-0.1,0.1-0.2C110.3,31.4,110.2,31.6,110.2,31.6z M110.5,31.4
	C110.4,31.4,110.3,31.4,110.5,31.4c0,0,0,0.3,0,0.1C110.5,31.7,110.5,31.4,110.5,31.4z M110.3,31.2
	C110.4,31.4,110.4,31.2,110.3,31.2C110.3,31.3,110.2,31.3,110.3,31.2z M110.4,31.2v0.1c0,0,0,0,0,0.1
	C110.6,31.5,110.5,31.2,110.4,31.2z M110.1,31.3c-0.1,0.1,0,0.2,0.1,0.2l-0.1,0.1c0.1,0.2,0.1-0.1,0.2-0.2
	C110.3,31.3,110.2,31.2,110.1,31.3z M109.5,32.8c-0.1,0.1-0.1,0.2,0,0.4c-0.1,0.1-0.1,0.3,0.1,0.2c0,0,0-0.4,0.1-0.4
	c0,0,0,0.1,0,0.2c0,0.1,0.1,0.1,0.2,0c0-0.1-0.1-0.1,0-0.2c-0.2,0-0.2,0,0.1,0c0.1-0.1-0.2-0.1-0.2-0.1c-0.1,0-0.2-0.2-0.1-0.2
	c0.2-0.1,0.5,0.3,0.6,0c-0.1,0-0.1,0.1-0.3,0C109.7,32.4,109.6,32.7,109.5,32.8z M110,30.9c0,0,0,0.2,0.1,0.2
	C110.1,31.1,110,30.9,110,30.9z M108.7,33.6C108.7,33.6,108.8,33.7,108.7,33.6C108.9,33.6,108.8,33.5,108.7,33.6z M113.2,26.3
	c0,0.1-0.2,0.2-0.1,0.4c0.2-0.1,0-0.1,0-0.2c0.2,0,0.2,0.1,0.4,0.2c0-0.2,0.3-0.1,0.3-0.2c0-0.3,0-0.1-0.2-0.3
	c-0.1-0.1-0.1-0.2-0.2-0.3C113.3,25.8,113.4,26.5,113.2,26.3z M96.4,18.6c0,0,0,0.1,0.1,0.1S96.5,18.5,96.4,18.6z M99.5,23
	c0,0.1-0.2,0-0.3,0.1C99.2,23.2,99.5,23.1,99.5,23z M98.5,23c0-0.1-0.3,0-0.3-0.1C98,23,98.4,23,98.5,23z M96.6,18.6
	c-0.1,0.1,0.1,0.1,0.1,0.2c0,0,0-0.1,0.1-0.1c0,0-0.1,0,0-0.1C96.8,18.5,96.7,18.4,96.6,18.6C96.7,18.6,96.6,18.5,96.6,18.6
	C96.6,18.4,96.6,18.5,96.6,18.6z M98,17.9c-0.1-0.1-0.2,0-0.1,0.1C97.8,18,98,17.9,98,17.9z M96.2,22c-0.1,0.2,0,0.5,0.1,0.1
	c0-0.1,0.1-0.4-0.1-0.3C96.1,21.9,96.2,21.9,96.2,22z M120.2,23.2c-0.3-0.1-0.2,0.1,0,0.1C120.5,23.5,120.3,23.2,120.2,23.2z
	 M97.4,18.2c0.1,0,0.1-0.1,0.1-0.2C97.4,18,97.4,18.2,97.4,18.2z M97.6,17.5C97.6,17.5,97.6,17.4,97.6,17.5
	C97.7,17.4,97.5,17.4,97.6,17.5z M96.2,21.6c0,0.3,0.2-0.1,0.1-0.2C96.3,21.5,96.3,21.6,96.2,21.6z M113.8,34.4
	C113.7,34.2,113.7,34.4,113.8,34.4C113.9,34.6,113.9,34.4,113.8,34.4z M112.1,28c0.2,0.2,0.2-0.3-0.1-0.1
	C111.8,27.9,111.9,28.2,112.1,28z M110.4,33.4C110.3,33.5,110.5,33.5,110.4,33.4l0.3,0.2C110.8,33.5,110.5,33.3,110.4,33.4z M115,40
	c0-0.3-0.2,0-0.3,0.2c-0.2,0.2-0.5,0.2-0.7,0.4c-0.1,0.1,0.1,0.1,0.1,0.1c0.3,0.3,0.4-0.3,0.7-0.4c0,0,0,0.1,0.1,0
	C114.9,40.2,115.1,40.1,115,40C115.2,39.9,115.1,39.9,115,40z M114.2,40.8C114.2,40.7,114.1,40.8,114.2,40.8
	C114.2,40.8,114.3,40.8,114.2,40.8z M115.8,39.5c-0.2,0.1-0.3-0.1-0.3-0.2c-0.1,0.1-0.1,0-0.1-0.1s-0.3-0.5-0.2-0.1
	c0.1,0.1,0.2,0.5,0,0.6c0.1,0.2,0.3,0.1,0,0.3c0.1,0.2,0.3-0.1,0.3-0.2c0-0.1,0.1-0.1,0.1,0C115.7,39.7,115.9,39.5,115.8,39.5z
	 M95.4,22.3C95.4,22.4,95.5,22.4,95.4,22.3C95.5,22.2,95.4,22.2,95.4,22.3z M120,22.7c0,0,0,0.1-0.1,0.1s0,0.1,0,0.1
	c-0.1,0-0.3-0.1-0.3-0.2c0-0.2-0.2-0.2-0.3-0.3c-0.1,0,0-0.2-0.1-0.2s-0.1,0.1-0.1,0.2s-0.4,0.1-0.4,0.1c0.1,0.1,0.3,0.7,0,0.5
	s-0.9,0.3-1.1,0.4c-0.1-0.1-0.4-0.2-0.5,0c-0.1,0,0-0.1,0-0.1s-0.1,0.1-0.2,0c-0.2-0.2-0.4,0.3-0.5,0.4c0,0.1,0.2,0.1,0.2,0.2
	c-0.1,0.1,0,0.2,0,0.3c-0.2,0.1-0.1,0.4-0.3,0.4c-0.2,0-0.1,0.2-0.2,0.3c-0.1,0-0.1,0.1-0.2,0.1c-0.5,0.9-0.5-1.1,0-1.2
	c0.3-0.2,0.6-0.4,0.9-0.6c0.1-0.1,0.1-0.3,0.2-0.3c-0.1-0.1-0.2-0.1-0.3,0.1c-0.3,0.2-0.4,0.3-0.3-0.1c-0.3,0-0.7,0.1-0.8,0.3
	c0,0.1,0.1,0.2-0.1,0.2c-0.1,0-0.3,0-0.3,0c0.2-0.1-0.1-0.1-0.2-0.2c-0.3,0.1-0.6-0.2-0.9-0.1c-0.1,0.2-1.4,0.7-1,0.8
	c0.1,0.1,0.1,0.4,0.4,0.2c0.8,0.2-0.2,1.6-0.6,1.9c-0.2,0.1-0.3,0.3-0.5,0.2c-0.1-0.1-0.1-0.2-0.2-0.1s-0.4,0.4-0.5,0.6
	c0.1,0.2,0.3,0.8,0,0.9c-0.3,0.1-0.3-0.1-0.2-0.3c-0.1-0.1,0.1-0.3,0-0.4c-0.3,0-0.1-0.2-0.1-0.3c-0.1-0.4-0.3,0-0.5-0.1
	c-0.1-0.1,0.1-0.2,0.2-0.3c0-0.1-0.1-0.1-0.1-0.1c-0.3,0.2-0.6,0.1-0.4,0.5c0,0.2,0.4,0,0.5,0.2c-0.7,0.4-0.3,0.4-0.2,1
	c0,0.1-0.2-0.2-0.2-0.1c0,0,0.2,0.2,0.2,0.3c0,0.1-0.2,0-0.2,0.1c0.5,0.2-0.3,0.9-0.6,1c-0.3,0.1-0.8-0.1-0.8,0.1s-0.1,0-0.1-0.1
	c0.2-0.2-0.6-0.3-0.5,0.1c0.2,0.6,0.7,1.5-0.3,1.6c0-0.2-0.2-0.7-0.4-0.9c0-0.2-0.1-0.2-0.1,0c-0.3,0.6,0.4,1,0.2,1.6
	c0,0.1,0.1,0.3,0,0.3c-0.4-0.3-0.2-1-0.6-1.4c0-0.4,0.1-1.1,0-1.5c0-0.1-0.1,0.1-0.1,0.1c-0.3,0.1-0.2-0.2-0.1-0.4
	c0-0.3-0.3-0.7-0.3-0.9c-0.2,0-0.4-0.1-0.6-0.1c-0.1,0.2-0.6,0.5-0.8,0.5c-0.2,0.4-0.1,0.9,0.1,1.4c-0.1,0.4-0.3-0.2-0.2-0.3
	c0-0.3-0.1-0.3-0.1-0.1c-0.3,0.1-0.4-0.9-0.5-1.1c-0.2-0.4-0.1-0.9-0.1-1.3c-0.1-0.1-0.1,0.2-0.2,0.1c-0.1,0-0.2-0.3-0.2-0.3h0.2
	c-0.1,0-0.2-0.2-0.3-0.3c-0.1-0.6-1-0.3-1.3-0.8c-0.1-0.3-0.5-0.1-0.6-0.4c-0.2-0.5-0.7-0.9-0.4-0.2c0,0.1,0.2,0.5,0.2,0.5
	c0,0.1,0-0.2,0-0.2s0,0.3,0.1,0.4c0.2,0.2,0.5,0,0.6-0.2c0,0.1,0,0.4,0.2,0.5c0.2,0.1,0.3,0.5,0.1,0.6c0-0.1-0.1,0.1-0.1,0.2
	c0,0.2-0.3,0.1-0.4,0.3c-0.1,0-0.1-0.1-0.2,0c-0.2,0.2-0.7,0.3-1,0.4c-0.3-0.1-0.2-0.8-0.4-1.1c-0.3-0.5-0.4-1.2-0.8-1.7v-0.2
	c0,0,0,0.3-0.1,0.3s-0.2-0.4-0.2-0.4c0.1,0.6,0.5,1.4,0.6,2c0.2,0.1,0.2,0.4,0.3,0.6c0.2,0.2,0.4,0.4,0.4,0.6c0.3,0.7,1.6-0.6,0.7,1
	c-0.2,0.5-1.1,0.9-1.2,1.6c0,0.5,0.5,1.2,0,1.6c-0.7,0.2-0.4,0.6-0.4,1c-0.3,0.1-0.3,0.2-0.3,0.6c-0.3,0.5-0.7,0.9-1.2,0.9
	c-0.4,0.2-0.5-0.2-0.6-0.5c-0.2-0.4-0.4-0.6-0.4-1.1c-0.2-0.5-0.5-0.9-0.2-1.5c0.2-0.9-0.7-1.4-0.5-2.2c0.1-0.4-0.3-0.3-0.5-0.3
	c-0.2-0.3-0.5-0.2-0.7-0.1c-0.2,0.2-0.5,0.3-0.7,0.3c-0.2,0.1-0.3,0.3-0.5,0.1c-0.5-0.2-1.2-1-1.1-1.5c0.2-0.3-0.1-0.7-0.1-1
	c0.2-0.6,0.6-1.3,1-1.8c0-0.5,0.4-0.8,0.6-1.2c0.2,0.1,0.1,0.1,0.3,0c0.2,0.1,0.6-0.4,0.8-0.4c0.1-0.1,0.2,0,0.3,0
	c0.1-0.1,0.4-0.1,0.5-0.2c0.3-0.2,0.2,0.4,0.1,0.6c0.1,0.2,0.4,0.2,0.6,0.3c0.1,0.2,0.2,0.2,0.4,0.3c0.2,0.2,0.3-0.1,0.2-0.2
	c0-0.2,0.4-0.3,0.4-0.1c0.2,0,0.2,0.2,0.3,0.1c0.2,0.2,0.5,0,0.7,0.1c0.1,0.1,0.3,0.1,0.4-0.1c0.1-0.2,0.3-1,0.1-0.8
	c-0.1-0.1-0.1,0.1-0.3,0c-0.2-0.1-0.2-0.2-0.4-0.1c-0.2,0-0.4-0.5-0.4-0.7c0-0.1-0.1,0.1-0.1,0c0-0.2,0.3-0.1,0.4-0.2
	c-0.1-0.1-0.1-0.1,0.1-0.1c0.1,0.1,0.2-0.2,0.3-0.1c0.2,0,0.2,0.1,0.4,0.2c0.8,0.4,0.8-0.1,0.2-0.6c-0.1-0.1-0.3-0.3-0.1-0.2
	l0.1-0.1l-0.1-0.1c0.1,0,0.3-0.1,0.1-0.1c-0.3,0-0.7,0.2-0.2,0.4c0,0-0.1,0-0.2,0l-0.2,0.1c0-0.1-0.1-0.2-0.1-0.2
	c0.3-0.2-0.1-0.1-0.1-0.3c0.3,0.1,0-0.1-0.1,0c-0.2,0.1-0.1,0.3-0.2,0.4c-0.1,0.3-0.2,0.5,0,0.7c-0.2,0-0.2,0-0.3,0.2
	c0-0.1,0.1-0.1,0-0.2c-0.1,0-0.2-0.1-0.3,0c0,0.1-0.1,0.1-0.1,0.1c-0.1,0.1,0.1,0.2,0,0.3c0,0,0.2,0.2,0.1,0.2c-0.2-0.1,0,0-0.1,0.1
	c-0.1,0,0,0.1,0,0.1c-0.2-0.1-0.3-0.1-0.2-0.3c-0.3-0.1-0.2-0.6-0.4-0.8c-0.3-0.2-0.4-0.4-0.5-0.6c-0.1,0-0.1,0.1-0.1,0
	c-0.1-0.2-0.2,0.2-0.2,0.3c0.2,0.1,0.2,0.2,0.2,0.3c0.1,0.1,0.5,0.3,0.5,0.5c-0.1,0.1-0.1-0.2-0.2-0.1c-0.1,0.1-0.1,0.1,0,0.2
	c0,0.2-0.3,0.2-0.2,0.5c0,0.2-0.4-0.2-0.3-0.2c0.3,0,0.6-0.1,0.4-0.4c-0.1,0-0.1-0.1-0.1-0.1c0-0.1-0.2-0.1-0.3-0.2
	c-0.2-0.1-0.2-0.6-0.5-0.4c-0.2,0.4-0.6,0.1-0.7,0.4c0,0.2,0,0.3-0.2,0.4c-0.3,0.2-0.2,0.5-0.3,0.8c-0.2,0.3-0.4,0.1-0.6,0.4
	c-0.1,0-0.1-0.1-0.1-0.2c-0.1-0.1-0.3,0-0.3,0c0-0.1,0-0.2,0-0.3c-0.2,0,0.1-0.4,0-0.6c0-0.2-0.2-0.4,0.1-0.5c0.2-0.2,1.1,0.2,1-0.6
	c0-0.3,0-0.1-0.2-0.4c-0.1,0-0.4-0.1-0.2-0.1c-0.1-0.1,0-0.1,0.1-0.2c0.5,0.1,0.1-0.4,0.3-0.2c0,0.1,0.3,0,0.2,0
	c0.2-0.1,0.2-0.4,0.4-0.5c0,0,0.1-0.1,0.2-0.1c-0.2,0,0.1-0.2,0.1-0.4c0.1-0.1,0.3-0.1,0.3-0.2c0.1,0,0.2,0,0.3-0.1
	c0,0-0.1-0.1,0-0.1v-0.1c0-0.1-0.1-0.2-0.1-0.3c-0.1-0.2,0.3-0.3,0.3-0.4c0,0,0,0.2,0,0.3c0,0.1-0.3,0.5,0.1,0.5
	c-0.1,0.2,0.1,0,0.2,0s0.2,0.3,0.2,0.1c-0.2,0,0.1,0,0.2-0.1s0.2-0.1,0.3-0.1c0,0,0-0.1,0,0l0.1,0.1c0-0.1,0.1-0.1,0.2-0.2
	c0,0-0.1,0.1,0,0.1c0.1-0.1-0.1-1,0.3-0.5c0.1,0,0.1-0.3,0-0.4c-0.2-0.3,0.3-0.3,0.4-0.2c0.1,0,0,0,0.1-0.1c0.1,0,0.2,0,0.2,0
	c-0.1-0.3-0.4-0.2-0.7-0.1c-0.3,0-0.3-0.4-0.4-0.7c0.1-0.2,0.3-0.3,0.4-0.5c0.3-0.1-0.3-0.4-0.4-0.2c0,0.4-0.6,0.6-0.4,1.1
	c0.1,0.2,0.3,0.2,0.1,0.4c-0.3,0.2,0,0.7-0.4,0.8c-0.3,0.5-0.2-0.2-0.3-0.4c-0.1-0.2-0.1-0.4-0.2-0.5l-0.1,0.2
	c-1.4,0.8-1.7-0.4-1.4-0.7c0.2-0.2,0.4-0.3,0.5-0.6c0.3-0.6,0.6-1.4,1.3-1.5c0.2-0.2,0.5-0.4,0.3,0.1c0.1,0,0.2-0.4,0.2-0.1
	c0.1,0,0.1-0.2,0.2-0.1c0,0-0.1,0.1,0,0.1c0,0.1,0-0.1,0.1-0.1c0.3,0.1,0.3,0.3,0,0.2c0.1,0.1,0.3,0.2,0.4,0.1c0.1,0,0.2,0.1,0,0.1
	c0,0.1,0.2,0.1,0.3,0.1c1.2,0.5,1.2,1.5-0.2,0.6c0.2,0.1,0.2,0.5,0.3,0.7c0.3,0.3,0.5,0.3,0.2-0.1c0.1-0.1,0.4,0.2,0.5,0.2
	c0-0.1-0.1-0.3,0.1-0.3c0.1-0.1,0.3,0,0.4,0.1c0.1-0.1,0-0.2,0-0.3c0.1-0.3-0.2-0.5,0.2-0.2c0.1,0,0.2,0.2,0.1,0.2
	c-0.1,0-0.3,0-0.1,0.2c0.1,0.1,0.3,0.1,0.3-0.1c0.2,0,0.6-0.1,0.8-0.1c0.1,0.2,0.2,0.2,0.4,0.1c0.1,0.1,0.6,0,0.5,0.2
	c0.2,0.1,0.2-0.1,0.2-0.2c0.3,0,0.7,0.3,0.9,0.5c0.1,0.2,0.3,0.4,0.3,0.1c-0.1-0.1-0.4-0.3-0.2-0.5c-0.3-0.4,0.2-0.1,0.3-0.5
	c0.1-0.1,0.5,0.1,0.5,0.2c-0.1,0.2-0.2,0.3-0.1,0.5c0,0.1-0.2,0.4-0.1,0.5c0.3,0.3-0.1,0.5-0.3,0.5c-0.4-0.2,0,0.1,0.2,0.2
	c0.4,0,0.4-0.3,0.5-0.5c0.3-0.1,0.3,0.2,0.4,0.3c0.1-0.5-0.8-0.2-0.4-0.8c-0.2-0.2-0.1-0.4,0.2-0.3c0.1,0,0-0.2,0-0.2
	s0.1,0.1,0.1,0.2c-0.2,0.2,0.3,0.5,0.4,0.5c-0.8-0.6,0.2-0.5,0.4,0c0.2,0.1,0.2,0,0.1-0.1s-0.4-0.3-0.2-0.4c0.2-0.1,0.9,0.4,1,0.1
	c0-0.1,0-0.1,0.1-0.2c0.5-0.1,1.3,0.2,1.9,0.2c0.2-0.2,0.7-0.3,0.9,0c0,0.1-0.3,0-0.2,0l0.4,0.2l-0.2,0.1c0.2,0.1,0.2,0.1,0.3,0
	c0.1,0.1,0.3,0.1,0.5,0.2c0.9,0.7-0.6,0.7-1,0.9c0.2,0,1.1,0.2,0.7,0c0.2-0.1,0.4,0.2,0.7,0.3c0.2,0.1,0.9,0.3,0.5,0.3
	c0.1,0.2,0.5,0.3,0.7,0.3c0.1-0.2,0.5,0,0.7,0c0.3,0.2,0,0.5,0.1,0.8c0.1,0.2,0.3,0.3,0.4,0.1c0.1-0.1,0.2,0.2,0.4,0.1
	c0.3,0,0.4,0.3,0.7,0.2c-0.2-0.8,1.5,0.4,1.6,0.7c0.3,0,0.6,0,0.8,0.2c0.2,0.1,0.1,0.2,0.1,0.3c0.1,0.2,0.5,0.2,0.7,0.2
	c0.1,0.1,0.2,0,0.3,0.1s0.2,0.3,0.3,0.2c-0.1-0.6,0.9,0,1.1,0.2c0.4,0.2,0.6,0.6,0.7,0.8C119.8,22,120.9,22.9,120,22.7z M101.9,22.4
	c0-0.2-0.1-0.2-0.2,0c0,0,0-0.2,0-0.3c-0.2-0.1-0.2-0.3-0.3-0.5l0.1,0.1c-0.2-0.3,0.2-0.1,0.3,0c-0.1,0.1-0.1,0.1,0.1,0
	c-0.1-0.1-0.2-0.1-0.1-0.3c0-0.1-0.3-0.2-0.4-0.2c-0.1,0-0.1,0-0.1,0.1c-0.2,0.1-0.1,0-0.3,0.3c0.2,0.2,0.2,0.7,0.5,0.9
	c-0.3,0.2-0.1,0.6,0.2,0.8c0.4,0.2,0.3-0.3,0.2-0.5c0.1,0,0-0.1-0.1-0.1C101.6,22.3,102.2,22.8,101.9,22.4z M79,17.2h0.2
	C79.2,17.1,79,17.2,79,17.2z M84.3,29.5c0,0.1,0.2,0.1,0.3,0C84.5,29.4,84.3,29.4,84.3,29.5z M83.7,24.2L83.7,24.2
	C83.9,24.1,83.4,24.2,83.7,24.2C83.6,24.2,83.7,24.2,83.7,24.2z M83.4,24.1L83.4,24.1C83.4,24.2,83.4,24.2,83.4,24.1z M83.5,24.2
	C83.5,24.2,83.4,24.1,83.5,24.2C83.4,24.2,83.5,24.2,83.5,24.2z M87.3,21.9c0.2-0.5-0.6,0.7-0.5,0.9c0.1,0.1,0.7-0.3,0.5,0
	c0.1,0,0.2-0.2,0.2-0.2c0.1,0.3,0.3-0.1,0.2-0.3c-0.1-0.1-0.1-0.1-0.1-0.2c-0.1,0-0.2,0.1-0.2,0.1C87.3,22.1,87.1,22.2,87.3,21.9z
	 M85.8,29c0,0.1,0.2-0.1,0.2-0.1S85.7,28.9,85.8,29z M84.6,29.1c0.4-0.2-0.1-0.2-0.3-0.3c-0.3-0.1-0.9-0.2-1,0.2
	c0,0,0.6-0.4,0.3-0.2c0.2,0,0.5,0.1,0.7,0.2C84.2,29.3,84.5,29.1,84.6,29.1z M86.2,23.2c-0.1,0.2,0.3,0.2,0.3,0
	C86.4,23.2,86.2,23.2,86.2,23.2S86.2,23.1,86.2,23.2z M86.1,22.6c0,0.1,0.3,0.1,0.3,0C86.5,22.5,86.1,22.5,86.1,22.6z M90.2,31.9
	c0.1,0.5-0.5,1-0.5,1.4c0,0.4,0,1.1-0.3,1.5c-0.1,0.4-0.7,0.4-0.9,0.8c0,0.4-0.1,0.8-0.4,1.2c-0.1,0.2-0.2,0.4-0.3,0.5
	c-0.2,0.1-0.8-0.3-0.3,0.2c0.3,0.4-0.3,0.6-0.6,0.6c0,0.1,0.1,0.2,0,0.3c-0.2,0.1-0.4-0.1-0.3,0.3c0.3,0.3-0.5,0.6-0.1,0.9
	c0.3,0.1-0.1,0.4-0.2,0.6c-0.1,0.1,0.1,0.4,0.1,0.5c0.1,0.1,0.4,0.2,0.5,0.2c-0.3,0.3-1,0.2-1.3-0.2c-0.7-1.3-0.1-3.2-0.1-4.6
	c0-0.4,0.1-0.9-0.3-1c-0.7-0.4-1.6-1.5-1.2-2.4c0.2-0.4,0.5-0.9,0.4-1.3c-0.1-0.1-0.1-0.3-0.2-0.3c-0.2,0-0.2,0.2-0.2,0.3
	c-0.1,0.1-0.2-0.1-0.3-0.1s-0.1,0-0.2,0c-0.3-0.1-0.3-0.6-0.7-0.7c-0.3,0.1-0.5-0.1-0.7-0.4c-0.3,0.1-0.7,0-1-0.2
	c-0.5-0.1-0.3-0.6-0.5-0.9c-0.3-0.4-0.5-0.8-0.8-1.2c0-0.2-0.1-0.5-0.3-0.5c0.1,0.4,0.5,1,0.6,1.4c0.3,0.4-0.1,0.1-0.2-0.1
	c0-0.2,0-0.4-0.2-0.4c-0.2-0.2,0-0.1,0-0.3c-0.1-0.1-0.1-0.2-0.2-0.2c-0.2-0.5-0.3-0.8-0.7-1c-0.6-0.7-0.4-1.6-0.6-2.4
	c0.5,0.2,0.2-0.2-0.1-0.4c-0.5-0.1-0.7-0.7-0.9-1c-0.3,0.2-0.6-0.7-0.9-0.8c-0.2-0.1-0.5-0.3-0.7-0.2c-0.2-0.1-0.6-0.4-0.6,0
	c0,0.1-0.3,0.3-0.4,0.3c-0.1,0,0-0.1,0-0.1V22c0.1-0.1,0.3,0,0.2-0.1c0.2-0.3-0.8,0.4-0.4,0.6c-0.1,0.3-0.5,0.4-0.7,0.7
	c-0.1,0.2-0.4,0.2-0.5,0.3c-0.2,0.2-0.4,0.2,0-0.1c0.3-0.2,0.8-0.5,0.7-0.8c-0.1,0.1-0.3,0.1-0.5,0c-0.2,0.2-0.2-0.1-0.2-0.2
	c-0.2,0.2-0.5,0-0.5-0.3c-0.1-0.4,0.8-0.4,0.5-0.7c0,0,0.1,0,0.1-0.1c-0.1-0.1-0.2,0.1-0.3,0.1c-0.1,0.1-0.5,0-0.4-0.1
	c-0.3,0-0.2-0.2,0.1-0.2c-0.1,0,0.2-0.2,0.2-0.1c0.1,0.2,0.5,0,0.3,0v-0.1c-0.1,0-0.3-0.1-0.4-0.2c-0.1,0-0.4-0.1-0.2-0.2
	c0-0.1,0.2,0,0.3-0.1c0.2-0.5,1-0.8,1.5-0.6c0.6,0.2,1.5,0,2.1,0.3c0.2-0.1,0.1-0.3,0.4-0.2c0.4-0.3,0.7-0.3,0.1,0
	c0.2-0.1,0.6-0.2,0.6-0.4c0.1,0,0.3,0.3,0.3,0.3c0.1,0,0.1-0.2,0.1-0.2c0.1,0.1-0.1,0.3,0.2,0.1c0-0.2,0.2-0.1,0.4-0.1
	c0.4,0.1,0.6-0.1,0.8,0.1c-0.4,0.5,0.5-0.1,0.7,0.1c0.1,0.1,0.2,0.4,0.2,0.1c0,0,0,0,0-0.1c-0.1-0.2,0.2-0.3,0.2-0.4
	c-0.1,0-0.3,0.2-0.3,0.1s0.3-0.3,0.4-0.2c0.1,0.2,0.2,0.1,0.4,0.2c0.3,0.1,0.5-0.2,0.6-0.3c0.2,0,0.3,0,0.2,0.2
	c0.3,0.2,0-0.2,0.2-0.2c0.1,0,0.1-0.1,0.2-0.2c0.1-0.2-0.1,0-0.1-0.1s0.3-0.3,0-0.2c-0.3,0.1-0.4-0.4-0.2-0.5c0.1,0-0.1,0,0-0.1
	C82,18,82,18,82,17.9c0-0.2-0.2-0.4,0-0.5c0-0.1,0.1-0.2,0.2-0.2c0.7-0.2,0.2,0.5-0.1,0.4c0.2,0-0.1,0.3,0,0.3
	c0.2,0,0.3,0.3,0.4,0.4c0,0.1-0.2,0.1-0.2,0.2c0.1,0.1,0.2-0.1,0.3,0c-0.2,0.1,0,0.1,0,0.2c0,0.4,0.1-0.2,0.2-0.2
	c0.1,0,0.3,0.1,0.1,0.3c-0.1,0,0-0.1,0,0c-0.1,0.1,0.2,0.3,0.2,0.2c0.1-0.2,0.1-0.3,0.2-0.5c0-0.1-0.1-0.3,0.1-0.3
	c0.3-0.1,0.6,0.2,0.3,0.3c0,0.1,0.3,0.2,0.1,0.4c-0.1,0.1-0.2,0.3-0.4,0.1l0.1,0.1c-0.1-0.1-0.1,0-0.2,0c0-0.1-0.2-0.1-0.2,0
	c0.1,0,0.1,0.1,0,0.3c-0.1,0.1-0.5-0.1-0.6,0c0.2,0.2,0.9-0.1,0.3,0.4c-0.1,0.1-0.4,0.2-0.6,0.1c0,0,0.2,0,0.1,0.1
	c0.3-0.1,0.3,0.1,0,0.2c-0.1,0.1-0.2,0.4-0.3,0.6c0,0.1-0.1,0.4-0.1,0.5c0.2,0,0.3,0.1,0.3,0.3c0.1,0.2,0.2-0.1,0.4,0
	c0.3,0,0.6,0.3,0.9,0.2c0.4-0.1,0,0.6,0.4,0.8c0.4,0,0.2-0.6,0.1-0.8c0-0.1,0.3-0.2,0.3-0.4c0.3-0.4-0.3-0.5-0.2-0.8
	c0.2-0.5-0.3-0.9,0.5-1c0.3-0.1,0.4,0.3,0.7,0.2c0,0-0.1,0.4,0,0.4c0,0-0.2,0.3-0.1,0.2c0.2,0,0.6,0,0.6-0.4c0-0.5,0.4,0.3,0.6,0.5
	c-0.1,0.3,0.1,0.2,0.2,0.4c0.4-0.1,0.4,0.1,0.1,0.3c0.2-0.1,0.1,0-0.1,0.1c-0.1,0.3,0.2-0.1,0.3-0.1c-0.1,0,0.1-0.1,0.1,0v0.1
	c0,0,0.1-0.1,0.2-0.1c0.2,0.5-0.3,0.5-0.5,0.8c-0.2,0.4-0.9,0.2-1.1,0.6c-0.2,0.2-0.5,0.6-0.5,0.7c0.1-0.1,0.6-0.9,0.9-0.7
	c0.1,0.1-0.1,0,0,0c0.2,0.3-0.1,0.4-0.1,0.4c0,0.1,0.2,0,0.2,0S86,23.1,86,23.2c0.1-0.1,0,0.2,0.2,0.2l0,0c0.1,0.1,0.3-0.1,0.3,0
	c0.1,0,0-0.3,0.2-0.3c0.1,0,0,0.2,0,0.2s0.1,0,0.1,0.1c-0.2,0.1-0.3,0.4-0.6,0.4c-0.1,0.1-0.1,0.4-0.3,0.2c-0.1-0.1,0.1-0.3,0.2-0.4
	c0.1-0.1,0.1,0.1,0.2-0.1c-0.1,0-0.2,0.1-0.1,0c-0.1,0.1-0.2,0.2-0.4,0.3c-0.1,0.2-0.3,0.2-0.4,0.4c-0.1,0.1-0.2,0.5-0.1,0.5
	c0.1,0,0,0,0,0c0.1,0-0.1,0.1-0.1,0.1c0,0.1-0.3,0.2-0.3,0.3l0.2-0.1l0,0h0.1c0,0.1-0.3,0.1-0.3,0.2s-0.1,0.5-0.2,0.2l0.1,0.2
	c0,0.1-0.1,0.3-0.1,0.3c0-0.1,0.1-0.2,0-0.2c0,0,0.1-0.3,0-0.2c-0.1,0.1,0.1,0.4-0.1,0.3c0.1,0,0.1,0.1,0.1,0.2c0.1,0.1,0,0.2,0,0.2
	h0.1c0,0.1-0.2,0.1-0.1,0.1c-0.1,0,0,0.1,0,0.1s-0.1,0.1-0.2,0.1c-0.1,0.2-0.2,0.3-0.3,0.4c-0.6,0.4,0.3,1.3-0.2,1.5
	c-0.3-0.2,0-0.7-0.5-0.8c-0.1,0.1-0.2,0-0.5,0l-0.3,0.1c0,0,0.2,0,0.1,0.1c-0.1,0.1,0.1,0,0.1,0c0,0.1-0.1,0-0.1,0
	c0,0.2-0.2,0-0.3,0c-0.3-0.1-0.6,0.3-0.7,0.6c0.1,0.4-0.1,0.9,0.1,1.3c0.1,0.2,0.2,0.2,0.3,0.3c0.1,0,0.2-0.2,0.3-0.1
	c0.2-0.1,0.1-0.4,0.2-0.6c0.6-0.3,0.3,0,0.3,0.2c0,0,0,0.1,0,0c0,0.1,0,0.3-0.1,0.1c0,0.1,0,0.2,0,0.3c-0.1,0.3,0,0.2,0.2,0.2
	c0.8-0.5,0,1.1,0.8,1c0.6-0.4,0.4,0.4,0.8-0.6c0.5-0.5,1.3-0.5,1.9-0.4c0.3,0.2,0.6,0.6,1.1,0.4c0.3,0.1,0.5,0.6,0.7,0.7
	C89,31.5,90.1,31.4,90.2,31.9z M84.1,24.6c-0.1,0.1-0.7,0.5-0.5,0.3c0-0.1-0.1,0.1-0.1,0.2S84.2,24.8,84.1,24.6z M84.2,24.5
	c0.3,0,0.2-0.3,0.3-0.3C84.5,24.3,83.6,24.7,84.2,24.5z M82.3,24.2c0.1,0,0.4-0.2,0.5-0.3L82.7,24c0.1,0,0.1,0,0.2,0
	c0.1,0,0.2-0.2,0.3-0.1c0.2,0.1-0.2,0.1-0.3,0.2c0,0,0-0.1,0,0c0-0.1-0.2,0.2-0.1,0.3c0,0.1,0.1-0.2,0.1-0.1s-0.1,0.3-0.1,0.5
	c0.1,0.6,0.3,0,0.2-0.2c0-0.1,0.1-0.4,0.1-0.2c0-0.2,0.2-0.3,0.3-0.1c0,0.1,0,0.2-0.1,0.3c0.1-0.1,0.2-0.1,0.2,0.1
	c0.2-0.1,0.1-0.6,0.2-0.5c-0.1,0.1,0.1,0.1,0.1,0c0.1,0,0-0.2-0.1-0.3c-0.2,0-0.5,0.1-0.5-0.1c0-0.1,0-0.2-0.1-0.2
	c0,0-0.2,0-0.2-0.1s-0.1,0-0.1,0c-0.1-0.1-0.1,0-0.2,0.1c0-0.1,0,0-0.1,0C82.8,23.7,82.4,24.1,82.3,24.2z M78.8,20.3
	C78.7,20.3,78.8,20.3,78.8,20.3c-0.1,0-0.3,0.1-0.4,0.1c0.1-0.2,0.2-0.2-0.1-0.1c-0.1,0.1-0.7,0.3-0.5,0.3c0-0.1,0.4-0.2,0.4-0.1
	s-0.2,0-0.2,0.1c0.1,0.1,0,0,0,0.1l-0.1,0.1c0.1,0.1,0.4-0.3,0.4-0.1c0,0.1-0.1,0.1-0.1,0.1s0.3-0.2,0.2-0.2
	C78.7,20.5,78.7,20.5,78.8,20.3z M80,21c-0.2-0.1-0.3,0.2-0.5,0.3c-0.1,0-0.6-0.2-0.3,0c0.1,0.2,0,0.2-0.1,0.3
	c0.1,0.1-0.2,0-0.2,0.1c0.1,0.1,0.4,0.1,0.5-0.1c0.2-0.1,0.3-0.3,0.5-0.4h-0.1c0.1-0.1,0.1,0,0,0c0.2-0.1-0.2,0.1-0.2,0.1
	C79.7,21,80,21.1,80,21z M81.5,23.3C81.6,23.3,81.6,23.2,81.5,23.3C81.6,23.2,81.6,23.4,81.5,23.3c0.1,0,0.2,0.1,0.1,0.1
	c0.1-0.1,0,0.1,0,0.2c0.1,0.1,0-0.1,0.1-0.1c0-0.2-0.2-0.5-0.2-0.7c0,0,0,0-0.1,0c0,0,0.1-0.1,0-0.1c0,0.3,0,0-0.1,0.2
	C81.3,23,81.5,23.3,81.5,23.3z M72.7,22.4h-0.2C72.5,22.5,72.8,22.5,72.7,22.4z M77.7,19c0.2,0,0.3,0.3,0.5,0
	c0.1,0.1,0.2-0.2,0.2-0.3c0.2-0.1,0.4-0.3,0.6-0.4c0.1-0.2-0.4-0.3-0.5-0.1c0,0.1,0.1-0.1,0,0c-0.1,0-0.2-0.1-0.3,0
	c-0.3,0.1-0.5,0-0.3,0.3C77.8,18.5,77.5,19.1,77.7,19z M78.2,17.7c0.1-0.2,0.1,0.1,0.2-0.1c0-0.2,0-0.1,0.1-0.1c0-0.1,0-0.1,0-0.1
	s0.1,0,0.1-0.1c0.1-0.2,0,0.2,0.2,0.1c0.1,0,0.2-0.2,0.1-0.2s0.1,0,0,0s0-0.1,0-0.1c-0.3-0.1-0.1,0.1-0.3,0
	C78.5,17.1,77.7,17.8,78.2,17.7z M79.2,16.8H79C79,16.9,79.2,16.9,79.2,16.8z M74.3,22.7c0,0,0.1-0.1,0.1,0
	C74.5,22.6,74.3,22.6,74.3,22.7z M77.1,23.4c-0.3-0.3,0,0.4,0.1,0.4C77.2,23.7,77.1,23.6,77.1,23.4z M74.2,22.8
	c-0.2,0.2,0.2,0.2,0.2,0C74.6,22.8,74.4,22.7,74.2,22.8z M78.2,24.4c-0.1-0.1-0.4-0.4-0.6-0.3C77.6,24.2,78.3,24.8,78.2,24.4z
	 M101.4,31c0-0.1-0.1-0.2-0.1-0.1c-0.1,0.2-0.3,0.4-0.5,0.4c-0.2,0.2,0.1,0.5-0.1,0.7c-0.1,0.4,0.4,1,0.5,0.3
	C101.2,31.9,101.5,31.3,101.4,31z M109.9,30.4c-0.1,0.1,0,0.3,0.1,0.3c-0.1,0.1,0.1,0.2,0.1,0.2c0.1,0.2,0.1-0.2,0.2,0.1
	c0.1,0.2,0.1,0.1,0.1,0h0.1c-0.1,0-0.1-0.1-0.2-0.1s-0.1,0-0.1-0.1s0-0.2,0.1-0.1c0.1-0.1,0-0.3,0.1-0.4
	C109.9,29.9,110.1,30.6,109.9,30.4z M110.3,29.3c0.2-0.3-0.2-0.3-0.2,0C110.1,29.6,110.2,29.6,110.3,29.3z M109.8,31.2
	c0,0.1-0.3,0.2-0.3,0.3C109.6,31.5,109.9,31.2,109.8,31.2z M110.5,31.7C110.5,31.6,110.5,31.6,110.5,31.7c-0.1,0-0.2,0-0.2,0
	c-0.2,0-0.1,0-0.1-0.1c0,0-0.3,0.1-0.2,0.2c0.2-0.1,0.1,0,0.2,0c0,0.1,0,0,0,0c0.1,0,0,0.3,0.2,0.3c0,0,0.1,0.1,0.1,0s0-0.1,0-0.1
	s0,0.3,0,0.1C110.6,32.1,110.6,31.8,110.5,31.7C110.6,31.8,110.6,31.8,110.5,31.7z M109.4,34c0-0.1-0.2-0.2-0.2-0.1
	C109.2,34,109.4,34.1,109.4,34z M109.1,33.7C108.8,33.5,108.9,33.8,109.1,33.7C109.3,33.8,109.1,33.6,109.1,33.7z M109.5,33.9
	c0.1,0,0.3,0.1,0.4,0.1C109.9,33.9,109.7,33.9,109.5,33.9C109.4,33.7,109.2,33.9,109.5,33.9z M109.7,33.5
	C109.8,33.7,109.8,33.5,109.7,33.5C109.8,33.4,109.7,33.4,109.7,33.5z M108.3,32.2c0,0.1-0.1,0.3,0.1,0.3c0,0.1-0.1,0.4,0.2,0.3
	c0,0.2,0.1,0,0.2,0.1c0.2,0.1,0,0.2,0.3,0.1c0,0.2,0.1-0.1,0.1-0.2c0.2-0.1,0.2-0.4,0.3-0.3c0.2,0.1-0.1-0.2,0-0.4
	c0-0.1,0.1,0,0.1,0c-0.1-0.1,0-0.1,0.1-0.1c-0.1-0.1-0.1-0.3-0.2-0.3c-0.2,0.1-0.4,0.3-0.6,0.3c-0.1,0-0.3,0-0.2,0.2
	C108.4,32.1,108.3,31.8,108.3,32.2z M109.9,34.2c0.1-0.1,0.6-0.1,0.2-0.2C109.9,34,109.6,34.2,109.9,34.2z M85,29.3
	c0.2-0.1,0.2,0.2,0.2-0.1c0.2-0.1,0.6-0.1,0.2-0.3C85.3,28.8,85,29,84.9,29C84.9,29,85,29.1,85,29.3C84.8,29.2,84.6,29.4,85,29.3z
	 M92.9,17.2c0.1,0,0.1-0.1,0.1-0.1c0.1-0.1,0.2-0.1,0.1-0.2c-0.1,0-0.3-0.2-0.4-0.1c-0.1,0.2-0.3,0-0.2,0.2c-0.1-0.1-0.2-0.1-0.2,0
	c-0.2-0.2-0.1,0.4-0.3,0.1c0.2-0.1-0.1-0.2-0.2-0.1c0.1,0,0.1,0-0.1,0c0,0.1,0.1,0.1-0.1,0.1c-0.2,0.2,0.2-0.1,0.3,0
	c0,0-0.2,0.1,0,0.1c0.1,0.1-0.3,0.1-0.3,0.2s0.2-0.1,0.3,0s-0.1,0.1-0.1,0.2c0.2-0.1,0.2-0.1,0.4,0C92.6,17.5,92.7,17.3,92.9,17.2z
	 M91.9,15.7c-0.3-0.6,0.8-1.3,0-1.7c0.2-0.3,0.4-0.3,0-0.6c-0.1-0.4,0.7-0.7,0.5-0.9c0.2-0.1,0.5-0.2,0.6-0.4
	c-0.2-0.2-0.7-0.1-0.9,0.2c-0.2,0-0.5,0.1-0.6,0.2c0.2-0.4,0-0.2-0.2-0.3c1-0.5-1-0.3-1.4-0.2s-0.5,0.1-0.7,0.4
	c-0.2,0-0.5,0-0.7,0.1C88,12.8,88,12.8,88.4,13c-0.3,0.1-0.8-0.1-1.1,0.1c-0.7,0.2-1.4,0.7-2,1.3c0.1,0.2,0.5-0.2,0.3,0.3
	c-0.5,0.4-1.7,0.6-0.4,1.1c0.4,0.2,1.3-0.5,1.6,0c0.1,0.2,0.4,0.5,0.3,0.7c-0.2,0.2,0.1,0.3,0.1,0.5c-0.2,0.5,0.3,0.3,0.5,0.1
	c0.1,0.3-0.4,0.3-0.3,0.6c-0.1,0.5,0.5,1.5,0.9,1.6c0.8,0.3,0.7-0.9,0.9-1.4c0.1-0.3,0.5-0.4,0.7-0.6c0.1-0.2,0.2-0.4,0.3-0.5
	C90.9,16.6,91.9,16.3,91.9,15.7z M108.7,29.5c0.1,0,0.2-0.2,0.1-0.2c0,0.1-0.2-0.1-0.3,0C108.5,29.4,108.7,29.6,108.7,29.5z
	 M107.7,32.9c0-0.1,0.2-0.5,0-0.5c0-0.1,0-0.3-0.1-0.4c0.1-0.2-0.1-0.4-0.2-0.5c-0.2-0.3-0.3-0.8-0.6-0.9c0.1,0.3,0.3,0.8,0.4,1.1
	C107.2,32.1,107.4,32.9,107.7,32.9z M108.1,32.6C108,32.5,108,32.6,108.1,32.6C108.1,32.7,108.1,32.6,108.1,32.6z M108.6,33.5
	c-0.1-0.1-0.1-0.2-0.3-0.2c-0.1-0.1-0.1,0.1-0.1,0c-0.1,0-0.2-0.2-0.3-0.2c-0.1-0.1-0.3,0-0.1,0.1C107.9,33.3,108.3,33.4,108.6,33.5
	C108.7,33.7,108.8,33.5,108.6,33.5z M107.7,32.3c0,0,0.1,0.1,0.1,0.2C108,32.7,107.8,32.2,107.7,32.3
	C107.8,32.3,107.7,32.3,107.7,32.3z"/>
<polyline style="fill:none;stroke:#28334B;stroke-width:2;stroke-linecap:round;stroke-linejoin:round;stroke-miterlimit:10;" points="
	181.7,10.6 191.6,26.1 181.7,41.6 "/>
</svg>
