<?xml version="1.0" encoding="utf-8"?>
<!-- Generator: Adobe Illustrator 24.1.0, SVG Export Plug-In . SVG Version: 6.00 Build 0)  -->
<svg version="1.1" id="Layer_1" xmlns="http://www.w3.org/2000/svg" xmlns:xlink="http://www.w3.org/1999/xlink" x="0px" y="0px"
	 viewBox="0 0 541.41 106.97" style="enable-background:new 0 0 541.41 106.97;" xml:space="preserve">
<style type="text/css">
	.st0{fill:#010101;}
	.st1{font-family:'Rawline-Regular';}
	.st2{font-size:6.6594px;}
	.st3{font-size:9.4745px;}
	.st4{fill:#BCD9D4;}
	.st5{fill:#CFE4E0;}
	.st6{fill:#66A99D;}
	.st7{fill:#409385;}
	.st8{fill:#868D99;}
	.st9{fill:#666E7E;}
	.st10{fill:#273349;}
	.st11{fill:#FFFFFF;}
	.st12{fill:none;stroke:#4E4F4F;stroke-width:0.158;stroke-miterlimit:10;}
	.st13{fill:none;stroke:#4E4F4F;stroke-width:0.152;stroke-miterlimit:10;}
	.st14{font-size:28.5208px;}
</style>
<text transform="matrix(1 0 0 1 492.2303 93.0767)" class="st0 st1 st2">Ongoing</text>
<text transform="matrix(1 0 0 1 486.8036 100.023)"><tspan x="0" y="0" class="st0 st1 st2">supp</tspan><tspan x="15.38" y="0" class="st0 st1 st2">r</tspan><tspan x="17.55" y="0" class="st0 st1 st2">ession</tspan></text>
<text transform="matrix(-6.123234e-17 -1 1 -6.123234e-17 6.9159 57.5527)"><tspan x="0" y="0" class="st0 st1 st3">Cases local</tspan><tspan x="49.94" y="0" class="st0 st1 st3">l</tspan><tspan x="52.42" y="0" class="st0 st1 st3">y</tspan></text>
<path class="st4" d="M84.7,78.16v-2.01c-18.42,0.13-43.13,0.15-44.35,0.08v1.81L84.7,78.16z"/>
<path class="st5" d="M40.37,77.93v-1.78c0,0-32.15-0.08-33.06-0.15v1.81L40.37,77.93z"/>
<path class="st6" d="M166.61,78.39v-8.56c-18.45,2.8-48.81,5.58-63.86,6.08c-3.16,0.11-10.01,0.19-18.06,0.25v2.01L166.61,78.39z"/>
<path class="st7" d="M274.67,78.66V2.68c-6.61-1.62-21.52-2.9-27.89-1.8c-7.24,1.26-12.88,6.93-17.97,14.66
	c-5.32,8.07-9.39,22.43-14.37,30.84c-8.76,14.8-20.98,16.81-35.19,20.98c-2.66,0.78-7.11,1.62-12.63,2.46v8.56L274.67,78.66z"/>
<path class="st8" d="M362.48,78.93V51.77c-10.93-5.21-25.47-15.57-30.09-18.41c-20.51-12.6-28.86-23.6-57.71-30.69v75.98
	L362.48,78.93z"/>
<path class="st9" d="M461.92,79.2v-1.96c-0.15,0-0.3,0-0.45,0c-38.93,0.12-75-14.06-98.88-25.42v27.1L461.92,79.2z"/>
<path class="st10" d="M541.32,79.43l0.09-1.5c0,0-50.53-0.75-79.49-0.68v1.96L541.32,79.43z"/>
<line class="st11" x1="40.35" y1="78.32" x2="40.35" y2="106.66"/>
<line class="st12" x1="40.35" y1="78.32" x2="40.35" y2="106.66"/>
<line class="st11" x1="84.7" y1="78.59" x2="84.7" y2="106.97"/>
<line class="st12" x1="84.7" y1="78.59" x2="84.7" y2="106.97"/>
<line class="st11" x1="166.61" y1="78.59" x2="166.61" y2="106.97"/>
<line class="st12" x1="166.61" y1="78.59" x2="166.61" y2="106.97"/>
<line class="st11" x1="274.61" y1="78.59" x2="274.61" y2="106.85"/>
<line class="st13" x1="274.61" y1="78.59" x2="274.61" y2="106.85"/>
<line class="st11" x1="362.48" y1="78.59" x2="362.48" y2="106.61"/>
<line class="st12" x1="362.48" y1="78.59" x2="362.48" y2="106.61"/>
<line class="st11" x1="461.92" y1="78.59" x2="461.92" y2="106.27"/>
<line class="st12" x1="461.92" y1="78.59" x2="461.92" y2="106.27"/>
<text transform="matrix(1 0 0 1 7.3778 93.0767)"><tspan x="0" y="0" class="st0 st1 st2">N</tspan><tspan x="5.1" y="0" class="st0 st1 st2">o cases </tspan></text>
<text transform="matrix(1 0 0 1 7.6312 100.023)"><tspan x="0" y="0" class="st0 st1 st2">d</tspan><tspan x="4.14" y="0" class="st0 st1 st2">e</tspan><tspan x="8.02" y="0" class="st0 st1 st2">t</tspan><tspan x="10.17" y="0" class="st0 st1 st2">ec</tspan><tspan x="17.74" y="0" class="st0 st1 st2">t</tspan><tspan x="19.89" y="0" class="st0 st1 st2">ed</tspan></text>
<text transform="matrix(1 0 0 1 49.5785 90.0738)"><tspan x="0" y="0" class="st0 st1 st2">Limi</tspan><tspan x="12.9" y="0" class="st0 st1 st2">t</tspan><tspan x="15.04" y="0" class="st0 st1 st2">ed </tspan></text>
<text transform="matrix(1 0 0 1 46.5018 97.0191)"><tspan x="0" y="0" class="st0 st1 st2">individua</tspan><tspan x="27.64" y="0" class="st0 st1 st2">l</tspan><tspan x="29.24" y="0" class="st0 st1 st2"> </tspan></text>
<text transform="matrix(1 0 0 1 52.2889 103.9654)" class="st0 st1 st2">cases</text>
<text transform="matrix(1 0 0 1 121.307 90.0738)"><tspan x="0" y="0" class="st0 st1 st2">Initia</tspan><tspan x="14.29" y="0" class="st0 st1 st2">l</tspan><tspan x="15.9" y="0" class="st0 st1 st2"> </tspan></text>
<text transform="matrix(1 0 0 1 111.8705 97.0191)"><tspan x="0" y="0" class="st0 st1 st2">c</tspan><tspan x="3.62" y="0" class="st0 st1 st2">ommunit</tspan><tspan x="31.34" y="0" class="st0 st1 st2">y</tspan><tspan x="34.77" y="0" class="st0 st1 st2"> </tspan></text>
<text transform="matrix(1 0 0 1 109.9462 103.9654)"><tspan x="0" y="0" class="st0 st1 st2">t</tspan><tspan x="2.23" y="0" class="st0 st1 st2">r</tspan><tspan x="4.52" y="0" class="st0 st1 st2">ansmission</tspan></text>
<text transform="matrix(1 0 0 1 208.1923 90.0738)"><tspan x="0" y="0" class="st0 st1 st2">La</tspan><tspan x="7.51" y="0" class="st0 st1 st2">r</tspan><tspan x="9.67" y="0" class="st0 st1 st2">ge-scale </tspan></text>
<text transform="matrix(1 0 0 1 209.1844 97.0191)"><tspan x="0" y="0" class="st0 st1 st2">c</tspan><tspan x="3.62" y="0" class="st0 st1 st2">ommunit</tspan><tspan x="31.34" y="0" class="st0 st1 st2">y</tspan><tspan x="34.77" y="0" class="st0 st1 st2"> </tspan></text>
<text transform="matrix(1 0 0 1 207.2596 103.9654)"><tspan x="0" y="0" class="st0 st1 st2">t</tspan><tspan x="2.23" y="0" class="st0 st1 st2">r</tspan><tspan x="4.52" y="0" class="st0 st1 st2">ansmission</tspan></text>
<text transform="matrix(1 0 0 1 304.953 90.0738)"><tspan x="0" y="0" class="st0 st1 st2">R</tspan><tspan x="4.25" y="0" class="st0 st1 st2">edu</tspan><tspan x="16.25" y="0" class="st0 st1 st2">c</tspan><tspan x="19.87" y="0" class="st0 st1 st2">ed </tspan></text>
<text transform="matrix(1 0 0 1 301.5302 97.0191)"><tspan x="0" y="0" class="st0 st1 st2">c</tspan><tspan x="3.62" y="0" class="st0 st1 st2">ommunit</tspan><tspan x="31.33" y="0" class="st0 st1 st2">y</tspan><tspan x="34.76" y="0" class="st0 st1 st2"> </tspan></text>
<text transform="matrix(1 0 0 1 299.6053 103.9654)"><tspan x="0" y="0" class="st0 st1 st2">t</tspan><tspan x="2.23" y="0" class="st0 st1 st2">r</tspan><tspan x="4.53" y="0" class="st0 st1 st2">ansmission</tspan></text>
<text transform="matrix(1 0 0 1 390.6063 93.0767)"><tspan x="0" y="0" class="st0 st1 st2">Co</tspan><tspan x="8.53" y="0" class="st0 st1 st2">n</tspan><tspan x="12.38" y="0" class="st0 st1 st2">tainme</tspan><tspan x="33.6" y="0" class="st0 st1 st2">n</tspan><tspan x="37.45" y="0" class="st0 st1 st2">t </tspan><tspan x="41.38" y="0" class="st0 st1 st2">o</tspan><tspan x="45.29" y="0" class="st0 st1 st2">f</tspan><tspan x="47.34" y="0" class="st0 st1 st2"> </tspan></text>
<text transform="matrix(1 0 0 1 389.9608 100.023)"><tspan x="0" y="0" class="st0 st1 st2">individua</tspan><tspan x="27.64" y="0" class="st0 st1 st2">l</tspan><tspan x="29.25" y="0" class="st0 st1 st2"> cases</tspan></text>
<text transform="matrix(1 0 0 1 311.661 23.2945)" class="st1 st14">*</text>
</svg>
