<?xml version="1.0" encoding="utf-8"?>
<!-- Generator: Adobe Illustrator 24.1.0, SVG Export Plug-In . SVG Version: 6.00 Build 0)  -->
<svg version="1.1" id="Layer_1" xmlns="http://www.w3.org/2000/svg" xmlns:xlink="http://www.w3.org/1999/xlink" x="0px" y="0px"
	 viewBox="0 0 546.13 173.84" style="enable-background:new 0 0 546.13 173.84;" xml:space="preserve">
<style type="text/css">
	.st0{fill:#35796B;}
	.st1{fill:#7BC7D8;}
	.st2{fill:#32A1A9;}
	.st3{fill:#231F20;}
	.st4{fill:none;}
	.st5{font-family:'Raleway-MediumItalic';}
	.st6{font-size:9.2548px;}
	.st7{font-family:'Raleway-Italic';}
	.st8{font-size:6.7045px;}
	.st9{fill:#010101;}
	.st10{font-family:'Raleway-Bold';}
	.st11{font-size:8.133px;}
	.st12{font-family:'Raleway-Medium';}
	.st13{font-size:9.3519px;}
</style>
<path class="st0" d="M374.33,158.92c-58.2-7.13-105.74-43.14-119.87-67.06c-14.09-23.85-40.82-83.84-59.81-83.84
	s-44.01,61.09-59.81,83.84c-14.19,20.44-61.67,59.93-119.87,67.06H374.33"/>
<path class="st1" d="M539.42,158.92H14.98h359.36c-43.17-5.29-80.48-26.47-102.64-46.83c1.81-0.11,3.65-0.2,5.5-0.25
	c43.13,1.14,74.53,20.26,115.3,29.96C423.95,149.3,459.17,155.22,539.42,158.92"/>
<path class="st2" d="M374.33,158.92H14.98c80.25-3.7,115.47-9.63,146.92-17.11c39.02-9.28,69.45-27.19,109.79-29.71
	C293.85,132.45,331.16,153.63,374.33,158.92"/>
<polygon class="st3" points="14.43,0 14.43,159.47 539.94,159.47 539.94,158.38 15.53,158.38 15.53,0 "/>
<rect x="0" class="st4" width="546.12" height="173.84"/>
<text transform="matrix(1 0 0 1 273.2656 27.737)" class="st3 st5 st6">control</text>
<text transform="matrix(1 0 0 1 302.7051 27.737)" class="st3 st5 st6"> measures</text>
<text transform="matrix(1 0 0 1 273.2656 37.8161)" class="st3 st5 st6">sl</text>
<text transform="matrix(1 0 0 1 280.2158 37.8161)"><tspan x="0" y="0" class="st3 st5 st6">ow</tspan><tspan x="12.12" y="0" class="st3 st5 st6"> </tspan></text>
<text transform="matrix(1 0 0 1 294.6074 37.8161)"><tspan x="0" y="0" class="st3 st5 st6">t</tspan><tspan x="3.12" y="0" class="st3 st5 st6">he</tspan><tspan x="13.35" y="0" class="st3 st5 st6"> </tspan><tspan x="15.63" y="0" class="st3 st5 st6">spread of</tspan></text>
<text transform="matrix(1 0 0 1 350.0439 37.8161)" class="st3 st5 st6"> </text>
<text transform="matrix(1 0 0 1 273.2656 47.8943)" class="st3 st5 st6">disease and reduce the </text>
<text transform="matrix(1 0 0 1 273.2656 57.9734)" class="st3 st5 st6">burden on hospitals</text>
<text transform="matrix(1 0 0 1 402.3633 125.7527)"><tspan x="0" y="0" class="st3 st7 st8">with</tspan><tspan x="12.36" y="0" class="st3 st7 st8"> </tspan><tspan x="14.02" y="0" class="st3 st7 st8">c</tspan><tspan x="17.54" y="0" class="st3 st7 st8">o</tspan><tspan x="21.37" y="0" class="st3 st7 st8">n</tspan><tspan x="25.11" y="0" class="st3 st7 st8">t</tspan><tspan x="27.25" y="0" class="st3 st7 st8">r</tspan></text>
<text transform="matrix(1 0 0 1 431.749 125.7527)" class="st3 st7 st8">ols</text>
<polyline class="st3" points="15.14,111.16 18.16,111.16 18.16,110.15 15.14,110.15 "/>
<path class="st3" d="M524.7,111.15h6.1v-1.01h-6.1V111.15z M512.5,111.15h6.1v-1.01h-6.1V111.15z M500.29,111.15h6.1v-1.01h-6.1
	V111.15z M488.09,111.15h6.1v-1.01h-6.1V111.15z M475.88,111.15h6.11v-1.01h-6.11V111.15z M463.68,111.15h6.11v-1.01h-6.11V111.15z
	 M451.47,111.15h6.11v-1.01h-6.11V111.15z M439.26,111.15h6.11v-1.01h-6.11V111.15z M427.06,111.15h6.11v-1.01h-6.11V111.15z
	 M414.85,111.15h6.11v-1.01h-6.11V111.15z M402.65,111.15h6.11v-1.01h-6.11V111.15z M390.44,111.15h6.11v-1.01h-6.11V111.15z
	 M378.23,111.15h6.11v-1.01h-6.11V111.15z M366.03,111.15h6.1v-1.01h-6.1V111.15z M353.82,111.15h6.1v-1.01h-6.1V111.15z
	 M341.62,111.15h6.1v-1.01h-6.1V111.15z M329.41,111.15h6.1v-1.01h-6.1V111.15z M317.21,111.15h6.1v-1.01h-6.1V111.15z M305,111.15
	h6.1v-1.01H305V111.15z M292.79,111.15h6.1v-1.01h-6.1V111.15z M280.59,111.15h6.1v-1.01h-6.1V111.15z M268.38,111.15h6.1v-1.01
	h-6.1V111.15z M256.18,111.15h6.1v-1.01h-6.1V111.15z M243.97,111.15h6.1v-1.01h-6.1V111.15z M231.76,111.15h6.1v-1.01h-6.1V111.15z
	 M219.56,111.15h6.1v-1.01h-6.1V111.15z M207.35,111.15h6.1v-1.01h-6.1V111.15z M195.15,111.15h6.1v-1.01h-6.1V111.15z
	 M182.94,111.15h6.1v-1.01h-6.1V111.15z M170.73,111.15h6.1v-1.01h-6.1V111.15z M158.53,111.15h6.1v-1.01h-6.1V111.15z
	 M146.32,111.15h6.1v-1.01h-6.1V111.15z M134.12,111.15h6.1v-1.01h-6.1V111.15z M121.91,111.15h6.1v-1.01h-6.1V111.15z
	 M109.7,111.15h6.1v-1.01h-6.1V111.15z M97.5,111.15h6.1v-1.01h-6.1V111.15z M85.29,111.15h6.1v-1.01h-6.1V111.15z M73.09,111.15
	h6.1v-1.01h-6.1V111.15z M60.88,111.15h6.1v-1.01h-6.1V111.15z M48.67,111.15h6.1v-1.01h-6.1V111.15z M36.47,111.15h6.1v-1.01h-6.1
	V111.15z M24.26,111.15h6.1v-1.01h-6.1V111.15z"/>
<polyline class="st3" points="536.91,111.16 539.94,111.16 539.94,110.15 536.91,110.15 "/>
<rect x="0" class="st4" width="546.12" height="173.84"/>
<text transform="matrix(1 0 0 1 412.6836 105.9743)" class="st9 st10 st11">HEAL</text>
<text transform="matrix(1 0 0 1 432.8867 105.9743)" class="st9 st10 st11">THCARE </text>
<text transform="matrix(1 0 0 1 467.1914 105.9743)"><tspan x="0" y="0" class="st9 st10 st11">SY</tspan><tspan x="10.12" y="0" class="st9 st10 st11">S</tspan></text>
<text transform="matrix(1 0 0 1 482.2129 105.9743)"><tspan x="0" y="0" class="st9 st10 st11">TEM C</tspan><tspan x="24.41" y="0" class="st9 st10 st11">A</tspan></text>
<text transform="matrix(1 0 0 1 512.085 105.9743)"><tspan x="0" y="0" class="st9 st10 st11">P</tspan><tspan x="4.71" y="0" class="st9 st10 st11">A</tspan></text>
<text transform="matrix(1 0 0 1 522.04 105.9743)" class="st9 st10 st11">CITY</text>
<text transform="matrix(1 0 0 1 233.5322 170.6775)" class="st9 st12 st13">Time since ﬁrst case</text>
<text transform="matrix(-6.123234e-17 -1 1 -6.123234e-17 7.9968 126.5598)" class="st9 st12 st13">Number</text>
<text transform="matrix(-6.123234e-17 -1 1 -6.123234e-17 7.9962 90.5647)"><tspan x="0" y="0" class="st9 st12 st13"> </tspan><tspan x="2.29" y="0" class="st9 st12 st13">o</tspan><tspan x="7.81" y="0" class="st9 st12 st13">f</tspan></text>
<text transform="matrix(-6.123234e-17 -1 1 -6.123234e-17 7.996 79.6789)" class="st9 st12 st13"> cases</text>
<path class="st3" d="M277.22,65.15l0.77,40.68c0.01,0.28,0.23,0.5,0.51,0.5c0.28-0.01,0.5-0.24,0.49-0.51l-0.77-40.68
	c-0.01-0.28-0.24-0.5-0.51-0.49C277.43,64.64,277.21,64.87,277.22,65.15"/>
<polygon class="st3" points="274.31,102.56 275.03,101.86 278.49,105.44 281.8,101.73 282.55,102.4 278.51,106.91 "/>
<path class="st3" d="M399.84,123.91l-35.21,10.05c-0.1,0.03-0.16,0.13-0.13,0.23c0.03,0.1,0.13,0.16,0.23,0.13l35.21-10.05
	c0.1-0.03,0.15-0.13,0.13-0.23C400.04,123.94,399.94,123.88,399.84,123.91"/>
<rect x="0" class="st4" width="546.12" height="173.84"/>
<text transform="matrix(1 0 0 1 89.3784 47.3933)" class="st3 st7 st8">uncontr</text>
<text transform="matrix(1 0 0 1 112.2676 47.3933)" class="st3 st7 st8">olled </text>
<text transform="matrix(1 0 0 1 89.3784 54.4734)" class="st3 st7 st8">tr</text>
<text transform="matrix(1 0 0 1 93.6694 54.4734)" class="st3 st7 st8">ansmission</text>
<path class="st3" d="M106.13,59.81l31.88,27.01c0.08,0.07,0.2,0.06,0.26-0.02c0.07-0.08,0.06-0.2-0.02-0.26l-31.88-27.01
	c-0.08-0.07-0.2-0.06-0.26,0.02C106.04,59.63,106.05,59.74,106.13,59.81"/>
<rect x="0" class="st4" width="546.12" height="173.84"/>
</svg>
