<?xml version="1.0" encoding="utf-8"?>
<!-- Generator: Adobe Illustrator 24.1.0, SVG Export Plug-In . SVG Version: 6.00 Build 0)  -->
<svg version="1.1" id="Layer_1" xmlns="http://www.w3.org/2000/svg" xmlns:xlink="http://www.w3.org/1999/xlink" x="0px" y="0px"
	 viewBox="0 0 546.1 173.8" style="enable-background:new 0 0 546.1 173.8;" xml:space="preserve">
<style type="text/css">
	.st0{fill:#35796B;}
	.st1{fill:#7BC7D8;}
	.st2{fill:#32A1A9;}
	.st3{fill:#231F20;}
	.st4{fill:none;}
	.st5{enable-background:new    ;}
	.st6{fill:#010101;}
</style>
<g>
	<path class="st0" d="M374.3,158.9c-58.2-7.1-105.7-43.1-119.9-67.1c-62.3-114.1-57.4-109.1-119.6,0
		c-14.2,20.4-61.7,59.9-119.9,67.1H374.3"/>
</g>
<g>
	<path class="st1" d="M539.4,158.9H15h359.4c-43.2-5.3-80.5-26.5-102.6-46.8c1.8-0.1,3.6-0.2,5.5-0.2c43.1,1.1,74.5,20.3,115.3,30
		C424,149.3,459.2,155.2,539.4,158.9"/>
</g>
<g>
	<path class="st2" d="M374.3,158.9H15c80.2-3.7,115.5-9.6,146.9-17.1c39-9.3,69.4-27.2,109.8-29.7
		C293.9,132.4,331.2,153.6,374.3,158.9"/>
</g>
<g>
	<polygon class="st3" points="14.4,0 14.4,159.5 539.9,159.5 539.9,158.4 15.5,158.4 15.5,0 	"/>
</g>
<g>
	<rect class="st4" width="546.1" height="173.8"/>
</g>
<g class="st5">
	<path class="st3" d="M275.3,27.8c-2.2,0-2.4-2.9-1-4.1c0.9-1.1,3.3-1.4,3.8,0.3l-0.8,0.2c-0.5-1.4-2.5-0.5-2.8,0.6
		c-0.8,1.8,1.1,3.2,2.4,1.5l0.8,0.2C277.1,27.4,276.2,27.8,275.3,27.8z"/>
	<path class="st3" d="M280.2,27.8c-3.3-0.3-1.7-5.2,1.1-5C284.6,23.1,283,28,280.2,27.8z M280.4,27.1c1.8,0.1,2.9-3.3,0.8-3.6
		C279.4,23.4,278.3,26.9,280.4,27.1z"/>
	<path class="st3" d="M284.6,22.9h0.7l-0.2,1c1.2-1.6,3.8-1.7,3.1,0.9l-0.6,2.9h-0.8c0.1-0.5,0.7-2.9,0.7-3.4
		c-0.1-1.6-2.1-0.4-2.4,0.5l-0.6,2.9h-0.8L284.6,22.9z"/>
	<path class="st3" d="M290,27.8c-0.6,0-1-0.4-0.8-1l0.7-3.2h-0.6l0.1-0.6h0.6l0.3-1.6h0.8l-0.3,1.6h1l-0.1,0.6h-1l-0.6,3
		c-0.2,0.7,0.8,0.5,1.1,0.3l0,0.6C290.9,27.7,290.4,27.8,290,27.8z"/>
	<path class="st3" d="M292.9,22.9h0.8l-0.2,1.1c0.4-0.6,1.1-1.2,1.8-1.1c0,0,0.1,0,0.1,0l-0.1,0.7c-0.8,0-1.5,0.4-1.9,1.1l-0.6,3
		h-0.8L292.9,22.9z"/>
	<path class="st3" d="M297.1,27.8c-3.3-0.3-1.7-5.2,1.1-5C301.5,23.1,299.8,28,297.1,27.8z M297.2,27.1c1.8,0.1,2.9-3.3,0.8-3.6
		C296.2,23.4,295.1,26.9,297.2,27.1z"/>
	<path class="st3" d="M301.4,27.8c-0.6,0-0.9-0.5-0.8-1l1.2-5.8h0.8l-1.2,5.5c0,0,0,0.1,0,0.1c-0.1,0.6,0.5,0.5,0.9,0.4l0,0.7
		C302.1,27.7,301.7,27.8,301.4,27.8z"/>
</g>
<g class="st5">
	<path class="st3" d="M306.1,22.9h0.7l-0.2,1c0.7-1.1,3-1.8,3.1,0.1c0.7-1.2,3.1-1.9,3.1,0c0,0.6-0.6,3.1-0.7,3.7h-0.8
		c0.1-0.5,0.7-2.9,0.7-3.4c-0.1-1.6-2-0.4-2.3,0.5l-0.6,2.9h-0.8c0.1-0.5,0.7-2.9,0.7-3.4c-0.1-1.6-2-0.5-2.3,0.5l-0.6,2.9H305
		L306.1,22.9z"/>
	<path class="st3" d="M315.3,27.8c-1.6,0.1-2.3-1.9-1.7-3.2c0.5-1.4,2.5-2.4,3.9-1.5c0.7,0.5,0.6,1.7-0.2,2.1
		c-0.6,0.4-2.1,0.4-3.1,0.3c-0.2,1.8,1.8,2.2,2.7,0.8l0.7,0.2C317.1,27.3,316.2,27.8,315.3,27.8z M316.2,23.4c-1,0-1.7,0.7-1.9,1.6
		c0.8,0.1,1.8,0.1,2.4-0.2C317.6,24.3,317.1,23.3,316.2,23.4z"/>
	<path class="st3" d="M320.1,27.8c-2.1-0.1-2.1-2.9-0.9-4.1c0.8-1.1,2.8-1.4,3.3,0.1l0.2-1h0.8l-0.8,3.8c0,0,0,0,0,0.1
		c0,0.1,0,0.2,0.2,0.2l-0.1,0.7c-0.2,0-0.6,0.1-0.7-0.1c-0.2-0.2-0.1-0.4-0.1-0.8C321.5,27.4,320.8,27.8,320.1,27.8z M320.4,27.1
		c0.6,0,1.3-0.5,1.6-1.1l0.3-1.4c-0.2-1.3-1.8-1.4-2.5-0.4C319,25.1,319,27.1,320.4,27.1z"/>
	<path class="st3" d="M325.4,27.8c-0.7,0-1.4-0.2-1.9-0.7l0.5-0.5c0.6,0.6,1.7,0.9,2.4,0.4c0.4-0.2,0.5-0.9,0.1-1.1
		c-0.5-0.3-1.7-0.3-2.1-1c-0.6-1.9,2.5-2.8,3.6-1.5l-0.5,0.5c-0.6-0.6-1.9-0.8-2.3,0c-0.1,0.2-0.2,0.6,0.1,0.8
		c0.6,0.3,1.8,0.3,2.1,1C328,27,326.6,27.9,325.4,27.8z"/>
	<path class="st3" d="M329.6,27.8c-1.1,0.1-1.3-1.1-1-2c0,0,0.6-2.9,0.6-2.9h0.8c-0.1,0.5-0.7,3-0.7,3.4c0.1,1.6,2.1,0.6,2.5-0.4
		l0.6-3h0.8l-0.8,3.8c0,0,0,0,0,0.1c0,0.1,0,0.2,0.2,0.2l-0.1,0.7c-0.9,0.2-0.9-0.3-0.7-1C331.2,27.4,330.4,27.8,329.6,27.8z"/>
	<path class="st3" d="M334.6,22.9h0.8l-0.2,1.1c0.4-0.6,1.1-1.2,1.8-1.1c0,0,0.1,0,0.1,0l-0.1,0.7c-0.8,0-1.5,0.4-1.9,1.1l-0.6,3
		h-0.8L334.6,22.9z"/>
	<path class="st3" d="M338.8,27.8c-1.6,0.1-2.3-1.9-1.7-3.2c0.5-1.4,2.5-2.4,3.9-1.5c0.7,0.5,0.6,1.7-0.2,2.1
		c-0.6,0.4-2.1,0.4-3.1,0.3c-0.2,1.8,1.8,2.2,2.7,0.8l0.7,0.2C340.6,27.3,339.7,27.8,338.8,27.8z M339.8,23.4c-1,0-1.7,0.7-1.9,1.6
		c0.8,0.1,1.8,0.1,2.4-0.2C341.1,24.3,340.7,23.3,339.8,23.4z"/>
	<path class="st3" d="M343.3,27.8c-0.7,0-1.4-0.2-1.9-0.7l0.5-0.5c0.6,0.6,1.7,0.9,2.4,0.4c0.4-0.2,0.5-0.9,0.1-1.1
		c-0.6-0.4-2.2-0.3-2.2-1.3c0-1.8,2.7-2.3,3.7-1.1l-0.5,0.5c-0.6-0.6-1.9-0.8-2.3,0c-0.1,0.2-0.2,0.6,0.1,0.8c0.6,0.3,1.8,0.3,2.1,1
		C345.9,27,344.5,27.9,343.3,27.8z"/>
</g>
<g class="st5">
	<path class="st3" d="M274.9,37.9c-0.7,0-1.4-0.2-1.9-0.7l0.5-0.5c0.6,0.6,1.7,0.9,2.4,0.4c0.4-0.2,0.5-0.9,0.1-1.1
		c-0.6-0.4-2.2-0.3-2.2-1.3c0-1.8,2.7-2.3,3.7-1.1l-0.5,0.5c-0.6-0.6-1.9-0.8-2.3,0c-0.1,0.2-0.2,0.6,0.1,0.8c0.6,0.3,1.8,0.3,2.1,1
		C277.5,37,276.1,38,274.9,37.9z"/>
	<path class="st3" d="M278.7,37.9c-0.6,0-0.9-0.5-0.8-1l1.2-5.8h0.8l-1.2,5.5c-0.2,0.6,0.5,0.7,0.9,0.5l0,0.7
		C279.4,37.8,279,37.9,278.7,37.9z"/>
</g>
<g class="st5">
	<path class="st3" d="M282.3,37.9c-3.3-0.3-1.7-5.2,1.1-5C286.7,33.2,285,38.1,282.3,37.9z M282.4,37.2c1.8,0.1,2.9-3.3,0.8-3.6
		C281.4,33.5,280.3,36.9,282.4,37.2z"/>
	<path class="st3" d="M285.8,33h0.8l0.8,4.1c0.4-0.5,0.7-1,1.1-1.5l-0.6-2.6h0.8l0.4,1.6c0.3-0.5,0.5-1,0.6-1.6h0.8
		c-0.3,0.9-0.6,1.7-1.1,2.6l0.4,1.6c0.9-1.3,1.7-2.6,2.1-4.1h0.8c-0.5,1.8-1.5,3.3-2.6,4.8h-0.9l-0.3-1.4c-0.3,0.5-0.7,0.9-1,1.4
		h-0.9L285.8,33z"/>
</g>
<g class="st5">
</g>
<g class="st5">
	<path class="st3" d="M295.9,37.9c-0.6,0-1-0.4-0.8-1c0,0,0.7-3.2,0.7-3.2h-0.6l0.1-0.6h0.6l0.3-1.6h0.8l-0.3,1.6h1l-0.1,0.6h-1
		l-0.6,3c-0.2,0.7,0.8,0.5,1.1,0.3l0,0.6C296.8,37.8,296.3,37.9,295.9,37.9z"/>
</g>
<g class="st5">
	<path class="st3" d="M299.2,31.1h0.8l-0.6,3c0.7-1.2,3.1-1.8,3.1,0.1c0,0.6-0.6,3.1-0.7,3.7H301c0.1-0.5,0.7-2.9,0.6-3.3
		c-0.1-1.7-2.1-0.5-2.4,0.4l-0.6,2.9h-0.8L299.2,31.1z"/>
	<path class="st3" d="M305.1,37.9c-1.6,0.1-2.3-1.9-1.7-3.2c0.5-1.4,2.5-2.4,3.9-1.5c0.7,0.5,0.6,1.7-0.2,2.1
		c-0.6,0.4-2.1,0.4-3.1,0.3c-0.2,1.8,1.8,2.2,2.7,0.8l0.7,0.2C306.9,37.4,306,37.9,305.1,37.9z M306.1,33.5c-1,0-1.7,0.7-1.9,1.6
		c0.8,0.1,1.8,0.1,2.4-0.2C307.4,34.4,306.9,33.4,306.1,33.5z"/>
</g>
<g class="st5">
</g>
<g class="st5">
	<path class="st3" d="M311.9,37.9c-0.7,0-1.4-0.2-1.9-0.7l0.5-0.5c0.6,0.6,1.7,0.9,2.4,0.4c0.4-0.2,0.5-0.9,0.1-1.1
		c-0.6-0.4-2.2-0.3-2.2-1.3c0-1.8,2.7-2.3,3.7-1.1L314,34c-0.6-0.6-1.9-0.8-2.3,0c-0.1,0.2-0.2,0.6,0.1,0.8c0.6,0.3,1.8,0.3,2.1,1
		C314.4,37,313,38,311.9,37.9z"/>
	<path class="st3" d="M315.7,33h0.7l-0.2,0.9c1.8-2.2,4.4-0.4,3.4,2.1c-0.5,1.6-3.2,2.8-3.9,0.8l-0.6,2.9h-0.8L315.7,33z
		 M317.1,37.2c1.4,0,2.5-2,1.6-3.2c-0.7-0.9-2.1-0.2-2.5,0.7l-0.3,1.4C316,36.7,316.4,37.2,317.1,37.2z"/>
	<path class="st3" d="M321.3,33h0.8l-0.2,1.1c0.4-0.6,1.1-1.2,1.8-1.1c0,0,0.1,0,0.1,0l-0.1,0.7c-0.8,0-1.5,0.4-1.9,1.1l-0.6,3h-0.8
		L321.3,33z"/>
	<path class="st3" d="M325.5,37.9c-1.6,0.1-2.3-1.9-1.7-3.2c0.5-1.4,2.5-2.4,3.9-1.5c0.7,0.5,0.6,1.7-0.2,2.1
		c-0.6,0.4-2.1,0.4-3.1,0.3c-0.2,1.8,1.8,2.2,2.7,0.8l0.7,0.2C327.3,37.4,326.4,37.9,325.5,37.9z M326.5,33.5c-1,0-1.7,0.7-1.9,1.6
		c0.8,0.1,1.8,0.1,2.4-0.2C327.8,34.4,327.3,33.4,326.5,33.5z"/>
	<path class="st3" d="M330.3,37.9c-2.1-0.1-2.1-2.9-0.9-4.1c0.8-1.1,2.8-1.4,3.3,0.1l0.2-1h0.8l-0.8,3.8c0,0.1,0,0.3,0.2,0.3
		l-0.1,0.7c-0.2,0-0.6,0.1-0.7-0.1c-0.2-0.2-0.1-0.4-0.1-0.8C331.7,37.5,331,37.9,330.3,37.9z M330.6,37.2c0.6,0,1.3-0.5,1.6-1.1
		l0.3-1.4c-0.2-1.3-1.8-1.4-2.5-0.4C329.2,35.1,329.2,37.2,330.6,37.2z"/>
	<path class="st3" d="M335.9,37.9c-2.1-0.1-2.1-2.9-0.9-4.1c0.8-1.1,2.8-1.4,3.3,0.1l0.6-2.9h0.8l-1.2,5.8c0,0.1,0,0.3,0.2,0.3
		l-0.1,0.7c-0.2,0-0.6,0.1-0.7-0.1c-0.2-0.2-0.1-0.5-0.1-0.8C337.3,37.5,336.6,37.9,335.9,37.9z M336.2,37.2c0.6,0,1.3-0.5,1.6-1.1
		l0.3-1.4c-0.2-1.3-1.8-1.4-2.5-0.4C334.8,35.1,334.8,37.2,336.2,37.2z"/>
	<path class="st3" d="M343.9,37.9c-3.3-0.3-1.7-5.2,1.1-5C348.3,33.2,346.7,38.1,343.9,37.9z M344.1,37.2c1.8,0.1,2.9-3.3,0.8-3.6
		C343,33.5,341.9,36.9,344.1,37.2z"/>
	<path class="st3" d="M348.3,33.6h-0.6l0.1-0.6h0.6c0.1-1.4,1.5-2.6,2.8-1.7l-0.3,0.6c-0.8-0.6-1.6,0.2-1.7,1.1h1.2l-0.1,0.6h-1.2
		l-1.3,6.2H347L348.3,33.6z"/>
</g>
<g class="st5">
</g>
<g class="st5">
	<path class="st3" d="M275.2,48c-2.1-0.1-2.1-2.9-0.9-4.1c0.8-1.1,2.8-1.4,3.3,0.1l0.6-2.9h0.8l-1.2,5.8c0,0,0,0,0,0.1
		c0,0.1,0,0.2,0.2,0.2l-0.1,0.7c-0.4,0.1-1,0-0.8-0.6c0-0.1,0-0.2,0.1-0.3C276.6,47.6,275.9,48,275.2,48z M275.5,47.3
		c0.6,0,1.3-0.5,1.6-1.1l0.3-1.4c-0.2-1.3-1.8-1.4-2.5-0.4C274.1,45.2,274.1,47.2,275.5,47.3z"/>
	<path class="st3" d="M279.9,43.1h0.8l-1,4.8h-0.8L279.9,43.1z M280.4,41.1h0.8l-0.2,1h-0.8L280.4,41.1z"/>
	<path class="st3" d="M282.6,48c-0.7,0-1.4-0.2-1.9-0.7l0.5-0.5c0.6,0.6,1.7,0.9,2.4,0.4c0.4-0.2,0.5-0.9,0.1-1.1
		c-0.9-0.4-2.8-0.5-2-2c0.7-1.2,2.6-1.3,3.5-0.4l-0.5,0.5c-0.6-0.6-1.9-0.8-2.3,0c-0.1,0.2-0.2,0.6,0.1,0.8c0.6,0.3,1.8,0.3,2.1,1
		C285.2,47.1,283.8,48.1,282.6,48z"/>
	<path class="st3" d="M287.5,48c-1.6,0.1-2.3-1.9-1.7-3.2c0.5-1.4,2.5-2.4,3.9-1.5c0.7,0.5,0.6,1.7-0.2,2.1
		c-0.6,0.4-2.1,0.4-3.1,0.3c-0.2,1.8,1.8,2.2,2.7,0.8l0.7,0.2C289.3,47.5,288.4,48,287.5,48z M288.4,43.6c-1,0-1.7,0.7-1.9,1.6
		c0.8,0.1,1.8,0.1,2.4-0.2C289.8,44.5,289.3,43.5,288.4,43.6z"/>
	<path class="st3" d="M292.3,48c-2.1-0.1-2.1-2.9-0.9-4.1c0.8-1.1,2.8-1.4,3.3,0.1l0.2-1h0.8l-0.8,3.8c0,0,0,0,0,0.1
		c0,0.1,0,0.2,0.2,0.2l-0.1,0.7c-0.7,0.2-1-0.2-0.8-0.9C293.7,47.6,293,48,292.3,48z M292.6,47.3c0.6,0,1.3-0.5,1.6-1.1l0.3-1.4
		c-0.2-1.3-1.8-1.4-2.5-0.4C291.2,45.2,291.2,47.2,292.6,47.3z"/>
	<path class="st3" d="M297.6,48c-0.7,0-1.4-0.2-1.9-0.7l0.5-0.5c0.6,0.6,1.7,0.9,2.4,0.4c0.4-0.2,0.5-0.9,0.1-1.1
		c-0.6-0.4-2.2-0.3-2.2-1.3c0-1.8,2.7-2.3,3.7-1.1l-0.5,0.5c-0.6-0.6-1.9-0.8-2.3,0c-0.1,0.2-0.2,0.6,0.1,0.8c0.6,0.3,1.8,0.3,2.1,1
		C300.2,47.1,298.7,48.1,297.6,48z"/>
	<path class="st3" d="M302.5,48c-1.6,0.1-2.3-1.9-1.7-3.2c0.5-1.4,2.5-2.4,3.9-1.5c0.7,0.5,0.6,1.7-0.2,2.1
		c-0.6,0.4-2.1,0.4-3.1,0.3c-0.2,1.8,1.8,2.2,2.7,0.8l0.7,0.2C304.2,47.5,303.3,48,302.5,48z M303.4,43.6c-1,0-1.7,0.7-1.9,1.6
		c0.8,0.1,1.8,0.1,2.4-0.2C304.7,44.5,304.3,43.5,303.4,43.6z"/>
	<path class="st3" d="M309.6,48c-2.1-0.1-2.1-2.9-0.9-4.1c0.8-1.1,2.8-1.4,3.3,0.1l0.2-1h0.8l-0.8,3.8c0,0,0,0,0,0.1
		c0,0.1,0,0.2,0.2,0.2l-0.1,0.7c-0.1,0-0.1,0-0.2,0c-0.6,0.1-0.8-0.3-0.6-0.9C311,47.6,310.3,48,309.6,48z M309.9,47.3
		c0.6,0,1.3-0.5,1.6-1.1l0.3-1.4c-0.2-1.3-1.8-1.4-2.5-0.4C308.4,45.2,308.4,47.2,309.9,47.3z"/>
	<path class="st3" d="M314.3,43.1h0.7l-0.2,1c0.7-1.1,3.2-1.9,3.2,0c0,0.6-0.6,3.1-0.7,3.8h-0.8c0.1-0.5,0.7-2.9,0.7-3.4
		c-0.1-1.6-2.1-0.4-2.4,0.5l-0.6,2.9h-0.8L314.3,43.1z"/>
	<path class="st3" d="M320.4,48c-2.1-0.1-2.1-2.9-0.9-4.1c0.8-1.1,2.8-1.4,3.3,0.1l0.6-2.9h0.8l-1.2,5.8c0,0,0,0,0,0.1
		c0,0.1,0,0.2,0.2,0.2l-0.1,0.7c-0.1,0-0.1,0-0.2,0c-0.7,0.1-0.8-0.4-0.6-0.9C321.9,47.6,321.1,48,320.4,48z M320.8,47.3
		c0.6,0,1.3-0.5,1.6-1.1l0.3-1.4c-0.2-1.3-1.8-1.4-2.5-0.4C319.3,45.2,319.3,47.2,320.8,47.3z"/>
	<path class="st3" d="M327.5,43.1h0.8l-0.2,1.1c0.4-0.6,1.1-1.2,1.8-1.1c0,0,0.1,0,0.1,0l-0.1,0.7c-0.8,0-1.5,0.4-1.9,1.1l-0.6,3
		h-0.8L327.5,43.1z"/>
	<path class="st3" d="M331.7,48c-1.6,0.1-2.3-1.9-1.7-3.2c0.5-1.4,2.5-2.4,3.9-1.5c0.7,0.5,0.6,1.7-0.2,2.1
		c-0.6,0.4-2.1,0.4-3.1,0.3c-0.2,1.8,1.8,2.2,2.7,0.8l0.7,0.2C333.5,47.5,332.6,48,331.7,48z M332.6,43.6c-1,0-1.7,0.7-1.9,1.6
		c0.8,0.1,1.8,0.1,2.4-0.2C334,44.5,333.5,43.5,332.6,43.6z"/>
	<path class="st3" d="M336.5,48c-2.1-0.1-2.1-2.9-0.9-4.1c0.8-1.1,2.8-1.4,3.3,0.1l0.6-2.9h0.8l-1.2,5.8c0,0,0,0,0,0.1
		c0,0.1,0,0.2,0.2,0.2l-0.1,0.7c-0.2,0-0.6,0.1-0.7-0.1c-0.2-0.2-0.1-0.5-0.1-0.8C337.9,47.6,337.2,48,336.5,48z M336.8,47.3
		c0.6,0,1.3-0.5,1.6-1.1l0.3-1.4c-0.2-1.3-1.8-1.4-2.5-0.4C335.4,45.2,335.4,47.2,336.8,47.3z"/>
	<path class="st3" d="M341.6,48c-1.1,0.1-1.3-1.1-1-2c0,0,0.6-2.9,0.6-2.9h0.8c-0.1,0.5-0.7,3-0.7,3.4c0.1,1.6,2.1,0.6,2.5-0.4
		l0.6-3h0.8l-0.8,3.8c0,0,0,0,0,0.1c0,0.1,0,0.2,0.2,0.2l-0.1,0.7c-0.9,0.2-0.9-0.3-0.7-1C343.2,47.5,342.4,48,341.6,48z"/>
	<path class="st3" d="M347.6,48c-2.2,0-2.4-2.9-1-4.1c0.9-1.1,3.3-1.4,3.8,0.3l-0.8,0.2c-0.5-1.4-2.5-0.5-2.8,0.6
		c-0.8,1.8,1.1,3.2,2.4,1.5l0.8,0.2C349.4,47.5,348.5,48,347.6,48z"/>
	<path class="st3" d="M352.5,48c-1.6,0.1-2.3-1.9-1.7-3.2c0.5-1.4,2.5-2.4,3.9-1.5c0.7,0.5,0.6,1.7-0.2,2.1
		c-0.6,0.4-2.1,0.4-3.1,0.3c-0.2,1.8,1.8,2.2,2.7,0.8l0.7,0.2C354.3,47.5,353.4,48,352.5,48z M353.5,43.6c-1,0-1.7,0.7-1.9,1.6
		c0.8,0.1,1.8,0.1,2.4-0.2C354.8,44.5,354.4,43.5,353.5,43.6z"/>
	<path class="st3" d="M359,48c-0.6,0-1-0.4-0.8-1c0,0,0.7-3.2,0.7-3.2h-0.6l0.1-0.6h0.6l0.3-1.6h0.8l-0.3,1.6h1l-0.1,0.6h-1l-0.6,3
		c-0.2,0.7,0.8,0.5,1.1,0.3l0,0.6C359.9,47.9,359.4,48,359,48z"/>
	<path class="st3" d="M362.3,41.1h0.8l-0.6,3c0.7-1.2,3.1-1.8,3.1,0.1c0,0.6-0.6,3.1-0.7,3.7h-0.8l0.6-2.7c0.5-2.3-1.7-1.6-2.3-0.2
		l-0.6,2.9h-0.8L362.3,41.1z"/>
	<path class="st3" d="M368.2,48c-1.6,0.1-2.3-1.9-1.7-3.2c0.5-1.4,2.5-2.4,3.9-1.5c0.7,0.5,0.6,1.7-0.2,2.1
		c-0.6,0.4-2.1,0.4-3.1,0.3c-0.2,1.8,1.8,2.2,2.7,0.8l0.7,0.2C370,47.5,369.1,48,368.2,48z M369.1,43.6c-1,0-1.7,0.7-1.9,1.6
		c0.8,0.1,1.8,0.1,2.4-0.2C370.5,44.5,370,43.5,369.1,43.6z"/>
</g>
<g class="st5">
	<path class="st3" d="M275.7,58.1c-0.7,0-1.2-0.4-1.5-1L274,58h-0.7l1.4-6.8h0.8l-0.6,2.9c0.9-1.2,2.9-1.6,3.4,0.2
		C278.8,56,277.5,58,275.7,58.1z M275.7,57.4c1.3,0,2.2-1.5,1.8-2.7c-0.4-1.5-2.2-0.8-2.7,0.2l-0.3,1.4
		C274.5,56.9,275.1,57.4,275.7,57.4z"/>
	<path class="st3" d="M280.2,58.1c-1.1,0.1-1.3-1.1-1-2c0,0,0.6-2.9,0.6-2.9h0.8c-0.1,0.5-0.7,3-0.7,3.4c0.1,1.6,2.1,0.6,2.5-0.4
		l0.6-3h0.8l-0.8,3.8c0,0.1,0,0.3,0.2,0.3l-0.1,0.7c-0.1,0-0.1,0-0.2,0c-0.4,0.1-0.8-0.2-0.6-0.6c0-0.1,0-0.2,0.1-0.4
		C281.9,57.6,281.1,58.1,280.2,58.1z"/>
	<path class="st3" d="M285.2,53.1h0.8l-0.2,1.1c0.4-0.6,1.1-1.2,1.8-1.1c0,0,0.1,0,0.1,0l-0.1,0.7c-0.8,0-1.5,0.4-1.9,1.1l-0.6,3
		h-0.8L285.2,53.1z"/>
	<path class="st3" d="M289.3,58.1c-2.1-0.1-2.1-2.9-0.9-4.1c0.8-1.1,2.8-1.4,3.3,0.1l0.6-2.9h0.8l-1.2,5.8c0,0,0,0,0,0.1
		c0,0.1,0,0.2,0.2,0.2l-0.1,0.7c-0.4,0.1-1,0-0.8-0.6c0-0.1,0-0.2,0.1-0.3C290.7,57.6,290,58.1,289.3,58.1z M289.6,57.4
		c0.6,0,1.3-0.5,1.6-1.1l0.3-1.4c-0.2-1.3-1.8-1.4-2.5-0.4C288.2,55.3,288.2,57.3,289.6,57.4z"/>
	<path class="st3" d="M295.1,58.1c-1.6,0.1-2.3-1.9-1.7-3.2c0.5-1.4,2.5-2.4,3.9-1.5c0.7,0.5,0.6,1.7-0.2,2.1
		c-0.6,0.4-2.1,0.4-3.1,0.3c-0.2,1.8,1.8,2.2,2.7,0.8l0.7,0.2C296.8,57.6,296,58.1,295.1,58.1z M296,53.7c-1,0-1.7,0.7-1.9,1.6
		c0.8,0.1,1.8,0.1,2.4-0.2C297.4,54.6,296.9,53.6,296,53.7z"/>
	<path class="st3" d="M299,53.1h0.7l-0.2,1c0.7-1.1,3.2-1.9,3.2,0c0,0.6-0.6,3.1-0.7,3.8h-0.8c0.1-0.5,0.7-2.9,0.7-3.4
		c-0.1-1.6-2.1-0.4-2.4,0.5l-0.6,2.9H298L299,53.1z"/>
	<path class="st3" d="M307.5,58.1c-3.3-0.3-1.7-5.2,1.1-5C311.9,53.4,310.3,58.2,307.5,58.1z M307.7,57.4c1.8,0.1,2.9-3.3,0.8-3.6
		C306.7,53.7,305.6,57.1,307.7,57.4z"/>
	<path class="st3" d="M311.9,53.1h0.7l-0.2,1c0.7-1.1,3.2-1.9,3.2,0c0,0.6-0.6,3.1-0.7,3.8h-0.8c0.1-0.5,0.7-2.9,0.7-3.4
		c-0.1-1.6-2.1-0.4-2.4,0.5l-0.6,2.9h-0.8L311.9,53.1z"/>
	<path class="st3" d="M319.8,51.2h0.8l-0.6,3c0.7-1.2,3.1-1.8,3.1,0.1c0,0.6-0.6,3.1-0.7,3.7h-0.8c0.1-0.5,0.7-2.9,0.6-3.3
		c-0.1-1.7-2.1-0.5-2.4,0.4l-0.6,2.9h-0.8L319.8,51.2z"/>
	<path class="st3" d="M325.7,58.1c-3.3-0.3-1.7-5.2,1.1-5C330.1,53.4,328.4,58.2,325.7,58.1z M325.8,57.4c1.8,0.1,2.9-3.3,0.8-3.6
		C324.8,53.7,323.7,57.1,325.8,57.4z"/>
	<path class="st3" d="M330.6,58.1c-0.7,0-1.4-0.2-1.9-0.7l0.5-0.5c0.6,0.6,1.7,0.9,2.4,0.4c0.4-0.2,0.5-0.9,0.1-1.1
		c-0.6-0.4-2.2-0.3-2.2-1.3c0-1.8,2.7-2.3,3.7-1.1l-0.5,0.5c-0.6-0.6-1.9-0.8-2.3,0c-0.1,0.2-0.2,0.6,0.1,0.8c0.6,0.3,1.8,0.3,2.1,1
		C333.2,57.2,331.8,58.1,330.6,58.1z"/>
	<path class="st3" d="M334.4,53.1h0.7L335,54c1.8-2.2,4.4-0.4,3.4,2.1c-0.5,1.6-3.2,2.8-3.9,0.8l-0.6,2.9H333L334.4,53.1z
		 M335.8,57.4c1.4,0,2.5-2,1.6-3.2c-0.7-0.9-2.1-0.2-2.5,0.7l-0.3,1.4C334.7,56.8,335.1,57.4,335.8,57.4z"/>
	<path class="st3" d="M340,53.1h0.8l-1,4.8H339L340,53.1z M340.4,51.2h0.8l-0.2,1h-0.8L340.4,51.2z"/>
	<path class="st3" d="M342.3,58c-0.6,0-1-0.4-0.8-1c0,0,0.7-3.2,0.7-3.2h-0.6l0.1-0.6h0.6l0.3-1.6h0.8l-0.3,1.6h1l-0.1,0.6h-1
		l-0.6,3c-0.2,0.7,0.8,0.5,1.1,0.3l0,0.6C343.2,57.9,342.7,58,342.3,58z"/>
	<path class="st3" d="M346,58.1c-2.1-0.1-2.1-2.9-0.9-4.1c0.8-1.1,2.8-1.4,3.3,0.1l0.2-1h0.8l-0.8,3.8c0,0,0,0,0,0.1
		c0,0.1,0,0.2,0.2,0.2l-0.1,0.7c-0.2,0-0.6,0.1-0.7-0.1c-0.2-0.2-0.1-0.4-0.1-0.8C347.4,57.6,346.7,58.1,346,58.1z M346.3,57.4
		c0.6,0,1.3-0.5,1.6-1.1l0.3-1.4c-0.2-1.3-1.8-1.4-2.5-0.4C344.9,55.3,344.9,57.3,346.3,57.4z"/>
	<path class="st3" d="M350.7,58c-0.6,0-0.9-0.5-0.8-1l1.2-5.8h0.8l-1.2,5.5c-0.2,0.6,0.5,0.7,0.9,0.5l0,0.7
		C351.4,58,351,58,350.7,58z"/>
	<path class="st3" d="M353.9,58.1c-0.7,0-1.4-0.2-1.9-0.7l0.5-0.5c0.6,0.6,1.7,0.9,2.4,0.4c0.4-0.2,0.5-0.9,0.1-1.1
		c-0.6-0.4-2.2-0.3-2.2-1.3c0-1.8,2.7-2.3,3.7-1.1l-0.5,0.5c-0.6-0.6-1.9-0.8-2.3,0c-0.1,0.2-0.2,0.6,0.1,0.8c0.6,0.3,1.8,0.3,2.1,1
		C356.5,57.2,355.1,58.1,353.9,58.1z"/>
</g>
<g class="st5">
	<path class="st3" d="M402.7,122.3h0.5l0.6,3.1c0.4-0.4,0.7-0.9,0.9-1.3l-0.4-1.7h0.5l0.3,1.2c0.2-0.4,0.3-0.8,0.4-1.2h0.4
		c-0.2,0.6-0.4,1.2-0.8,1.7l0.3,1.3c0.7-0.9,1.3-2,1.6-3.1h0.4c-0.3,1.2-1,2.3-1.9,3.5h-0.5l-0.3-1.2c-0.3,0.4-0.6,0.8-0.9,1.2h-0.5
		L402.7,122.3z"/>
	<path class="st3" d="M408.2,122.3h0.5l-0.7,3.5h-0.5L408.2,122.3z M408.5,120.9h0.5l-0.1,0.7h-0.5L408.5,120.9z"/>
	<path class="st3" d="M409.8,125.8c-0.4,0-0.7-0.3-0.6-0.7c0,0,0.5-2.5,0.5-2.5h-0.5l0.1-0.4h0.5l0.3-1.2h0.5l-0.3,1.2h0.8l-0.1,0.4
		h-0.8l-0.5,2.3c0,0,0,0.1,0,0.1c-0.1,0.5,0.6,0.4,0.8,0.2l0,0.4C410.4,125.7,410,125.8,409.8,125.8z"/>
	<path class="st3" d="M412.1,120.9h0.5l-0.5,2.2c0.5-0.9,2.3-1.4,2.3,0c0,0.4-0.4,2.2-0.5,2.7h-0.5c0.1-0.4,0.5-2.1,0.5-2.5
		c0-1.3-1.7-0.4-1.9,0.3l-0.4,2.1h-0.5L412.1,120.9z"/>
</g>
<g class="st5">
</g>
<g class="st5">
	<path class="st3" d="M417.9,125.8c-1.5,0-1.7-2.1-0.7-3c0.7-0.8,2.3-1,2.7,0.2l-0.5,0.1c-0.4-1.1-1.9-0.4-2.2,0.5
		c-0.6,1.4,0.9,2.5,1.9,1.2l0.4,0.1C419.1,125.5,418.5,125.8,417.9,125.8z"/>
</g>
<g class="st5">
	<path class="st3" d="M421.4,125.8c-2.4-0.2-1.2-3.7,0.8-3.6C424.5,122.4,423.3,125.9,421.4,125.8z M421.5,125.4
		c1.4,0.1,2.3-2.6,0.6-2.8C420.6,122.5,419.8,125.2,421.5,125.4z"/>
</g>
<g class="st5">
	<path class="st3" d="M424.5,122.3h0.4l-0.2,0.8c0.5-0.8,2.4-1.4,2.3,0c0,0.5-0.4,2.2-0.5,2.7h-0.5c0.1-0.4,0.5-2.1,0.5-2.5
		c-0.1-1.3-1.7-0.3-1.9,0.4l-0.4,2.1h-0.5L424.5,122.3z"/>
</g>
<g class="st5">
	<path class="st3" d="M428.4,125.8c-0.4,0-0.7-0.3-0.6-0.7c0,0,0.5-2.5,0.5-2.5h-0.5l0.1-0.4h0.5l0.3-1.2h0.5l-0.3,1.2h0.8l-0.1,0.4
		h-0.8l-0.5,2.3c-0.2,0.6,0.5,0.5,0.8,0.3l0,0.4C429,125.7,428.6,125.8,428.4,125.8z"/>
</g>
<g class="st5">
	<path class="st3" d="M430.4,122.3h0.4l-0.2,0.8c0.3-0.4,0.7-0.8,1.3-0.8c0,0,0.1,0,0.1,0c0,0,0,0,0.1,0l-0.1,0.4
		c-0.6,0-1.1,0.4-1.4,0.9l-0.5,2.2h-0.5L430.4,122.3z"/>
</g>
<g class="st5">
	<path class="st3" d="M433.2,125.8c-2.4-0.2-1.2-3.7,0.8-3.6C436.3,122.4,435.2,125.9,433.2,125.8z M433.3,125.4
		c1.4,0.1,2.3-2.6,0.6-2.8C432.5,122.5,431.6,125.2,433.3,125.4z"/>
	<path class="st3" d="M436.3,125.8c-0.4,0-0.6-0.3-0.5-0.7c0,0,0.9-4.3,0.9-4.3h0.5c0,0.1-0.9,4-0.9,4.2c-0.1,0.4,0.4,0.4,0.7,0.3
		l0,0.4C436.8,125.7,436.5,125.8,436.3,125.8z"/>
	<path class="st3" d="M438.5,125.8c-0.5,0-1-0.2-1.3-0.5l0.3-0.3c0.5,0.7,2.4,0.6,2-0.5c-0.4-0.4-1.1-0.3-1.5-0.6
		c-0.3-0.2-0.3-0.7-0.1-1c0.4-0.8,1.9-1,2.5-0.2l-0.3,0.3c-0.4-0.5-1.4-0.6-1.8,0c-0.1,0.2-0.1,0.5,0.1,0.6c0.3,0.2,1.1,0.3,1.4,0.5
		C440.7,124.8,439.4,125.9,438.5,125.8z"/>
</g>
<g>
	<polyline class="st3" points="15.1,111.2 18.2,111.2 18.2,110.2 15.1,110.2 	"/>
</g>
<g>
	<path class="st3" d="M524.7,111.2h6.1v-1h-6.1V111.2z M512.5,111.2h6.1v-1h-6.1V111.2z M500.3,111.2h6.1v-1h-6.1V111.2z
		 M488.1,111.2h6.1v-1h-6.1V111.2z M475.9,111.2h6.1v-1h-6.1V111.2z M463.7,111.2h6.1v-1h-6.1V111.2z M451.5,111.2h6.1v-1h-6.1
		V111.2z M439.3,111.2h6.1v-1h-6.1V111.2z M427.1,111.2h6.1v-1h-6.1V111.2z M414.9,111.2h6.1v-1h-6.1V111.2z M402.6,111.2h6.1v-1
		h-6.1V111.2z M390.4,111.2h6.1v-1h-6.1V111.2z M378.2,111.2h6.1v-1h-6.1V111.2z M366,111.2h6.1v-1H366V111.2z M353.8,111.2h6.1v-1
		h-6.1V111.2z M341.6,111.2h6.1v-1h-6.1V111.2z M329.4,111.2h6.1v-1h-6.1V111.2z M317.2,111.2h6.1v-1h-6.1V111.2z M305,111.2h6.1v-1
		H305V111.2z M292.8,111.2h6.1v-1h-6.1V111.2z M280.6,111.2h6.1v-1h-6.1V111.2z M268.4,111.2h6.1v-1h-6.1V111.2z M256.2,111.2h6.1
		v-1h-6.1V111.2z M244,111.2h6.1v-1H244V111.2z M231.8,111.2h6.1v-1h-6.1V111.2z M219.6,111.2h6.1v-1h-6.1V111.2z M207.4,111.2h6.1
		v-1h-6.1V111.2z M195.1,111.2h6.1v-1h-6.1V111.2z M182.9,111.2h6.1v-1h-6.1V111.2z M170.7,111.2h6.1v-1h-6.1V111.2z M158.5,111.2
		h6.1v-1h-6.1V111.2z M146.3,111.2h6.1v-1h-6.1V111.2z M134.1,111.2h6.1v-1h-6.1V111.2z M121.9,111.2h6.1v-1h-6.1
		C121.9,110.1,121.9,111.2,121.9,111.2z M109.7,111.2h6.1v-1h-6.1V111.2z M97.5,111.2h6.1v-1h-6.1V111.2z M85.3,111.2h6.1v-1h-6.1
		V111.2z M73.1,111.2h6.1v-1h-6.1V111.2z M60.9,111.2H67v-1h-6.1C60.9,110.1,60.9,111.2,60.9,111.2z M48.7,111.2h6.1v-1h-6.1V111.2z
		 M36.5,111.2h6.1v-1h-6.1V111.2z M24.3,111.2h6.1v-1h-6.1V111.2z"/>
</g>
<g>
	<polyline class="st3" points="536.9,111.2 539.9,111.2 539.9,110.2 536.9,110.2 	"/>
</g>
<g>
	<rect class="st4" width="546.1" height="173.8"/>
</g>
<g class="st5">
	<path class="st6" d="M418.1,100.2v5.8H417v-2.5h-2.6v2.5h-1.1v-5.8h1.1v2.3h2.6v-2.3H418.1z"/>
	<path class="st6" d="M423.4,105v1h-4v-5.8h3.9v1h-2.8v1.4h2.4v0.9h-2.4v1.5H423.4z"/>
	<path class="st6" d="M425.9,100.2h1l2.2,5.8h-1.2l-0.5-1.4h-2l-0.5,1.4h-1.2L425.9,100.2z M427.2,103.7l-0.8-2.3l-0.8,2.3H427.2z"
		/>
	<path class="st6" d="M429.7,106v-5.8h1.1v4.8h2.9v1H429.7z"/>
</g>
<g class="st5">
	<path class="st6" d="M437.8,101.2H436v4.8h-1.1v-4.8H433v-1h4.8V101.2z"/>
	<path class="st6" d="M443.4,100.2v5.8h-1.1v-2.5h-2.6v2.5h-1.1v-5.8h1.1v2.3h2.6v-2.3H443.4z"/>
	<path class="st6" d="M444.2,103c-0.1-2.7,3.8-4.1,5.1-1.6l-0.9,0.6c-0.9-1.7-3.2-0.7-3.1,1.1c-0.1,1.8,2.2,2.8,3.1,1.1l0.9,0.5
		C448,107.2,444.2,105.8,444.2,103z"/>
	<path class="st6" d="M451.7,100.2h1l2.2,5.8h-1.2l-0.5-1.4h-2l-0.5,1.4h-1.2L451.7,100.2z M453,103.7l-0.8-2.3l-0.8,2.3H453z"/>
	<path class="st6" d="M455.5,106v-5.8c0.6,0,2.8-0.1,3.3,0.2c1.4,0.6,1.5,2.8,0.1,3.4l1.3,2.2H459l-1.2-1.9h-1.1v1.9H455.5z
		 M456.7,103.1h1.4c0.5,0,0.7-0.5,0.7-0.9c0-0.4-0.3-0.9-0.8-0.9c0,0-1.4,0-1.4,0V103.1z"/>
	<path class="st6" d="M465,105v1h-4v-5.8h3.9v1h-2.8v1.4h2.4v0.9h-2.4v1.5H465z"/>
</g>
<g class="st5">
	<path class="st6" d="M471.2,101.7c-0.5-0.4-1.6-0.8-2.2-0.4c-0.8,0.8,0.4,1.2,1.1,1.3c1.3,0.2,2.3,1.1,1.7,2.5
		c-0.9,1.4-3.2,1-4.4,0.2l0.5-1c0.5,0.4,1.3,0.7,1.9,0.7c1,0.1,1.3-0.8,0.5-1.1c-1-0.5-2.8-0.5-2.7-1.9c0-2.1,2.8-2.2,4.1-1.2
		L471.2,101.7z"/>
	<path class="st6" d="M473.3,100.2l1.4,2.8l1.4-2.8h1.2l-2.1,3.8v2h-1.1v-2l-2.1-3.7H473.3z"/>
</g>
<g class="st5">
	<path class="st6" d="M481.4,101.7c-0.5-0.4-1.6-0.8-2.2-0.4c-0.8,0.8,0.4,1.2,1.1,1.3c1.3,0.2,2.3,1.1,1.7,2.5
		c-0.9,1.4-3.2,1-4.4,0.2l0.5-1c0.5,0.4,1.3,0.7,1.9,0.7c1,0.1,1.3-0.8,0.5-1.1c-1-0.5-2.8-0.5-2.7-1.9c0-2.1,2.8-2.2,4.1-1.2
		L481.4,101.7z"/>
</g>
<g class="st5">
	<path class="st6" d="M487.1,101.2h-1.8v4.8h-1.1v-4.8h-1.8v-1h4.8V101.2z"/>
	<path class="st6" d="M491.9,105v1h-4v-5.8h3.9v1H489v1.4h2.4v0.9H489v1.5H491.9z"/>
	<path class="st6" d="M497.4,106v-3.8L496,105h-0.6l-1.5-2.8v3.8h-1.1v-5.8h1.2l1.7,3.3l1.7-3.3h1.2v5.8H497.4z"/>
	<path class="st6" d="M501.4,103c-0.1-2.7,3.8-4.1,5.1-1.6l-0.9,0.6c-0.9-1.7-3.2-0.7-3.1,1.1c-0.1,1.8,2.2,2.8,3.1,1.1l0.9,0.5
		C505.1,107.2,501.3,105.8,501.4,103z"/>
</g>
<g class="st5">
	<path class="st6" d="M508.9,100.2h1l2.2,5.8h-1.2l-0.5-1.4h-2l-0.5,1.4h-1.2L508.9,100.2z M510.2,103.7l-0.8-2.3l-0.8,2.3H510.2z"
		/>
</g>
<g class="st5">
	<path class="st6" d="M512.7,106v-5.8c0.6,0.1,2.7-0.1,3.2,0.2c1.7,0.8,1.3,3.7-0.7,3.7c0,0-1.4,0-1.4,0v1.9H512.7z M513.8,103.1
		h1.3c0.5,0,0.7-0.4,0.7-0.9c0-0.5-0.3-0.9-0.8-0.9c0,0-1.3,0-1.3,0V103.1z"/>
</g>
<g class="st5">
	<path class="st6" d="M519,100.2h1l2.2,5.8h-1.2l-0.5-1.4h-2L518,106h-1.2L519,100.2z M520.3,103.7l-0.8-2.3l-0.8,2.3H520.3z"/>
</g>
<g class="st5">
	<path class="st6" d="M522.3,103c-0.1-2.7,3.8-4.1,5.1-1.6l-0.9,0.6c-0.9-1.7-3.2-0.7-3.1,1.1c-0.1,1.8,2.2,2.8,3.1,1.1l0.9,0.5
		C526,107.2,522.2,105.8,522.3,103z"/>
	<path class="st6" d="M528.2,106v-5.8h1.1v5.8H528.2z"/>
	<path class="st6" d="M534.9,101.2H533v4.8h-1.1v-4.8h-1.8v-1h4.8V101.2z"/>
	<path class="st6" d="M536.2,100.2l1.4,2.8l1.4-2.8h1.2l-2.1,3.8v2h-1.1v-2l-2.1-3.7H536.2z"/>
</g>
<g class="st5">
	<path class="st6" d="M239.1,164.8h-2.3v5.9H236v-5.9h-2.3V164h5.4V164.8z"/>
	<path class="st6" d="M239.9,164.9v-1h0.8v1H239.9z M239.9,170.7v-4.9h0.8v4.9H239.9z"/>
	<path class="st6" d="M249.4,170.7h-0.8c-0.1-0.8,0.2-3.3-0.2-3.9c-0.7-0.9-2,0-2.2,0.9v2.9h-0.8c-0.1-0.7,0.2-3.3-0.2-3.9
		c-0.7-0.9-2,0-2.2,0.9v2.9h-0.8v-4.9h0.7v1c0.6-1.4,3-1.7,3.3,0.1c0.6-1.2,2.3-1.7,3-0.6C249.7,167.2,249.4,169.7,249.4,170.7z"/>
	<path class="st6" d="M252.9,170.8c-2.2,0.1-3.3-2.8-1.8-4.3c1.6-1.7,4.6-0.3,4.2,2.1h-4c0,1.6,2.3,2.3,3,0.8l0.7,0.2
		C254.7,170.3,253.8,170.8,252.9,170.8z M254.6,167.9c-0.2-2.1-3.2-2.1-3.3,0H254.6z"/>
	<path class="st6" d="M260.3,170.8c-0.7,0-1.6-0.2-2.1-0.7l0.4-0.6c0.7,0.6,1.8,0.9,2.6,0.4c0.4-0.2,0.4-0.9,0-1.1
		c-0.8-0.4-2.1-0.3-2.6-1.1c-0.7-2.1,2.5-2.5,3.6-1.4l-0.4,0.5c-0.6-0.6-2.5-0.9-2.6,0.3c0,0.2,0.1,0.4,0.3,0.5
		c0.8,0.4,2.2,0.3,2.7,1.2C262.7,169.9,261.5,170.8,260.3,170.8z"/>
	<path class="st6" d="M263.2,164.9v-1h0.8v1H263.2z M263.2,170.7v-4.9h0.8v4.9H263.2z"/>
	<path class="st6" d="M269.6,170.7h-0.8c-0.1-0.7,0.2-3.3-0.2-3.9c-0.7-0.9-2.1,0-2.4,0.9v2.9h-0.8v-4.9h0.7v1
		c0.5-1,2.4-1.7,3.2-0.5C269.9,167.2,269.6,169.7,269.6,170.7z"/>
	<path class="st6" d="M270.6,168.2c-0.1-2.4,3.4-3.5,4.5-1.3l-0.8,0.3c-0.9-1.5-3-0.5-2.9,1.1c-0.1,1.6,2.1,2.6,2.9,1.1l0.8,0.2
		C274.1,171.8,270.4,170.7,270.6,168.2z"/>
	<path class="st6" d="M278.2,170.8c-2.2,0.1-3.3-2.8-1.8-4.3c1.6-1.7,4.6-0.3,4.2,2.1h-4c0,1.6,2.3,2.3,3,0.8l0.7,0.2
		C280,170.3,279.1,170.8,278.2,170.8z M279.9,167.9c-0.2-2.1-3.2-2.1-3.3,0H279.9z"/>
	<path class="st6" d="M284.2,166.4h-0.7v-0.6h0.7c-0.1-1.9,2-2.6,3.3-1.6l-0.4,0.6c-0.9-0.7-2.3-0.4-2.2,0.9h2.5v4.9h-0.8v-4.2H285
		v4.2h-0.8V166.4z"/>
	<path class="st6" d="M291.4,166.5c-0.8,0-1.5,0.4-1.8,1.1v3h-0.8v-4.9h0.8v1.1c0.3-0.6,0.9-1.1,1.5-1.2c0.1,0,0.2,0,0.3,0V166.5z"
		/>
	<path class="st6" d="M294,170.8c-0.7,0-1.6-0.2-2.1-0.7l0.4-0.6c0.7,0.6,1.8,0.9,2.6,0.4c0.4-0.2,0.4-0.9,0-1.1
		c-0.8-0.4-2.1-0.3-2.6-1.1c-0.7-2.1,2.5-2.5,3.6-1.4l-0.4,0.5c-0.6-0.6-2.5-0.9-2.6,0.3c0,0.2,0.1,0.4,0.3,0.5
		c0.7,0.3,1.7,0.4,2.3,0.8C296.7,169.4,295.3,170.9,294,170.8z"/>
	<path class="st6" d="M299.4,170.4c-0.8,0.4-2.3,0.5-2.3-0.7c0,0,0-3.3,0-3.3h-0.7v-0.6h0.7v-1.6h0.8v1.6h1.1v0.6h-1.1v3
		c0,0.7,0.9,0.6,1.3,0.3L299.4,170.4z"/>
	<path class="st6" d="M302.2,168.2c-0.1-2.4,3.4-3.5,4.5-1.3l-0.8,0.3c-0.9-1.5-3-0.5-2.9,1.1c-0.1,1.6,2.1,2.6,2.9,1.1l0.8,0.2
		C305.7,171.8,302.1,170.7,302.2,168.2z"/>
	<path class="st6" d="M309,170.8c-1.1,0.1-2-1.1-1.5-2.1c0.6-1.1,2.2-1,3.3-0.7c0.2-1.9-1.5-2.1-2.8-1.1l-0.3-0.5
		c1.5-1.1,4-0.8,3.9,1.3c0,0,0,2,0,2c0,0.2,0.1,0.3,0.3,0.3v0.7c-0.4,0.1-0.9,0-1-0.5l0-0.3C310.4,170.5,309.7,170.8,309,170.8z
		 M309.2,170.2c0.5,0,1.1-0.2,1.4-0.6c0.3-0.2,0.1-0.8,0.2-1.1c-0.7-0.3-1.7-0.4-2.2,0C307.7,169,308.3,170.2,309.2,170.2z"/>
	<path class="st6" d="M314.6,170.8c-0.7,0-1.6-0.2-2.1-0.7l0.4-0.6c0.7,0.6,1.8,0.9,2.6,0.4c0.4-0.2,0.4-0.9,0-1.1
		c-0.8-0.4-2.1-0.3-2.6-1.1c-0.7-2.1,2.5-2.5,3.6-1.4l-0.4,0.5c-0.6-0.6-2.5-0.9-2.6,0.3c0,0.2,0.1,0.4,0.3,0.5
		c0.8,0.4,2.2,0.3,2.7,1.2C316.9,169.9,315.8,170.8,314.6,170.8z"/>
	<path class="st6" d="M319.7,170.8c-2.2,0.1-3.3-2.8-1.8-4.3c1.6-1.7,4.5-0.4,4.2,1.9c0,0.1,0,0.1,0,0.1h-4c0,1.6,2.3,2.3,3,0.8
		l0.7,0.2C321.4,170.3,320.5,170.8,319.7,170.8z M321.3,167.9c-0.2-2.1-3.2-2.1-3.3,0H321.3z"/>
</g>
<g class="st5">
	<path class="st6" d="M2.9,124.9H8v0.8H1.4v-0.7l5.2-4.1H1.4v-0.8H8v0.7L2.9,124.9z"/>
	<path class="st6" d="M8.1,117.2c0,1.2-0.9,1.5-2,1.6c0,0-2.9,0-2.9,0v-0.8h2.8c2.1,0.1,1.7-2.2,0.3-2.6H3.1v-0.8H7
		c0.2,0,0.3-0.1,0.3-0.3H8c0.1,0.4,0,0.9-0.5,1c0,0-0.6,0-0.6,0C7.7,115.6,8.1,116.3,8.1,117.2z"/>
	<path class="st6" d="M8,105.7v0.8c-0.8,0.1-3.3-0.2-3.9,0.2c-0.9,0.7,0,2,0.9,2.2H8v0.8c-0.7,0.1-3.3-0.2-3.9,0.2
		c-0.9,0.7,0,2,0.9,2.2H8v0.8H3.1v-0.7h1c-1.4-0.6-1.7-3,0.1-3.3c-1.2-0.6-1.7-2.2-0.6-3C4.5,105.5,7,105.8,8,105.7z"/>
	<path class="st6" d="M8.1,101.9c0,0.7-0.4,1.4-1,1.8H8v0.7H1.2v-0.8h2.9c-1.2-0.7-1.4-2.5-0.3-3.4C5.3,98.9,8.1,99.8,8.1,101.9z
		 M7.4,102.1c0-1.2-1.4-2-2.5-1.6c-1.6,0.5-1.4,2.4,0,3h1.4C6.9,103.5,7.4,102.8,7.4,102.1z"/>
	<path class="st6" d="M8.1,96.4c0.1,2.2-2.8,3.3-4.3,1.8c-1.7-1.6-0.3-4.6,2.1-4.2v4c1.6,0,2.3-2.3,0.8-3l0.2-0.7
		C7.7,94.7,8.1,95.6,8.1,96.4z M5.2,94.8c-2.1,0.2-2.1,3.2,0,3.3V94.8z"/>
	<path class="st6" d="M3.8,90.5c0,0.8,0.4,1.5,1.1,1.8h3v0.8H3.1v-0.8h1.1c-0.6-0.3-1.1-0.9-1.2-1.5c0-0.1,0-0.2,0-0.3H3.8z"/>
</g>
<g class="st5">
</g>
<g class="st5">
	<path class="st6" d="M8.1,85.5c0,3.3-5,3.2-5.1,0C3.1,82.2,8.1,82.2,8.1,85.5z M5.6,87.1c2.4,0,2.4-3.2,0-3.2
		C3.2,83.9,3.2,87.1,5.6,87.1z"/>
</g>
<g class="st5">
	<path class="st6" d="M8,81.8H3.8v0.7H3.1v-0.7c-1.6,0.1-2.6-1.2-1.7-2.6L2,79.5c-0.6,0.9,0.1,1.7,1.1,1.5v-1.3h0.6V81H8V81.8z"/>
</g>
<g class="st5">
	<path class="st6" d="M5.5,77c-2.4,0.1-3.5-3.4-1.3-4.5l0.3,0.8c-1.5,0.9-0.5,3,1.1,2.9c1.6,0.1,2.6-2.1,1.1-2.9l0.2-0.8
		C9.1,73.5,8,77.1,5.5,77z"/>
	<path class="st6" d="M8.1,70.2c0.1,1.1-1.1,2-2.1,1.5c-1.1-0.6-1-2.2-0.7-3.3c-1.9-0.2-2.1,1.5-1.1,2.8l-0.5,0.3
		c-1.1-1.5-0.8-4,1.3-3.9c0,0,2,0,2,0c0.2,0,0.3-0.1,0.3-0.3H8c0.1,0.4,0,0.9-0.5,1l-0.3,0C7.8,68.8,8.1,69.5,8.1,70.2z M7.5,70
		c0-0.5-0.2-1.1-0.6-1.4c-0.2-0.3-0.8-0.1-1.1-0.2c-0.3,0.7-0.4,1.7,0,2.2C6.3,71.5,7.5,70.9,7.5,70z"/>
	<path class="st6" d="M8.1,64.6c0,0.7-0.2,1.6-0.7,2.1l-0.6-0.4c0.6-0.7,0.9-1.8,0.4-2.6c-0.2-0.4-0.9-0.4-1.1,0
		c-0.4,0.8-0.3,2.1-1.1,2.6c-2.1,0.7-2.5-2.5-1.4-3.6l0.5,0.4c-0.6,0.6-0.9,2.5,0.3,2.6c0.2,0,0.4-0.1,0.5-0.3
		c0.4-0.8,0.3-2.2,1.2-2.7C7.2,62.3,8.2,63.4,8.1,64.6z"/>
	<path class="st6" d="M8.1,59.5c0.1,2.2-2.8,3.3-4.3,1.8c-1.7-1.6-0.3-4.6,2.1-4.2v4c1.6,0,2.3-2.3,0.8-3l0.2-0.7
		C7.7,57.7,8.1,58.6,8.1,59.5z M5.2,57.8c-2.1,0.2-2.1,3.2,0,3.3V57.8z"/>
	<path class="st6" d="M8.1,54.4c0,0.7-0.2,1.6-0.7,2.1l-0.6-0.4c0.6-0.7,0.9-1.8,0.4-2.6c-0.2-0.4-0.9-0.4-1.1,0
		c-0.4,0.8-0.3,2.1-1.1,2.6c-2.1,0.7-2.5-2.5-1.4-3.6L4.2,53c-0.6,0.6-0.9,2.5,0.3,2.6c0.2,0,0.4-0.1,0.5-0.3
		c0.4-0.8,0.3-2.2,1.2-2.7C7.2,52.1,8.2,53.2,8.1,54.4z"/>
</g>
<g>
	<path class="st3" d="M277.2,65.2l0.8,40.7c0,0.3,0.2,0.5,0.5,0.5c0.3,0,0.5-0.2,0.5-0.5l-0.8-40.7c0-0.3-0.2-0.5-0.5-0.5
		C277.4,64.6,277.2,64.9,277.2,65.2"/>
</g>
<g>
	<polygon class="st3" points="274.3,102.6 275,101.9 278.5,105.4 281.8,101.7 282.5,102.4 278.5,106.9 	"/>
</g>
<g>
	<path class="st3" d="M399.8,123.9L364.6,134c-0.1,0-0.2,0.1-0.1,0.2c0,0.1,0.1,0.2,0.2,0.1l35.2-10.1c0.1,0,0.1-0.1,0.1-0.2
		C400,123.9,399.9,123.9,399.8,123.9"/>
</g>
<g>
	<rect class="st4" width="546.1" height="173.8"/>
</g>
<g class="st5">
	<path class="st3" d="M90.4,47.5c-0.8,0.1-0.9-0.9-0.7-1.5c0,0,0.4-2.1,0.4-2.1h0.4c-0.1,0.4-0.5,2.1-0.5,2.5c0.1,1.3,1.7,0.4,2-0.3
		l0.5-2.2H93l-0.6,2.8c0,0.1,0,0.2,0.1,0.2l-0.1,0.4c0,0-0.1,0-0.1,0c-0.2,0-0.4-0.1-0.4-0.3c0-0.2,0-0.3,0.1-0.5
		C91.6,47.1,91.1,47.5,90.4,47.5z"/>
	<path class="st3" d="M94,43.9h0.4l-0.2,0.8c0.5-0.8,2.4-1.4,2.3,0c0,0.5-0.4,2.2-0.5,2.7h-0.5c0.1-0.4,0.5-2.1,0.5-2.5
		c-0.1-1.3-1.7-0.3-1.9,0.4l-0.4,2.1h-0.5L94,43.9z"/>
	<path class="st3" d="M98.4,47.5c-1.5,0-1.7-2.1-0.7-3c0.7-0.8,2.3-1,2.7,0.2l-0.5,0.1c-0.4-1.1-1.9-0.4-2.2,0.5
		c-0.6,1.4,0.9,2.5,1.9,1.2l0.4,0.1C99.7,47.1,99.1,47.5,98.4,47.5z"/>
	<path class="st3" d="M101.9,47.5c-2.4-0.2-1.2-3.7,0.8-3.6C105,44.1,103.9,47.6,101.9,47.5z M102,47.1c1.4,0.1,2.3-2.6,0.6-2.8
		C101.2,44.2,100.3,46.9,102,47.1z"/>
	<path class="st3" d="M105.1,43.9h0.4l-0.2,0.8c0.5-0.8,2.4-1.4,2.3,0c0,0.5-0.4,2.2-0.5,2.7h-0.5c0.1-0.4,0.5-2.1,0.5-2.5
		c-0.1-1.3-1.7-0.3-1.9,0.4l-0.4,2.1h-0.5L105.1,43.9z"/>
	<path class="st3" d="M108.9,47.4c-0.4,0-0.7-0.3-0.6-0.7c0,0,0.5-2.5,0.5-2.5h-0.5l0.1-0.4h0.5l0.3-1.2h0.5l-0.3,1.2h0.8l-0.1,0.4
		h-0.8l-0.5,2.3c-0.2,0.6,0.5,0.5,0.8,0.3l0,0.4C109.5,47.3,109.2,47.4,108.9,47.4z"/>
	<path class="st3" d="M110.9,43.9h0.4l-0.2,0.8c0.3-0.4,0.7-0.8,1.3-0.8c0,0,0.1,0,0.1,0c0,0,0,0,0.1,0l-0.1,0.4
		c-0.6,0-1.1,0.4-1.4,0.9l-0.5,2.2h-0.5L110.9,43.9z"/>
</g>
<g class="st5">
	<path class="st3" d="M113.7,47.5c-2.4-0.2-1.2-3.7,0.8-3.6C116.9,44.1,115.7,47.6,113.7,47.5z M113.8,47.1c1.4,0.1,2.3-2.6,0.6-2.8
		C113,44.2,112.1,46.9,113.8,47.1z"/>
	<path class="st3" d="M116.8,47.4c-0.4,0-0.6-0.3-0.5-0.7l0.9-4.3h0.5c0,0.1-0.9,4-0.9,4.2c-0.1,0.4,0.4,0.4,0.7,0.3l0,0.4
		C117.3,47.4,117,47.4,116.8,47.4z"/>
	<path class="st3" d="M118.6,47.4c-0.4,0-0.6-0.3-0.5-0.7l0.9-4.3h0.5c0,0.1-0.9,4-0.9,4.2c-0.1,0.4,0.4,0.4,0.7,0.3l0,0.4
		C119.1,47.4,118.8,47.4,118.6,47.4z"/>
	<path class="st3" d="M121.1,47.5c-2.6-0.3-1-4.2,1.2-3.6c0.8,0.2,0.9,1.3,0.2,1.7c-0.5,0.3-1.6,0.3-2.3,0.2
		c-0.2,1.4,1.4,1.8,2.1,0.7l0.4,0.1C122.4,47.1,121.8,47.5,121.1,47.5z M121.8,44.2c-0.7,0-1.3,0.6-1.5,1.3c0.6,0,1.4,0.1,2-0.2
		C122.9,44.9,122.5,44.1,121.8,44.2z"/>
	<path class="st3" d="M124.6,47.5c-1.1,0-1.5-1.4-1.1-2.3c0.4-1.2,2.3-2,2.9-0.6l0.5-2.1h0.5l-0.9,4.3c0,0.1,0,0.2,0.1,0.2l-0.1,0.4
		c0,0-0.1,0-0.1,0c-0.5,0.1-0.4-0.3-0.3-0.7C125.7,47.1,125.1,47.5,124.6,47.5z M124.8,47.1c0.5,0,1.1-0.4,1.3-0.9l0.2-1.1
		c-0.1-1.1-1.4-1.1-2-0.3C123.6,45.4,123.7,47,124.8,47.1z"/>
</g>
<g class="st5">
	<path class="st3" d="M90.3,54.5c-0.4,0-0.7-0.3-0.6-0.7c0,0,0.5-2.5,0.5-2.5h-0.5l0.1-0.4h0.5l0.3-1.2H91L90.8,51h0.8l-0.1,0.4
		h-0.8l-0.5,2.3c-0.2,0.6,0.5,0.5,0.8,0.3l0,0.4C90.9,54.4,90.6,54.5,90.3,54.5z"/>
	<path class="st3" d="M92.3,51h0.4l-0.2,0.8c0.3-0.4,0.7-0.8,1.3-0.8c0,0,0.1,0,0.1,0c0,0,0,0,0.1,0l-0.1,0.4
		c-0.6,0-1.1,0.4-1.4,0.9L92,54.5h-0.5L92.3,51z"/>
</g>
<g class="st5">
	<path class="st3" d="M95.1,54.5c-1.1,0-1.5-1.4-1.1-2.3c0.4-1.2,2.3-2,2.9-0.6L97,51h0.5l-0.6,2.9c0,0.1,0,0.2,0.1,0.2l-0.1,0.4
		c0,0-0.1,0-0.1,0c0,0-0.1,0-0.1,0c-0.4,0-0.3-0.4-0.2-0.7C96.1,54.2,95.6,54.5,95.1,54.5z M95.3,54.1c0.5,0,1.1-0.4,1.3-0.9
		l0.2-1.1c-0.1-1-1.5-1.1-2-0.3C94.1,52.5,94.1,54.1,95.3,54.1z"/>
	<path class="st3" d="M98.5,51h0.4l-0.2,0.8c0.5-0.8,2.4-1.4,2.3,0c0,0.5-0.4,2.2-0.5,2.7h-0.5c0.1-0.4,0.5-2.1,0.5-2.5
		c-0.1-1.3-1.7-0.3-1.9,0.4l-0.4,2.1h-0.5L98.5,51z"/>
	<path class="st3" d="M102.6,54.5c-0.5,0-1-0.2-1.3-0.5l0.3-0.3c0.5,0.7,2.4,0.6,2-0.5c-0.4-0.4-1.1-0.3-1.5-0.6
		c-0.3-0.2-0.3-0.7-0.1-1c0.4-0.8,1.9-1,2.5-0.2l-0.3,0.3c-0.4-0.5-1.4-0.6-1.8,0c-0.1,0.2-0.1,0.5,0.1,0.6c0.3,0.2,1.1,0.3,1.4,0.5
		C104.7,53.6,103.5,54.7,102.6,54.5z"/>
	<path class="st3" d="M105.4,51h0.4l-0.2,0.8c0.5-0.9,2.3-1.4,2.2,0.1c0.4-0.9,2.3-1.5,2.2-0.1c0,0.4-0.4,2.2-0.5,2.7h-0.5
		c0.1-0.4,0.5-2.1,0.5-2.5c-0.1-1.3-1.6-0.4-1.8,0.4l-0.4,2.1h-0.5c0.1-0.4,0.5-2.1,0.5-2.5c-0.1-1.3-1.6-0.4-1.8,0.4l-0.4,2.1h-0.5
		L105.4,51z"/>
	<path class="st3" d="M111.2,51h0.5l-0.7,3.5h-0.5L111.2,51z M111.6,49.6h0.5l-0.1,0.7h-0.5L111.6,49.6z"/>
	<path class="st3" d="M113,54.5c-0.5,0-1-0.2-1.3-0.5l0.3-0.3c0.5,0.7,2.4,0.6,2-0.5c-0.4-0.4-1.1-0.3-1.5-0.6
		c-0.3-0.2-0.3-0.7-0.1-1c0.4-0.8,1.9-1,2.5-0.2l-0.3,0.3c-0.4-0.5-1.4-0.6-1.8,0c-0.1,0.2-0.1,0.5,0.1,0.6c0.3,0.2,1.1,0.3,1.4,0.5
		C115.2,53.6,113.9,54.7,113,54.5z"/>
	<path class="st3" d="M116.2,54.5c-0.5,0-1-0.2-1.3-0.5l0.3-0.3c0.5,0.7,2.4,0.6,2-0.5c-0.4-0.4-1.1-0.3-1.5-0.6
		c-0.3-0.2-0.3-0.7-0.1-1c0.4-0.8,1.9-1,2.5-0.2l-0.3,0.3c-0.4-0.5-1.4-0.6-1.8,0c-0.1,0.2-0.1,0.5,0.1,0.6c0.3,0.2,1.1,0.3,1.4,0.5
		C118.3,53.6,117.1,54.7,116.2,54.5z"/>
	<path class="st3" d="M119,51h0.5l-0.7,3.5h-0.5L119,51z M119.3,49.6h0.5l-0.1,0.7h-0.5L119.3,49.6z"/>
	<path class="st3" d="M121.1,54.5c-2.4-0.2-1.2-3.7,0.8-3.6C124.2,51.2,123,54.7,121.1,54.5z M121.1,54.1c1.4,0.1,2.3-2.6,0.6-2.8
		C120.3,51.3,119.5,53.9,121.1,54.1z"/>
	<path class="st3" d="M124.2,51h0.4l-0.2,0.8c0.5-0.8,2.4-1.4,2.3,0c0,0.5-0.4,2.2-0.5,2.7h-0.5c0.1-0.4,0.5-2.1,0.5-2.5
		c-0.1-1.3-1.7-0.3-1.9,0.4l-0.4,2.1h-0.5L124.2,51z"/>
</g>
<g>
	<path class="st3" d="M106.1,59.8c0.3,0,31.8,27.4,32.1,27c0.1-0.1,0.1-0.2,0-0.3c-0.3,0-31.8-27.4-32.1-27
		C106,59.6,106.1,59.7,106.1,59.8"/>
</g>
<g>
	<rect class="st4" width="546.1" height="173.8"/>
</g>
</svg>
