<?xml version="1.0" encoding="utf-8"?>
<!-- Generator: Adobe Illustrator 24.1.0, SVG Export Plug-In . SVG Version: 6.00 Build 0)  -->
<svg version="1.1" id="Layer_1" xmlns="http://www.w3.org/2000/svg" xmlns:xlink="http://www.w3.org/1999/xlink" x="0px" y="0px"
	 viewBox="0 0 567.6 185.4" style="enable-background:new 0 0 567.6 185.4;" xml:space="preserve">
<style type="text/css">
	.st0{fill:#BCD9D4;}
	.st1{fill:#66A99D;}
	.st2{fill:#409385;}
	.st3{fill:#868D99;}
	.st4{fill:#666E7E;}
	.st5{fill:#273349;}
	.st6{fill:#CFE4E0;}
	.st7{fill:#FFFFFF;}
	.st8{fill:#676767;}
	.st9{enable-background:new    ;}
	.st10{fill:#010101;}
</style>
<g>
	<rect x="0.7" y="41.4" class="st0" width="75.2" height="21.7"/>
</g>
<g>
	<rect x="0.7" y="65.5" class="st1" width="75.2" height="21.7"/>
</g>
<g>
	<rect x="0.7" y="89.6" class="st2" width="75.2" height="21.7"/>
</g>
<g>
	<rect x="0.7" y="113.8" class="st3" width="75.2" height="21.7"/>
</g>
<g>
	<rect x="0.7" y="137.9" class="st4" width="75.2" height="21.7"/>
</g>
<g>
	<rect x="0.7" y="162.1" class="st5" width="75.2" height="21.7"/>
</g>
<g>
	<rect x="0.7" y="17.5" class="st6" width="75.2" height="21.1"/>
</g>
<g>
	<path class="st7" d="M0,39.8h541.4H0z"/>
</g>
<g>
	<rect y="39.7" class="st8" width="567.6" height="0.2"/>
</g>
<g>
	<path class="st7" d="M0,185.4h541.4H0z"/>
</g>
<g>
	<rect y="185.1" class="st8" width="567.6" height="0.2"/>
</g>
<g>
	<path class="st7" d="M0,64.3h541.4H0z"/>
</g>
<g>
	<rect y="64" class="st8" width="567.6" height="0.2"/>
</g>
<g>
	<path class="st7" d="M0,88.7h541.4H0z"/>
</g>
<g>
	<rect y="88.2" class="st8" width="567.6" height="0.2"/>
</g>
<g>
	<path class="st7" d="M0,113.1h541.4H0z"/>
</g>
<g>
	<rect y="112.4" class="st8" width="567.6" height="0.2"/>
</g>
<g>
	<path class="st7" d="M0,137.6h541.4H0z"/>
</g>
<g>
	<rect y="136.6" class="st8" width="567.6" height="0.2"/>
</g>
<g>
	<path class="st7" d="M0,162h541.4H0z"/>
</g>
<g>
	<rect y="160.9" class="st8" width="567.6" height="0.2"/>
</g>
<g class="st9">
	<path class="st10" d="M3.3,7.4V0.3H4v6.5h4.1v0.6H3.3z"/>
</g>
<g class="st9">
	<path class="st10" d="M8.4,4.8c0.1-3.6,5.1-3.6,5.2,0C13.5,8.3,8.4,8.3,8.4,4.8z M9.6,6.3c1.9,2,4.4-1.2,2.7-3
		C10.4,1.3,8,4.5,9.6,6.3z"/>
	<path class="st10" d="M16.9,7.5c-2,0.1-3.2-2.4-2.3-4.1c0.8-1.7,3.6-1.8,4.4-0.1l-0.7,0.2c-1-1.7-3.5-0.6-3.4,1.2
		c-0.1,1.9,2.5,3,3.4,1.2l0.7,0.2C18.8,7,17.8,7.5,16.9,7.5z"/>
	<path class="st10" d="M19.7,5.9c0-1.7,2.5-1.8,3.7-1.3c0.2-2-1.7-2.3-3.1-1.3l-0.3-0.5c1.5-1.2,4.1-0.9,4.1,1.4c0,0,0,2.4,0,2.4
		c0,0.2,0.1,0.3,0.2,0.3v0.5c-0.2,0-0.3,0-0.3,0c-0.3,0-0.5-0.2-0.5-0.5l0-0.4C22.6,7.9,19.8,7.9,19.7,5.9z M23.2,6.3
		C23.6,6,23.4,5.4,23.4,5c-1.2-0.6-4.1-0.2-2.7,1.6C21.4,7.2,22.7,6.9,23.2,6.3z"/>
</g>
<g class="st9">
	<path class="st10" d="M25.6,0.1h0.7v6.1c-0.1,0.8,0.6,0.7,1.1,0.5l0.1,0.5c-0.8,0.3-2,0.3-1.9-0.8C25.6,6.4,25.6,0.1,25.6,0.1z"/>
</g>
<g class="st9">
	<path class="st10" d="M32.3,7.5c-0.9,0-1.6-0.3-2.1-0.8l0.3-0.5c0.7,0.7,2,1,2.8,0.5c0.4-0.2,0.5-0.8,0.2-1.1
		c-0.8-0.6-2.4-0.4-2.9-1.4c-0.7-2.1,2.6-2.7,3.7-1.3l-0.3,0.5c-0.5-0.6-1.7-0.8-2.4-0.4c-0.4,0.2-0.5,0.8-0.2,1.1
		c0.2,0.2,0.5,0.3,0.7,0.4c0.6,0.2,1.4,0.3,1.9,0.7C35,6.1,33.7,7.6,32.3,7.5z"/>
	<path class="st10" d="M37.9,7.1c0,0-0.2,0.1-0.3,0.1c-0.7,0.4-2,0.3-2-0.8c0,0,0-3.7,0-3.7h-0.7V2.2h0.7V0.4h0.7v1.8h1.2v0.5h-1.2
		v3.5c0,0.7,1,0.6,1.4,0.3L37.9,7.1z"/>
	<path class="st10" d="M38.3,5.9c0-1.7,2.5-1.8,3.7-1.3c0.2-2-1.7-2.3-3.1-1.3l-0.3-0.5c1.5-1.2,4.1-0.9,4.1,1.4c0,0,0,2.4,0,2.4
		c0,0.2,0.1,0.3,0.2,0.3v0.5c-0.2,0-0.3,0-0.3,0c-0.3,0-0.5-0.2-0.5-0.5l0-0.4C41.1,7.9,38.3,7.9,38.3,5.9z M41.8,6.3
		C42.1,6,42,5.4,42,5c-1.2-0.6-4.1-0.2-2.7,1.6C39.9,7.2,41.2,6.9,41.8,6.3z"/>
	<path class="st10" d="M43.8,4.8c-0.1-2.4,3-3.8,4.4-1.5V2.2h0.6v5.2c0,0.5-0.1,0.9-0.4,1.2c-1,1.4-3.7,1.3-4.5-0.2l0.4-0.3
		c0.8,1.5,3.8,1.3,3.8-0.7c0,0,0-1,0-1C46.8,8.5,43.7,7.1,43.8,4.8z M48.1,5.6V4c-0.9-2.1-3.7-1.4-3.7,0.8C44.4,7,47.5,7.7,48.1,5.6
		z"/>
	<path class="st10" d="M52.5,7.5c-2.6,0.1-3.6-3.8-1.3-5C53,1.3,55.4,3,55.1,5h-4.5c0,1.9,2.6,2.7,3.5,1l0.6,0.2
		C54.4,7,53.4,7.5,52.5,7.5z M50.6,4.5h3.8C54.3,2,50.7,2,50.6,4.5z"/>
	<path class="st10" d="M57.9,7.5c-0.9,0-1.6-0.3-2.1-0.8L56,6.2c0.7,0.7,2,1,2.8,0.5c0.4-0.2,0.5-0.8,0.2-1.1
		c-0.8-0.6-2.4-0.4-2.9-1.4c-0.7-2.1,2.6-2.7,3.7-1.3l-0.3,0.5c-0.5-0.6-1.7-0.8-2.4-0.4c-0.4,0.2-0.5,0.8-0.2,1.1
		c0.2,0.2,0.5,0.3,0.7,0.4c0.6,0.2,1.4,0.3,1.9,0.7C60.6,6.1,59.3,7.6,57.9,7.5z"/>
</g>
<g class="st9">
	<path class="st10" d="M63.1,4.8c0.1-3.6,5.1-3.6,5.2,0C68.3,8.3,63.1,8.3,63.1,4.8z M64.4,6.3c1.9,2,4.4-1.2,2.7-3
		C65.1,1.3,62.7,4.5,64.4,6.3z"/>
</g>
<g class="st9">
	<path class="st10" d="M69.6,7.4V2.7h-0.7V2.2h0.7c-0.2-1.7,1.2-2.8,2.6-1.9L72,0.8C71,0.1,70.2,1,70.3,2.2h1.4v0.5h-1.4v4.7H69.6z"
		/>
</g>
<g class="st9">
	<path class="st10" d="M74.6,4.8c0.1-3.6,5.1-3.6,5.2,0C79.8,8.3,74.6,8.3,74.6,4.8z M75.9,6.3c1.9,2,4.4-1.2,2.7-3
		C76.6,1.3,74.2,4.5,75.9,6.3z"/>
	<path class="st10" d="M80.9,5.2V2.2h0.7v2.9c-0.2,2.5,2.5,2,3.1,0.3V2.2h0.7v4.4c0,0.2,0.1,0.3,0.2,0.3v0.5c-0.1,0-0.2,0-0.3,0
		c-0.3,0-0.5-0.2-0.5-0.5l0-0.7C83.6,8.1,80.7,7.9,80.9,5.2z"/>
	<path class="st10" d="M89.3,7.1c0,0-0.2,0.1-0.3,0.1c-0.7,0.4-2,0.3-2-0.8c0,0,0-3.7,0-3.7h-0.7V2.2h0.7V0.4h0.7v1.8h1.2v0.5h-1.2
		v3.5c0,0.7,1,0.6,1.4,0.3L89.3,7.1z"/>
	<path class="st10" d="M90.8,6.4v1h-0.6V0.1h0.7v3.2c1.4-2.3,4.4-0.9,4.3,1.5C95.3,7.2,92.1,8.6,90.8,6.4z M94.5,4.8
		c0-2.2-2.7-2.9-3.6-0.8v1.6C91.6,7.7,94.5,7,94.5,4.8z"/>
</g>
<g class="st9">
	<path class="st10" d="M98.9,2.8c-0.9,0-1.6,0.5-1.9,1.4v3.2h-0.7V2.2H97v1.2c0.4-0.8,1.1-1.4,2-1.3V2.8z"/>
</g>
<g class="st9">
	<path class="st10" d="M101.8,7.5c-2.6,0.1-3.6-3.8-1.3-5c1.8-1.1,4.2,0.5,3.9,2.6h-4.5c0,1.9,2.6,2.7,3.5,1l0.6,0.2
		C103.7,7,102.7,7.5,101.8,7.5z M99.9,4.5h3.8C103.6,2,100,2,99.9,4.5z"/>
	<path class="st10" d="M105,5.9c0-1.7,2.5-1.8,3.7-1.3c0.2-2-1.7-2.3-3.1-1.3l-0.3-0.5c1.5-1.2,4.1-0.9,4.1,1.4c0,0,0,2.4,0,2.4
		c0,0.2,0.1,0.3,0.2,0.3v0.5c-0.2,0-0.3,0-0.3,0c-0.3,0-0.5-0.2-0.5-0.5l0-0.4C107.9,7.9,105,7.9,105,5.9z M108.5,6.3
		c0.3-0.3,0.2-0.9,0.2-1.3c-1.2-0.6-4.1-0.2-2.7,1.6C106.7,7.2,108,6.9,108.5,6.3z"/>
	<path class="st10" d="M114.6,7.4l-1.9-2.7l-1.1,1v1.6h-0.7V0.1h0.7V5l2.9-2.8h0.7l-2.1,2.1l2.2,3.1H114.6z"/>
</g>
<g class="st9">
	<path class="st10" d="M332.3,8.3H329V1.2h3.4c0.3,0,0.6,0.1,0.9,0.3c1.1,0.7,1,2.7-0.3,3.2C335.1,5.3,334.5,8.4,332.3,8.3z
		 M329.7,1.8v2.6h2.4c0.7,0,1.2-0.6,1.2-1.3c0-0.7-0.5-1.3-1.1-1.3C332.2,1.8,329.7,1.8,329.7,1.8z M332.4,5h-2.7v2.7h2.6
		C334,7.7,334.1,5,332.4,5z"/>
	<path class="st10" d="M335.5,6.1V3.1h0.7V6c-0.2,2.5,2.5,2,3.1,0.3V3.1h0.7v4.4c0,0.2,0.1,0.3,0.2,0.3v0.5c-0.1,0-0.2,0-0.3,0
		c-0.3,0-0.5-0.2-0.5-0.5l0-0.7C338.2,9,335.2,8.8,335.5,6.1z"/>
</g>
<g class="st9">
	<path class="st10" d="M344,3.7c-0.9,0-1.6,0.5-1.9,1.4v3.2h-0.7V3.1h0.6v1.2c0.4-0.8,1.1-1.4,2-1.3V3.7z"/>
</g>
<g class="st9">
	<path class="st10" d="M344.3,5.7c-0.1-2.5,3-3.8,4.3-1.5V1h0.7v6.5c0,0.2,0.1,0.3,0.2,0.3v0.5c-0.1,0-0.2,0-0.3,0
		c-0.6-0.1-0.5-0.6-0.5-1C347.4,9.5,344.2,8.1,344.3,5.7z M348.6,6.5V4.9c-0.9-2.1-3.7-1.5-3.6,0.8C344.9,7.9,348,8.6,348.6,6.5z"/>
	<path class="st10" d="M353.1,8.4c-2.6,0.1-3.6-3.8-1.3-5c1.8-1.1,4.2,0.5,3.9,2.6h-4.5c0,1.9,2.6,2.7,3.5,1l0.6,0.2
		C355,7.9,354,8.4,353.1,8.4z M351.2,5.4h3.8C354.9,2.9,351.3,2.9,351.2,5.4z"/>
	<path class="st10" d="M361.1,8.3h-0.7c-0.1-0.9,0.2-3.6-0.3-4.2c-0.8-1-2.5,0-2.7,1.1v3.2h-0.7V3.1h0.6v1.2
		c0.6-1.1,2.6-1.9,3.4-0.7C361.3,4.6,361,7.2,361.1,8.3z"/>
	<path class="st10" d="M364.7,5.7c0.1-3.6,5.1-3.6,5.2,0C369.8,9.2,364.7,9.2,364.7,5.7z M365.9,7.2c1.9,2,4.4-1.2,2.7-3
		C366.7,2.2,364.3,5.4,365.9,7.2z"/>
	<path class="st10" d="M375.4,8.3h-0.7c-0.1-0.9,0.2-3.6-0.3-4.2c-0.8-1-2.5,0-2.7,1.1v3.2H371V3.1h0.6v1.2c0.6-1.1,2.6-1.9,3.4-0.7
		C375.6,4.6,375.3,7.2,375.4,8.3z"/>
	<path class="st10" d="M383.7,8.3H383V5.4c0.2-2.6-2.5-2-3-0.3v3.2h-0.7V1h0.7v3.3c0.5-1.2,2.5-1.8,3.3-0.7
		C384,4.4,383.6,7.2,383.7,8.3z"/>
	<path class="st10" d="M387.4,8.4c-2.6,0.1-3.6-3.8-1.3-5c1.8-1.1,4.2,0.5,3.9,2.6h-4.5c0,1.9,2.6,2.7,3.5,1l0.6,0.2
		C389.3,7.9,388.3,8.4,387.4,8.4z M385.5,5.4h3.8C389.2,2.9,385.6,2.9,385.5,5.4z"/>
	<path class="st10" d="M390.6,6.8c0-1.7,2.5-1.8,3.7-1.3c0.2-2-1.7-2.3-3.1-1.3l-0.3-0.5c1.5-1.2,4.1-0.9,4.1,1.4c0,0,0,2.4,0,2.4
		c0,0.2,0.1,0.3,0.2,0.3v0.5c-0.2,0-0.3,0-0.3,0c-0.3,0-0.5-0.2-0.5-0.5l0-0.4C393.4,8.8,390.6,8.8,390.6,6.8z M394.1,7.2
		c0.3-0.3,0.2-0.9,0.2-1.3c-1.2-0.6-4.1-0.2-2.7,1.6C392.2,8.2,393.5,7.9,394.1,7.2z"/>
	<path class="st10" d="M396.5,1h0.7v6.1c-0.1,0.8,0.6,0.7,1.1,0.5l0.1,0.5c-0.8,0.3-2,0.3-1.9-0.8C396.5,7.3,396.5,1,396.5,1z"/>
	<path class="st10" d="M401.6,8c0,0-0.2,0.1-0.3,0.1c-0.7,0.4-2,0.3-2-0.8c0,0,0-3.7,0-3.7h-0.7V3.1h0.7V1.3h0.7v1.8h1.2v0.5H400
		v3.5c0,0.7,1,0.6,1.4,0.3L401.6,8z"/>
	<path class="st10" d="M406.8,8.3h-0.7V5.4c0.2-2.6-2.5-2-3-0.3v3.2h-0.7V1h0.7v3.3c0.5-1.2,2.5-1.8,3.3-0.7
		C407.1,4.4,406.8,7.2,406.8,8.3z"/>
	<path class="st10" d="M410.5,8.4c-2,0.1-3.2-2.4-2.3-4.1c0.8-1.7,3.6-1.8,4.4-0.1L412,4.5c-1-1.7-3.5-0.6-3.4,1.2
		c-0.1,1.9,2.5,3,3.4,1.2l0.7,0.2C412.4,7.9,411.4,8.4,410.5,8.4z"/>
	<path class="st10" d="M413.3,6.8c0-1.7,2.5-1.8,3.7-1.3c0.2-2-1.7-2.3-3.1-1.3l-0.3-0.5c1.5-1.2,4.1-0.9,4.1,1.4c0,0,0,2.4,0,2.4
		c0,0.2,0.1,0.3,0.2,0.3v0.5c-0.2,0-0.3,0-0.3,0c-0.3,0-0.5-0.2-0.5-0.5l0-0.4C416.2,8.8,413.4,8.8,413.3,6.8z M416.8,7.2
		c0.3-0.3,0.2-0.9,0.2-1.3c-1.2-0.6-4.1-0.2-2.7,1.6C415,8.2,416.3,7.9,416.8,7.2z"/>
</g>
<g class="st9">
	<path class="st10" d="M421.8,3.7c-0.9,0-1.6,0.5-1.9,1.4v3.2h-0.7V3.1h0.6v1.2c0.4-0.8,1.1-1.4,2-1.3V3.7z"/>
</g>
<g class="st9">
	<path class="st10" d="M424.7,8.4c-2.6,0.1-3.6-3.8-1.3-5c1.8-1.1,4.2,0.5,3.9,2.6h-4.5c0,1.9,2.6,2.7,3.5,1l0.6,0.2
		C426.5,7.9,425.6,8.4,424.7,8.4z M422.8,5.4h3.8C426.5,2.9,422.9,2.9,422.8,5.4z"/>
</g>
<g class="st9">
	<path class="st10" d="M432.5,8.4c-0.9,0-1.6-0.3-2.1-0.8l0.3-0.5c0.7,0.7,2,1,2.8,0.5c0.4-0.2,0.5-0.8,0.2-1.1
		c-0.8-0.6-2.4-0.4-2.9-1.4c-0.7-2.1,2.6-2.7,3.7-1.3l-0.3,0.5c-0.6-0.8-2.7-1-2.8,0.3c0,0.4,0.2,0.6,0.6,0.7
		c0.7,0.3,1.6,0.4,2.2,0.8c0.1,0,0.1,0.1,0.2,0.2C435.1,7.3,433.8,8.5,432.5,8.4z"/>
</g>
<g class="st9">
	<path class="st10" d="M435.9,9.9c0.2,0,0.4,0,0.5,0c0.5-0.3,0.5-0.7,0.9-1.6L435,3.1h0.7l1.9,4.5l1.8-4.5h0.7l-2.7,6.7
		c-0.2,0.5-0.5,0.7-1.1,0.7c-0.1,0-0.3,0-0.4,0V9.9z"/>
</g>
<g class="st9">
	<path class="st10" d="M442.5,8.4c-0.9,0-1.6-0.3-2.1-0.8l0.3-0.5c0.7,0.7,2,1,2.8,0.5c0.4-0.2,0.5-0.8,0.2-1.1
		c-0.8-0.6-2.4-0.4-2.9-1.4c-0.7-2.1,2.6-2.7,3.7-1.3l-0.3,0.5c-0.6-0.8-2.7-1-2.8,0.3c0,0.2,0.1,0.4,0.3,0.6
		c0.7,0.4,1.8,0.4,2.5,0.9C445.3,7.1,444,8.5,442.5,8.4z"/>
</g>
<g class="st9">
	<path class="st10" d="M448.2,8c0,0-0.2,0.1-0.3,0.1c-0.7,0.4-2,0.3-2-0.8c0,0,0-3.7,0-3.7h-0.7V3.1h0.7V1.3h0.7v1.8h1.2v0.5h-1.2
		v3.5c0,0.7,1,0.6,1.4,0.3L448.2,8z"/>
</g>
<g class="st9">
	<path class="st10" d="M451.1,8.4c-2.6,0.1-3.6-3.8-1.3-5c1.8-1.1,4.2,0.5,3.9,2.6h-4.5c0,1.9,2.6,2.7,3.5,1l0.6,0.2
		C453,7.9,452,8.4,451.1,8.4z M449.2,5.4h3.8C452.9,2.9,449.3,2.9,449.2,5.4z"/>
	<path class="st10" d="M462.5,8.3h-0.7V5.4c0.1-2.5-2.4-2.1-2.9-0.3v3.2h-0.7c-0.1-0.9,0.2-3.6-0.3-4.2c-0.8-1-2.3,0-2.6,1.1v3.2
		h-0.7V3.1h0.6v1.2c0.6-1.5,3.3-1.8,3.5,0.1c0.6-1.3,2.4-1.9,3.2-0.8C462.7,4.4,462.4,7.2,462.5,8.3z"/>
</g>
<g class="st9">
	<path class="st10" d="M329.9,21.5v5h-0.6v-6.2h0.5l4,5.1v-5.1h0.6v6.2h-0.6L329.9,21.5z"/>
</g>
<g class="st9">
	<path class="st10" d="M335.5,24.4c0-3.1,4.5-3.1,4.5,0C340,27.4,335.5,27.4,335.5,24.4z M336.6,25.6c1.7,1.7,3.8-1,2.3-2.6
		C337.2,21.3,335.1,24.1,336.6,25.6z"/>
	<path class="st10" d="M343.8,25.7v0.9h-0.5v-6.3h0.6V23c1.2-2,3.9-0.8,3.8,1.3C347.7,26.4,344.9,27.6,343.8,25.7z M347,24.4
		c0-1.9-2.4-2.5-3.2-0.7V25C344.4,26.9,347,26.2,347,24.4z"/>
	<path class="st10" d="M348.5,24.7v-2.7h0.6v2.6c-0.2,2.2,2.2,1.8,2.7,0.3v-2.9h0.6v3.8c0,0.2,0.1,0.2,0.2,0.2v0.5
		c-0.1,0-0.2,0-0.3,0c-0.2,0-0.4-0.2-0.4-0.4l0-0.6C350.9,27.3,348.3,27.1,348.5,24.7z"/>
</g>
<g class="st9">
	<path class="st10" d="M356,22.6c-0.8,0-1.4,0.5-1.7,1.2v2.8h-0.6v-4.5h0.6v1.1c0.3-0.6,0.8-1,1.4-1.1c0.1,0,0.2,0,0.3,0V22.6z"/>
</g>
<g class="st9">
	<path class="st10" d="M356.3,24.4c-0.1-2.2,2.6-3.3,3.8-1.3v-2.8h0.6v5.6c0,0.2,0.1,0.2,0.2,0.2v0.5c-0.1,0-0.2,0-0.3,0
		c-0.5,0-0.5-0.5-0.5-0.9C358.9,27.6,356.2,26.4,356.3,24.4z M360,25v-1.4c-0.8-1.8-3.2-1.3-3.2,0.7C356.8,26.2,359.4,26.9,360,25z"
		/>
	<path class="st10" d="M363.9,26.7c-2.3,0.1-3.1-3.3-1.2-4.4c1.6-1,3.7,0.4,3.4,2.2h-3.9c0,1.6,2.3,2.4,3.1,0.9l0.5,0.1
		C365.6,26.3,364.7,26.7,363.9,26.7z M362.3,24.1h3.3C365.5,21.9,362.4,21.9,362.3,24.1z"/>
	<path class="st10" d="M370.9,26.6h-0.6c-0.1-0.7,0.2-3.1-0.2-3.7c-0.7-0.9-2.2,0-2.4,0.9v2.8h-0.6v-4.5h0.5v1c0.5-1,2.3-1.6,3-0.6
		C371.1,23.4,370.8,25.6,370.9,26.6z"/>
	<path class="st10" d="M374,24.4c0-3.1,4.5-3.1,4.5,0C378.5,27.4,374,27.4,374,24.4z M375.1,25.6c1.7,1.7,3.8-1,2.3-2.6
		C375.7,21.3,373.6,24.1,375.1,25.6z"/>
	<path class="st10" d="M383.3,26.6h-0.6c-0.1-0.7,0.2-3.1-0.2-3.7c-0.7-0.9-2.2,0-2.4,0.9v2.8h-0.6v-4.5h0.5v1c0.5-1,2.3-1.6,3-0.6
		C383.5,23.4,383.2,25.6,383.3,26.6z"/>
	<path class="st10" d="M390.6,26.6H390v-2.5c0.1-2.2-2.2-1.8-2.6-0.2v2.8h-0.6v-6.3h0.6v2.8c0.5-1,2.2-1.6,2.9-0.6
		C390.8,23.2,390.5,25.7,390.6,26.6z"/>
	<path class="st10" d="M393.8,26.7c-2.3,0.1-3.1-3.3-1.2-4.4c1.6-1,3.7,0.4,3.4,2.2h-3.9c0,1.6,2.3,2.4,3.1,0.9l0.5,0.1
		C395.4,26.3,394.6,26.7,393.8,26.7z M392.1,24.1h3.3C395.4,21.9,392.2,21.9,392.1,24.1z"/>
	<path class="st10" d="M396.6,25.3c0-1.5,2.1-1.6,3.2-1.2c0.2-1.8-1.5-2-2.7-1.1l-0.2-0.4c1.3-1,3.6-0.8,3.5,1.2c0,0,0,2.1,0,2.1
		c0,0.2,0.1,0.2,0.2,0.2v0.5c-0.1,0-0.2,0-0.3,0c-0.3,0-0.4-0.2-0.4-0.4l0-0.3C399.1,27,396.6,27,396.6,25.3z M399.6,25.6
		c0.3-0.3,0.2-0.8,0.2-1.1c-1-0.6-3.6-0.1-2.4,1.4C398,26.5,399.2,26.2,399.6,25.6z"/>
	<path class="st10" d="M401.7,20.3h0.6v5.3c-0.1,0.7,0.6,0.6,1,0.4l0.1,0.5c-0.7,0.3-1.7,0.2-1.7-0.7
		C401.7,25.8,401.7,20.3,401.7,20.3z"/>
	<path class="st10" d="M406.2,26.4c0,0-0.2,0.1-0.2,0.1c-0.7,0.3-1.8,0.2-1.8-0.7c0,0,0-3.2,0-3.2h-0.6v-0.5h0.6v-1.5h0.6v1.5h1v0.5
		h-1v3.1c0,0.6,0.8,0.5,1.2,0.3L406.2,26.4z"/>
	<path class="st10" d="M410.8,26.6h-0.6v-2.5c0.1-2.2-2.2-1.8-2.6-0.2v2.8H407v-6.3h0.6v2.8c0.5-1,2.2-1.6,2.9-0.6
		C411,23.2,410.7,25.7,410.8,26.6z"/>
	<path class="st10" d="M414,26.7c-1.8,0.1-2.8-2.1-2-3.5c0.7-1.4,3.1-1.6,3.8-0.1l-0.6,0.2c-0.8-1.5-3.1-0.5-2.9,1.1
		c-0.1,1.7,2.2,2.6,3,1.1l0.6,0.2C415.6,26.3,414.7,26.7,414,26.7z"/>
	<path class="st10" d="M416.4,25.3c0-1.5,2.1-1.6,3.2-1.2c0.2-1.8-1.5-2-2.7-1.1l-0.2-0.4c1.3-1,3.6-0.8,3.5,1.2c0,0,0,2.1,0,2.1
		c0,0.2,0.1,0.2,0.2,0.2v0.5c-0.1,0-0.2,0-0.3,0c-0.3,0-0.4-0.2-0.4-0.4l0-0.3C418.9,27,416.4,27,416.4,25.3z M419.4,25.6
		c0.3-0.3,0.2-0.8,0.2-1.1c-1-0.6-3.6-0.1-2.4,1.4C417.8,26.5,419,26.2,419.4,25.6z"/>
</g>
<g class="st9">
	<path class="st10" d="M423.8,22.6c-0.8,0-1.4,0.5-1.7,1.2v2.8h-0.6v-4.5h0.6v1.1c0.3-0.6,0.8-1.1,1.4-1.1c0.1,0,0.2,0,0.3,0V22.6z"
		/>
</g>
<g class="st9">
	<path class="st10" d="M426.3,26.7c-2.3,0.1-3.1-3.3-1.2-4.4c1.6-1,3.7,0.4,3.4,2.2h-3.9c0,1.6,2.3,2.4,3.1,0.9l0.5,0.1
		C427.9,26.3,427.1,26.7,426.3,26.7z M424.6,24.1h3.3C427.9,21.9,424.7,21.9,424.6,24.1z"/>
</g>
<g class="st9">
	<path class="st10" d="M329.9,46.8v5h-0.6v-6.2h0.5l4,5.1v-5.1h0.6v6.2h-0.6L329.9,46.8z"/>
</g>
<g class="st9">
	<path class="st10" d="M335.5,49.6c0-3.1,4.5-3.1,4.5,0C340,52.7,335.5,52.7,335.5,49.6z M336.6,50.9c1.7,1.7,3.8-1,2.3-2.6
		C337.2,46.6,335.1,49.4,336.6,50.9z"/>
	<path class="st10" d="M343.8,51v0.9h-0.5v-6.3h0.6v2.8c1.2-2,3.9-0.8,3.8,1.3C347.7,51.7,344.9,52.9,343.8,51z M347,49.6
		c0-1.9-2.4-2.5-3.2-0.7v1.4C344.4,52.2,347,51.5,347,49.6z"/>
	<path class="st10" d="M348.5,50v-2.7h0.6v2.6c-0.2,2.2,2.2,1.8,2.7,0.3v-2.9h0.6v3.8c0,0.2,0.1,0.2,0.2,0.2v0.5c-0.1,0-0.2,0-0.3,0
		c-0.2,0-0.4-0.2-0.4-0.4l0-0.6C350.9,52.5,348.3,52.3,348.5,50z"/>
</g>
<g class="st9">
	<path class="st10" d="M356,47.9c-0.8,0-1.4,0.5-1.7,1.2v2.8h-0.6v-4.5h0.6v1.1c0.3-0.6,0.8-1,1.4-1.1c0.1,0,0.2,0,0.3,0V47.9z"/>
</g>
<g class="st9">
	<path class="st10" d="M356.3,49.6c-0.1-2.2,2.6-3.3,3.8-1.3v-2.8h0.6v5.6c0,0.2,0.1,0.2,0.2,0.2v0.5c-0.1,0-0.2,0-0.3,0
		c-0.5,0-0.5-0.5-0.5-0.9C358.9,52.9,356.2,51.7,356.3,49.6z M360,50.3v-1.4c-0.8-1.8-3.2-1.3-3.2,0.7
		C356.8,51.5,359.4,52.2,360,50.3z"/>
	<path class="st10" d="M363.9,52c-2.3,0.1-3.1-3.3-1.2-4.4c1.6-1,3.7,0.4,3.4,2.2h-3.9c0,1.6,2.3,2.4,3.1,0.9l0.5,0.1
		C365.6,51.5,364.7,52,363.9,52z M362.3,49.4h3.3C365.5,47.2,362.4,47.2,362.3,49.4z"/>
	<path class="st10" d="M370.9,51.9h-0.6c-0.1-0.7,0.2-3.1-0.2-3.7c-0.7-0.9-2.2,0-2.4,0.9v2.8h-0.6v-4.5h0.5v1c0.5-1,2.3-1.6,3-0.6
		C371.1,48.6,370.8,50.9,370.9,51.9z"/>
	<path class="st10" d="M374,49.6c0-3.1,4.5-3.1,4.5,0C378.5,52.7,374,52.7,374,49.6z M375.1,50.9c1.7,1.7,3.8-1,2.3-2.6
		C375.7,46.6,373.6,49.4,375.1,50.9z"/>
	<path class="st10" d="M383.3,51.9h-0.6c-0.1-0.7,0.2-3.1-0.2-3.7c-0.7-0.9-2.2,0-2.4,0.9v2.8h-0.6v-4.5h0.5v1c0.5-1,2.3-1.6,3-0.6
		C383.5,48.6,383.2,50.9,383.3,51.9z"/>
	<path class="st10" d="M390.6,51.9H390v-2.5c0.1-2.2-2.2-1.8-2.6-0.2v2.8h-0.6v-6.3h0.6v2.8c0.5-1,2.2-1.6,2.9-0.6
		C390.8,48.5,390.5,51,390.6,51.9z"/>
	<path class="st10" d="M393.8,52c-2.3,0.1-3.1-3.3-1.2-4.4c1.6-1,3.7,0.4,3.4,2.2h-3.9c0,1.6,2.3,2.4,3.1,0.9l0.5,0.1
		C395.4,51.5,394.6,52,393.8,52z M392.1,49.4h3.3C395.4,47.2,392.2,47.2,392.1,49.4z"/>
	<path class="st10" d="M396.6,50.6c0-1.5,2.1-1.6,3.2-1.2c0.2-1.8-1.5-2-2.7-1.1l-0.2-0.4c1.3-1,3.6-0.8,3.5,1.2c0,0,0,2.1,0,2.1
		c0,0.2,0.1,0.2,0.2,0.2v0.5c-0.1,0-0.2,0-0.3,0c-0.3,0-0.4-0.2-0.4-0.4l0-0.3C399.1,52.3,396.6,52.3,396.6,50.6z M399.6,50.9
		c0.3-0.3,0.2-0.8,0.2-1.1c-1-0.6-3.6-0.1-2.4,1.4C398,51.8,399.2,51.5,399.6,50.9z"/>
	<path class="st10" d="M401.7,45.5h0.6v5.3c-0.1,0.7,0.6,0.6,1,0.4l0.1,0.5c-0.7,0.3-1.7,0.2-1.7-0.7
		C401.7,51,401.7,45.5,401.7,45.5z"/>
	<path class="st10" d="M406.2,51.7c0,0-0.2,0.1-0.2,0.1c-0.7,0.3-1.8,0.2-1.8-0.7c0,0,0-3.2,0-3.2h-0.6v-0.5h0.6v-1.5h0.6v1.5h1v0.5
		h-1v3.1c0,0.6,0.8,0.5,1.2,0.3L406.2,51.7z"/>
	<path class="st10" d="M410.8,51.9h-0.6v-2.5c0.1-2.2-2.2-1.8-2.6-0.2v2.8H407v-6.3h0.6v2.8c0.5-1,2.2-1.6,2.9-0.6
		C411,48.5,410.7,51,410.8,51.9z"/>
	<path class="st10" d="M414,52c-1.8,0.1-2.8-2.1-2-3.5c0.7-1.4,3.1-1.6,3.8-0.1l-0.6,0.2c-0.8-1.5-3.1-0.5-2.9,1.1
		c-0.1,1.7,2.2,2.6,3,1.1l0.6,0.2C415.6,51.5,414.7,52,414,52z"/>
	<path class="st10" d="M416.4,50.6c0-1.5,2.1-1.6,3.2-1.2c0.2-1.8-1.5-2-2.7-1.1l-0.2-0.4c1.3-1,3.6-0.8,3.5,1.2c0,0,0,2.1,0,2.1
		c0,0.2,0.1,0.2,0.2,0.2v0.5c-0.1,0-0.2,0-0.3,0c-0.3,0-0.4-0.2-0.4-0.4l0-0.3C418.9,52.3,416.4,52.3,416.4,50.6z M419.4,50.9
		c0.3-0.3,0.2-0.8,0.2-1.1c-1-0.6-3.6-0.1-2.4,1.4C417.8,51.8,419,51.5,419.4,50.9z"/>
</g>
<g class="st9">
	<path class="st10" d="M423.8,47.9c-0.8,0-1.4,0.5-1.7,1.2v2.8h-0.6v-4.5h0.6v1.1c0.3-0.6,0.8-1.1,1.4-1.1c0.1,0,0.2,0,0.3,0V47.9z"
		/>
</g>
<g class="st9">
	<path class="st10" d="M426.3,52c-2.3,0.1-3.1-3.3-1.2-4.4c1.6-1,3.7,0.4,3.4,2.2h-3.9c0,1.6,2.3,2.4,3.1,0.9l0.5,0.1
		C427.9,51.5,427.1,52,426.3,52z M424.6,49.4h3.3C427.9,47.2,424.7,47.2,424.6,49.4z"/>
</g>
<g class="st9">
	<path class="st10" d="M433.1,52c-0.8,0-1.4-0.2-1.9-0.7l0.2-0.4c0.6,0.7,1.7,0.9,2.5,0.5c0.3-0.2,0.5-0.7,0.2-1
		c-0.3-0.3-0.7-0.3-1.2-0.4c-0.5-0.2-1.1-0.3-1.3-0.8c-0.2-0.5,0-1.1,0.4-1.4c0.7-0.5,2.2-0.5,2.8,0.3l-0.3,0.4
		c-0.5-0.7-2.7-0.9-2.4,0.4c0.1,0.3,0.5,0.4,0.7,0.5c0.5,0.2,1,0.3,1.5,0.5C435.6,50.5,434.6,52.1,433.1,52z"/>
</g>
<g class="st9">
	<path class="st10" d="M436,53.3c0.2,0,0.4,0,0.4,0c0.5-0.2,0.4-0.6,0.8-1.4l-2-4.5h0.6l1.7,3.9l1.5-3.9h0.6l-2.3,5.8
		c-0.2,0.4-0.5,0.6-0.9,0.6c-0.1,0-0.2,0-0.4,0V53.3z"/>
</g>
<g class="st9">
	<path class="st10" d="M441.9,52c-0.8,0-1.4-0.2-1.9-0.7l0.2-0.4c0.7,0.7,1.7,0.9,2.5,0.5c0.3-0.2,0.5-0.7,0.2-1
		c-0.3-0.3-0.7-0.3-1.2-0.4c-0.5-0.2-1.1-0.3-1.3-0.8c-0.2-0.5,0-1.1,0.4-1.4c0.7-0.5,2.2-0.5,2.8,0.3l-0.3,0.4
		c-0.5-0.8-3-0.7-2.3,0.6c0.6,0.5,1.6,0.4,2.3,0.9c0,0,0.1,0.1,0.2,0.1c0.1,0.1,0.1,0.1,0.1,0.2c0,0.1,0,0.1,0.1,0.2
		C443.8,51.4,442.9,52,441.9,52z"/>
</g>
<g class="st9">
	<path class="st10" d="M446.7,51.7c0,0-0.2,0.1-0.2,0.1c-0.7,0.3-1.8,0.2-1.8-0.7c0,0,0-3.2,0-3.2h-0.6v-0.5h0.6v-1.5h0.6v1.5h1v0.5
		h-1v3.1c0,0.6,0.8,0.5,1.2,0.3L446.7,51.7z"/>
</g>
<g class="st9">
	<path class="st10" d="M449.3,52c-2.3,0.1-3.1-3.3-1.2-4.4c1.6-1,3.7,0.4,3.4,2.2h-3.9c0,1.6,2.3,2.4,3.1,0.9l0.5,0.1
		C451,51.5,450.1,52,449.3,52z M447.7,49.4h3.3C450.9,47.2,447.8,47.2,447.7,49.4z"/>
	<path class="st10" d="M459.2,51.9h-0.6v-2.5c0.1-2.2-2.1-1.8-2.5-0.2v2.8h-0.6c-0.1-0.7,0.2-3.1-0.2-3.7c-0.7-0.9-2,0-2.2,0.9v2.8
		h-0.6v-4.5h0.5v1c0.6-1.3,2.8-1.6,3.1,0.1c0.5-1.1,2.1-1.6,2.8-0.7C459.4,48.5,459.1,51,459.2,51.9z"/>
</g>
<g class="st9">
	<path class="st10" d="M329.3,77.1V71h0.6v6.2H329.3z"/>
	<path class="st10" d="M335.1,77.1h-0.6c-0.1-0.7,0.2-3.1-0.2-3.7c-0.7-0.9-2.2,0-2.4,0.9v2.8h-0.6v-4.5h0.5v1c0.5-1,2.3-1.6,3-0.6
		C335.4,73.9,335.1,76.2,335.1,77.1z"/>
	<path class="st10" d="M336.4,71.7v-0.9h0.6v0.9H336.4z M336.4,77.1v-4.5h0.6v4.5H336.4z"/>
	<path class="st10" d="M340.5,76.9c0,0-0.2,0.1-0.2,0.1c-0.1,0-0.3,0.1-0.4,0.1c-0.6,0.2-1.4-0.1-1.4-0.8c0,0,0-3.2,0-3.2h-0.6v-0.5
		h0.6v-1.5h0.6v1.5h1v0.5h-1v3.1c0,0.6,0.8,0.5,1.2,0.3L340.5,76.9z"/>
	<path class="st10" d="M341.2,71.7v-0.9h0.6v0.9H341.2z M341.2,77.1v-4.5h0.6v4.5H341.2z"/>
	<path class="st10" d="M342.7,75.8c0-1.5,2.1-1.6,3.2-1.2c0.2-1.8-1.5-2-2.7-1.1l-0.2-0.4c1.3-1,3.6-0.8,3.5,1.2
		c0,0.1-0.1,2.3,0.1,2.3c0,0,0.1,0.1,0.2,0.1v0.5c-0.1,0-0.2,0-0.3,0c-0.3,0-0.4-0.2-0.5-0.4l0-0.3
		C345.2,77.6,342.8,77.6,342.7,75.8z M345.8,76.2c0.3-0.3,0.2-0.8,0.2-1.1c-1-0.6-3.6-0.1-2.4,1.4C344.2,77,345.3,76.8,345.8,76.2z"
		/>
</g>
<g class="st9">
	<path class="st10" d="M347.9,70.8h0.6v5.3c-0.1,0.7,0.6,0.6,1,0.4l0.1,0.5c-0.7,0.3-1.7,0.2-1.7-0.7
		C347.9,76.3,347.9,70.8,347.9,70.8z"/>
</g>
<g class="st9">
	<path class="st10" d="M352.7,76.3v0.9h-0.5v-6.3h0.6v2.8c1.2-2,3.9-0.8,3.8,1.3C356.6,77,353.8,78.2,352.7,76.3z M355.9,74.9
		c0-1.9-2.4-2.5-3.2-0.7v1.4C353.3,77.5,356,76.8,355.9,74.9z"/>
	<path class="st10" d="M357.5,75.3v-2.7h0.6v2.6c-0.2,2.2,2.2,1.8,2.7,0.3v-2.9h0.6v3.8c0,0.1,0,0.1,0,0.2c0,0,0.1,0.1,0.2,0.1v0.5
		c-0.1,0-0.2,0-0.3,0c-0.5,0-0.4-0.7-0.5-1C359.8,77.8,357.3,77.6,357.5,75.3z"/>
</g>
<g class="st9">
	<path class="st10" d="M364.9,73.1c-0.8,0-1.4,0.5-1.7,1.2v2.8h-0.6v-4.5h0.6v1.1c0.3-0.6,0.8-1,1.4-1.1c0.1,0,0.2,0,0.3,0V73.1z"/>
</g>
<g class="st9">
	<path class="st10" d="M365.2,74.9c-0.1-2.2,2.6-3.3,3.8-1.3v-2.8h0.6v5.6c0,0.2,0.1,0.2,0.2,0.2v0.5c-0.1,0-0.2,0-0.3,0
		c-0.5,0-0.5-0.5-0.5-0.9C367.9,78.2,365.1,77,365.2,74.9z M369,75.6v-1.4c-0.8-1.8-3.2-1.3-3.2,0.7C365.7,76.8,368.4,77.5,369,75.6
		z"/>
	<path class="st10" d="M372.8,77.2c-2.3,0.1-3.1-3.3-1.2-4.4c1.6-1,3.7,0.4,3.4,2.2h-3.9c0,1.6,2.3,2.4,3.1,0.9l0.5,0.1
		C374.5,76.8,373.6,77.2,372.8,77.2z M371.2,74.7h3.3C374.4,72.5,371.3,72.5,371.2,74.7z"/>
	<path class="st10" d="M379.8,77.1h-0.6c-0.1-0.7,0.2-3.1-0.2-3.7c-0.7-0.9-2.2,0-2.4,0.9v2.8H376v-4.5h0.5v1c0.5-1,2.3-1.6,3-0.6
		C380,73.9,379.7,76.2,379.8,77.1z"/>
	<path class="st10" d="M382.9,74.9c0-3.1,4.5-3.1,4.5,0C387.4,78,382.9,78,382.9,74.9z M384,76.2c1.7,1.7,3.8-1,2.3-2.6
		C384.7,71.9,382.6,74.6,384,76.2z"/>
	<path class="st10" d="M392.2,77.1h-0.6c-0.1-0.7,0.2-3.1-0.2-3.7c-0.7-0.9-2.2,0-2.4,0.9v2.8h-0.6v-4.5h0.5v1c0.5-1,2.3-1.6,3-0.6
		C392.5,73.9,392.2,76.2,392.2,77.1z"/>
	<path class="st10" d="M399.5,77.1h-0.6v-2.5c0.1-2.2-2.2-1.8-2.6-0.2v2.8h-0.6v-6.3h0.6v2.8c0.5-1,2.2-1.6,2.9-0.6
		C399.7,73.8,399.4,76.2,399.5,77.1z"/>
	<path class="st10" d="M402.7,77.2c-2.3,0.1-3.1-3.3-1.2-4.4c1.6-1,3.7,0.4,3.4,2.2h-3.9c0,1.6,2.3,2.4,3.1,0.9l0.5,0.1
		C404.3,76.8,403.5,77.2,402.7,77.2z M401.1,74.7h3.3C404.3,72.5,401.2,72.5,401.1,74.7z"/>
	<path class="st10" d="M405.5,75.8c0-1.5,2.1-1.6,3.2-1.2c0.2-1.8-1.5-2-2.7-1.1l-0.2-0.4c1.3-1,3.6-0.8,3.5,1.2c0,0,0,2.1,0,2.1
		c0,0.2,0.1,0.2,0.2,0.2v0.5c-0.1,0-0.2,0-0.3,0c-0.3,0-0.4-0.2-0.4-0.4l0-0.3C408,77.6,405.5,77.6,405.5,75.8z M408.5,76.2
		c0.3-0.3,0.2-0.8,0.2-1.1c-1-0.6-3.6-0.1-2.4,1.4C406.9,77,408.1,76.8,408.5,76.2z"/>
	<path class="st10" d="M410.6,70.8h0.6v5.3c-0.1,0.7,0.6,0.6,1,0.4l0.1,0.5c-0.7,0.3-1.7,0.2-1.7-0.7
		C410.6,76.3,410.6,70.8,410.6,70.8z"/>
	<path class="st10" d="M415.1,76.9c0,0-0.2,0.1-0.2,0.1c-0.7,0.3-1.8,0.2-1.8-0.7c0,0,0-3.2,0-3.2h-0.6v-0.5h0.6v-1.5h0.6v1.5h1v0.5
		h-1v3.1c0,0.6,0.8,0.5,1.2,0.3L415.1,76.9z"/>
	<path class="st10" d="M419.7,77.1h-0.6v-2.5c0.1-2.2-2.2-1.8-2.6-0.2v2.8h-0.6v-6.3h0.6v2.8c0.5-1,2.2-1.6,2.9-0.6
		C419.9,73.8,419.6,76.2,419.7,77.1z"/>
	<path class="st10" d="M422.9,77.2c-1.8,0.1-2.8-2.1-2-3.5c0.7-1.4,3.1-1.6,3.8-0.1l-0.6,0.2c-0.8-1.5-3.1-0.5-2.9,1.1
		c-0.1,1.7,2.2,2.6,3,1.1l0.6,0.2C424.5,76.8,423.7,77.2,422.9,77.2z"/>
	<path class="st10" d="M425.3,75.8c0-1.5,2.1-1.6,3.2-1.2c0.2-1.8-1.5-2-2.7-1.1l-0.2-0.4c1.3-1,3.6-0.8,3.5,1.2c0,0,0,2.1,0,2.1
		c0,0.2,0.1,0.2,0.2,0.2v0.5c-0.1,0-0.2,0-0.3,0c-0.3,0-0.4-0.2-0.4-0.4l0-0.3C427.8,77.6,425.4,77.6,425.3,75.8z M428.4,76.2
		c0.3-0.3,0.2-0.8,0.2-1.1c-1-0.6-3.6-0.1-2.4,1.4C426.8,77,427.9,76.8,428.4,76.2z"/>
</g>
<g class="st9">
	<path class="st10" d="M432.7,73.1c-0.8,0-1.4,0.5-1.7,1.2v2.8h-0.6v-4.5h0.6v1.1c0.3-0.6,0.8-1.1,1.4-1.1c0.1,0,0.2,0,0.3,0V73.1z"
		/>
</g>
<g class="st9">
	<path class="st10" d="M435.2,77.2c-2.3,0.1-3.1-3.3-1.2-4.4c1.6-1,3.7,0.4,3.4,2.2h-3.9c0,1.6,2.3,2.4,3.1,0.9l0.5,0.1
		C436.8,76.8,436,77.2,435.2,77.2z M433.6,74.7h3.3C436.8,72.5,433.7,72.5,433.6,74.7z"/>
</g>
<g class="st9">
	<path class="st10" d="M442.1,77.2c-0.8,0-1.4-0.2-1.9-0.7l0.2-0.4c0.6,0.7,1.7,0.9,2.5,0.5c0.3-0.2,0.5-0.7,0.2-1
		c-0.3-0.3-0.7-0.3-1.2-0.4c-0.5-0.2-1.1-0.3-1.3-0.8c-0.2-0.5,0-1.1,0.4-1.4c0.7-0.5,2.2-0.5,2.8,0.3l-0.3,0.4
		c-0.5-0.7-2.7-0.9-2.4,0.4c0.1,0.3,0.5,0.4,0.7,0.5c0.5,0.2,1,0.3,1.5,0.5C444.5,75.8,443.5,77.4,442.1,77.2z"/>
</g>
<g class="st9">
	<path class="st10" d="M445,78.5c0.2,0,0.4,0,0.4,0c0.5-0.2,0.4-0.6,0.8-1.4l-2-4.5h0.6l1.7,3.9l1.5-3.9h0.6l-2.3,5.8
		c-0.2,0.4-0.5,0.6-0.9,0.6c-0.1,0-0.2,0-0.4,0V78.5z"/>
</g>
<g class="st9">
	<path class="st10" d="M450.8,77.2c-0.8,0-1.4-0.2-1.9-0.7l0.2-0.4c0.7,0.7,1.7,0.9,2.5,0.5c0.3-0.2,0.5-0.7,0.2-1
		c-0.7-0.6-2-0.4-2.5-1.2c-0.6-1.8,2.2-2.3,3.2-1.2l-0.3,0.4c-0.5-0.8-3-0.7-2.3,0.6c0.6,0.5,1.6,0.4,2.3,0.9
		c0.1,0.1,0.2,0.2,0.3,0.3C452.8,76.5,451.9,77.3,450.8,77.2z"/>
</g>
<g class="st9">
	<path class="st10" d="M455.7,76.9c0,0-0.2,0.1-0.2,0.1c-0.7,0.3-1.8,0.2-1.8-0.7c0,0,0-3.2,0-3.2h-0.6v-0.5h0.6v-1.5h0.6v1.5h1v0.5
		h-1v3.1c0,0.6,0.8,0.5,1.2,0.3L455.7,76.9z"/>
</g>
<g class="st9">
	<path class="st10" d="M458.3,77.2c-2.3,0.1-3.1-3.3-1.2-4.4c1.6-1,3.7,0.4,3.4,2.2h-3.9c0,1.6,2.3,2.4,3.1,0.9l0.5,0.1
		C459.9,76.8,459,77.2,458.3,77.2z M456.6,74.7h3.3C459.8,72.5,456.7,72.5,456.6,74.7z"/>
	<path class="st10" d="M468.1,77.1h-0.6v-2.5c0.1-2.2-2.1-1.8-2.5-0.2v2.8h-0.6c-0.1-0.7,0.2-3.1-0.2-3.7c-0.7-0.9-2,0-2.2,0.9v2.8
		h-0.6v-4.5h0.5v1c0.6-1.3,2.8-1.6,3.1,0.1c0.5-1.1,2.1-1.6,2.8-0.7C468.4,73.8,468.1,76.2,468.1,77.1z"/>
</g>
<g class="st9">
	<path class="st10" d="M334.8,102.4v-5l-2.2,3.9h-0.4l-2.2-3.9v5h-0.6v-6.2h0.6l2.4,4.2l2.4-4.2h0.6v6.2H334.8z"/>
</g>
<g class="st9">
	<path class="st10" d="M336.4,100.2c0-3.1,4.5-3.1,4.5,0C340.9,103.2,336.4,103.3,336.4,100.2z M337.5,101.5c1.7,1.7,3.8-1,2.3-2.6
		C338.2,97.1,336.1,99.9,337.5,101.5z"/>
	<path class="st10" d="M341.6,100.2c-0.1-2.2,2.6-3.3,3.8-1.3v-2.8h0.6v5.6c0,0.2,0.1,0.2,0.2,0.2v0.5c-0.1,0-0.2,0-0.3,0
		c-0.5,0-0.5-0.5-0.5-0.9C344.3,103.4,341.5,102.3,341.6,100.2z M345.4,100.9v-1.4c-0.8-1.8-3.2-1.3-3.2,0.7
		C342.2,102.1,344.8,102.7,345.4,100.9z"/>
	<path class="st10" d="M349.3,102.5c-2.3,0.1-3.1-3.3-1.2-4.4c1.6-1,3.7,0.4,3.4,2.2h-3.9c0,1.6,2.3,2.4,3.1,0.9l0.5,0.1
		C350.9,102.1,350.1,102.5,349.3,102.5z M347.6,99.9h3.3C350.8,97.8,347.7,97.7,347.6,99.9z"/>
</g>
<g class="st9">
	<path class="st10" d="M354.7,98.4c-0.8,0-1.4,0.5-1.7,1.2v2.8h-0.6v-4.5h0.6V99c0.3-0.6,0.8-1,1.4-1.1c0.1,0,0.2,0,0.3,0V98.4z"/>
</g>
<g class="st9">
	<path class="st10" d="M355.1,101.1c0-1.5,2.1-1.6,3.2-1.2c0.2-1.8-1.5-2-2.7-1.1l-0.2-0.4c1.3-1,3.6-0.8,3.5,1.2c0,0,0,2.1,0,2.1
		c0,0.2,0.1,0.2,0.2,0.2v0.5c-0.1,0-0.2,0-0.3,0c-0.3,0-0.4-0.2-0.4-0.4l0-0.3C357.5,102.8,355.1,102.8,355.1,101.1z M358.1,101.5
		c0.3-0.3,0.2-0.8,0.2-1.1c-1-0.6-3.6-0.1-2.4,1.4C356.5,102.3,357.6,102,358.1,101.5z"/>
</g>
<g class="st9">
	<path class="st10" d="M362.3,102.2c0,0-0.2,0.1-0.2,0.1c-0.7,0.3-1.8,0.2-1.8-0.7c0,0,0-3.2,0-3.2h-0.6v-0.5h0.6v-1.5h0.6v1.5h1
		v0.5h-1v3.1c0,0.6,0.8,0.5,1.2,0.3L362.3,102.2z"/>
</g>
<g class="st9">
	<path class="st10" d="M364.9,102.5c-2.3,0.1-3.1-3.3-1.2-4.4c1.6-1,3.7,0.4,3.4,2.2h-3.9c0,1.6,2.3,2.4,3.1,0.9l0.5,0.1
		C366.5,102.1,365.7,102.5,364.9,102.5z M363.2,99.9h3.3C366.4,97.8,363.3,97.7,363.2,99.9z"/>
</g>
<g class="st9">
	<path class="st10" d="M372.4,102.2c0,0-0.2,0.1-0.2,0.1c-0.7,0.3-1.8,0.2-1.8-0.7c0,0,0-3.2,0-3.2h-0.6v-0.5h0.6v-1.5h0.6v1.5h1
		v0.5h-1v3.1c0,0.6,0.8,0.5,1.2,0.3L372.4,102.2z"/>
</g>
<g class="st9">
	<path class="st10" d="M372.7,100.2c0-3.1,4.5-3.1,4.5,0C377.2,103.2,372.7,103.3,372.7,100.2z M373.8,101.5c1.7,1.7,3.8-1,2.3-2.6
		C374.4,97.1,372.4,99.9,373.8,101.5z"/>
	<path class="st10" d="M384.2,102.4h-0.6v-2.5c0.1-2.2-2.2-1.8-2.6-0.2v2.8h-0.6v-6.3h0.6v2.8c0.5-1,2.2-1.6,2.9-0.6
		C384.5,99.1,384.2,101.5,384.2,102.4z"/>
	<path class="st10" d="M385.5,97v-0.9h0.6V97H385.5z M385.5,102.4v-4.5h0.6v4.5H385.5z"/>
	<path class="st10" d="M387.1,100.2c-0.1-2.1,2.6-3.3,3.8-1.3v-0.9h0.5v4.5c0,0.4-0.1,0.8-0.3,1.1c-0.9,1.2-3.2,1.2-3.9-0.2l0.4-0.3
		c0.7,1.3,3.3,1.1,3.3-0.6c0,0,0-0.9,0-0.9C389.7,103.4,387,102.2,387.1,100.2z M390.9,100.9v-1.4c-0.7-1.9-3.2-1.2-3.2,0.7
		C387.6,102.1,390.3,102.7,390.9,100.9z"/>
	<path class="st10" d="M396.6,102.4H396v-2.5c0.1-2.2-2.2-1.8-2.6-0.2v2.8h-0.6v-6.3h0.6v2.8c0.5-1,2.2-1.6,2.9-0.6
		C396.8,99.1,396.5,101.5,396.6,102.4z"/>
	<path class="st10" d="M400.6,101.5v0.9H400v-6.3h0.6v2.8c1.2-2,3.9-0.8,3.8,1.3C404.5,102.3,401.7,103.4,400.6,101.5z M403.8,100.2
		c0-1.9-2.4-2.5-3.2-0.7v1.4C401.2,102.7,403.8,102.1,403.8,100.2z"/>
	<path class="st10" d="M405.3,100.6v-2.7h0.6v2.6c-0.2,2.2,2.2,1.8,2.7,0.3v-2.9h0.6v3.8c0,0.2,0.1,0.2,0.2,0.2v0.5
		c-0.1,0-0.2,0-0.3,0c-0.2,0-0.4-0.2-0.4-0.4l0-0.6C407.7,103.1,405.1,102.9,405.3,100.6z"/>
</g>
<g class="st9">
	<path class="st10" d="M412.8,98.4c-0.8,0-1.4,0.5-1.7,1.2v2.8h-0.6v-4.5h0.6V99c0.3-0.6,0.8-1,1.4-1.1c0.1,0,0.2,0,0.3,0V98.4z"/>
</g>
<g class="st9">
	<path class="st10" d="M413.1,100.2c-0.1-2.2,2.6-3.3,3.8-1.3v-2.8h0.6v5.6c0,0.2,0.1,0.2,0.2,0.2v0.5c-0.1,0-0.2,0-0.3,0
		c-0.5,0-0.5-0.5-0.5-0.9C415.7,103.4,413,102.3,413.1,100.2z M416.8,100.9v-1.4c-0.8-1.8-3.2-1.3-3.2,0.7
		C413.6,102.1,416.2,102.7,416.8,100.9z"/>
	<path class="st10" d="M420.7,102.5c-2.3,0.1-3.1-3.3-1.2-4.4c1.6-1,3.7,0.4,3.4,2.2h-3.9c0,1.6,2.3,2.4,3.1,0.9l0.5,0.1
		C422.4,102.1,421.5,102.5,420.7,102.5z M419.1,99.9h3.3C422.3,97.8,419.2,97.7,419.1,99.9z"/>
	<path class="st10" d="M427.7,102.4h-0.6c-0.1-0.7,0.2-3.1-0.2-3.7c-0.7-0.9-2.2,0-2.4,0.9v2.8h-0.6v-4.5h0.5v1c0.5-1,2.3-1.6,3-0.6
		C427.9,99.2,427.6,101.5,427.7,102.4z"/>
	<path class="st10" d="M430.8,100.2c0-3.1,4.5-3.1,4.5,0C435.3,103.2,430.8,103.3,430.8,100.2z M431.9,101.5c1.7,1.7,3.8-1,2.3-2.6
		C432.5,97.1,430.4,99.9,431.9,101.5z"/>
	<path class="st10" d="M440.1,102.4h-0.6c-0.1-0.7,0.2-3.1-0.2-3.7c-0.7-0.9-2.2,0-2.4,0.9v2.8h-0.6v-4.5h0.5v1c0.5-1,2.3-1.6,3-0.6
		C440.3,99.2,440,101.5,440.1,102.4z"/>
	<path class="st10" d="M447.4,102.4h-0.6v-2.5c0.1-2.2-2.2-1.8-2.6-0.2v2.8h-0.6v-6.3h0.6v2.8c0.5-1,2.2-1.6,2.9-0.6
		C447.6,99.1,447.3,101.5,447.4,102.4z"/>
	<path class="st10" d="M450.6,102.5c-2.3,0.1-3.1-3.3-1.2-4.4c1.6-1,3.7,0.4,3.4,2.2h-3.9c0,1.6,2.3,2.4,3.1,0.9l0.5,0.1
		C452.2,102.1,451.4,102.5,450.6,102.5z M448.9,99.9h3.3C452.2,97.8,449,97.7,448.9,99.9z"/>
	<path class="st10" d="M453.4,101.1c0-1.5,2.1-1.6,3.2-1.2c0.2-1.8-1.5-2-2.7-1.1l-0.2-0.4c1.3-1,3.6-0.8,3.5,1.2c0,0,0,2.1,0,2.1
		c0,0.2,0.1,0.2,0.2,0.2v0.5c-0.1,0-0.2,0-0.3,0c-0.3,0-0.4-0.2-0.4-0.4l0-0.3C455.9,102.8,453.4,102.8,453.4,101.1z M456.4,101.5
		c0.3-0.3,0.2-0.8,0.2-1.1c-1-0.6-3.6-0.1-2.4,1.4C454.8,102.3,456,102,456.4,101.5z"/>
	<path class="st10" d="M458.5,96.1h0.6v5.3c-0.1,0.7,0.6,0.6,1,0.4l0.1,0.5c-0.7,0.3-1.7,0.2-1.7-0.7
		C458.5,101.6,458.5,96.1,458.5,96.1z"/>
	<path class="st10" d="M463,102.2c0,0-0.2,0.1-0.2,0.1c-0.7,0.3-1.8,0.2-1.8-0.7c0,0,0-3.2,0-3.2h-0.6v-0.5h0.6v-1.5h0.6v1.5h1v0.5
		h-1v3.1c0,0.6,0.8,0.5,1.2,0.3L463,102.2z"/>
	<path class="st10" d="M467.6,102.4H467v-2.5c0.1-2.2-2.2-1.8-2.6-0.2v2.8h-0.6v-6.3h0.6v2.8c0.5-1,2.2-1.6,2.9-0.6
		C467.8,99.1,467.5,101.5,467.6,102.4z"/>
	<path class="st10" d="M470.8,102.5c-1.8,0.1-2.8-2.1-2-3.5c0.7-1.4,3.1-1.6,3.8-0.1l-0.6,0.2c-0.8-1.5-3.1-0.5-2.9,1.1
		c-0.1,1.7,2.2,2.6,3,1.1l0.6,0.2C472.4,102.1,471.5,102.5,470.8,102.5z"/>
	<path class="st10" d="M473.2,101.1c0-1.5,2.1-1.6,3.2-1.2c0.2-1.8-1.5-2-2.7-1.1l-0.2-0.4c1.3-1,3.6-0.8,3.5,1.2c0,0,0,2.1,0,2.1
		c0,0.2,0.1,0.2,0.2,0.2v0.5c-0.1,0-0.2,0-0.3,0c-0.3,0-0.4-0.2-0.4-0.4l0-0.3C475.7,102.8,473.2,102.8,473.2,101.1z M476.2,101.5
		c0.3-0.3,0.2-0.8,0.2-1.1c-1-0.6-3.6-0.1-2.4,1.4C474.6,102.3,475.8,102,476.2,101.5z"/>
</g>
<g class="st9">
	<path class="st10" d="M480.6,98.4c-0.8,0-1.4,0.5-1.7,1.2v2.8h-0.6v-4.5h0.6V99c0.3-0.6,0.8-1,1.4-1.1c0.1,0,0.2,0,0.3,0V98.4z"/>
</g>
<g class="st9">
	<path class="st10" d="M483.1,102.5c-2.3,0.1-3.1-3.3-1.2-4.4c1.6-1,3.7,0.4,3.4,2.2h-3.9c0,1.6,2.3,2.4,3.1,0.9l0.5,0.1
		C484.7,102.1,483.9,102.5,483.1,102.5z M481.4,99.9h3.3C484.7,97.8,481.5,97.7,481.4,99.9z"/>
</g>
<g class="st9">
	<path class="st10" d="M489.9,102.5c-0.8,0-1.4-0.2-1.9-0.7l0.2-0.4c0.7,0.7,1.7,0.9,2.5,0.5c0.3-0.2,0.5-0.7,0.2-1
		c-0.3-0.3-0.7-0.3-1.2-0.4c-0.5-0.2-1.1-0.3-1.3-0.8c-0.2-0.5,0-1.1,0.4-1.4c0.7-0.5,2.2-0.5,2.8,0.3l-0.3,0.4
		c-0.5-0.8-3-0.7-2.3,0.6c0.6,0.5,1.6,0.4,2.3,0.9c0,0,0.1,0.1,0.2,0.1c0.1,0.1,0.1,0.1,0.1,0.2c0,0.1,0,0.1,0.1,0.2
		C491.9,101.9,490.9,102.5,489.9,102.5z"/>
</g>
<g class="st9">
	<path class="st10" d="M492.8,103.8c0.2,0,0.4,0,0.4,0c0.5-0.2,0.4-0.6,0.8-1.4l-2-4.5h0.6l1.7,3.9l1.5-3.9h0.6l-2.3,5.8
		c-0.2,0.4-0.5,0.6-0.9,0.6c-0.1,0-0.2,0-0.4,0V103.8z"/>
</g>
<g class="st9">
	<path class="st10" d="M498.7,102.5c-0.8,0-1.4-0.2-1.9-0.7l0.2-0.4c0.7,0.7,1.7,0.9,2.5,0.5c0.3-0.2,0.5-0.7,0.2-1
		c-0.3-0.3-0.7-0.3-1.2-0.4c-0.5-0.2-1.1-0.3-1.3-0.8c-0.2-0.5,0-1.1,0.4-1.4c0.7-0.5,2.2-0.5,2.8,0.3l-0.3,0.4
		c-0.5-0.7-2.4-0.9-2.4,0.2c0,0.3,0.2,0.5,0.5,0.6c0.6,0.3,1.4,0.3,1.9,0.7c0.1,0.1,0.2,0.2,0.3,0.3
		C500.7,101.8,499.8,102.6,498.7,102.5z"/>
</g>
<g class="st9">
	<path class="st10" d="M503.6,102.2c0,0-0.2,0.1-0.2,0.1c-0.7,0.3-1.8,0.2-1.8-0.7c0,0,0-3.2,0-3.2h-0.6v-0.5h0.6v-1.5h0.6v1.5h1
		v0.5h-1v3.1c0,0.6,0.8,0.5,1.2,0.3L503.6,102.2z"/>
</g>
<g class="st9">
	<path class="st10" d="M506.1,102.5c-2.3,0.1-3.1-3.3-1.2-4.4c1.6-1,3.7,0.4,3.4,2.2h-3.9c0,1.6,2.3,2.4,3.1,0.9l0.5,0.1
		C507.8,102.1,506.9,102.5,506.1,102.5z M504.5,99.9h3.3C507.7,97.8,504.6,97.7,504.5,99.9z"/>
	<path class="st10" d="M516,102.4h-0.6v-2.5c0.1-2.2-2.1-1.8-2.5-0.2v2.8h-0.6c-0.1-0.7,0.2-3.1-0.2-3.7c-0.7-0.9-2,0-2.2,0.9v2.8
		h-0.6v-4.5h0.5v1c0.6-1.3,2.8-1.6,3.1,0.1c0.5-1.1,2.1-1.6,2.8-0.7C516.2,99,516,101.5,516,102.4z"/>
</g>
<g class="st9">
	<path class="st10" d="M332.2,127.7h-2.9v-6.2c0.8,0.1,3.3-0.2,3.7,0.2c1,0.7,0.9,2.3-0.2,2.8C334.6,125.1,334.1,127.8,332.2,127.7z
		 M329.9,122.1v2.3h2.1c0.6,0,1.1-0.6,1.1-1.1c0-0.6-0.4-1.1-1-1.1C332.1,122.1,329.9,122.1,329.9,122.1z M332.3,124.8h-2.4v2.3h2.3
		C333.6,127.2,333.7,124.9,332.3,124.8z"/>
	<path class="st10" d="M334.9,125.8v-2.7h0.6v2.6c-0.2,2.2,2.2,1.8,2.7,0.3v-2.9h0.6v3.8c0,0.1,0,0.1,0,0.2c0,0,0.1,0.1,0.2,0.1v0.5
		c-0.1,0-0.2,0-0.3,0c-0.2,0-0.4-0.2-0.4-0.4l0-0.6C337.3,128.4,334.7,128.2,334.9,125.8z"/>
</g>
<g class="st9">
	<path class="st10" d="M342.4,123.7c-0.8,0-1.4,0.5-1.7,1.2v2.8h-0.6v-4.5h0.6v1.1c0.3-0.6,0.8-1,1.4-1.1c0.1,0,0.2,0,0.3,0V123.7z"
		/>
</g>
<g class="st9">
	<path class="st10" d="M342.6,125.5c-0.1-2.2,2.6-3.3,3.8-1.3v-2.8h0.6v5.6c0,0.2,0.1,0.2,0.2,0.2v0.5c-0.1,0-0.2,0-0.3,0
		c-0.5,0-0.5-0.5-0.5-0.9C345.3,128.7,342.6,127.5,342.6,125.5z M346.4,126.1v-1.4c-0.8-1.8-3.2-1.3-3.2,0.7
		C343.2,127.3,345.8,128,346.4,126.1z"/>
	<path class="st10" d="M350.3,127.8c-2.3,0.1-3.1-3.3-1.2-4.4c1.6-1,3.7,0.4,3.4,2.2h-3.9c0,1.6,2.3,2.4,3.1,0.9l0.5,0.1
		C351.9,127.4,351.1,127.8,350.3,127.8z M348.6,125.2h3.3C351.9,123,348.7,123,348.6,125.2z"/>
	<path class="st10" d="M357.3,127.7h-0.6c-0.1-0.7,0.2-3.1-0.2-3.7c-0.7-0.9-2.2,0-2.4,0.9v2.8h-0.6v-4.5h0.5v1c0.5-1,2.3-1.6,3-0.6
		C357.5,124.5,357.2,126.7,357.3,127.7z"/>
	<path class="st10" d="M360.4,125.5c0-3.1,4.5-3.1,4.5,0C364.9,128.5,360.4,128.5,360.4,125.5z M361.5,126.7c1.7,1.7,3.8-1,2.3-2.6
		C362.1,122.4,360,125.2,361.5,126.7z"/>
	<path class="st10" d="M369.7,127.7h-0.6c-0.1-0.7,0.2-3.1-0.2-3.7c-0.7-0.9-2.2,0-2.4,0.9v2.8h-0.6v-4.5h0.5v1c0.5-1,2.3-1.6,3-0.6
		C369.9,124.5,369.6,126.7,369.7,127.7z"/>
	<path class="st10" d="M377,127.7h-0.6v-2.5c0.1-2.2-2.2-1.8-2.6-0.2v2.8h-0.6v-6.3h0.6v2.8c0.5-1,2.2-1.6,2.9-0.6
		C377.2,124.3,376.9,126.8,377,127.7z"/>
	<path class="st10" d="M380.2,127.8c-2.3,0.1-3.1-3.3-1.2-4.4c1.6-1,3.7,0.4,3.4,2.2h-3.9c0,1.6,2.3,2.4,3.1,0.9l0.5,0.1
		C381.8,127.4,381,127.8,380.2,127.8z M378.5,125.2h3.3C381.7,123,378.6,123,378.5,125.2z"/>
	<path class="st10" d="M383,126.4c0-1.5,2.1-1.6,3.2-1.2c0.2-1.8-1.5-2-2.7-1.1l-0.2-0.4c1.3-1,3.6-0.8,3.5,1.2c0,0,0,2.1,0,2.1
		c0,0.2,0.1,0.2,0.2,0.2v0.5c-0.1,0-0.2,0-0.3,0c-0.3,0-0.4-0.2-0.4-0.4l0-0.3C385.4,128.1,383,128.1,383,126.4z M386,126.7
		c0.3-0.3,0.2-0.8,0.2-1.1c-1-0.6-3.6-0.1-2.4,1.4C384.4,127.6,385.5,127.3,386,126.7z"/>
	<path class="st10" d="M388.1,121.4h0.6v5.3c-0.1,0.7,0.6,0.6,1,0.4l0.1,0.5c-0.7,0.3-1.7,0.2-1.7-0.7
		C388.1,126.9,388.1,121.4,388.1,121.4z"/>
	<path class="st10" d="M392.6,127.5c0,0-0.2,0.1-0.2,0.1c-0.7,0.3-1.8,0.2-1.8-0.7c0,0,0-3.2,0-3.2H390v-0.5h0.6v-1.5h0.6v1.5h1v0.5
		h-1v3.1c0,0.6,0.8,0.5,1.2,0.3L392.6,127.5z"/>
	<path class="st10" d="M397.1,127.7h-0.6v-2.5c0.1-2.2-2.2-1.8-2.6-0.2v2.8h-0.6v-6.3h0.6v2.8c0.5-1,2.2-1.6,2.9-0.6
		C397.4,124.3,397.1,126.8,397.1,127.7z"/>
	<path class="st10" d="M400.4,127.8c-1.8,0.1-2.8-2.1-2-3.5c0.7-1.4,3.1-1.6,3.8-0.1l-0.6,0.2c-0.8-1.5-3.1-0.5-2.9,1.1
		c-0.1,1.7,2.2,2.6,3,1.1l0.6,0.2C402,127.4,401.1,127.8,400.4,127.8z"/>
	<path class="st10" d="M402.8,126.4c0-1.5,2.1-1.6,3.2-1.2c0.2-1.8-1.5-2-2.7-1.1l-0.2-0.4c1.3-1,3.6-0.8,3.5,1.2c0,0,0,2.1,0,2.1
		c0,0.2,0.1,0.2,0.2,0.2v0.5c-0.1,0-0.2,0-0.3,0c-0.3,0-0.4-0.2-0.4-0.4l0-0.3C405.3,128.1,402.8,128.1,402.8,126.4z M405.8,126.7
		c0.3-0.3,0.2-0.8,0.2-1.1c-1-0.6-3.6-0.1-2.4,1.4C404.2,127.6,405.4,127.3,405.8,126.7z"/>
</g>
<g class="st9">
	<path class="st10" d="M410.2,123.7c-0.8,0-1.4,0.5-1.7,1.2v2.8h-0.6v-4.5h0.6v1.1c0.3-0.6,0.8-1,1.4-1.1c0.1,0,0.2,0,0.3,0V123.7z"
		/>
</g>
<g class="st9">
	<path class="st10" d="M412.7,127.8c-2.3,0.1-3.1-3.3-1.2-4.4c1.6-1,3.7,0.4,3.4,2.2H411c0,1.6,2.3,2.4,3.1,0.9l0.5,0.1
		C414.3,127.4,413.5,127.8,412.7,127.8z M411,125.2h3.3C414.2,123,411.1,123,411,125.2z"/>
</g>
<g class="st9">
	<path class="st10" d="M419.5,127.8c-0.8,0-1.4-0.2-1.9-0.7l0.2-0.4c0.6,0.7,1.7,0.9,2.5,0.5c0.3-0.2,0.5-0.7,0.2-1
		c-0.3-0.3-0.7-0.3-1.2-0.4c-0.5-0.2-1.1-0.3-1.3-0.8c-0.2-0.5,0-1.1,0.4-1.4c0.7-0.5,2.2-0.5,2.8,0.3l-0.3,0.4
		c-0.5-0.7-2.7-0.9-2.4,0.4c0.1,0.3,0.5,0.4,0.7,0.5c0.5,0.2,1,0.3,1.5,0.5C422,126.3,421,127.9,419.5,127.8z"/>
</g>
<g class="st9">
	<path class="st10" d="M422.4,129.1c0.2,0,0.4,0,0.4,0c0.5-0.2,0.4-0.6,0.8-1.4l-2-4.5h0.6l1.7,3.9l1.5-3.9h0.6l-2.3,5.8
		c-0.2,0.4-0.5,0.6-0.9,0.6c-0.1,0-0.2,0-0.4,0V129.1z"/>
</g>
<g class="st9">
	<path class="st10" d="M428.3,127.8c-0.8,0-1.4-0.2-1.9-0.7l0.2-0.4c0.7,0.7,1.7,0.9,2.5,0.5c0.3-0.2,0.5-0.7,0.2-1
		c-0.3-0.3-0.7-0.3-1.2-0.4c-0.5-0.2-1.1-0.3-1.3-0.8c-0.2-0.5,0-1.1,0.4-1.4c0.7-0.5,2.2-0.5,2.8,0.3l-0.3,0.4
		c-0.5-0.7-2.4-0.9-2.4,0.2c0,0.3,0.2,0.5,0.5,0.6c0.6,0.3,1.4,0.3,1.9,0.7c0.1,0.1,0.2,0.2,0.3,0.3
		C430.3,127.1,429.3,127.8,428.3,127.8z"/>
</g>
<g class="st9">
	<path class="st10" d="M433.1,127.5c0,0-0.2,0.1-0.2,0.1c-0.7,0.3-1.8,0.2-1.8-0.7c0,0,0-3.2,0-3.2h-0.6v-0.5h0.6v-1.5h0.6v1.5h1
		v0.5h-1v3.1c0,0.6,0.8,0.5,1.2,0.3L433.1,127.5z"/>
</g>
<g class="st9">
	<path class="st10" d="M435.7,127.8c-2.3,0.1-3.1-3.3-1.2-4.4c1.6-1,3.7,0.4,3.4,2.2h-3.9c0,1.6,2.3,2.4,3.1,0.9l0.5,0.1
		C437.3,127.4,436.5,127.8,435.7,127.8z M434.1,125.2h3.3C437.3,123,434.2,123,434.1,125.2z"/>
	<path class="st10" d="M445.6,127.7H445v-2.5c0.1-2.2-2.1-1.8-2.5-0.2v2.8h-0.6c-0.1-0.7,0.2-3.1-0.2-3.7c-0.7-0.9-2,0-2.2,0.9v2.8
		h-0.6v-4.5h0.5v1c0.6-1.3,2.8-1.6,3.1,0.1c0.5-1.1,2.1-1.6,2.8-0.7C445.8,124.3,445.5,126.8,445.6,127.7z"/>
	<path class="st10" d="M449.1,122.2v-0.9h0.6v0.9H449.1z M449.1,127.7v-4.5h0.6v4.5H449.1z"/>
	<path class="st10" d="M452.4,127.8c-0.8,0-1.4-0.2-1.9-0.7l0.2-0.4c0.6,0.7,1.7,0.9,2.5,0.5c0.3-0.2,0.5-0.7,0.2-1
		c-0.7-0.6-2-0.4-2.5-1.2c-0.6-1.8,2.2-2.3,3.2-1.2l-0.3,0.4c-0.5-0.8-3-0.7-2.3,0.6c0.6,0.5,1.6,0.4,2.3,0.9
		C454.8,126.6,453.7,127.9,452.4,127.8z"/>
	<path class="st10" d="M457.1,125.5c-0.1-2.2,2.6-3.3,3.8-1.3v-2.8h0.6v5.6c0,0.1,0,0.1,0,0.2c0,0,0.1,0.1,0.2,0.1v0.5
		c-0.1,0-0.2,0-0.3,0c-0.5,0-0.5-0.5-0.5-0.9C459.7,128.7,457,127.5,457.1,125.5z M460.8,126.1v-1.4c-0.8-1.8-3.2-1.3-3.2,0.7
		C457.6,127.3,460.2,128,460.8,126.1z"/>
	<path class="st10" d="M464.7,127.8c-2.3,0.1-3.1-3.3-1.2-4.4c1.6-1,3.7,0.4,3.4,2.2h-3.9c0,1.6,2.3,2.4,3.1,0.9l0.5,0.1
		C466.3,127.4,465.5,127.8,464.7,127.8z M463.1,125.2h3.3C466.3,123,463.2,123,463.1,125.2z"/>
	<path class="st10" d="M469.8,127.8c-1.8,0.1-2.8-2.1-2-3.5c0.7-1.4,3.1-1.6,3.8-0.1l-0.6,0.2c-0.8-1.5-3.1-0.5-2.9,1.1
		c-0.1,1.7,2.2,2.6,3,1.1l0.6,0.2C471.4,127.4,470.6,127.8,469.8,127.8z"/>
</g>
<g class="st9">
	<path class="st10" d="M474.9,123.7c-0.8,0-1.4,0.5-1.7,1.2v2.8h-0.6v-4.5h0.6v1.1c0.3-0.6,0.8-1,1.4-1.1c0.1,0,0.2,0,0.3,0V123.7z"
		/>
</g>
<g class="st9">
	<path class="st10" d="M477.4,127.8c-2.3,0.1-3.1-3.3-1.2-4.4c1.6-1,3.7,0.4,3.4,2.2h-3.9c0,1.6,2.3,2.4,3.1,0.9l0.5,0.1
		C479,127.4,478.2,127.8,477.4,127.8z M475.8,125.2h3.3C479,123,475.9,123,475.8,125.2z"/>
	<path class="st10" d="M480.2,126.4c0-1.5,2.1-1.6,3.2-1.2c0.2-1.7-1.5-2-2.7-1.1l-0.2-0.4c1.3-1,3.6-0.8,3.5,1.2c0,0,0,2.1,0,2.1
		c0,0.2,0.1,0.2,0.2,0.2v0.5c-0.1,0-0.2,0-0.3,0c-0.3,0-0.4-0.2-0.5-0.4l0-0.3C482.7,128.1,480.2,128.1,480.2,126.4z M483.2,126.7
		c0.3-0.3,0.2-0.8,0.2-1.1c-1-0.6-3.6-0.1-2.4,1.4C481.6,127.6,482.8,127.3,483.2,126.7z"/>
	<path class="st10" d="M486.8,127.8c-0.8,0-1.4-0.2-1.9-0.7l0.2-0.4c0.7,0.7,1.7,0.9,2.5,0.5c0.3-0.2,0.5-0.7,0.2-1
		c-0.7-0.6-2-0.4-2.5-1.2c-0.6-1.8,2.2-2.3,3.2-1.2l-0.3,0.4c-0.5-0.8-3-0.7-2.3,0.6c0.6,0.5,1.6,0.4,2.3,0.9
		c0.1,0.1,0.2,0.2,0.3,0.3C488.8,127.1,487.9,127.8,486.8,127.8z"/>
	<path class="st10" d="M489.5,122.2v-0.9h0.6v0.9H489.5z M489.5,127.7v-4.5h0.6v4.5H489.5z"/>
	<path class="st10" d="M495.2,127.7h-0.6c-0.1-0.7,0.2-3.1-0.2-3.7c-0.7-0.9-2.2,0-2.4,0.9v2.8h-0.6v-4.5h0.5v1c0.5-1,2.3-1.6,3-0.6
		C495.4,124.5,495.1,126.7,495.2,127.7z"/>
	<path class="st10" d="M496.1,125.5c-0.1-2.1,2.6-3.3,3.8-1.3v-0.9h0.5v4.5c0,0.4-0.1,0.8-0.3,1.1c-0.9,1.2-3.2,1.2-3.9-0.2l0.4-0.3
		c0.7,1.3,3.3,1.1,3.3-0.6c0,0,0-0.9,0-0.9C498.8,128.7,496,127.5,496.1,125.5z M499.9,126.1v-1.4c-0.7-1.9-3.2-1.2-3.2,0.7
		C496.7,127.3,499.3,128,499.9,126.1z"/>
</g>
<g class="st9">
	<path class="st10" d="M329.3,153v-6.2h0.6v5.6h3.6v0.5H329.3z"/>
</g>
<g class="st9">
	<path class="st10" d="M333.8,150.7c0-3.1,4.5-3.1,4.5,0C338.2,153.8,333.8,153.8,333.8,150.7z M334.8,152c1.7,1.7,3.8-1,2.3-2.6
		C335.5,147.7,333.4,150.5,334.8,152z"/>
</g>
<g class="st9">
	<path class="st10" d="M344.8,148.4h0.6l-1.9,4.5h-0.5l-1-2.2L341,153h-0.5l-1.9-4.5h0.6l1.7,3.9l0.8-2l-0.8-1.9h0.5l0.6,1.5
		l0.6-1.5h0.5l-0.8,1.9l0.8,2L344.8,148.4z"/>
</g>
<g class="st9">
	<path class="st10" d="M348.7,152.1v0.9h-0.5v-6.3h0.6v2.8c1.2-2,3.9-0.8,3.8,1.3C352.6,152.8,349.8,154,348.7,152.1z M351.9,150.7
		c0-1.9-2.4-2.5-3.2-0.7v1.4C349.3,153.3,352,152.6,351.9,150.7z"/>
	<path class="st10" d="M353.5,151.1v-2.7h0.6v2.6c-0.2,2.2,2.2,1.8,2.7,0.3v-2.9h0.6v3.8c0,0.1,0,0.1,0,0.2c0,0,0.1,0.1,0.2,0.1v0.5
		c-0.1,0-0.2,0-0.3,0c-0.5,0-0.4-0.7-0.5-1C355.8,153.6,353.3,153.4,353.5,151.1z"/>
</g>
<g class="st9">
	<path class="st10" d="M360.9,149c-0.8,0-1.4,0.5-1.7,1.2v2.8h-0.6v-4.5h0.6v1.1c0.3-0.6,0.8-1,1.4-1.1c0.1,0,0.2,0,0.3,0V149z"/>
</g>
<g class="st9">
	<path class="st10" d="M361.2,150.7c-0.1-2.2,2.6-3.3,3.8-1.3v-2.8h0.6v5.6c0,0.2,0.1,0.2,0.2,0.2v0.5c-0.1,0-0.2,0-0.3,0
		c-0.5,0-0.5-0.5-0.5-0.9C363.9,154,361.1,152.8,361.2,150.7z M365,151.4V150c-0.8-1.8-3.2-1.3-3.2,0.7
		C361.7,152.6,364.4,153.3,365,151.4z"/>
	<path class="st10" d="M368.8,153.1c-2.3,0.1-3.1-3.3-1.2-4.4c1.6-1,3.7,0.4,3.4,2.2h-3.9c0,1.6,2.3,2.4,3.1,0.9l0.5,0.1
		C370.5,152.6,369.6,153.1,368.8,153.1z M367.2,150.5h3.3C370.4,148.3,367.3,148.3,367.2,150.5z"/>
	<path class="st10" d="M375.8,153h-0.6c-0.1-0.7,0.2-3.1-0.2-3.7c-0.7-0.9-2.2,0-2.4,0.9v2.8H372v-4.5h0.5v1c0.5-1,2.3-1.6,3-0.6
		C376,149.7,375.7,152,375.8,153z"/>
	<path class="st10" d="M378.9,150.7c0-3.1,4.5-3.1,4.5,0C383.4,153.8,378.9,153.8,378.9,150.7z M380,152c1.7,1.7,3.8-1,2.3-2.6
		C380.7,147.7,378.6,150.5,380,152z"/>
	<path class="st10" d="M388.2,153h-0.6c-0.1-0.7,0.2-3.1-0.2-3.7c-0.7-0.9-2.2,0-2.4,0.9v2.8h-0.6v-4.5h0.5v1c0.5-1,2.3-1.6,3-0.6
		C388.5,149.7,388.2,152,388.2,153z"/>
	<path class="st10" d="M395.5,153h-0.6v-2.5c0.1-2.2-2.2-1.8-2.6-0.2v2.8h-0.6v-6.3h0.6v2.8c0.5-1,2.2-1.6,2.9-0.6
		C395.7,149.6,395.4,152.1,395.5,153z"/>
	<path class="st10" d="M398.7,153.1c-2.3,0.1-3.1-3.3-1.2-4.4c1.6-1,3.7,0.4,3.4,2.2h-3.9c0,1.6,2.3,2.4,3.1,0.9l0.5,0.1
		C400.3,152.6,399.5,153.1,398.7,153.1z M397.1,150.5h3.3C400.3,148.3,397.2,148.3,397.1,150.5z"/>
	<path class="st10" d="M401.5,151.7c0-1.5,2.1-1.6,3.2-1.2c0.2-1.8-1.5-2-2.7-1.1l-0.2-0.4c1.3-1,3.6-0.8,3.5,1.2c0,0,0,2.1,0,2.1
		c0,0.2,0.1,0.2,0.2,0.2v0.5c-0.1,0-0.2,0-0.3,0c-0.3,0-0.4-0.2-0.4-0.4l0-0.3C404,153.4,401.5,153.4,401.5,151.7z M404.5,152
		c0.3-0.3,0.2-0.8,0.2-1.1c-1-0.6-3.6-0.1-2.4,1.4C402.9,152.9,404.1,152.6,404.5,152z"/>
	<path class="st10" d="M406.6,146.6h0.6v5.3c-0.1,0.7,0.6,0.6,1,0.4l0.1,0.5c-0.7,0.3-1.7,0.2-1.7-0.7
		C406.6,152.1,406.6,146.6,406.6,146.6z"/>
	<path class="st10" d="M411.1,152.8c0,0-0.2,0.1-0.2,0.1c-0.7,0.3-1.8,0.2-1.8-0.7c0,0,0-3.2,0-3.2h-0.6v-0.5h0.6v-1.5h0.6v1.5h1
		v0.5h-1v3.1c0,0.6,0.8,0.5,1.2,0.3L411.1,152.8z"/>
	<path class="st10" d="M415.7,153h-0.6v-2.5c0.1-2.2-2.2-1.8-2.6-0.2v2.8h-0.6v-6.3h0.6v2.8c0.5-1,2.2-1.6,2.9-0.6
		C415.9,149.6,415.6,152.1,415.7,153z"/>
	<path class="st10" d="M418.9,153.1c-1.8,0.1-2.8-2.1-2-3.5c0.7-1.4,3.1-1.6,3.8-0.1l-0.6,0.2c-0.8-1.5-3.1-0.5-2.9,1.1
		c-0.1,1.7,2.2,2.6,3,1.1l0.6,0.2C420.5,152.6,419.7,153.1,418.9,153.1z"/>
	<path class="st10" d="M421.3,151.7c0-1.5,2.1-1.6,3.2-1.2c0.2-1.8-1.5-2-2.7-1.1l-0.2-0.4c1.3-1,3.6-0.8,3.5,1.2c0,0,0,2.1,0,2.1
		c0,0.2,0.1,0.2,0.2,0.2v0.5c-0.1,0-0.2,0-0.3,0c-0.3,0-0.4-0.2-0.4-0.4l0-0.3C423.8,153.4,421.4,153.4,421.3,151.7z M424.4,152
		c0.3-0.3,0.2-0.8,0.2-1.1c-1-0.6-3.6-0.1-2.4,1.4C422.8,152.9,423.9,152.6,424.4,152z"/>
</g>
<g class="st9">
	<path class="st10" d="M428.7,149c-0.8,0-1.4,0.5-1.7,1.2v2.8h-0.6v-4.5h0.6v1.1c0.3-0.6,0.8-1.1,1.4-1.1c0.1,0,0.2,0,0.3,0V149z"/>
</g>
<g class="st9">
	<path class="st10" d="M431.2,153.1c-2.3,0.1-3.1-3.3-1.2-4.4c1.6-1,3.7,0.4,3.4,2.2h-3.9c0,1.6,2.3,2.4,3.1,0.9l0.5,0.1
		C432.8,152.6,432,153.1,431.2,153.1z M429.6,150.5h3.3C432.8,148.3,429.7,148.3,429.6,150.5z"/>
</g>
<g class="st9">
	<path class="st10" d="M438.1,153.1c-0.8,0-1.4-0.2-1.9-0.7l0.2-0.4c0.6,0.7,1.7,0.9,2.5,0.5c0.3-0.2,0.5-0.7,0.2-1
		c-0.3-0.3-0.7-0.3-1.2-0.4c-0.5-0.2-1.1-0.3-1.3-0.8c-0.2-0.5,0-1.1,0.4-1.4c0.7-0.5,2.2-0.5,2.8,0.3l-0.3,0.4
		c-0.5-0.7-2.7-0.9-2.4,0.4c0.1,0.3,0.5,0.4,0.7,0.5c0.5,0.2,1,0.3,1.5,0.5C440.5,151.6,439.5,153.2,438.1,153.1z"/>
</g>
<g class="st9">
	<path class="st10" d="M441,154.4c0.2,0,0.4,0,0.4,0c0.5-0.2,0.4-0.6,0.8-1.4l-2-4.5h0.6l1.7,3.9l1.5-3.9h0.6l-2.3,5.8
		c-0.2,0.4-0.5,0.6-0.9,0.6c-0.1,0-0.2,0-0.4,0V154.4z"/>
</g>
<g class="st9">
	<path class="st10" d="M446.8,153.1c-0.8,0-1.4-0.2-1.9-0.7l0.2-0.4c0.7,0.7,1.7,0.9,2.5,0.5c0.3-0.2,0.5-0.7,0.2-1
		c-0.7-0.6-2-0.4-2.5-1.2c-0.6-1.8,2.2-2.3,3.2-1.2l-0.3,0.4c-0.5-0.8-3-0.7-2.3,0.6c0.6,0.5,1.6,0.4,2.3,0.9
		c0.1,0.1,0.2,0.2,0.3,0.3C448.8,152.3,447.9,153.1,446.8,153.1z"/>
</g>
<g class="st9">
	<path class="st10" d="M451.7,152.8c0,0-0.2,0.1-0.2,0.1c-0.7,0.3-1.8,0.2-1.8-0.7c0,0,0-3.2,0-3.2h-0.6v-0.5h0.6v-1.5h0.6v1.5h1
		v0.5h-1v3.1c0,0.6,0.8,0.5,1.2,0.3L451.7,152.8z"/>
</g>
<g class="st9">
	<path class="st10" d="M454.3,153.1c-2.3,0.1-3.1-3.3-1.2-4.4c1.6-1,3.7,0.4,3.4,2.2h-3.9c0,1.6,2.3,2.4,3.1,0.9l0.5,0.1
		C455.9,152.6,455,153.1,454.3,153.1z M452.6,150.5h3.3C455.8,148.3,452.7,148.3,452.6,150.5z"/>
	<path class="st10" d="M464.1,153h-0.6v-2.5c0.1-2.2-2.1-1.8-2.5-0.2v2.8h-0.6c-0.1-0.7,0.2-3.1-0.2-3.7c-0.7-0.9-2,0-2.2,0.9v2.8
		h-0.6v-4.5h0.5v1c0.6-1.3,2.8-1.6,3.1,0.1c0.5-1.1,2.1-1.6,2.8-0.7C464.4,149.6,464.1,152.1,464.1,153z"/>
</g>
<g class="st9">
	<path class="st10" d="M329.9,173.2v5h-0.6v-6.2h0.5l4,5.1v-5.1h0.6v6.2h-0.6L329.9,173.2z"/>
</g>
<g class="st9">
	<path class="st10" d="M335.5,176c0-3.1,4.5-3.1,4.5,0C340,179.1,335.5,179.1,335.5,176z M336.6,177.3c1.7,1.7,3.8-1,2.3-2.6
		C337.2,173,335.1,175.7,336.6,177.3z"/>
	<path class="st10" d="M343.8,177.4v0.9h-0.5v-6.3h0.6v2.8c1.2-2,3.9-0.8,3.8,1.3C347.7,178.1,344.9,179.3,343.8,177.4z M347,176
		c0-1.9-2.4-2.5-3.2-0.7v1.4C344.4,178.6,347,177.9,347,176z"/>
	<path class="st10" d="M348.5,176.4v-2.7h0.6v2.6c-0.2,2.2,2.2,1.8,2.7,0.3v-2.9h0.6v3.8c0,0.2,0.1,0.2,0.2,0.2v0.5
		c-0.1,0-0.2,0-0.3,0c-0.2,0-0.4-0.2-0.4-0.4l0-0.6C350.9,178.9,348.3,178.7,348.5,176.4z"/>
</g>
<g class="st9">
	<path class="st10" d="M356,174.2c-0.8,0-1.4,0.5-1.7,1.2v2.8h-0.6v-4.5h0.6v1.1c0.3-0.6,0.8-1,1.4-1.1c0.1,0,0.2,0,0.3,0V174.2z"/>
</g>
<g class="st9">
	<path class="st10" d="M356.3,176c-0.1-2.2,2.6-3.3,3.8-1.3v-2.8h0.6v5.6c0,0.2,0.1,0.2,0.2,0.2v0.5c-0.1,0-0.2,0-0.3,0
		c-0.5,0-0.5-0.5-0.5-0.9C358.9,179.3,356.2,178.1,356.3,176z M360,176.7v-1.4c-0.8-1.8-3.2-1.3-3.2,0.7
		C356.8,177.9,359.4,178.6,360,176.7z"/>
	<path class="st10" d="M363.9,178.3c-2.3,0.1-3.1-3.3-1.2-4.4c1.6-1,3.7,0.4,3.4,2.2h-3.9c0,1.6,2.3,2.4,3.1,0.9l0.5,0.1
		C365.6,177.9,364.7,178.3,363.9,178.3z M362.3,175.8h3.3C365.5,173.6,362.4,173.6,362.3,175.8z"/>
	<path class="st10" d="M370.9,178.2h-0.6c-0.1-0.7,0.2-3.1-0.2-3.7c-0.7-0.9-2.2,0-2.4,0.9v2.8h-0.6v-4.5h0.5v1c0.5-1,2.3-1.6,3-0.6
		C371.1,175,370.8,177.3,370.9,178.2z"/>
	<path class="st10" d="M374,176c0-3.1,4.5-3.1,4.5,0C378.5,179.1,374,179.1,374,176z M375.1,177.3c1.7,1.7,3.8-1,2.3-2.6
		C375.7,173,373.6,175.7,375.1,177.3z"/>
	<path class="st10" d="M383.3,178.2h-0.6c-0.1-0.7,0.2-3.1-0.2-3.7c-0.7-0.9-2.2,0-2.4,0.9v2.8h-0.6v-4.5h0.5v1c0.5-1,2.3-1.6,3-0.6
		C383.5,175,383.2,177.3,383.3,178.2z"/>
	<path class="st10" d="M390.6,178.2H390v-2.5c0.1-2.2-2.2-1.8-2.6-0.2v2.8h-0.6v-6.3h0.6v2.8c0.5-1,2.2-1.6,2.9-0.6
		C390.8,174.9,390.5,177.3,390.6,178.2z"/>
	<path class="st10" d="M393.8,178.3c-2.3,0.1-3.1-3.3-1.2-4.4c1.6-1,3.7,0.4,3.4,2.2h-3.9c0,1.6,2.3,2.4,3.1,0.9l0.5,0.1
		C395.4,177.9,394.6,178.3,393.8,178.3z M392.1,175.8h3.3C395.4,173.6,392.2,173.6,392.1,175.8z"/>
	<path class="st10" d="M396.6,176.9c0-1.5,2.1-1.6,3.2-1.2c0.2-1.8-1.5-2-2.7-1.1l-0.2-0.4c1.3-1,3.6-0.8,3.5,1.2c0,0,0,2.1,0,2.1
		c0,0.2,0.1,0.2,0.2,0.2v0.5c-0.1,0-0.2,0-0.3,0c-0.3,0-0.4-0.2-0.4-0.4l0-0.3C399.1,178.7,396.6,178.7,396.6,176.9z M399.6,177.3
		c0.3-0.3,0.2-0.8,0.2-1.1c-1-0.6-3.6-0.1-2.4,1.4C398,178.1,399.2,177.9,399.6,177.3z"/>
	<path class="st10" d="M401.7,171.9h0.6v5.3c-0.1,0.7,0.6,0.6,1,0.4l0.1,0.5c-0.7,0.3-1.7,0.2-1.7-0.7
		C401.7,177.4,401.7,171.9,401.7,171.9z"/>
	<path class="st10" d="M406.2,178c0,0-0.2,0.1-0.2,0.1c-0.7,0.3-1.8,0.2-1.8-0.7c0,0,0-3.2,0-3.2h-0.6v-0.5h0.6v-1.5h0.6v1.5h1v0.5
		h-1v3.1c0,0.6,0.8,0.5,1.2,0.3L406.2,178z"/>
	<path class="st10" d="M410.8,178.2h-0.6v-2.5c0.1-2.2-2.2-1.8-2.6-0.2v2.8H407v-6.3h0.6v2.8c0.5-1,2.2-1.6,2.9-0.6
		C411,174.9,410.7,177.3,410.8,178.2z"/>
	<path class="st10" d="M414,178.3c-1.8,0.1-2.8-2.1-2-3.5c0.7-1.4,3.1-1.6,3.8-0.1l-0.6,0.2c-0.8-1.5-3.1-0.5-2.9,1.1
		c-0.1,1.7,2.2,2.6,3,1.1l0.6,0.2C415.6,177.9,414.7,178.3,414,178.3z"/>
	<path class="st10" d="M416.4,176.9c0-1.5,2.1-1.6,3.2-1.2c0.2-1.8-1.5-2-2.7-1.1l-0.2-0.4c1.3-1,3.6-0.8,3.5,1.2c0,0,0,2.1,0,2.1
		c0,0.2,0.1,0.2,0.2,0.2v0.5c-0.1,0-0.2,0-0.3,0c-0.3,0-0.4-0.2-0.4-0.4l0-0.3C418.9,178.7,416.4,178.7,416.4,176.9z M419.4,177.3
		c0.3-0.3,0.2-0.8,0.2-1.1c-1-0.6-3.6-0.1-2.4,1.4C417.8,178.1,419,177.9,419.4,177.3z"/>
</g>
<g class="st9">
	<path class="st10" d="M423.8,174.2c-0.8,0-1.4,0.5-1.7,1.2v2.8h-0.6v-4.5h0.6v1.1c0.3-0.6,0.8-1.1,1.4-1.1c0.1,0,0.2,0,0.3,0V174.2
		z"/>
</g>
<g class="st9">
	<path class="st10" d="M426.3,178.3c-2.3,0.1-3.1-3.3-1.2-4.4c1.6-1,3.7,0.4,3.4,2.2h-3.9c0,1.6,2.3,2.4,3.1,0.9l0.5,0.1
		C427.9,177.9,427.1,178.3,426.3,178.3z M424.6,175.8h3.3C427.9,173.6,424.7,173.6,424.6,175.8z"/>
</g>
<g class="st9">
	<path class="st10" d="M86.4,23.5v5h-0.6v-6.2h0.5l4,5.1v-5.1H91v6.2h-0.6L86.4,23.5z"/>
</g>
<g class="st9">
	<path class="st10" d="M92,26.3c0-3.1,4.5-3.1,4.5,0C96.5,29.4,92,29.4,92,26.3z M93.1,27.6c1.7,1.7,3.8-1,2.3-2.6
		C93.7,23.3,91.6,26.1,93.1,27.6z"/>
	<path class="st10" d="M101.7,28.7c-1.8,0.1-2.8-2.1-2-3.5c0.7-1.4,3.1-1.6,3.8-0.1l-0.6,0.2c-0.8-1.5-3.1-0.5-2.9,1.1
		c-0.1,1.7,2.2,2.6,3,1.1l0.6,0.2C103.3,28.3,102.4,28.7,101.7,28.7z"/>
	<path class="st10" d="M104.1,27.3c0-1.5,2.1-1.6,3.2-1.2c0.2-1.8-1.5-2-2.7-1.1l-0.2-0.4c1.3-1,3.6-0.8,3.5,1.2c0,0,0,2.1,0,2.1
		c0,0.2,0.1,0.2,0.2,0.2v0.5c-0.1,0-0.2,0-0.3,0c-0.3,0-0.4-0.2-0.4-0.4l0-0.3C106.6,29,104.1,29,104.1,27.3z M107.1,27.6
		c0.3-0.3,0.2-0.8,0.2-1.1c-1-0.6-3.6-0.1-2.4,1.4C105.5,28.5,106.7,28.2,107.1,27.6z"/>
	<path class="st10" d="M110.7,28.7c-0.8,0-1.4-0.2-1.9-0.7l0.2-0.4c0.7,0.7,1.7,0.9,2.5,0.5c0.3-0.2,0.5-0.7,0.2-1
		c-0.3-0.3-0.7-0.3-1.2-0.4c-0.5-0.2-1.1-0.3-1.3-0.8c-0.2-0.5,0-1.1,0.4-1.4c0.7-0.5,2.2-0.5,2.8,0.3l-0.3,0.4
		c-0.5-0.8-3-0.7-2.3,0.6c0.6,0.5,1.6,0.4,2.3,0.9C113.1,27.5,111.9,28.8,110.7,28.7z"/>
	<path class="st10" d="M115.4,28.7c-2.3,0.1-3.1-3.3-1.2-4.4c1.6-1,3.7,0.4,3.4,2.2h-3.9c0,1.6,2.3,2.4,3.1,0.9l0.5,0.1
		C117,28.3,116.2,28.7,115.4,28.7z M113.7,26.1h3.3C116.9,23.9,113.8,23.9,113.7,26.1z"/>
	<path class="st10" d="M120,28.7c-0.8,0-1.4-0.2-1.9-0.7l0.2-0.4c0.7,0.7,1.7,0.9,2.5,0.5c0.3-0.2,0.5-0.7,0.2-1
		c-0.3-0.3-0.7-0.3-1.2-0.4c-0.5-0.2-1.1-0.3-1.3-0.8c-0.2-0.5,0-1.1,0.4-1.4c0.7-0.5,2.2-0.5,2.8,0.3l-0.3,0.4
		c-0.5-0.8-3-0.7-2.3,0.6c0.6,0.5,1.6,0.4,2.3,0.9C122.4,27.5,121.2,28.8,120,28.7z"/>
	<path class="st10" d="M124.6,26.3c-0.1-2.2,2.6-3.3,3.8-1.3v-2.8h0.6v5.6c0,0.2,0.1,0.2,0.2,0.2v0.5c-0.1,0-0.2,0-0.3,0
		c-0.5,0-0.5-0.5-0.5-0.9C127.3,29.6,124.5,28.4,124.6,26.3z M128.4,27v-1.4c-0.8-1.8-3.2-1.3-3.2,0.7
		C125.2,28.2,127.8,28.9,128.4,27z"/>
</g>
<g class="st9">
	<path class="st10" d="M132.3,28.7c-2.3,0.1-3.1-3.3-1.2-4.4c1.6-1,3.7,0.4,3.4,2.2h-3.9c0,1.6,2.3,2.4,3.1,0.9l0.5,0.1
		C133.9,28.3,133.1,28.7,132.3,28.7z M130.6,26.1h3.3C133.8,23.9,130.7,23.9,130.6,26.1z"/>
</g>
<g class="st9">
	<path class="st10" d="M137.6,28.4c0,0-0.2,0.1-0.2,0.1c-0.7,0.3-1.8,0.2-1.8-0.7c0,0,0-3.2,0-3.2H135v-0.5h0.6v-1.5h0.6v1.5h1v0.5
		h-1v3.1c0,0.6,0.8,0.5,1.2,0.3L137.6,28.4z"/>
</g>
<g class="st9">
	<path class="st10" d="M140.2,28.7c-2.3,0.1-3.1-3.3-1.2-4.4c1.6-1,3.7,0.4,3.4,2.2h-3.9c0,1.6,2.3,2.4,3.1,0.9l0.5,0.1
		C141.8,28.3,140.9,28.7,140.2,28.7z M138.5,26.1h3.3C141.7,23.9,138.6,23.9,138.5,26.1z"/>
	<path class="st10" d="M145.3,28.7c-1.8,0.1-2.8-2.1-2-3.5c0.7-1.4,3.1-1.6,3.8-0.1l-0.6,0.2c-0.8-1.5-3.1-0.5-2.9,1.1
		c-0.1,1.7,2.2,2.6,3,1.1l0.6,0.2C146.9,28.3,146,28.7,145.3,28.7z"/>
</g>
<g class="st9">
	<path class="st10" d="M150.2,28.4c0,0-0.2,0.1-0.2,0.1c-0.7,0.3-1.8,0.2-1.8-0.7c0,0,0-3.2,0-3.2h-0.6v-0.5h0.6v-1.5h0.6v1.5h1v0.5
		h-1v3.1c0,0.6,0.8,0.5,1.2,0.3L150.2,28.4z"/>
</g>
<g class="st9">
	<path class="st10" d="M152.8,28.7c-2.3,0.1-3.1-3.3-1.2-4.4c1.6-1,3.7,0.4,3.4,2.2h-3.9c0,1.6,2.3,2.4,3.1,0.9l0.5,0.1
		C154.5,28.3,153.6,28.7,152.8,28.7z M151.2,26.1h3.3C154.4,23.9,151.3,23.9,151.2,26.1z"/>
	<path class="st10" d="M155.7,26.3c-0.1-2.2,2.6-3.3,3.8-1.3v-2.8h0.6v5.6c0,0.2,0.1,0.2,0.2,0.2v0.5c-0.1,0-0.2,0-0.3,0
		c-0.5,0-0.5-0.5-0.5-0.9C158.3,29.6,155.6,28.4,155.7,26.3z M159.4,27v-1.4c-0.8-1.8-3.2-1.3-3.2,0.7
		C156.2,28.2,158.8,28.9,159.4,27z"/>
</g>
<g class="st9">
	<path class="st10" d="M85.8,53.5v-6.2h0.6V53H90v0.5H85.8z"/>
	<path class="st10" d="M90.7,48.1v-0.9h0.6v0.9H90.7z M90.7,53.5V49h0.6v4.5H90.7z"/>
	<path class="st10" d="M99.4,53.5h-0.6V51c0.1-2.2-2.1-1.8-2.5-0.2v2.8h-0.6c-0.1-0.7,0.2-3.1-0.2-3.7c-0.7-0.9-2,0-2.2,0.9v2.8
		h-0.6V49h0.5v1c0.6-1.3,2.8-1.6,3.1,0.1c0.5-1.1,2.1-1.6,2.8-0.7C99.6,50.2,99.3,52.6,99.4,53.5z"/>
	<path class="st10" d="M100.6,48.1v-0.9h0.6v0.9H100.6z M100.6,53.5V49h0.6v4.5H100.6z"/>
</g>
<g class="st9">
	<path class="st10" d="M104.7,53.3c0,0-0.2,0.1-0.2,0.1c-0.7,0.3-1.8,0.2-1.8-0.7c0,0,0-3.2,0-3.2h-0.6V49h0.6v-1.5h0.6V49h1v0.5h-1
		v3.1c0,0.6,0.8,0.5,1.2,0.3L104.7,53.3z"/>
</g>
<g class="st9">
	<path class="st10" d="M107.3,53.6c-2.3,0.1-3.1-3.3-1.2-4.4c1.6-1,3.7,0.4,3.4,2.2h-3.9c0,1.6,2.3,2.4,3.1,0.9l0.5,0.1
		C108.9,53.2,108,53.6,107.3,53.6z M105.6,51.1h3.3C108.8,48.9,105.7,48.9,105.6,51.1z"/>
	<path class="st10" d="M110.1,51.3c-0.1-2.2,2.6-3.3,3.8-1.3v-2.8h0.6v5.6c0,0.2,0.1,0.2,0.2,0.2v0.5c-0.1,0-0.2,0-0.3,0
		c-0.5,0-0.5-0.5-0.5-0.9C112.8,54.6,110,53.4,110.1,51.3z M113.9,52v-1.4c-0.8-1.8-3.2-1.3-3.2,0.7C110.7,53.2,113.3,53.8,113.9,52
		z"/>
	<path class="st10" d="M118,48.1v-0.9h0.6v0.9H118z M118,53.5V49h0.6v4.5H118z"/>
	<path class="st10" d="M123.7,53.5h-0.6c-0.1-0.7,0.2-3.1-0.2-3.7c-0.7-0.9-2.2,0-2.4,0.9v2.8h-0.6V49h0.5v1c0.5-1,2.3-1.6,3-0.6
		C123.9,50.3,123.7,52.6,123.7,53.5z"/>
	<path class="st10" d="M124.7,51.3c-0.1-2.2,2.6-3.3,3.8-1.3v-2.8h0.6v5.6c0,0.2,0.1,0.2,0.2,0.2v0.5c-0.1,0-0.2,0-0.3,0
		c-0.5,0-0.5-0.5-0.5-0.9C127.4,54.6,124.6,53.4,124.7,51.3z M128.5,52v-1.4c-0.8-1.8-3.2-1.3-3.2,0.7
		C125.2,53.2,127.9,53.8,128.5,52z"/>
	<path class="st10" d="M130.4,48.1v-0.9h0.6v0.9H130.4z M130.4,53.5V49h0.6v4.5H130.4z"/>
	<path class="st10" d="M133.6,53.5l-1.8-4.5h0.6l1.5,3.9l1.6-3.9h0.6l-1.8,4.5H133.6z"/>
	<path class="st10" d="M136.9,48.1v-0.9h0.6v0.9H136.9z M136.9,53.5V49h0.6v4.5H136.9z"/>
	<path class="st10" d="M138.5,51.3c-0.1-2.2,2.6-3.3,3.8-1.3v-2.8h0.6v5.6c0,0.2,0.1,0.2,0.2,0.2v0.5c-0.1,0-0.2,0-0.3,0
		c-0.5,0-0.5-0.5-0.5-0.9C141.2,54.6,138.4,53.4,138.5,51.3z M142.3,52v-1.4c-0.8-1.8-3.2-1.3-3.2,0.7C139,53.2,141.7,53.8,142.3,52
		z"/>
	<path class="st10" d="M144.1,51.7V49h0.6v2.6c-0.2,2.2,2.2,1.8,2.7,0.3V49h0.6v3.8c0,0.1,0,0.1,0,0.2c0,0,0.1,0.1,0.2,0.1v0.5
		c-0.1,0-0.2,0-0.3,0c-0.2,0-0.4-0.2-0.4-0.4l0-0.6C146.5,54.2,143.9,54,144.1,51.7z"/>
	<path class="st10" d="M149,52.2c0-1.5,2.1-1.6,3.2-1.2c0.2-1.8-1.5-2-2.7-1.1l-0.2-0.4c1.3-1,3.6-0.8,3.5,1.2c0,0,0,2.1,0,2.1
		c0,0.2,0.1,0.2,0.2,0.2v0.5c-0.1,0-0.2,0-0.3,0c-0.3,0-0.4-0.2-0.4-0.4l0-0.3C151.5,54,149,54,149,52.2z M152,52.6
		c0.3-0.3,0.2-0.8,0.2-1.1c-1-0.6-3.6-0.1-2.4,1.4C150.4,53.4,151.6,53.2,152,52.6z"/>
</g>
<g class="st9">
	<path class="st10" d="M154.1,47.2h0.6v5.3c-0.1,0.7,0.6,0.6,1,0.4l0.1,0.5c-0.7,0.3-1.7,0.2-1.7-0.7
		C154.1,52.7,154.1,47.2,154.1,47.2z"/>
</g>
<g class="st9">
	<path class="st10" d="M160.4,53.6c-1.8,0.1-2.8-2.1-2-3.5c0.7-1.4,3.1-1.6,3.8-0.1l-0.6,0.2c-0.8-1.5-3.1-0.5-2.9,1.1
		c-0.1,1.7,2.2,2.6,3,1.1l0.6,0.2C162,53.2,161.1,53.6,160.4,53.6z"/>
	<path class="st10" d="M162.8,52.2c0-1.5,2.1-1.6,3.2-1.2c0.2-1.7-1.5-2-2.7-1.1l-0.2-0.4c1.3-1,3.6-0.8,3.5,1.2c0,0,0,2.1,0,2.1
		c0,0.2,0.1,0.2,0.2,0.2v0.5c-0.1,0-0.2,0-0.3,0c-0.3,0-0.4-0.2-0.5-0.4l0-0.3C165.3,54,162.8,54,162.8,52.2z M165.8,52.6
		c0.3-0.3,0.2-0.8,0.2-1.1c-1-0.6-3.6-0.1-2.4,1.4C164.2,53.4,165.4,53.2,165.8,52.6z"/>
	<path class="st10" d="M169.4,53.6c-0.8,0-1.4-0.2-1.9-0.7l0.2-0.4c0.6,0.7,1.7,0.9,2.5,0.5c0.3-0.2,0.5-0.7,0.2-1
		c-0.3-0.3-0.7-0.3-1.2-0.4c-0.5-0.2-1.1-0.3-1.3-0.8c-0.2-0.5,0-1.1,0.4-1.4c0.7-0.5,2.2-0.5,2.8,0.3l-0.3,0.4
		c-0.5-0.7-2.7-0.9-2.4,0.4c0.1,0.3,0.5,0.4,0.7,0.5c0.5,0.2,1,0.3,1.5,0.5C171.8,52.2,170.8,53.8,169.4,53.6z"/>
	<path class="st10" d="M174,53.6c-2.3,0.1-3.1-3.3-1.2-4.4c1.6-1,3.7,0.4,3.4,2.2h-3.9c0,1.6,2.3,2.4,3.1,0.9l0.5,0.1
		C175.7,53.2,174.8,53.6,174,53.6z M172.4,51.1h3.3C175.6,48.9,172.5,48.9,172.4,51.1z"/>
	<path class="st10" d="M178.7,53.6c-0.8,0-1.4-0.2-1.9-0.7l0.2-0.4c0.7,0.7,1.7,0.9,2.5,0.5c0.3-0.2,0.5-0.7,0.2-1
		c-0.7-0.6-2-0.4-2.5-1.2c-0.6-1.8,2.2-2.3,3.2-1.2l-0.3,0.4c-0.5-0.8-3-0.7-2.3,0.6c0.6,0.5,1.6,0.4,2.3,0.9
		c0.1,0.1,0.2,0.2,0.3,0.3C180.7,52.9,179.8,53.7,178.7,53.6z"/>
</g>
<g class="st9">
	<path class="st10" d="M85.8,78.5v-6.2h0.6v6.2H85.8z"/>
	<path class="st10" d="M91.6,78.5H91c-0.1-0.7,0.2-3.1-0.2-3.7c-0.7-0.9-2.2,0-2.4,0.9v2.8h-0.6V74h0.5v1c0.5-1,2.3-1.6,3-0.6
		C91.8,75.3,91.6,77.5,91.6,78.5z"/>
	<path class="st10" d="M92.9,73v-0.9h0.6V73H92.9z M92.9,78.5V74h0.6v4.5H92.9z"/>
	<path class="st10" d="M96.9,78.3c0,0-0.2,0.1-0.2,0.1c-0.7,0.3-1.8,0.2-1.8-0.7c0,0,0-3.2,0-3.2h-0.6V74H95v-1.5h0.6V74h1v0.5h-1
		v3.1c0,0.6,0.8,0.5,1.2,0.3L96.9,78.3z"/>
	<path class="st10" d="M97.7,73v-0.9h0.6V73H97.7z M97.7,78.5V74h0.6v4.5H97.7z"/>
	<path class="st10" d="M99.2,77.2c0-1.5,2.1-1.6,3.2-1.2c0.2-1.8-1.5-2-2.7-1.1l-0.2-0.4c1.3-1,3.6-0.8,3.5,1.2c0,0,0,2.1,0,2.1
		c0,0.2,0.1,0.2,0.2,0.2v0.5c-0.1,0-0.2,0-0.3,0c-0.3,0-0.4-0.2-0.4-0.4l0-0.3C101.7,78.9,99.2,78.9,99.2,77.2z M102.2,77.5
		c0.3-0.3,0.2-0.8,0.2-1.1c-1-0.6-3.6-0.1-2.4,1.4C100.6,78.4,101.8,78.1,102.2,77.5z"/>
</g>
<g class="st9">
	<path class="st10" d="M104.3,72.2h0.6v5.3c-0.1,0.7,0.6,0.6,1,0.4l0.1,0.5c-0.7,0.3-1.7,0.2-1.7-0.7
		C104.3,77.7,104.3,72.2,104.3,72.2z"/>
</g>
<g class="st9">
</g>
<g class="st9">
	<path class="st10" d="M110.6,78.6c-1.8,0.1-2.8-2.1-2-3.5c0.7-1.4,3.1-1.6,3.8-0.1l-0.6,0.2c-0.8-1.5-3.1-0.5-2.9,1.1
		c-0.1,1.7,2.2,2.6,3,1.1l0.6,0.2C112.2,78.2,111.4,78.6,110.6,78.6z"/>
</g>
<g class="st9">
	<path class="st10" d="M113,76.2c0-3.1,4.5-3.1,4.5,0C117.5,79.3,113,79.3,113,76.2z M114.1,77.5c1.7,1.7,3.8-1,2.3-2.6
		C114.8,73.2,112.7,76,114.1,77.5z"/>
	<path class="st10" d="M125.3,78.5h-0.6V76c0.1-2.2-2.1-1.8-2.5-0.2v2.8h-0.6c-0.1-0.7,0.2-3.1-0.2-3.7c-0.7-0.9-2,0-2.2,0.9v2.8
		h-0.6V74h0.5v1c0.6-1.3,2.8-1.6,3.1,0.1c0.5-1.1,2.1-1.6,2.8-0.7C125.5,75.1,125.2,77.6,125.3,78.5z"/>
	<path class="st10" d="M133.2,78.5h-0.6V76c0.1-2.2-2.1-1.8-2.5-0.2v2.8h-0.6c-0.1-0.7,0.2-3.1-0.2-3.7c-0.7-0.9-2,0-2.2,0.9v2.8
		h-0.6V74h0.5v1c0.6-1.3,2.8-1.6,3.1,0.1c0.5-1.1,2.1-1.6,2.8-0.7C133.5,75.1,133.2,77.6,133.2,78.5z"/>
	<path class="st10" d="M134.4,76.6V74h0.6v2.6c-0.2,2.2,2.2,1.8,2.7,0.3V74h0.6v3.8c0,0.1,0,0.1,0,0.2c0,0,0.1,0.1,0.2,0.1v0.5
		c-0.1,0-0.2,0-0.3,0c-0.2,0-0.4-0.2-0.4-0.4l0-0.6C136.8,79.2,134.2,79,134.4,76.6z"/>
	<path class="st10" d="M143.5,78.5h-0.6c-0.1-0.7,0.2-3.1-0.2-3.7c-0.7-0.9-2.2,0-2.4,0.9v2.8h-0.6V74h0.5v1c0.5-1,2.3-1.6,3-0.6
		C143.7,75.3,143.4,77.5,143.5,78.5z"/>
	<path class="st10" d="M144.7,73v-0.9h0.6V73H144.7z M144.7,78.5V74h0.6v4.5H144.7z"/>
	<path class="st10" d="M148.8,78.3c0,0-0.2,0.1-0.2,0.1c-0.7,0.3-1.8,0.2-1.8-0.7c0,0,0-3.2,0-3.2h-0.6V74h0.6v-1.5h0.6V74h1v0.5h-1
		v3.1c0,0.6,0.8,0.5,1.2,0.3L148.8,78.3z"/>
</g>
<g class="st9">
	<path class="st10" d="M149.8,79.9c0.2,0,0.4,0,0.4,0c0.5-0.2,0.4-0.6,0.8-1.4l-2-4.5h0.6l1.7,3.9l1.5-3.9h0.6l-2.3,5.8
		c-0.2,0.4-0.5,0.6-0.9,0.6c-0.1,0-0.2,0-0.4,0V79.9z"/>
</g>
<g class="st9">
	<path class="st10" d="M158.4,78.3c0,0-0.2,0.1-0.2,0.1c-0.7,0.3-1.8,0.2-1.8-0.7c0,0,0-3.2,0-3.2h-0.6V74h0.6v-1.5h0.6V74h1v0.5h-1
		v3.1c0,0.6,0.8,0.5,1.2,0.3L158.4,78.3z"/>
</g>
<g class="st9">
	<path class="st10" d="M161.4,74.5c-0.8,0-1.4,0.5-1.7,1.2v2.8h-0.6V74h0.6v1.1c0.3-0.6,0.8-1,1.4-1.1c0.1,0,0.2,0,0.3,0V74.5z"/>
</g>
<g class="st9">
	<path class="st10" d="M161.7,77.2c0-1.5,2.1-1.6,3.2-1.2c0.2-1.8-1.5-2-2.7-1.1l-0.2-0.4c1.3-1,3.6-0.8,3.5,1.2c0,0,0,2.1,0,2.1
		c0,0.2,0.1,0.2,0.2,0.2v0.5c-0.1,0-0.2,0-0.3,0c-0.3,0-0.4-0.2-0.4-0.4l0-0.3C164.2,78.9,161.8,78.9,161.7,77.2z M164.8,77.5
		c0.3-0.3,0.2-0.8,0.2-1.1c-1-0.6-3.6-0.1-2.4,1.4C163.2,78.4,164.3,78.1,164.8,77.5z"/>
	<path class="st10" d="M170.7,78.5h-0.6c-0.1-0.7,0.2-3.1-0.2-3.7c-0.7-0.9-2.2,0-2.4,0.9v2.8h-0.6V74h0.5v1c0.5-1,2.3-1.6,3-0.6
		C170.9,75.3,170.6,77.5,170.7,78.5z"/>
	<path class="st10" d="M173.4,78.6c-0.8,0-1.4-0.2-1.9-0.7l0.2-0.4c0.7,0.7,1.7,0.9,2.5,0.5c0.3-0.2,0.5-0.7,0.2-1
		c-0.3-0.3-0.7-0.3-1.2-0.4c-0.5-0.2-1.1-0.3-1.3-0.8c-0.2-0.5,0-1.1,0.4-1.4c0.7-0.5,2.2-0.5,2.8,0.3l-0.3,0.4
		c-0.5-0.8-3-0.7-2.3,0.6c0.6,0.5,1.6,0.4,2.3,0.9C175.8,77.4,174.6,78.7,173.4,78.6z"/>
	<path class="st10" d="M182.8,78.5h-0.6V76c0.1-2.2-2.1-1.8-2.5-0.2v2.8h-0.6c-0.1-0.7,0.2-3.1-0.2-3.7c-0.7-0.9-2,0-2.2,0.9v2.8
		h-0.6V74h0.5v1c0.6-1.3,2.8-1.6,3.1,0.1c0.5-1.1,2.1-1.6,2.8-0.7C183.1,75.1,182.8,77.6,182.8,78.5z"/>
	<path class="st10" d="M184.1,73v-0.9h0.6V73H184.1z M184.1,78.5V74h0.6v4.5H184.1z"/>
	<path class="st10" d="M187.5,78.6c-0.8,0-1.4-0.2-1.9-0.7l0.2-0.4c0.7,0.7,1.7,0.9,2.5,0.5c0.3-0.2,0.5-0.7,0.2-1
		c-0.3-0.3-0.7-0.3-1.2-0.4c-0.5-0.2-1.1-0.3-1.3-0.8c-0.2-0.5,0-1.1,0.4-1.4c0.7-0.5,2.2-0.5,2.8,0.3l-0.3,0.4
		c-0.5-0.8-3-0.7-2.3,0.6c0.6,0.5,1.6,0.4,2.3,0.9C189.8,77.4,188.7,78.7,187.5,78.6z"/>
	<path class="st10" d="M191.7,78.6c-0.8,0-1.4-0.2-1.9-0.7l0.2-0.4c0.7,0.7,1.7,0.9,2.5,0.5c0.3-0.2,0.5-0.7,0.2-1
		c-0.3-0.3-0.7-0.3-1.2-0.4c-0.5-0.2-1.1-0.3-1.3-0.8c-0.2-0.5,0-1.1,0.4-1.4c0.7-0.5,2.2-0.5,2.8,0.3l-0.3,0.4
		c-0.5-0.8-3-0.7-2.3,0.6c0.6,0.5,1.6,0.4,2.3,0.9C194,77.4,192.9,78.7,191.7,78.6z"/>
	<path class="st10" d="M194.4,73v-0.9h0.6V73H194.4z M194.4,78.5V74h0.6v4.5H194.4z"/>
	<path class="st10" d="M195.9,76.2c0-3.1,4.5-3.1,4.5,0C200.4,79.3,195.9,79.3,195.9,76.2z M197,77.5c1.7,1.7,3.8-1,2.3-2.6
		C197.7,73.2,195.6,76,197,77.5z"/>
	<path class="st10" d="M205.2,78.5h-0.6c-0.1-0.7,0.2-3.1-0.2-3.7c-0.7-0.9-2.2,0-2.4,0.9v2.8h-0.6V74h0.5v1c0.5-1,2.3-1.6,3-0.6
		C205.5,75.3,205.2,77.5,205.2,78.5z"/>
</g>
<g class="st9">
	<path class="st10" d="M85.8,103.4v-6.2h0.6v5.6H90v0.5H85.8z"/>
	<path class="st10" d="M90.4,102.1c0-1.5,2.1-1.6,3.2-1.2c0.2-1.8-1.5-2-2.7-1.1l-0.2-0.4c1.3-1,3.6-0.8,3.5,1.2c0,0,0,2.1,0,2.1
		c0,0.2,0.1,0.2,0.2,0.2v0.5c-0.1,0-0.2,0-0.3,0c-0.3,0-0.4-0.2-0.4-0.4l0-0.3C92.9,103.9,90.4,103.9,90.4,102.1z M93.4,102.5
		c0.3-0.3,0.2-0.8,0.2-1.1c-1-0.6-3.6-0.1-2.4,1.4C91.8,103.3,92.9,103.1,93.4,102.5z"/>
</g>
<g class="st9">
	<path class="st10" d="M97.7,99.4c-0.8,0-1.4,0.5-1.7,1.2v2.8h-0.6v-4.5H96v1.1c0.3-0.6,0.8-1,1.4-1.1c0.1,0,0.2,0,0.3,0V99.4z"/>
</g>
<g class="st9">
	<path class="st10" d="M98,101.2c-0.1-2.1,2.6-3.3,3.8-1.3v-0.9h0.5v4.5c0,0.4-0.1,0.8-0.3,1.1c-0.9,1.2-3.2,1.2-3.9-0.2l0.4-0.3
		c0.7,1.3,3.3,1.1,3.3-0.6c0,0,0-0.9,0-0.9C100.6,104.4,97.9,103.2,98,101.2z M101.8,101.9v-1.4c-0.7-1.9-3.2-1.2-3.2,0.7
		C98.5,103.1,101.2,103.8,101.8,101.9z"/>
	<path class="st10" d="M105.6,103.5c-2.3,0.1-3.1-3.3-1.2-4.4c1.6-1,3.7,0.4,3.4,2.2H104c0,1.6,2.3,2.4,3.1,0.9l0.5,0.1
		C107.2,103.1,106.4,103.5,105.6,103.5z M103.9,101h3.3C107.2,98.8,104.1,98.8,103.9,101z"/>
	<path class="st10" d="M108.7,101.4v-0.5h2.5v0.5H108.7z"/>
	<path class="st10" d="M113.9,103.5c-0.8,0-1.4-0.2-1.9-0.7l0.2-0.4c0.7,0.7,1.7,0.9,2.5,0.5c0.3-0.2,0.5-0.7,0.2-1
		c-0.3-0.3-0.7-0.3-1.2-0.4c-0.5-0.2-1.1-0.3-1.3-0.8c-0.2-0.5,0-1.1,0.4-1.4c0.7-0.5,2.2-0.5,2.8,0.3l-0.3,0.4
		c-0.5-0.8-3-0.7-2.3,0.6c0.6,0.5,1.6,0.4,2.3,0.9C116.3,102.4,115.1,103.7,113.9,103.5z"/>
	<path class="st10" d="M118.6,103.5c-1.8,0.1-2.8-2.1-2-3.5c0.7-1.4,3.1-1.6,3.8-0.1l-0.6,0.2c-0.8-1.5-3.1-0.5-2.9,1.1
		c-0.1,1.7,2.2,2.6,3,1.1l0.6,0.2C120.2,103.1,119.4,103.5,118.6,103.5z"/>
	<path class="st10" d="M121,102.1c0-1.5,2.1-1.6,3.2-1.2c0.2-1.8-1.5-2-2.7-1.1l-0.2-0.4c1.3-1,3.6-0.8,3.5,1.2c0,0,0,2.1,0,2.1
		c0,0.2,0.1,0.2,0.2,0.2v0.5c-0.1,0-0.2,0-0.3,0c-0.3,0-0.4-0.2-0.4-0.4l0-0.3C123.5,103.9,121,103.9,121,102.1z M124.1,102.5
		c0.3-0.3,0.2-0.8,0.2-1.1c-1-0.6-3.6-0.1-2.4,1.4C122.5,103.3,123.6,103.1,124.1,102.5z"/>
	<path class="st10" d="M126.1,97.1h0.6v5.3c-0.1,0.7,0.6,0.6,1,0.4l0.1,0.5c-0.7,0.3-1.7,0.2-1.7-0.7
		C126.1,102.6,126.1,97.1,126.1,97.1z"/>
	<path class="st10" d="M130.4,103.5c-2.3,0.1-3.1-3.3-1.2-4.4c1.6-1,3.7,0.4,3.4,2.2h-3.9c0,1.6,2.3,2.4,3.1,0.9l0.5,0.1
		C132.1,103.1,131.2,103.5,130.4,103.5z M128.8,101h3.3C132,98.8,128.9,98.8,128.8,101z"/>
</g>
<g class="st9">
	<path class="st10" d="M137.8,103.5c-1.8,0.1-2.8-2.1-2-3.5c0.7-1.4,3.1-1.6,3.8-0.1l-0.6,0.2c-0.8-1.5-3.1-0.5-2.9,1.1
		c-0.1,1.7,2.2,2.6,3,1.1l0.6,0.2C139.4,103.1,138.5,103.5,137.8,103.5z"/>
</g>
<g class="st9">
	<path class="st10" d="M140.2,101.2c0-3.1,4.5-3.1,4.5,0C144.7,104.3,140.2,104.3,140.2,101.2z M141.3,102.5c1.7,1.7,3.8-1,2.3-2.6
		C141.9,98.2,139.8,100.9,141.3,102.5z"/>
	<path class="st10" d="M152.4,103.4h-0.6v-2.5c0.1-2.2-2.1-1.8-2.5-0.2v2.8h-0.6c-0.1-0.7,0.2-3.1-0.2-3.7c-0.7-0.9-2,0-2.2,0.9v2.8
		h-0.6v-4.5h0.5v1c0.6-1.3,2.8-1.6,3.1,0.1c0.5-1.1,2.1-1.6,2.8-0.7C152.6,100.1,152.4,102.5,152.4,103.4z"/>
	<path class="st10" d="M160.4,103.4h-0.6v-2.5c0.1-2.2-2.1-1.8-2.5-0.2v2.8h-0.6c-0.1-0.7,0.2-3.1-0.2-3.7c-0.7-0.9-2,0-2.2,0.9v2.8
		h-0.6v-4.5h0.5v1c0.6-1.3,2.8-1.6,3.1,0.1c0.5-1.1,2.1-1.6,2.8-0.7C160.6,100.1,160.3,102.5,160.4,103.4z"/>
	<path class="st10" d="M161.6,101.6v-2.7h0.6v2.6c-0.2,2.2,2.2,1.8,2.7,0.3v-2.9h0.6v3.8c0,0.1,0,0.1,0,0.2c0,0,0.1,0.1,0.2,0.1v0.5
		c-0.1,0-0.2,0-0.3,0c-0.2,0-0.4-0.2-0.4-0.4l0-0.6C164,104.1,161.4,103.9,161.6,101.6z"/>
	<path class="st10" d="M170.6,103.4H170c-0.1-0.7,0.2-3.1-0.2-3.7c-0.7-0.9-2.2,0-2.4,0.9v2.8h-0.6v-4.5h0.5v1c0.5-1,2.3-1.6,3-0.6
		C170.8,100.2,170.6,102.5,170.6,103.4z"/>
	<path class="st10" d="M171.9,98v-0.9h0.6V98H171.9z M171.9,103.4v-4.5h0.6v4.5H171.9z"/>
	<path class="st10" d="M175.9,103.2c0,0-0.2,0.1-0.2,0.1c-0.7,0.3-1.8,0.2-1.8-0.7c0,0,0-3.2,0-3.2h-0.6v-0.5h0.6v-1.5h0.6v1.5h1
		v0.5h-1v3.1c0,0.6,0.8,0.5,1.2,0.3L175.9,103.2z"/>
</g>
<g class="st9">
	<path class="st10" d="M176.9,104.8c0.2,0,0.4,0,0.4,0c0.5-0.2,0.4-0.6,0.8-1.4l-2-4.5h0.6l1.7,3.9l1.5-3.9h0.6l-2.3,5.8
		c-0.2,0.4-0.5,0.6-0.9,0.6c-0.1,0-0.2,0-0.4,0V104.8z"/>
</g>
<g class="st9">
	<path class="st10" d="M185.5,103.2c0,0-0.2,0.1-0.2,0.1c-0.7,0.3-1.8,0.2-1.8-0.7c0,0,0-3.2,0-3.2h-0.6v-0.5h0.6v-1.5h0.6v1.5h1
		v0.5h-1v3.1c0,0.6,0.8,0.5,1.2,0.3L185.5,103.2z"/>
</g>
<g class="st9">
	<path class="st10" d="M188.5,99.4c-0.8,0-1.4,0.5-1.7,1.2v2.8h-0.6v-4.5h0.6v1.1c0.3-0.6,0.8-1,1.4-1.1c0.1,0,0.2,0,0.3,0V99.4z"/>
</g>
<g class="st9">
	<path class="st10" d="M188.9,102.1c0-1.5,2.1-1.6,3.2-1.2c0.2-1.8-1.5-2-2.7-1.1l-0.2-0.4c1.3-1,3.6-0.8,3.5,1.2c0,0,0,2.1,0,2.1
		c0,0.2,0.1,0.2,0.2,0.2v0.5c-0.1,0-0.2,0-0.3,0c-0.3,0-0.4-0.2-0.4-0.4l0-0.3C191.4,103.9,188.9,103.9,188.9,102.1z M191.9,102.5
		c0.3-0.3,0.2-0.8,0.2-1.1c-1-0.6-3.6-0.1-2.4,1.4C190.3,103.3,191.5,103.1,191.9,102.5z"/>
	<path class="st10" d="M197.8,103.4h-0.6c-0.1-0.7,0.2-3.1-0.2-3.7c-0.7-0.9-2.2,0-2.4,0.9v2.8H194v-4.5h0.5v1c0.5-1,2.3-1.6,3-0.6
		C198,100.2,197.8,102.5,197.8,103.4z"/>
	<path class="st10" d="M200.6,103.5c-0.8,0-1.4-0.2-1.9-0.7l0.2-0.4c0.7,0.7,1.7,0.9,2.5,0.5c0.3-0.2,0.5-0.7,0.2-1
		c-0.3-0.3-0.7-0.3-1.2-0.4c-0.5-0.2-1.1-0.3-1.3-0.8c-0.2-0.5,0-1.1,0.4-1.4c0.7-0.5,2.2-0.5,2.8,0.3l-0.3,0.4
		c-0.5-0.8-3-0.7-2.3,0.6c0.6,0.5,1.6,0.4,2.3,0.9C202.9,102.4,201.8,103.7,200.6,103.5z"/>
	<path class="st10" d="M210,103.4h-0.6v-2.5c0.1-2.2-2.1-1.8-2.5-0.2v2.8h-0.6c-0.1-0.7,0.2-3.1-0.2-3.7c-0.7-0.9-2,0-2.2,0.9v2.8
		h-0.6v-4.5h0.5v1c0.6-1.3,2.8-1.6,3.1,0.1c0.5-1.1,2.1-1.6,2.8-0.7C210.2,100.1,209.9,102.5,210,103.4z"/>
	<path class="st10" d="M211.3,98v-0.9h0.6V98H211.3z M211.3,103.4v-4.5h0.6v4.5H211.3z"/>
	<path class="st10" d="M214.6,103.5c-0.8,0-1.4-0.2-1.9-0.7l0.2-0.4c0.7,0.7,1.7,0.9,2.5,0.5c0.3-0.2,0.5-0.7,0.2-1
		c-0.3-0.3-0.7-0.3-1.2-0.4c-0.5-0.2-1.1-0.3-1.3-0.8c-0.2-0.5,0-1.1,0.4-1.4c0.7-0.5,2.2-0.5,2.8,0.3l-0.3,0.4
		c-0.5-0.8-3-0.7-2.3,0.6c0.6,0.5,1.6,0.4,2.3,0.9C217,102.4,215.9,103.7,214.6,103.5z"/>
	<path class="st10" d="M218.8,103.5c-0.8,0-1.4-0.2-1.9-0.7l0.2-0.4c0.7,0.7,1.7,0.9,2.5,0.5c0.3-0.2,0.5-0.7,0.2-1
		c-0.3-0.3-0.7-0.3-1.2-0.4c-0.5-0.2-1.1-0.3-1.3-0.8c-0.2-0.5,0-1.1,0.4-1.4c0.7-0.5,2.2-0.5,2.8,0.3l-0.3,0.4
		c-0.5-0.8-3-0.7-2.3,0.6c0.6,0.5,1.6,0.4,2.3,0.9C221.2,102.4,220.1,103.7,218.8,103.5z"/>
	<path class="st10" d="M221.5,98v-0.9h0.6V98H221.5z M221.5,103.4v-4.5h0.6v4.5H221.5z"/>
	<path class="st10" d="M223.1,101.2c0-3.1,4.5-3.1,4.5,0C227.6,104.3,223.1,104.3,223.1,101.2z M224.2,102.5c1.7,1.7,3.8-1,2.3-2.6
		C224.8,98.2,222.7,100.9,224.2,102.5z"/>
	<path class="st10" d="M232.4,103.4h-0.6c-0.1-0.7,0.2-3.1-0.2-3.7c-0.7-0.9-2.2,0-2.4,0.9v2.8h-0.6v-4.5h0.5v1c0.5-1,2.3-1.6,3-0.6
		C232.6,100.2,232.3,102.5,232.4,103.4z"/>
</g>
<g class="st9">
	<path class="st10" d="M85.8,128.4v-6.2c0.7,0.1,3-0.2,3.5,0.3c1.3,0.8,1.1,3.2-0.5,3.5l1.5,2.4h-0.7l-1.5-2.3h-1.8v2.3H85.8z
		 M86.4,125.6h2c0.7,0,1.2-0.7,1.2-1.4c0-0.7-0.6-1.4-1.3-1.4c0,0-2,0-2,0V125.6z"/>
</g>
<g class="st9">
	<path class="st10" d="M93.2,128.5c-2.3,0.1-3.1-3.3-1.2-4.4c1.6-1,3.7,0.4,3.4,2.2h-3.9c0,1.6,2.3,2.4,3.1,0.9l0.5,0.1
		C94.8,128.1,94,128.5,93.2,128.5z M91.5,125.9h3.3C94.7,123.7,91.6,123.7,91.5,125.9z"/>
	<path class="st10" d="M96,126.2c-0.1-2.2,2.6-3.3,3.8-1.3v-2.8h0.6v5.6c0,0.2,0.1,0.2,0.2,0.2v0.5c-0.1,0-0.2,0-0.3,0
		c-0.5,0-0.5-0.5-0.5-0.9C98.7,129.4,95.9,128.2,96,126.2z M99.8,126.8v-1.4c-0.8-1.8-3.2-1.3-3.2,0.7
		C96.6,128,99.2,128.7,99.8,126.8z"/>
	<path class="st10" d="M101.7,126.5v-2.7h0.6v2.6c-0.2,2.2,2.2,1.8,2.7,0.3v-2.9h0.6v3.8c0,0.1,0,0.1,0,0.2c0,0,0.1,0.1,0.2,0.1v0.5
		c-0.1,0-0.2,0-0.3,0c-0.5,0-0.4-0.7-0.5-1C104.1,129.1,101.5,128.9,101.7,126.5z"/>
</g>
<g class="st9">
	<path class="st10" d="M108.8,128.5c-1.8,0.1-2.8-2.1-2-3.5c0.7-1.4,3.1-1.6,3.8-0.1l-0.6,0.2c-0.8-1.5-3.1-0.5-2.9,1.1
		c-0.1,1.7,2.2,2.6,3,1.1l0.6,0.2C110.4,128.1,109.6,128.5,108.8,128.5z"/>
</g>
<g class="st9">
	<path class="st10" d="M113.6,128.5c-2.3,0.1-3.1-3.3-1.2-4.4c1.6-1,3.7,0.4,3.4,2.2h-3.9c0,1.6,2.3,2.4,3.1,0.9l0.5,0.1
		C115.2,128.1,114.3,128.5,113.6,128.5z M111.9,125.9h3.3C115.1,123.7,112,123.7,111.9,125.9z"/>
	<path class="st10" d="M116.4,126.2c-0.1-2.2,2.6-3.3,3.8-1.3v-2.8h0.6v5.6c0,0.2,0.1,0.2,0.2,0.2v0.5c-0.1,0-0.2,0-0.3,0
		c-0.5,0-0.5-0.5-0.5-0.9C119.1,129.4,116.3,128.2,116.4,126.2z M120.2,126.8v-1.4c-0.8-1.8-3.2-1.3-3.2,0.7
		C116.9,128,119.6,128.7,120.2,126.8z"/>
</g>
<g class="st9">
	<path class="st10" d="M126.3,128.5c-1.8,0.1-2.8-2.1-2-3.5c0.7-1.4,3.1-1.6,3.8-0.1l-0.6,0.2c-0.8-1.5-3.1-0.5-2.9,1.1
		c-0.1,1.7,2.2,2.6,3,1.1l0.6,0.2C127.9,128.1,127.1,128.5,126.3,128.5z"/>
</g>
<g class="st9">
	<path class="st10" d="M128.7,126.2c0-3.1,4.5-3.1,4.5,0C133.2,129.2,128.7,129.2,128.7,126.2z M129.8,127.4c1.7,1.7,3.8-1,2.3-2.6
		C130.4,123.1,128.3,125.9,129.8,127.4z"/>
	<path class="st10" d="M140.9,128.4h-0.6v-2.5c0.1-2.2-2.1-1.8-2.5-0.2v2.8h-0.6c-0.1-0.7,0.2-3.1-0.2-3.7c-0.7-0.9-2,0-2.2,0.9v2.8
		h-0.6v-4.5h0.5v1c0.6-1.3,2.8-1.6,3.1,0.1c0.5-1.1,2.1-1.6,2.8-0.7C141.2,125,140.9,127.5,140.9,128.4z"/>
	<path class="st10" d="M148.9,128.4h-0.6v-2.5c0.1-2.2-2.1-1.8-2.5-0.2v2.8h-0.6c-0.1-0.7,0.2-3.1-0.2-3.7c-0.7-0.9-2,0-2.2,0.9v2.8
		h-0.6v-4.5h0.5v1c0.6-1.3,2.8-1.6,3.1,0.1c0.5-1.1,2.1-1.6,2.8-0.7C149.1,125,148.9,127.5,148.9,128.4z"/>
	<path class="st10" d="M150.1,126.5v-2.7h0.6v2.6c-0.2,2.2,2.2,1.8,2.7,0.3v-2.9h0.6v3.8c0,0.1,0,0.1,0,0.2c0,0,0.1,0.1,0.2,0.1v0.5
		c-0.1,0-0.2,0-0.3,0c-0.2,0-0.4-0.2-0.4-0.4l0-0.6C152.5,129.1,149.9,128.9,150.1,126.5z"/>
	<path class="st10" d="M159.1,128.4h-0.6c-0.1-0.7,0.2-3.1-0.2-3.7c-0.7-0.9-2.2,0-2.4,0.9v2.8h-0.6v-4.5h0.5v1c0.5-1,2.3-1.6,3-0.6
		C159.4,125.2,159.1,127.4,159.1,128.4z"/>
	<path class="st10" d="M160.4,122.9v-0.9h0.6v0.9H160.4z M160.4,128.4v-4.5h0.6v4.5H160.4z"/>
	<path class="st10" d="M164.5,128.2c0,0-0.2,0.1-0.2,0.1c-0.7,0.3-1.8,0.2-1.8-0.7c0,0,0-3.2,0-3.2h-0.6v-0.5h0.6v-1.5h0.6v1.5h1
		v0.5h-1v3.1c0,0.6,0.8,0.5,1.2,0.3L164.5,128.2z"/>
</g>
<g class="st9">
	<path class="st10" d="M165.5,129.8c0.2,0,0.4,0,0.4,0c0.5-0.2,0.4-0.6,0.8-1.4l-2-4.5h0.6l1.7,3.9l1.5-3.9h0.6l-2.3,5.8
		c-0.2,0.4-0.5,0.6-0.9,0.6c-0.1,0-0.2,0-0.4,0V129.8z"/>
</g>
<g class="st9">
	<path class="st10" d="M174.1,128.2c0,0-0.2,0.1-0.2,0.1c-0.7,0.3-1.8,0.2-1.8-0.7c0,0,0-3.2,0-3.2h-0.6v-0.5h0.6v-1.5h0.6v1.5h1
		v0.5h-1v3.1c0,0.6,0.8,0.5,1.2,0.3L174.1,128.2z"/>
</g>
<g class="st9">
	<path class="st10" d="M177.1,124.4c-0.8,0-1.4,0.5-1.7,1.2v2.8h-0.6v-4.5h0.6v1.1c0.3-0.6,0.8-1,1.4-1.1c0.1,0,0.2,0,0.3,0V124.4z"
		/>
</g>
<g class="st9">
	<path class="st10" d="M177.4,127.1c0-1.5,2.1-1.6,3.2-1.2c0.2-1.8-1.5-2-2.7-1.1l-0.2-0.4c1.3-1,3.6-0.8,3.5,1.2c0,0,0,2.1,0,2.1
		c0,0.2,0.1,0.2,0.2,0.2v0.5c-0.1,0-0.2,0-0.3,0c-0.3,0-0.4-0.2-0.4-0.4l0-0.3C179.9,128.8,177.5,128.8,177.4,127.1z M180.5,127.4
		c0.3-0.3,0.2-0.8,0.2-1.1c-1-0.6-3.6-0.1-2.4,1.4C178.9,128.3,180,128,180.5,127.4z"/>
	<path class="st10" d="M186.4,128.4h-0.6c-0.1-0.7,0.2-3.1-0.2-3.7c-0.7-0.9-2.2,0-2.4,0.9v2.8h-0.6v-4.5h0.5v1c0.5-1,2.3-1.6,3-0.6
		C186.6,125.2,186.3,127.4,186.4,128.4z"/>
	<path class="st10" d="M189.1,128.5c-0.8,0-1.4-0.2-1.9-0.7l0.2-0.4c0.7,0.7,1.7,0.9,2.5,0.5c0.3-0.2,0.5-0.7,0.2-1
		c-0.3-0.3-0.7-0.3-1.2-0.4c-0.5-0.2-1.1-0.3-1.3-0.8c-0.2-0.5,0-1.1,0.4-1.4c0.7-0.5,2.2-0.5,2.8,0.3l-0.3,0.4
		c-0.5-0.8-3-0.7-2.3,0.6c0.6,0.5,1.6,0.4,2.3,0.9C191.5,127.3,190.3,128.6,189.1,128.5z"/>
	<path class="st10" d="M198.5,128.4h-0.6v-2.5c0.1-2.2-2.1-1.8-2.5-0.2v2.8h-0.6c-0.1-0.7,0.2-3.1-0.2-3.7c-0.7-0.9-2,0-2.2,0.9v2.8
		h-0.6v-4.5h0.5v1c0.6-1.3,2.8-1.6,3.1,0.1c0.5-1.1,2.1-1.6,2.8-0.7C198.8,125,198.5,127.5,198.5,128.4z"/>
	<path class="st10" d="M199.8,122.9v-0.9h0.6v0.9H199.8z M199.8,128.4v-4.5h0.6v4.5H199.8z"/>
	<path class="st10" d="M203.2,128.5c-0.8,0-1.4-0.2-1.9-0.7l0.2-0.4c0.7,0.7,1.7,0.9,2.5,0.5c0.3-0.2,0.5-0.7,0.2-1
		c-0.3-0.3-0.7-0.3-1.2-0.4c-0.5-0.2-1.1-0.3-1.3-0.8c-0.2-0.5,0-1.1,0.4-1.4c0.7-0.5,2.2-0.5,2.8,0.3l-0.3,0.4
		c-0.5-0.8-3-0.7-2.3,0.6c0.6,0.5,1.6,0.4,2.3,0.9C205.5,127.3,204.4,128.6,203.2,128.5z"/>
	<path class="st10" d="M207.4,128.5c-0.8,0-1.4-0.2-1.9-0.7l0.2-0.4c0.7,0.7,1.7,0.9,2.5,0.5c0.3-0.2,0.5-0.7,0.2-1
		c-0.3-0.3-0.7-0.3-1.2-0.4c-0.5-0.2-1.1-0.3-1.3-0.8c-0.2-0.5,0-1.1,0.4-1.4c0.7-0.5,2.2-0.5,2.8,0.3l-0.3,0.4
		c-0.5-0.8-3-0.7-2.3,0.6c0.6,0.5,1.6,0.4,2.3,0.9C209.7,127.3,208.6,128.6,207.4,128.5z"/>
	<path class="st10" d="M210.1,122.9v-0.9h0.6v0.9H210.1z M210.1,128.4v-4.5h0.6v4.5H210.1z"/>
	<path class="st10" d="M211.6,126.2c0-3.1,4.5-3.1,4.5,0C216.1,129.2,211.6,129.2,211.6,126.2z M212.7,127.4c1.7,1.7,3.8-1,2.3-2.6
		C213.4,123.1,211.3,125.9,212.7,127.4z"/>
	<path class="st10" d="M220.9,128.4h-0.6c-0.1-0.7,0.2-3.1-0.2-3.7c-0.7-0.9-2.2,0-2.4,0.9v2.8h-0.6v-4.5h0.5v1c0.5-1,2.3-1.6,3-0.6
		C221.2,125.2,220.9,127.4,220.9,128.4z"/>
</g>
<g class="st9">
	<path class="st10" d="M88.3,147.2c1,0,1.9,0.5,2.3,1.3l-0.5,0.3c-1.2-2.2-4.3-0.8-4.1,1.5c-0.1,2.3,3,3.7,4.2,1.5l0.5,0.3
		c-0.9,1.9-3.8,1.9-4.8,0.1C84.6,150.1,85.9,147.1,88.3,147.2z"/>
	<path class="st10" d="M91.3,151.1c0-3.1,4.5-3.1,4.5,0C95.8,154.2,91.3,154.2,91.3,151.1z M92.4,152.4c1.7,1.7,3.8-1,2.3-2.6
		C93,148.1,90.9,150.9,92.4,152.4z"/>
</g>
<g class="st9">
	<path class="st10" d="M100.6,153.4H100c-0.1-0.7,0.2-3.1-0.2-3.7c-0.7-0.9-2.2,0-2.4,0.9v2.8h-0.6v-4.5h0.5v1c0.5-1,2.3-1.6,3-0.6
		C100.8,150.1,100.5,152.4,100.6,153.4z"/>
</g>
<g class="st9">
	<path class="st10" d="M104,153.1c0,0-0.2,0.1-0.2,0.1c-0.7,0.3-1.8,0.2-1.8-0.7c0,0,0-3.2,0-3.2h-0.6v-0.5h0.6v-1.5h0.6v1.5h1v0.5
		h-1v3.1c0,0.6,0.8,0.5,1.2,0.3L104,153.1z"/>
	<path class="st10" d="M104.4,152.1c0-1.5,2.1-1.6,3.2-1.2c0.2-1.8-1.5-2-2.7-1.1l-0.2-0.4c1.3-1,3.6-0.8,3.5,1.2c0,0,0,2.1,0,2.1
		c0,0.2,0.1,0.2,0.2,0.2v0.5c-0.1,0-0.2,0-0.3,0c-0.3,0-0.4-0.2-0.4-0.4l0-0.3C106.8,153.8,104.4,153.8,104.4,152.1z M107.4,152.4
		c0.3-0.3,0.2-0.8,0.2-1.1c-1-0.6-3.6-0.1-2.4,1.4C105.8,153.2,106.9,153,107.4,152.4z"/>
	<path class="st10" d="M109.5,147.9V147h0.6v0.9H109.5z M109.5,153.4v-4.5h0.6v4.5H109.5z"/>
	<path class="st10" d="M115.2,153.4h-0.6c-0.1-0.7,0.2-3.1-0.2-3.7c-0.7-0.9-2.2,0-2.4,0.9v2.8h-0.6v-4.5h0.5v1c0.5-1,2.3-1.6,3-0.6
		C115.4,150.1,115.1,152.4,115.2,153.4z"/>
	<path class="st10" d="M123.2,153.4h-0.6v-2.5c0.1-2.2-2.1-1.8-2.5-0.2v2.8h-0.6c-0.1-0.7,0.2-3.1-0.2-3.7c-0.7-0.9-2,0-2.2,0.9v2.8
		h-0.6v-4.5h0.5v1c0.6-1.3,2.8-1.6,3.1,0.1c0.5-1.1,2.1-1.6,2.8-0.7C123.4,150,123.1,152.4,123.2,153.4z"/>
	<path class="st10" d="M126.4,153.4c-2.3,0.1-3.1-3.3-1.2-4.4c1.6-1,3.7,0.4,3.4,2.2h-3.9c0,1.6,2.3,2.4,3.1,0.9l0.5,0.1
		C128,153,127.1,153.5,126.4,153.4z M124.7,150.9h3.3C127.9,148.7,124.8,148.7,124.7,150.9z"/>
</g>
<g class="st9">
	<path class="st10" d="M133.3,153.4h-0.6c-0.1-0.7,0.2-3.1-0.2-3.7c-0.7-0.9-2.2,0-2.4,0.9v2.8h-0.6v-4.5h0.5v1c0.5-1,2.3-1.6,3-0.6
		C133.5,150.1,133.2,152.4,133.3,153.4z"/>
</g>
<g class="st9">
	<path class="st10" d="M136.7,153.1c0,0-0.2,0.1-0.2,0.1c-0.7,0.3-1.8,0.2-1.8-0.7c0,0,0-3.2,0-3.2h-0.6v-0.5h0.6v-1.5h0.6v1.5h1
		v0.5h-1v3.1c0,0.6,0.8,0.5,1.2,0.3L136.7,153.1z"/>
</g>
<g class="st9">
	<path class="st10" d="M139.3,151.1c0-3.1,4.5-3.1,4.5,0C143.8,154.2,139.3,154.2,139.3,151.1z M140.4,152.4c1.7,1.7,3.8-1,2.3-2.6
		C141.1,148.1,139,150.9,140.4,152.4z"/>
</g>
<g class="st9">
	<path class="st10" d="M145,153.4v-4.1h-0.6v-0.5h0.6c-0.1-1.5,1-2.4,2.3-1.6l-0.2,0.4c-0.9-0.6-1.6,0.2-1.5,1.2h1.3v0.5h-1.3v4.1
		H145z"/>
</g>
<g class="st9">
	<path class="st10" d="M149.7,147.9V147h0.6v0.9H149.7z M149.7,153.4v-4.5h0.6v4.5H149.7z"/>
	<path class="st10" d="M155.4,153.4h-0.6c-0.1-0.7,0.2-3.1-0.2-3.7c-0.7-0.9-2.2,0-2.4,0.9v2.8h-0.6v-4.5h0.5v1c0.5-1,2.3-1.6,3-0.6
		C155.6,150.1,155.3,152.4,155.4,153.4z"/>
	<path class="st10" d="M156.3,151.1c-0.1-2.2,2.6-3.3,3.8-1.3V147h0.6v5.6c0,0.2,0.1,0.2,0.2,0.2v0.5c-0.1,0-0.2,0-0.3,0
		c-0.5,0-0.5-0.5-0.5-0.9C159,154.4,156.2,153.2,156.3,151.1z M160.1,151.8v-1.4c-0.8-1.8-3.2-1.3-3.2,0.7
		C156.9,153,159.5,153.7,160.1,151.8z"/>
	<path class="st10" d="M162,147.9V147h0.6v0.9H162z M162,153.4v-4.5h0.6v4.5H162z"/>
	<path class="st10" d="M165.2,153.4l-1.8-4.5h0.6l1.5,3.9l1.6-3.9h0.6l-1.8,4.5H165.2z"/>
	<path class="st10" d="M168.5,147.9V147h0.6v0.9H168.5z M168.5,153.4v-4.5h0.6v4.5H168.5z"/>
	<path class="st10" d="M170.1,151.1c-0.1-2.2,2.6-3.3,3.8-1.3V147h0.6v5.6c0,0.2,0.1,0.2,0.2,0.2v0.5c-0.1,0-0.2,0-0.3,0
		c-0.5,0-0.5-0.5-0.5-0.9C172.8,154.4,170,153.2,170.1,151.1z M173.9,151.8v-1.4c-0.8-1.8-3.2-1.3-3.2,0.7
		C170.7,153,173.3,153.7,173.9,151.8z"/>
	<path class="st10" d="M175.8,151.5v-2.7h0.6v2.6c-0.2,2.2,2.2,1.8,2.7,0.3v-2.9h0.6v3.8c0,0.1,0,0.1,0,0.2c0,0,0.1,0.1,0.2,0.1v0.5
		c-0.1,0-0.2,0-0.3,0c-0.2,0-0.4-0.2-0.4-0.4l0-0.6C178.2,154,175.6,153.8,175.8,151.5z"/>
	<path class="st10" d="M180.6,152.1c0-1.5,2.1-1.6,3.2-1.2c0.2-1.8-1.5-2-2.7-1.1l-0.2-0.4c1.3-1,3.6-0.8,3.5,1.2c0,0,0,2.1,0,2.1
		c0,0.2,0.1,0.2,0.2,0.2v0.5c-0.1,0-0.2,0-0.3,0c-0.3,0-0.4-0.2-0.4-0.4l0-0.3C183.1,153.8,180.6,153.8,180.6,152.1z M183.6,152.4
		c0.3-0.3,0.2-0.8,0.2-1.1c-1-0.6-3.6-0.1-2.4,1.4C182,153.2,183.2,153,183.6,152.4z"/>
</g>
<g class="st9">
	<path class="st10" d="M185.7,147h0.6v5.3c-0.1,0.7,0.6,0.6,1,0.4l0.1,0.5c-0.7,0.3-1.7,0.2-1.7-0.7
		C185.7,152.5,185.7,147,185.7,147z"/>
</g>
<g class="st9">
	<path class="st10" d="M192,153.4c-1.8,0.1-2.8-2.1-2-3.5c0.7-1.4,3.1-1.6,3.8-0.1l-0.6,0.2c-0.8-1.5-3.1-0.5-2.9,1.1
		c-0.1,1.7,2.2,2.6,3,1.1l0.6,0.2C193.6,153,192.8,153.5,192,153.4z"/>
	<path class="st10" d="M194.4,152.1c0-1.5,2.1-1.6,3.2-1.2c0.2-1.8-1.5-2-2.7-1.1l-0.2-0.4c1.3-1,3.6-0.8,3.5,1.2c0,0,0,2.1,0,2.1
		c0,0.2,0.1,0.2,0.2,0.2v0.5c-0.1,0-0.2,0-0.3,0c-0.3,0-0.4-0.2-0.4-0.4l0-0.3C196.9,153.8,194.5,153.8,194.4,152.1z M197.5,152.4
		c0.3-0.3,0.2-0.8,0.2-1.1c-1-0.6-3.6-0.1-2.4,1.4C195.9,153.2,197,153,197.5,152.4z"/>
	<path class="st10" d="M201,153.4c-0.8,0-1.4-0.2-1.9-0.7l0.2-0.4c0.7,0.7,1.7,0.9,2.5,0.5c0.3-0.2,0.5-0.7,0.2-1
		c-0.3-0.3-0.7-0.3-1.2-0.4c-0.5-0.2-1.1-0.3-1.3-0.8c-0.2-0.5,0-1.1,0.4-1.4c0.7-0.5,2.2-0.5,2.8,0.3l-0.3,0.4
		c-0.5-0.8-3-0.7-2.3,0.6c0.6,0.5,1.6,0.4,2.3,0.9C203.4,152.3,202.3,153.6,201,153.4z"/>
	<path class="st10" d="M205.7,153.4c-2.3,0.1-3.1-3.3-1.2-4.4c1.6-1,3.7,0.4,3.4,2.2H204c0,1.6,2.3,2.4,3.1,0.9l0.5,0.1
		C207.3,153,206.5,153.5,205.7,153.4z M204,150.9h3.3C207.2,148.7,204.1,148.7,204,150.9z"/>
	<path class="st10" d="M210.3,153.4c-0.8,0-1.4-0.2-1.9-0.7l0.2-0.4c0.7,0.7,1.7,0.9,2.5,0.5c0.3-0.2,0.5-0.7,0.2-1
		c-0.3-0.3-0.7-0.3-1.2-0.4c-0.5-0.2-1.1-0.3-1.3-0.8c-0.2-0.5,0-1.1,0.4-1.4c0.7-0.5,2.2-0.5,2.8,0.3l-0.3,0.4
		c-0.5-0.8-3-0.7-2.3,0.6c0.6,0.5,1.6,0.4,2.3,0.9C212.7,152.3,211.5,153.6,210.3,153.4z"/>
</g>
<g class="st9">
	<path class="st10" d="M85.4,175.2c0.1-4.1,5.7-4.1,5.8,0C91.1,179.3,85.5,179.3,85.4,175.2z M88.3,177.8c3,0,3-5.1,0-5.2
		C85.3,172.7,85.3,177.8,88.3,177.8z"/>
	<path class="st10" d="M96,178.3h-0.6c-0.1-0.7,0.2-3.1-0.2-3.7c-0.7-0.9-2.2,0-2.4,0.9v2.8h-0.6v-4.5h0.5v1c0.5-1,2.3-1.6,3-0.6
		C96.2,175.1,95.9,177.4,96,178.3z"/>
	<path class="st10" d="M96.9,176.1c-0.1-2.1,2.6-3.3,3.8-1.3v-0.9h0.5v4.5c0,0.4-0.1,0.8-0.3,1.1c-0.9,1.2-3.2,1.2-3.9-0.2l0.4-0.3
		c0.7,1.3,3.3,1.1,3.3-0.6c0,0,0-0.9,0-0.9C99.5,179.3,96.8,178.1,96.9,176.1z M100.7,176.8v-1.4c-0.7-1.9-3.2-1.2-3.2,0.7
		C97.5,177.9,100.1,178.6,100.7,176.8z"/>
	<path class="st10" d="M102.3,176.1c0-3.1,4.5-3.1,4.5,0C106.8,179.1,102.3,179.1,102.3,176.1z M103.4,177.4c1.7,1.7,3.8-1,2.3-2.6
		C104,173,101.9,175.8,103.4,177.4z"/>
	<path class="st10" d="M107.8,172.8V172h0.6v0.9H107.8z M107.8,178.3v-4.5h0.6v4.5H107.8z"/>
	<path class="st10" d="M113.5,178.3h-0.6c-0.1-0.7,0.2-3.1-0.2-3.7c-0.7-0.9-2.2,0-2.4,0.9v2.8h-0.6v-4.5h0.5v1c0.5-1,2.3-1.6,3-0.6
		C113.7,175.1,113.4,177.4,113.5,178.3z"/>
	<path class="st10" d="M114.4,176.1c-0.1-2.1,2.6-3.3,3.8-1.3v-0.9h0.5v4.5c0,0.4-0.1,0.8-0.3,1.1c-0.9,1.2-3.2,1.2-3.9-0.2l0.4-0.3
		c0.7,1.3,3.3,1.1,3.3-0.6c0,0,0-0.9,0-0.9C117,179.3,114.3,178.1,114.4,176.1z M118.2,176.8v-1.4c-0.7-1.9-3.2-1.2-3.2,0.7
		C114.9,177.9,117.6,178.6,118.2,176.8z"/>
	<path class="st10" d="M123.8,178.4c-0.8,0-1.4-0.2-1.9-0.7l0.2-0.4c0.7,0.7,1.7,0.9,2.5,0.5c0.3-0.2,0.5-0.7,0.2-1
		c-0.3-0.3-0.7-0.3-1.2-0.4c-0.5-0.2-1.1-0.3-1.3-0.8c-0.2-0.5,0-1.1,0.4-1.4c0.7-0.5,2.2-0.5,2.8,0.3l-0.3,0.4
		c-0.5-0.8-3-0.7-2.3,0.6c0.6,0.5,1.6,0.4,2.3,0.9C126.1,177.2,125,178.5,123.8,178.4z"/>
	<path class="st10" d="M126.4,176.4v-2.7h0.6v2.6c-0.2,2.2,2.2,1.8,2.7,0.3v-2.9h0.6v3.8c0,0.1,0,0.1,0,0.2c0,0,0.1,0.1,0.2,0.1v0.5
		c-0.1,0-0.2,0-0.3,0c-0.2,0-0.4-0.2-0.4-0.4l0-0.6C128.8,179,126.2,178.8,126.4,176.4z"/>
	<path class="st10" d="M132.2,177.4v2.8h-0.6v-6.4h0.5v0.9c1.2-1.9,3.9-0.7,3.8,1.4C136.1,178.2,133.4,179.3,132.2,177.4z
		 M135.4,176.1c0.1-1.9-2.6-2.6-3.2-0.7v1.4C133,178.6,135.4,178,135.4,176.1z"/>
	<path class="st10" d="M137.6,177.4v2.8H137v-6.4h0.5v0.9c1.2-1.9,3.9-0.7,3.8,1.4C141.5,178.2,138.8,179.3,137.6,177.4z
		 M140.8,176.1c0.1-1.9-2.6-2.6-3.2-0.7v1.4C138.3,178.6,140.8,178,140.8,176.1z"/>
</g>
<g class="st9">
	<path class="st10" d="M144.7,174.3c-0.8,0-1.4,0.5-1.7,1.2v2.8h-0.6v-4.5h0.6v1.1c0.3-0.6,0.8-1,1.4-1.1c0.1,0,0.2,0,0.3,0V174.3z"
		/>
</g>
<g class="st9">
	<path class="st10" d="M147.2,178.4c-2.3,0.1-3.1-3.3-1.2-4.4c1.6-1,3.7,0.4,3.4,2.2h-3.9c0,1.6,2.3,2.4,3.1,0.9l0.5,0.1
		C148.8,178,148,178.4,147.2,178.4z M145.5,175.8h3.3C148.7,173.6,145.6,173.6,145.5,175.8z"/>
	<path class="st10" d="M151.8,178.4c-0.8,0-1.4-0.2-1.9-0.7l0.2-0.4c0.7,0.7,1.7,0.9,2.5,0.5c0.3-0.2,0.5-0.7,0.2-1
		c-0.3-0.3-0.7-0.3-1.2-0.4c-0.5-0.2-1.1-0.3-1.3-0.8c-0.2-0.5,0-1.1,0.4-1.4c0.7-0.5,2.2-0.5,2.8,0.3l-0.3,0.4
		c-0.5-0.8-3-0.7-2.3,0.6c0.6,0.5,1.6,0.4,2.3,0.9C154.2,177.2,153,178.5,151.8,178.4z"/>
	<path class="st10" d="M156,178.4c-0.8,0-1.4-0.2-1.9-0.7l0.2-0.4c0.7,0.7,1.7,0.9,2.5,0.5c0.3-0.2,0.5-0.7,0.2-1
		c-0.3-0.3-0.7-0.3-1.2-0.4c-0.5-0.2-1.1-0.3-1.3-0.8c-0.2-0.5,0-1.1,0.4-1.4c0.7-0.5,2.2-0.5,2.8,0.3l-0.3,0.4
		c-0.5-0.8-3-0.7-2.3,0.6c0.6,0.5,1.6,0.4,2.3,0.9C158.4,177.2,157.2,178.5,156,178.4z"/>
	<path class="st10" d="M158.7,172.8V172h0.6v0.9H158.7z M158.7,178.3v-4.5h0.6v4.5H158.7z"/>
	<path class="st10" d="M160.3,176.1c0-3.1,4.5-3.1,4.5,0C164.8,179.1,160.3,179.1,160.3,176.1z M161.4,177.4c1.7,1.7,3.8-1,2.3-2.6
		C162,173,159.9,175.8,161.4,177.4z"/>
	<path class="st10" d="M169.6,178.3H169c-0.1-0.7,0.2-3.1-0.2-3.7c-0.7-0.9-2.2,0-2.4,0.9v2.8h-0.6v-4.5h0.5v1c0.5-1,2.3-1.6,3-0.6
		C169.8,175.1,169.5,177.4,169.6,178.3z"/>
</g>
</svg>
