<?xml version="1.0" encoding="utf-8"?>
<!-- Generator: Adobe Illustrator 24.1.0, SVG Export Plug-In . SVG Version: 6.00 Build 0)  -->
<svg version="1.1" id="Layer_1" xmlns="http://www.w3.org/2000/svg" xmlns:xlink="http://www.w3.org/1999/xlink" x="0px" y="0px"
	 viewBox="0 0 567.61 185.43" style="enable-background:new 0 0 567.61 185.43;" xml:space="preserve">
<style type="text/css">
	.st0{fill:#BCD9D4;}
	.st1{fill:#66A99D;}
	.st2{fill:#409385;}
	.st3{fill:#868D99;}
	.st4{fill:#666E7E;}
	.st5{fill:#273349;}
	.st6{fill:#CFE4E0;}
	.st7{fill:#FFFFFF;}
	.st8{fill:none;stroke:#676767;stroke-width:0.239;stroke-miterlimit:10;}
	.st9{fill:#010101;}
	.st10{font-family:'Rawline-Regular';}
	.st11{font-size:9.9709px;}
	.st12{font-size:8.6886px;}
</style>
<rect x="0.73" y="41.36" class="st0" width="75.19" height="21.73"/>
<rect x="0.73" y="65.5" class="st1" width="75.19" height="21.73"/>
<rect x="0.73" y="89.64" class="st2" width="75.19" height="21.73"/>
<rect x="0.73" y="113.78" class="st3" width="75.19" height="21.73"/>
<rect x="0.73" y="137.92" class="st4" width="75.19" height="21.73"/>
<rect x="0.73" y="162.06" class="st5" width="75.19" height="21.73"/>
<rect x="0.73" y="17.54" class="st6" width="75.19" height="21.09"/>
<path class="st7" d="M0,39.84h541.44H0z"/>
<line class="st8" x1="0" y1="39.84" x2="567.61" y2="39.84"/>
<path class="st7" d="M0,185.43h541.44H0z"/>
<line class="st8" x1="0" y1="185.22" x2="567.61" y2="185.22"/>
<path class="st7" d="M0,64.27h541.44H0z"/>
<line class="st8" x1="0" y1="64.07" x2="567.61" y2="64.07"/>
<path class="st7" d="M0,88.7h541.44H0z"/>
<line class="st8" x1="0" y1="88.3" x2="567.61" y2="88.3"/>
<path class="st7" d="M0,113.13h541.44H0z"/>
<line class="st8" x1="0" y1="112.53" x2="567.61" y2="112.53"/>
<path class="st7" d="M0,137.57h541.44H0z"/>
<line class="st8" x1="0" y1="136.76" x2="567.61" y2="136.76"/>
<path class="st7" d="M0,162h541.44H0z"/>
<line class="st8" x1="0" y1="160.99" x2="567.61" y2="160.99"/>
<text transform="matrix(1 0 0 1 2.3989 7.3807)"><tspan x="0" y="0" class="st9 st10 st11">L</tspan><tspan x="5.61" y="0" class="st9 st10 st11">oca</tspan><tspan x="22.44" y="0" class="st9 st10 st11">l</tspan><tspan x="24.86" y="0" class="st9 st10 st11"> stages </tspan><tspan x="60.35" y="0" class="st9 st10 st11">o</tspan><tspan x="66.21" y="0" class="st9 st10 st11">f</tspan><tspan x="69.3" y="0" class="st9 st10 st11"> outb</tspan><tspan x="93.18" y="0" class="st9 st10 st11">r</tspan><tspan x="96.43" y="0" class="st9 st10 st11">eak</tspan></text>
<text transform="matrix(1 0 0 1 328.1182 8.2879)"><tspan x="0" y="0" class="st9 st10 st11">Bu</tspan><tspan x="12.56" y="0" class="st9 st10 st11">r</tspan><tspan x="15.79" y="0" class="st9 st10 st11">den on healthca</tspan><tspan x="90.33" y="0" class="st9 st10 st11">r</tspan><tspan x="93.57" y="0" class="st9 st10 st11">e </tspan><tspan x="101.96" y="0" class="st9 st10 st11">s</tspan><tspan x="106.69" y="0" class="st9 st10 st11">y</tspan><tspan x="111.97" y="0" class="st9 st10 st11">s</tspan><tspan x="116.79" y="0" class="st9 st10 st11">t</tspan><tspan x="120.01" y="0" class="st9 st10 st11">em</tspan></text>
<text transform="matrix(1 0 0 1 328.5332 26.5984)"><tspan x="0" y="0" class="st9 st10 st12">N</tspan><tspan x="6.66" y="0" class="st9 st10 st12">o bu</tspan><tspan x="24.55" y="0" class="st9 st10 st12">r</tspan><tspan x="27.38" y="0" class="st9 st10 st12">den on healthca</tspan><tspan x="92.33" y="0" class="st9 st10 st12">r</tspan><tspan x="95.16" y="0" class="st9 st10 st12">e</tspan></text>
<text transform="matrix(1 0 0 1 328.5332 51.8733)"><tspan x="0" y="0" class="st9 st10 st12">N</tspan><tspan x="6.66" y="0" class="st9 st10 st12">o bu</tspan><tspan x="24.55" y="0" class="st9 st10 st12">r</tspan><tspan x="27.38" y="0" class="st9 st10 st12">den on healthca</tspan><tspan x="92.33" y="0" class="st9 st10 st12">r</tspan><tspan x="95.16" y="0" class="st9 st10 st12">e </tspan><tspan x="102.47" y="0" class="st9 st10 st12">s</tspan><tspan x="106.58" y="0" class="st9 st10 st12">y</tspan><tspan x="111.19" y="0" class="st9 st10 st12">s</tspan><tspan x="115.39" y="0" class="st9 st10 st12">t</tspan><tspan x="118.19" y="0" class="st9 st10 st12">em</tspan></text>
<text transform="matrix(1 0 0 1 328.5332 77.1487)"><tspan x="0" y="0" class="st9 st10 st12">Initia</tspan><tspan x="18.64" y="0" class="st9 st10 st12">l</tspan><tspan x="20.74" y="0" class="st9 st10 st12"> bu</tspan><tspan x="33.48" y="0" class="st9 st10 st12">r</tspan><tspan x="36.3" y="0" class="st9 st10 st12">den on healthca</tspan><tspan x="101.25" y="0" class="st9 st10 st12">r</tspan><tspan x="104.08" y="0" class="st9 st10 st12">e </tspan><tspan x="111.39" y="0" class="st9 st10 st12">s</tspan><tspan x="115.51" y="0" class="st9 st10 st12">y</tspan><tspan x="120.12" y="0" class="st9 st10 st12">s</tspan><tspan x="124.32" y="0" class="st9 st10 st12">t</tspan><tspan x="127.12" y="0" class="st9 st10 st12">em </tspan></text>
<text transform="matrix(1 0 0 1 328.5332 102.4236)"><tspan x="0" y="0" class="st9 st10 st12">M</tspan><tspan x="7.57" y="0" class="st9 st10 st12">ode</tspan><tspan x="23.23" y="0" class="st9 st10 st12">r</tspan><tspan x="26.23" y="0" class="st9 st10 st12">a</tspan><tspan x="30.94" y="0" class="st9 st10 st12">t</tspan><tspan x="33.74" y="0" class="st9 st10 st12">e </tspan><tspan x="41.06" y="0" class="st9 st10 st12">t</tspan><tspan x="43.86" y="0" class="st9 st10 st12">o high bu</tspan><tspan x="81.36" y="0" class="st9 st10 st12">r</tspan><tspan x="84.18" y="0" class="st9 st10 st12">den on healthca</tspan><tspan x="149.13" y="0" class="st9 st10 st12">r</tspan><tspan x="151.96" y="0" class="st9 st10 st12">e </tspan><tspan x="159.27" y="0" class="st9 st10 st12">s</tspan><tspan x="163.39" y="0" class="st9 st10 st12">y</tspan><tspan x="168" y="0" class="st9 st10 st12">s</tspan><tspan x="172.2" y="0" class="st9 st10 st12">t</tspan><tspan x="175.01" y="0" class="st9 st10 st12">em</tspan></text>
<text transform="matrix(1 0 0 1 328.5332 127.699)"><tspan x="0" y="0" class="st9 st10 st12">Bu</tspan><tspan x="10.94" y="0" class="st9 st10 st12">r</tspan><tspan x="13.76" y="0" class="st9 st10 st12">den on healthca</tspan><tspan x="78.71" y="0" class="st9 st10 st12">r</tspan><tspan x="81.53" y="0" class="st9 st10 st12">e </tspan><tspan x="88.85" y="0" class="st9 st10 st12">s</tspan><tspan x="92.97" y="0" class="st9 st10 st12">y</tspan><tspan x="97.58" y="0" class="st9 st10 st12">s</tspan><tspan x="101.78" y="0" class="st9 st10 st12">t</tspan><tspan x="104.58" y="0" class="st9 st10 st12">em is dec</tspan><tspan x="143.45" y="0" class="st9 st10 st12">r</tspan><tspan x="146.28" y="0" class="st9 st10 st12">easing</tspan></text>
<text transform="matrix(1 0 0 1 328.5332 152.9739)"><tspan x="0" y="0" class="st9 st10 st12">L</tspan><tspan x="4.89" y="0" class="st9 st10 st12">o</tspan><tspan x="9.9" y="0" class="st9 st10 st12">w</tspan><tspan x="16.74" y="0" class="st9 st10 st12"> bu</tspan><tspan x="29.47" y="0" class="st9 st10 st12">r</tspan><tspan x="32.3" y="0" class="st9 st10 st12">den on healthca</tspan><tspan x="97.25" y="0" class="st9 st10 st12">r</tspan><tspan x="100.08" y="0" class="st9 st10 st12">e </tspan><tspan x="107.39" y="0" class="st9 st10 st12">s</tspan><tspan x="111.51" y="0" class="st9 st10 st12">y</tspan><tspan x="116.12" y="0" class="st9 st10 st12">s</tspan><tspan x="120.32" y="0" class="st9 st10 st12">t</tspan><tspan x="123.12" y="0" class="st9 st10 st12">em</tspan></text>
<text transform="matrix(1 0 0 1 328.5332 178.2493)"><tspan x="0" y="0" class="st9 st10 st12">N</tspan><tspan x="6.66" y="0" class="st9 st10 st12">o bu</tspan><tspan x="24.55" y="0" class="st9 st10 st12">r</tspan><tspan x="27.38" y="0" class="st9 st10 st12">den on healthca</tspan><tspan x="92.33" y="0" class="st9 st10 st12">r</tspan><tspan x="95.16" y="0" class="st9 st10 st12">e</tspan></text>
<text transform="matrix(1 0 0 1 85.0176 28.5882)"><tspan x="0" y="0" class="st9 st10 st12">N</tspan><tspan x="6.66" y="0" class="st9 st10 st12">o cases d</tspan><tspan x="44.65" y="0" class="st9 st10 st12">e</tspan><tspan x="49.72" y="0" class="st9 st10 st12">t</tspan><tspan x="52.53" y="0" class="st9 st10 st12">ec</tspan><tspan x="62.39" y="0" class="st9 st10 st12">t</tspan><tspan x="65.2" y="0" class="st9 st10 st12">ed</tspan></text>
<text transform="matrix(1 0 0 1 85.0176 53.5418)"><tspan x="0" y="0" class="st9 st10 st12">Limi</tspan><tspan x="16.83" y="0" class="st9 st10 st12">t</tspan><tspan x="19.64" y="0" class="st9 st10 st12">ed individua</tspan><tspan x="68.41" y="0" class="st9 st10 st12">l</tspan><tspan x="70.51" y="0" class="st9 st10 st12"> cases</tspan></text>
<text transform="matrix(1 0 0 1 85.0176 78.4954)"><tspan x="0" y="0" class="st9 st10 st12">Initia</tspan><tspan x="18.64" y="0" class="st9 st10 st12">l</tspan><tspan x="20.74" y="0" class="st9 st10 st12"> </tspan><tspan x="22.96" y="0" class="st9 st10 st12">c</tspan><tspan x="27.68" y="0" class="st9 st10 st12">ommunit</tspan><tspan x="63.84" y="0" class="st9 st10 st12">y</tspan><tspan x="68.33" y="0" class="st9 st10 st12"> t</tspan><tspan x="73.45" y="0" class="st9 st10 st12">r</tspan><tspan x="76.44" y="0" class="st9 st10 st12">ansmission</tspan></text>
<text transform="matrix(1 0 0 1 85.0176 103.449)"><tspan x="0" y="0" class="st9 st10 st12">La</tspan><tspan x="9.8" y="0" class="st9 st10 st12">r</tspan><tspan x="12.62" y="0" class="st9 st10 st12">ge-scale </tspan><tspan x="50.12" y="0" class="st9 st10 st12">c</tspan><tspan x="54.85" y="0" class="st9 st10 st12">ommunit</tspan><tspan x="91.01" y="0" class="st9 st10 st12">y</tspan><tspan x="95.49" y="0" class="st9 st10 st12"> t</tspan><tspan x="100.62" y="0" class="st9 st10 st12">r</tspan><tspan x="103.61" y="0" class="st9 st10 st12">ansmission</tspan></text>
<text transform="matrix(1 0 0 1 85.0176 128.4026)"><tspan x="0" y="0" class="st9 st10 st12">R</tspan><tspan x="5.55" y="0" class="st9 st10 st12">edu</tspan><tspan x="21.21" y="0" class="st9 st10 st12">c</tspan><tspan x="25.93" y="0" class="st9 st10 st12">ed </tspan><tspan x="38.65" y="0" class="st9 st10 st12">c</tspan><tspan x="43.37" y="0" class="st9 st10 st12">ommunit</tspan><tspan x="79.53" y="0" class="st9 st10 st12">y</tspan><tspan x="84.02" y="0" class="st9 st10 st12"> t</tspan><tspan x="89.14" y="0" class="st9 st10 st12">r</tspan><tspan x="92.14" y="0" class="st9 st10 st12">ansmission</tspan></text>
<text transform="matrix(1 0 0 1 85.0176 153.3562)"><tspan x="0" y="0" class="st9 st10 st12">Co</tspan><tspan x="11.12" y="0" class="st9 st10 st12">n</tspan><tspan x="16.15" y="0" class="st9 st10 st12">tainme</tspan><tspan x="43.83" y="0" class="st9 st10 st12">n</tspan><tspan x="48.85" y="0" class="st9 st10 st12">t </tspan><tspan x="53.98" y="0" class="st9 st10 st12">o</tspan><tspan x="59.08" y="0" class="st9 st10 st12">f</tspan><tspan x="61.77" y="0" class="st9 st10 st12"> individua</tspan><tspan x="100.05" y="0" class="st9 st10 st12">l</tspan><tspan x="102.15" y="0" class="st9 st10 st12"> cases</tspan></text>
<text transform="matrix(1 0 0 1 85.0176 178.3099)"><tspan x="0" y="0" class="st9 st10 st12">Ongoing supp</tspan><tspan x="56.73" y="0" class="st9 st10 st12">r</tspan><tspan x="59.56" y="0" class="st9 st10 st12">ession</tspan></text>
</svg>
