<?xml version="1.0" encoding="utf-8"?>
<svg xmlns="http://www.w3.org/2000/svg" x="0px" y="0px" viewBox="0 0 168.1 51.5">
<path style="fill-rule:evenodd;clip-rule:evenodd;fill:#28334B;" d="M71,51.2h18.5v-4.7H77.8v-5.1h10.8v-4.7H77.8v-5h11.7v-4.7H71
	V51.2z M150.2,50.9h17.9v-5.1h-11.4v-4.6h10.5v-4.7h-10.5v-4.9H168v-4.7h-17.8L150.2,50.9L150.2,50.9z M124.1,51h5.9V32.6l8,18.4
	h9.1V27h-5.9v17.9l-8-17.9H124v24.1L124.1,51z M113.1,51h6.6V26.9h-6.6V51L113.1,51z M110.9,46.3h-10.9V26.8h-6.7v24.2l17.6-0.1
	L110.9,46.3L110.9,46.3z M55.1,51.3H62V31.7h7.6v-4.8H47.6v4.8h7.5V51.3z M43.7,51.4h7.8l-9.7-24.5h-8.5l-9.8,24.6h6.9l1.6-4.8h10.1
	L43.7,51.4L43.7,51.4z M37.2,31.6l3.2,10.3h-6.7L37.2,31.6z M0,51.5l11.9-0.1c7.9,0,13-4,13-12.2c0-8.6-5-12.4-13.3-12.4H0V51.5z
	 M9.8,31.6c4.7,0,7.8,2.8,7.8,7.6s-3,7.6-7.8,7.6H7V31.6H9.8z M67.8,13.8l12.7,8.8l0.2,0.2c0.2,0.1,0.3-0.1,0.2-0.3l-0.1-0.2
	c-1.3-2.9-5.7-12.2-6.1-13.3C74,7,72,5.8,69.9,6c-2.4,0.3-4.1,2.5-3.8,4.9C66.3,12,66.9,13.1,67.8,13.8L67.8,13.8z M87.2,24.4
	L87.2,24.4c2.3-1.6,10-6.9,11-7.5c1.8-1.2,4.1-1.1,5.7,0.3c1.3,1.2,1.7,3.1,1,4.8c-0.6,1.6-2.1,2.7-3.8,2.8H87.1
	c-0.2,0-0.2-0.2-0.1-0.3L87.2,24.4L87.2,24.4z M87.7,22.6L87.7,22.6l-0.2,0.2c-0.2,0.1-0.3-0.1-0.2-0.3l0.1-0.2l0,0
	c1.2-2.7,5.6-12.2,6-13.3c0.8-2,2.8-3.2,4.9-3c2.4,0.3,4.1,2.5,3.8,4.9c-0.1,1.1-0.7,2.2-1.6,2.9L87.7,22.6L87.7,22.6z M87.4,19.2
	L87.4,19.2l-0.1,0.3c-0.1,0.2-0.3,0.1-0.3-0.1s0-0.2,0-0.2c-0.4-2.4-1.4-9.1-1.9-12.3c-0.1-0.4,0.1-0.9,0.4-1.1
	c0.5-0.4,1-0.8,1.5-1.2c0-0.2-0.3-0.2-0.5-0.3h-1.6c0-1.7,1-3.2,2.6-3.9C89-0.4,91,0,92.3,1.3c1.2,1.2,1.6,3,1.1,4.7
	C93.4,5.9,87.4,19.2,87.4,19.2z M80.7,19.2l0.1,0.3c0.1,0.2,0.3,0.1,0.3-0.1s0-0.2,0-0.2c0.5-2.9,2-12.6,2.1-13.7
	c0.4-2.1-0.6-4.2-2.5-5.1c-1.7-0.7-3.6-0.4-4.9,0.9c-1.2,1.2-1.6,3-1.1,4.7l6,13.5C80.8,19.4,80.7,19.2,80.7,19.2z M80.7,24.9H81
	c0.2,0,0.2-0.2,0.1-0.3l-0.2-0.1c-2.3-1.6-10-6.9-11-7.5c-1.8-1.2-4.1-1.1-5.7,0.3c-1.3,1.2-1.7,3.1-1,4.8c0.6,1.6,2.1,2.7,3.9,2.9
	L80.7,24.9z"/>
</svg>
