<?xml version="1.0" encoding="utf-8"?>
<svg xmlns="http://www.w3.org/2000/svg" x="0px" y="0px" viewBox="0 0 157.5 51.8">
<path style="fill:#28334B;" d="M35.8,27.6l2.8-1.4V4.6h-2.1l-5.1,6.7h-0.6l0.3-7.6h22l0.3,7.6h-0.6l-5-6.7h-2.1v21.5l2.8,1.5v0.7
	H35.8V27.6z M55.6,26.7V2.7l-2.1-0.9V1.4L61.2,0H62v11.4l0.2-0.2c1.8-1.6,4.2-2.4,6.6-2.5c3.4,0,4.9,1.9,4.9,5.5v12.5l1.8,1v0.7h-10
	v-0.7l1.8-1V14.1c0-2-0.9-2.7-2.5-2.7c-1,0-1.9,0.3-2.7,0.9v14.4l1.8,1v0.6H53.8v-0.6L55.6,26.7z M81,19.3c0.2,4,2,7,6.2,7
	c1.7-0.1,3.4-0.7,4.8-1.6v0.8c-1.8,2.2-4.5,3.5-7.4,3.5c-6.5,0-9.8-3.6-9.8-9.9s3.6-9.9,9.5-9.9c5.5,0,8.4,2.8,8.4,10.1v0.2L81,19.3
	z M80.9,18.4l5.7-0.4c0-4.9-0.8-8.2-2.5-8.2S80.9,13.6,80.9,18.4L80.9,18.4z M0,37.9c0-10.4,6.9-14.1,14.6-14.1
	c2.7-0.1,5.5,0.3,8.1,1.2l0.1,7.3H22l-4.5-7c-0.9-0.4-1.9-0.5-2.9-0.5c-4.1,0-6.2,4.7-6.1,12.5c0.1,9.2,1.7,13.4,5.5,13.4
	c0.8,0,1.5-0.1,2.2-0.4v-9.9L13.8,39v-0.8h12V39l-2.5,1.4v9.8c-2.9,1-5.9,1.5-9,1.5C5.5,51.7,0,47.7,0,37.9 M24.6,33v-0.6l8-1.4
	l0.9,0.1v15.8c0,1.9,0.9,2.5,2.5,2.5c1,0,2-0.4,2.6-1.2V34l-2.2-1v-0.6l8-1.4l0.8,0.1v18.2l2.2,0.9v0.6l-7.9,1l-0.8-0.1v-2.4h-0.2
	c-1.6,1.6-3.8,2.5-6,2.5c-3.9,0-5.6-2.3-5.6-5.7V34L24.6,33z M75,31l0.7,0.1V37h0.2c0.9-4.3,2.8-5.9,5.1-5.9c0.3,0,0.7,0,1,0.1v6
	c-0.5-0.2-1.1-0.2-1.7-0.3c-1.5,0-3,0.3-4.4,0.9v11.6l1.8,1v0.8H67.3v-0.8l1.9-1V33.7L67,33v-0.5L75,31z M95.2,31.5v-6.2L93,24.5
	v-0.5l8.1-1.5l0.8,0.1v26.6l2.2,0.8v0.7l-8,1.1l-0.6-0.1v-2.2h-0.2C93.9,51,92,51.8,90,51.8c-4.4,0-7.6-3.3-7.6-10.1
	c0-7.2,3.7-10.7,9.3-10.7C92.9,30.8,94.1,31,95.2,31.5L95.2,31.5z M95.2,48.5V32.6c-0.6-0.5-1.4-0.8-2.2-0.7
	c-2.2,0.1-3.5,3.3-3.5,9.2c0,5.2,1,8.2,3.8,8.1C94,49.2,94.7,48.9,95.2,48.5L95.2,48.5z M112.9,31l0.7,0.1v18.4l1.8,1v0.8H105v-0.8
	l1.9-1V34l-2.2-0.9v-0.6L112.9,31z M113.6,26c-0.1,1.9-1.6,3.4-3.6,3.4c-1.9,0-3.4-1.5-3.4-3.4s1.5-3.4,3.4-3.4l0,0
	C112,22.5,113.6,24,113.6,26C113.6,26,113.6,26,113.6,26z M137,49.5V33.8l-2.2-0.8v-0.8l8-1.5l0.8,0.1v2.3h0.2
	c1.9-1.6,4.3-2.5,6.8-2.5c3.5,0,5,1.6,5,5.3v13.4l1.9,1.1v0.8h-10.4v-0.8l1.9-1V36.3c0-2-0.9-2.8-2.5-2.8c-1,0-2,0.3-2.8,0.9v15.1
	l1.8,1v0.8h-10.4v-0.8L137,49.5z M125.7,39.6V37c0-4-0.9-5.3-3.3-5.3c-0.3,0-0.6,0-0.8,0.1l-4.4,5.9h-0.6v-5.5
	c2.4-0.8,4.8-1.2,7.3-1.3c5.3,0,8.4,1.5,8.4,6v12.8l1.9,0.5v0.5c-1.2,0.6-2.6,0.9-3.9,0.9c-2.6,0-3.9-0.9-4.5-2.3h-0.2
	c-1.2,1.6-3.2,2.5-5.2,2.4c-2.8,0.2-5.1-1.9-5.3-4.6c0-0.3,0-0.5,0-0.8c0-3.3,2.1-5.1,6.2-5.9L125.7,39.6z M125.7,48.5v-7.9
	l-1.3,0.1c-2.1,0.2-2.8,1.5-2.8,4.5c0,3.2,1.1,4,2.5,4C124.6,49.2,125.3,49,125.7,48.5L125.7,48.5z M58,39.6V37c0-4-0.9-5.3-3.3-5.3
	c-0.3,0-0.6,0-0.8,0.1l-4.3,5.9h-0.6v-5.5c2.4-0.8,4.8-1.2,7.3-1.3c5.3,0,8.4,1.5,8.4,6v12.8l1.9,0.5v0.5c-1.2,0.6-2.6,0.9-3.9,0.9
	c-2.6,0-3.9-0.9-4.5-2.3H58c-1.2,1.6-3.2,2.5-5.2,2.4c-2.8,0.2-5.2-1.9-5.4-4.6c0-0.3,0-0.5,0-0.8c0-3.3,2.1-5.1,6.2-5.9L58,39.6z
	 M58,48.5v-7.9l-1.3,0.1c-2.1,0.2-2.8,1.5-2.8,4.5c0,3.2,1.1,4,2.5,4C57,49.2,57.6,49,58,48.5"/>
</svg>
