<?xml version="1.0" encoding="utf-8"?>
<!-- Generator: Adobe Illustrator 24.3.0, SVG Export Plug-In . SVG Version: 6.00 Build 0)  -->
<svg version="1.1" id="Layer_1" xmlns="http://www.w3.org/2000/svg" xmlns:xlink="http://www.w3.org/1999/xlink" x="0px" y="0px"
	 viewBox="0 0 518.8 178.2" style="enable-background:new 0 0 518.8 178.2;" xml:space="preserve">
<path style="fill:#28334B;" d="M0,0v178.2h518.8V0H0z M511.2,7.7v162.8H348.7V7.7H511.2z M340.7,7.7v162.8H178.2V7.7H340.7z
	 M170.5,7.7v162.8H7.7V7.7H170.5z M73.1,133.8H52.7V46.4h14.7l3.8,8.2c5.5-6.4,13.7-9.6,24.6-9.6c10.4,0,18.6,3.1,24.6,9.3
	c6,6.2,9,14.9,9,26v53.5h-20.4V83.5c0-7.4-1.4-12.8-4.3-16.3c-2.9-3.4-7.5-5.1-14-5.1c-3,0-6.2,0.8-9.6,2.5c-3.4,1.7-6.1,3.8-8,6.2
	V133.8z M241.7,157.7h-20.4V46.4h20.4v5.9c5.1-4.9,11.4-7.3,18.9-7.3c27.9,0,41.8,15.3,41.8,46c0,14.3-3.8,25.3-11.5,33
	c-7.7,7.7-18.2,11.6-31.5,11.6c-6.4,0-12.3-1.3-17.5-3.8V157.7z M241.7,113.9c3.7,3,8,4.5,12.9,4.5c9.4,0,16.1-2.2,20.2-6.7
	c4.1-4.5,6.1-11.5,6.1-21.2c0-10.3-2-17.6-6.1-21.8c-4.1-4.2-10.8-6.3-20.2-6.3c-4.9,0-9.2,1.9-13,5.7V113.9z M424,84.2
	c0-6.2,1.8-11.4,5.5-15.7c3.7-4.3,7.8-6.4,12.5-6.4c4.3,0,8.3,1.1,11.9,3.4l8.6-17.4c-3.7-2.1-9-3.2-15.9-3.2
	c-9.4,0-17,3.3-22.6,9.8v-8.3h-20.4v87.4H424V84.2z"/>
</svg>
