<?xml version="1.0" encoding="utf-8"?>
<!-- Generator: Adobe Illustrator 24.1.0, SVG Export Plug-In . SVG Version: 6.00 Build 0)  -->
<svg version="1.1" id="Layer_1" xmlns="http://www.w3.org/2000/svg" xmlns:xlink="http://www.w3.org/1999/xlink" x="0px" y="0px"
	 viewBox="0 0 500.7 704.3" style="enable-background:new 0 0 500.7 704.3;" xml:space="preserve">
<style type="text/css">
	.st0{fill:none;stroke:#B51A34;stroke-width:0.5;stroke-miterlimit:10;}
	.st1{fill:none;}
	.st2{fill:#263349;}
	.st3{font-family:'Raleway-Regular';}
	.st4{font-size:12px;}
	.st5{fill:none;stroke:#FCCA3A;stroke-width:0.5;stroke-miterlimit:10;}
	.st6{fill:none;stroke:#FF7224;stroke-width:0.5;stroke-miterlimit:10;}
	.st7{fill:#1E7D87;}
	.st8{font-family:'Raleway-Medium';}
</style>
<g>
	<line class="st0" x1="99.8" y1="443.3" x2="489.8" y2="443.3"/>
	<line class="st0" x1="99.8" y1="506.6" x2="500.7" y2="506.6"/>
	<rect x="99.8" y="407.5" class="st1" width="296.9" height="30"/>
	<text transform="matrix(1 0 0 1 99.8191 416.0627)"><tspan x="0" y="0" class="st2 st3 st4">75% of close contacts are elicited, located,  </tspan><tspan x="0" y="14" class="st2 st3 st4">tested within 24 hours</tspan></text>
	<rect x="99.8" y="456.6" class="st1" width="296.9" height="45.1"/>
	<text transform="matrix(1 0 0 1 99.8191 465.1039)"><tspan x="0" y="0" class="st2 st3 st4">At least 30 contact tracers per 100,000, as well  </tspan><tspan x="0" y="14" class="st2 st3 st4">as case managers, care resource coordinators,  </tspan><tspan x="0" y="28" class="st2 st3 st4">community health workers</tspan></text>
	<rect x="99.8" y="516" class="st1" width="296.9" height="16.7"/>
	<text transform="matrix(1 0 0 1 99.8201 524.5106)" class="st2 st3 st4">At least 60% of new cases from identified contacts</text>
</g>
<g>
	<line class="st5" x1="99.8" y1="192.3" x2="449.1" y2="192.3"/>
	<line class="st5" x1="99.8" y1="128.6" x2="449.1" y2="128.6"/>
	<rect x="99.8" y="92" class="st1" width="296.9" height="30"/>
	<text transform="matrix(1 0 0 1 99.8191 100.4781)"><tspan x="0" y="0" class="st2 st3 st4">95% of close contacts are elicited, located,  </tspan><tspan x="0" y="14" class="st2 st3 st4">tested within 24 hours</tspan></text>
	<rect x="99.8" y="141.8" class="st1" width="296.9" height="45.1"/>
	<text transform="matrix(1 0 0 1 99.8191 150.2786)"><tspan x="0" y="0" class="st2 st3 st4">At least 30 contact tracers per 100,000, as well  </tspan><tspan x="0" y="14" class="st2 st3 st4">as case managers, care resource coordinators,  </tspan><tspan x="0" y="28" class="st2 st3 st4">community health workers</tspan></text>
	<rect x="99.8" y="201.9" class="st1" width="296.9" height="16.7"/>
	<text transform="matrix(1 0 0 1 99.8201 210.3846)" class="st2 st3 st4">At least 90% of new cases from identified contacts</text>
</g>
<g>
	<line class="st6" x1="99.8" y1="350.5" x2="490" y2="350.5"/>
	<line class="st6" x1="99.8" y1="286.8" x2="469.4" y2="286.8"/>
	<rect x="99.8" y="250.5" class="st1" width="296.9" height="30"/>
	<text transform="matrix(1 0 0 1 99.8191 258.9877)"><tspan x="0" y="0" class="st2 st3 st4">90% of close contacts are elicited, located,  </tspan><tspan x="0" y="14" class="st2 st3 st4">tested within 24 hours</tspan></text>
	<rect x="99.8" y="300" class="st1" width="296.9" height="45.1"/>
	<text transform="matrix(1 0 0 1 99.8191 308.5449)"><tspan x="0" y="0" class="st2 st3 st4">At least 30 contact tracers per 100,000, as well  </tspan><tspan x="0" y="14" class="st2 st3 st4">as case managers, care resource coordinators,  </tspan><tspan x="0" y="28" class="st2 st3 st4">community health workers</tspan></text>
	<rect x="99.8" y="359.8" class="st1" width="296.9" height="16.7"/>
	<text transform="matrix(1 0 0 1 99.8201 368.3012)" class="st2 st3 st4">At least 80% of new cases from identified contacts</text>
</g>
<g>
	<rect x="17.7" y="18.1" class="st1" width="121.1" height="37.2"/>
	<text transform="matrix(1 0 0 1 37.1472 26.905)"><tspan x="0" y="0" class="st7 st8 st4">More Contacts </tspan><tspan x="14.6" y="14" class="st7 st8 st4">Managed</tspan></text>
</g>
<g>
	<rect x="17.7" y="576.6" class="st1" width="121.1" height="37.2"/>
	<text transform="matrix(1 0 0 1 34.0154 585.3801)"><tspan x="0" y="0" class="st7 st8 st4">Fewer Contacts </tspan><tspan x="17.8" y="14" class="st7 st8 st4">Managed</tspan></text>
</g>
</svg>
