<?xml version="1.0" encoding="utf-8"?>
<!-- Generator: Adobe Illustrator 24.1.0, SVG Export Plug-In . SVG Version: 6.00 Build 0)  -->
<svg version="1.1" id="Layer_1" xmlns="http://www.w3.org/2000/svg" xmlns:xlink="http://www.w3.org/1999/xlink" x="0px" y="0px"
	 viewBox="0 0 489.3 704.3" style="enable-background:new 0 0 489.3 704.3;" xml:space="preserve">
<style type="text/css">
	.st0{fill:none;stroke:#B51A34;stroke-width:0.5;stroke-miterlimit:10;}
	.st1{fill:none;}
	.st2{fill:#263349;}
	.st3{font-family:'Raleway-Regular';}
	.st4{font-size:12px;}
	.st5{fill:none;stroke:#FF7224;stroke-width:0.5;stroke-miterlimit:10;}
	.st6{fill:none;stroke:#FCCA3A;stroke-width:0.5;stroke-miterlimit:10;}
	.st7{fill:#1E7D87;}
	.st8{font-family:'Raleway-Medium';}
</style>
<g>
	<line class="st0" x1="99.3" y1="462.1" x2="489.3" y2="462.1"/>
	<rect x="99.3" y="419.2" class="st1" width="296.9" height="30"/>
	<text transform="matrix(1 0 0 1 99.3092 427.6862)"><tspan x="0" y="0" class="st2 st3 st4">75% of close contacts are elicited, located,  </tspan><tspan x="0" y="14" class="st2 st3 st4">tested within 24 hours</tspan></text>
	<rect x="99.3" y="478.7" class="st1" width="296.9" height="45.1"/>
	<text transform="matrix(1 0 0 1 99.3092 487.224)"><tspan x="0" y="0" class="st2 st3 st4">At least 30 contact tracers per 100,000, as well  </tspan><tspan x="0" y="14" class="st2 st3 st4">as case managers, care resource coordinators,  </tspan><tspan x="0" y="28" class="st2 st3 st4">community health workers</tspan></text>
</g>
<g>
	<line class="st5" x1="99.3" y1="303.8" x2="468.9" y2="303.8"/>
	<rect x="99.3" y="260.9" class="st1" width="296.9" height="30"/>
	<text transform="matrix(1 0 0 1 99.3092 269.3843)"><tspan x="0" y="0" class="st2 st3 st4">90% of close contacts are elicited, located,  </tspan><tspan x="0" y="14" class="st2 st3 st4">tested within 24 hours</tspan></text>
	<rect x="99.3" y="320.4" class="st1" width="296.9" height="45.1"/>
	<text transform="matrix(1 0 0 1 99.3092 328.9221)"><tspan x="0" y="0" class="st2 st3 st4">At least 30 contact tracers per 100,000, as well  </tspan><tspan x="0" y="14" class="st2 st3 st4">as case managers, care resource coordinators,  </tspan><tspan x="0" y="28" class="st2 st3 st4">community health workers</tspan></text>
</g>
<g>
	<line class="st6" x1="99.3" y1="147.1" x2="448.6" y2="147.1"/>
	<rect x="99.3" y="104.1" class="st1" width="296.9" height="30"/>
	<text transform="matrix(1 0 0 1 99.3092 112.6008)"><tspan x="0" y="0" class="st2 st3 st4">95% of close contacts are elicited, located,  </tspan><tspan x="0" y="14" class="st2 st3 st4">tested within 24 hours</tspan></text>
	<rect x="99.3" y="163.6" class="st1" width="296.9" height="45.1"/>
	<text transform="matrix(1 0 0 1 99.3092 172.1389)"><tspan x="0" y="0" class="st2 st3 st4">At least 30 contact tracers per 100,000, as well  </tspan><tspan x="0" y="14" class="st2 st3 st4">as case managers, care resource coordinators,  </tspan><tspan x="0" y="28" class="st2 st3 st4">community health workers</tspan></text>
</g>
<g>
	<rect x="17.2" y="18.1" class="st1" width="121.1" height="37.2"/>
	<text transform="matrix(1 0 0 1 36.6373 26.905)"><tspan x="0" y="0" class="st7 st8 st4">More Contacts </tspan><tspan x="14.6" y="14" class="st7 st8 st4">Managed</tspan></text>
</g>
<g>
	<rect x="17.2" y="576.6" class="st1" width="121.1" height="37.2"/>
	<text transform="matrix(1 0 0 1 33.5055 585.3801)"><tspan x="0" y="0" class="st7 st8 st4">Fewer Contacts </tspan><tspan x="17.8" y="14" class="st7 st8 st4">Managed</tspan></text>
</g>
</svg>
