<?xml version="1.0" encoding="utf-8"?>
<!-- Generator: Adobe Illustrator 24.1.0, SVG Export Plug-In . SVG Version: 6.00 Build 0)  -->
<svg version="1.1" id="Layer_1" xmlns="http://www.w3.org/2000/svg" xmlns:xlink="http://www.w3.org/1999/xlink" x="0px" y="0px"
	 viewBox="0 0 509.5 704.3" style="enable-background:new 0 0 509.5 704.3;" xml:space="preserve">
<style type="text/css">
	.st0{fill:none;stroke:#FF7224;stroke-width:0.5;stroke-miterlimit:10;}
	.st1{fill:none;}
	.st2{fill:#263349;}
	.st3{font-family:'Raleway-Regular';}
	.st4{font-size:12px;}
	.st5{fill:none;stroke:#FCCA3A;stroke-width:0.5;stroke-miterlimit:10;}
	.st6{fill:#1E7D87;}
	.st7{font-family:'Raleway-Medium';}
	.st8{fill:none;stroke:#B51A34;stroke-width:0.5;stroke-miterlimit:10;}
</style>
<g>
	<line class="st0" x1="99.3" y1="299" x2="466.7" y2="299"/>
	<line class="st0" x1="99.3" y1="346.1" x2="478.3" y2="346.1"/>
	<rect x="99.3" y="248.7" class="st1" width="296.9" height="43.8"/>
	<text transform="matrix(1 0 0 1 99.3104 257.1828)"><tspan x="0" y="0" class="st2 st3 st4">At least 30% of existing ICU capacity is available to accom</tspan><tspan x="286.1" y="0" class="st2 st3 st4">-</tspan><tspan x="0" y="14" class="st2 st3 st4">modate a surge in COVID-19 patients without resorting to </tspan><tspan x="0" y="28" class="st2 st3 st4">crisis standards of care</tspan></text>
	<rect x="99.3" y="310.1" class="st1" width="296.9" height="31.7"/>
	<text transform="matrix(1 0 0 1 99.3104 318.6272)"><tspan x="0" y="0" class="st2 st3 st4">Sufficient PPE for majority healthcare facilities,  </tspan><tspan x="0" y="14" class="st2 st3 st4">at-risk facilities, essential personnel</tspan></text>
	<rect x="99.3" y="359.5" class="st1" width="296.9" height="18.5"/>
	<text transform="matrix(1 0 0 1 99.3094 368.0339)" class="st2 st3 st4">PPE reserve of at least 2-4 weeks</text>
</g>
<g>
	<line class="st5" x1="99.3" y1="139.7" x2="448.6" y2="139.7"/>
	<line class="st5" x1="99.3" y1="186.8" x2="459.6" y2="186.8"/>
	<rect x="99.3" y="89.3" class="st1" width="296.9" height="43.8"/>
	<text transform="matrix(1 0 0 1 99.3104 97.8642)"><tspan x="0" y="0" class="st2 st3 st4">At least 30% of existing ICU capacity is available to accom</tspan><tspan x="286.1" y="0" class="st2 st3 st4">-</tspan><tspan x="0" y="14" class="st2 st3 st4">modate a surge in COVID-19 patients without resorting to </tspan><tspan x="0" y="28" class="st2 st3 st4">crisis standards of care</tspan></text>
	<rect x="99.3" y="150.8" class="st1" width="296.9" height="31.7"/>
	<text transform="matrix(1 0 0 1 99.3104 159.3086)"><tspan x="0" y="0" class="st2 st3 st4">Sufficient PPE for majority healthcare facilities,  </tspan><tspan x="0" y="14" class="st2 st3 st4">at-risk facilities, essential personnel</tspan></text>
	<rect x="99.3" y="200.2" class="st1" width="296.9" height="18.5"/>
	<text transform="matrix(1 0 0 1 99.3094 208.7153)" class="st2 st3 st4">PPE reserve of at least 90 days</text>
</g>
<g>
	<rect x="17.2" y="18.1" class="st1" width="121.1" height="37.2"/>
	<text transform="matrix(1 0 0 1 53.2145 26.905)"><tspan x="0" y="0" class="st6 st7 st4">Capacity </tspan><tspan x="-4.5" y="14" class="st6 st7 st4">Increasing</tspan></text>
</g>
<g>
	<line class="st8" x1="99.3" y1="473.2" x2="509.5" y2="473.2"/>
	<rect x="99.3" y="418.3" class="st1" width="301.7" height="47.4"/>
	<text transform="matrix(1 0 0 1 99.3102 426.7756)"><tspan x="0" y="0" class="st2 st3 st4">At least 15% of existing ICU capacity is available to accom</tspan><tspan x="286.1" y="0" class="st2 st3 st4">-</tspan><tspan x="0" y="14" class="st2 st3 st4">modate a surge in COVID-19 patients without resorting to </tspan><tspan x="0" y="28" class="st2 st3 st4">crisis standards of care</tspan></text>
	<rect x="99.3" y="490.1" class="st1" width="296.9" height="29.4"/>
	<text transform="matrix(1 0 0 1 99.3104 498.665)"><tspan x="0" y="0" class="st2 st3 st4">Sufficient PPE for majority healthcare facilities,  </tspan><tspan x="0" y="14" class="st2 st3 st4">at-risk facilities, essential personnel</tspan></text>
</g>
<g>
	<rect x="18.6" y="576.6" class="st1" width="118.4" height="37.2"/>
	<text transform="matrix(1 0 0 1 53.2148 585.3801)"><tspan x="0" y="0" class="st6 st7 st4">Capacity </tspan><tspan x="-7.3" y="14" class="st6 st7 st4">Decreasing</tspan></text>
</g>
</svg>
