<?xml version="1.0" encoding="utf-8"?>
<!-- Generator: Adobe Illustrator 24.1.0, SVG Export Plug-In . SVG Version: 6.00 Build 0)  -->
<svg version="1.1" id="Layer_1" xmlns="http://www.w3.org/2000/svg" xmlns:xlink="http://www.w3.org/1999/xlink" x="0px" y="0px"
	 viewBox="0 0 509.5 704.3" style="enable-background:new 0 0 509.5 704.3;" xml:space="preserve">
<style type="text/css">
	.st0{fill:none;stroke:#B51A34;stroke-width:0.5;stroke-miterlimit:10;}
	.st1{fill:none;stroke:#FF7224;stroke-width:0.5;stroke-miterlimit:10;}
	.st2{fill:none;}
	.st3{fill:#263349;}
	.st4{font-family:'Raleway-Regular';}
	.st5{font-size:12px;}
	.st6{fill:#1E7D87;}
	.st7{font-family:'Raleway-Medium';}
</style>
<line class="st0" x1="99.3" y1="450.3" x2="509.5" y2="450.3"/>
<line class="st0" x1="99.3" y1="487.5" x2="509.5" y2="487.5"/>
<line class="st1" x1="99.3" y1="326.3" x2="484" y2="326.3"/>
<line class="st1" x1="99.3" y1="144.5" x2="484" y2="144.5"/>
<g>
	<rect x="99.3" y="168.2" class="st2" width="296.9" height="31"/>
	<text transform="matrix(1 0 0 1 99.3103 176.7517)"><tspan x="0" y="0" class="st3 st4 st5">Current estimate of less than 1 case</tspan><tspan x="0" y="14" class="st3 st4 st5">per 100,000 population per week</tspan></text>
</g>
<g>
	<rect x="99.3" y="108.9" class="st2" width="296.9" height="20.6"/>
	<text transform="matrix(1 0 0 1 99.3093 117.3874)" class="st3 st4 st5">&gt;3% of tests conducted are positive</text>
</g>
<line class="st1" x1="99.3" y1="285.4" x2="484" y2="285.4"/>
<rect x="99.3" y="257" class="st2" width="301.7" height="15.6"/>
<text transform="matrix(1 0 0 1 99.3101 265.4858)" class="st3 st4 st5">Continued decline in daily cases</text>
<rect x="99.3" y="301.5" class="st2" width="296.9" height="17.5"/>
<text transform="matrix(1 0 0 1 99.3093 309.9919)" class="st3 st4 st5">&gt;3% of tests conducted are positive</text>
<rect x="99.3" y="341" class="st2" width="296.9" height="30.1"/>
<text transform="matrix(1 0 0 1 99.3103 349.5114)"><tspan x="0" y="0" class="st3 st4 st5">Current estimate of less than 1 case</tspan><tspan x="0" y="14" class="st3 st4 st5">per 100,000 population per day</tspan></text>
<rect x="99.3" y="411.7" class="st2" width="301.7" height="27.1"/>
<text transform="matrix(1 0 0 1 99.3101 420.1881)"><tspan x="0" y="0" class="st3 st4 st5">Sustained decline in daily cases for 21 consecutive days, as </tspan><tspan x="0" y="14" class="st3 st4 st5">reflected in the 5-day rolling average</tspan></text>
<rect x="99.3" y="464.4" class="st2" width="296.9" height="17.5"/>
<text transform="matrix(1 0 0 1 99.3093 472.9456)" class="st3 st4 st5">&gt;10% of tests conducted are positive</text>
<rect x="99.3" y="496.8" class="st2" width="296.9" height="30.8"/>
<text transform="matrix(1 0 0 1 99.3103 505.2734)"><tspan x="0" y="0" class="st3 st4 st5">Current estimate of less than 5 cases</tspan><tspan x="0" y="14" class="st3 st4 st5">per 100,000 population per day</tspan></text>
<g>
	<rect x="20.9" y="18.1" class="st2" width="113.8" height="37.2"/>
	<text transform="matrix(1 0 0 1 41.6768 26.9053)"><tspan x="0" y="0" class="st6 st7 st5">Rates &amp; New  </tspan><tspan x="-14.1" y="14" class="st6 st7 st5">Cases Decreasing</tspan></text>
</g>
<g>
	<rect x="20.9" y="576.6" class="st2" width="113.8" height="37.2"/>
	<text transform="matrix(1 0 0 1 41.6768 585.3799)"><tspan x="0" y="0" class="st6 st7 st5">Rates &amp; New </tspan><tspan x="-11.4" y="14" class="st6 st7 st5">Cases Increasing</tspan></text>
</g>
</svg>
