<?xml version="1.0" encoding="utf-8"?>
<!-- Generator: Adobe Illustrator 24.1.0, SVG Export Plug-In . SVG Version: 6.00 Build 0)  -->
<svg version="1.1" id="background" xmlns="http://www.w3.org/2000/svg" xmlns:xlink="http://www.w3.org/1999/xlink" x="0px" y="0px"
	 viewBox="0 0 970 704" style="enable-background:new 0 0 970 704;" xml:space="preserve">
<style type="text/css">
	.st0{fill:none;}
	.st1{fill:#263349;}
	.st2{font-family:'Raleway-Regular';}
	.st3{font-size:12px;}
	.st4{fill:none;stroke:#FF7224;stroke-width:0.5;stroke-miterlimit:10;}
	.st5{fill:none;stroke:#B51A34;stroke-width:0.5;stroke-miterlimit:10;}
	.st6{font-family:'Raleway-SemiBold';}
	.st7{font-size:13px;}
	.st8{letter-spacing:43;}
</style>
<g>
	<g>
		<rect x="103.7" y="153.5" class="st0" width="296.9" height="20.6"/>
		<text transform="matrix(1 0 0 1 103.7374 162.043)" class="st1 st2 st3">New cases &lt;3% of total tests</text>
	</g>
	<g>
		<line class="st4" x1="103.7" y1="316.9" x2="488.5" y2="316.9"/>
		<rect x="103.7" y="276.3" class="st0" width="301.7" height="15.6"/>
		<text transform="matrix(1 0 0 1 103.7381 284.8087)" class="st1 st2 st3">Continued decline in daily cases</text>
		<rect x="103.7" y="346.9" class="st0" width="296.9" height="17.5"/>
		<text transform="matrix(1 0 0 1 103.7374 355.4131)" class="st1 st2 st3">New cases &lt;3% of total tests</text>
	</g>
	<g>
		<line class="st5" x1="103.7" y1="483.1" x2="514" y2="483.1"/>
		<rect x="103.7" y="435.6" class="st0" width="301.7" height="27.1"/>
		<text transform="matrix(1 0 0 1 103.7381 444.1026)"><tspan x="0" y="0" class="st1 st2 st3">Sustained decline in daily cases for 21 consecutive days, as </tspan><tspan x="0" y="14" class="st1 st2 st3">reflected in the 5-day rolling average</tspan></text>
		<rect x="103.7" y="502.4" class="st0" width="296.9" height="17.5"/>
		<text transform="matrix(1 0 0 1 103.7374 510.9131)" class="st1 st2 st3">New cases &lt;10% of total tests</text>
	</g>
	<g>
		<path class="st0" d="M928.1,87.8H681c-26.3,28.9-47.9,77.2-65.3,136h312.3V87.8z"/>
		<text transform="matrix(1 0 0 1 666.7373 114.5737)"><tspan x="0" y="0" class="st1 st6 st7">Phase 4: New normal </tspan><tspan x="-13.8" y="22" class="st1 st2 st3">• Maximal return to normalcy that is viable prior </tspan><tspan x="225.4" y="22" class="st1 st2 st3 st8">	</tspan><tspan x="-20.9" y="36" class="st1 st2 st3">     to herd immunity via widespread vaccination</tspan><tspan x="-28.9" y="54" class="st1 st2 st3">• Community transmission is well monitored and    </tspan><tspan x="-34.6" y="68" class="st1 st2 st3">     virus flare-ups are contained rapidly </tspan><tspan x="-41.1" y="86" class="st1 st2 st3">• Most high-risk/low criticality functions can resume</tspan></text>
		<path class="st0" d="M928.1,247.1H609.2c-11.1,41.9-20.3,88.2-27.7,136h346.6V247.1z"/>
		<text transform="matrix(1 0 0 1 603.3838 278.9028)"><tspan x="0" y="0" class="st1 st6 st7">Phase 3: Economic recovery </tspan><tspan x="-5.2" y="22" class="st1 st2 st3">• Widely re-opening economic and social functions  </tspan><tspan x="-8.2" y="36" class="st1 st2 st3">    once transmission has declined and is suppressed </tspan><tspan x="-11.8" y="54" class="st1 st2 st3">• Moderate-sized gatherings and activities in enclosed  </tspan><tspan x="-14.5" y="68" class="st1 st2 st3">   spaces possible with appropriate mitigation</tspan><tspan x="-17.7" y="86" class="st1 st2 st3">• Continue to prohibit large gatherings</tspan></text>
		<path class="st0" d="M928.1,404.9H578.2c-6.5,45.2-11.4,91.3-15,136h364.9V404.9z"/>
		<text transform="matrix(1 0 0 1 575.7158 431.6851)"><tspan x="0" y="0" class="st1 st6 st7">Phase 2: Initial re-opening </tspan><tspan x="-2.9" y="22" class="st1 st2 st3">• Limited number of critically important activities open</tspan><tspan x="-5.1" y="40" class="st1 st2 st3">• Continue to prohibit gatherings in enclosed spaces</tspan><tspan x="-7" y="58" class="st1 st2 st3">• Some outdoor activities with appropriate distancing </tspan><tspan x="-8.9" y="76" class="st1 st2 st3">• Telework should continue wherever feasible</tspan></text>
		<path class="st0" d="M928.1,563.5H561.5c-3.5,48.5-5.3,94.9-5.7,136h372.4V563.5z"/>
		<text transform="matrix(1 0 0 1 560.2588 590.2397)"><tspan x="0" y="0" class="st1 st6 st7">Phase 1: Maximum social-distancing </tspan><tspan x="-1.3" y="22" class="st1 st2 st3">Tailored to each community, focus is on reducing  </tspan><tspan x="-2.1" y="36" class="st1 st2 st3">person-to-person transmission and decreasing the  </tspan><tspan x="-2.7" y="50" class="st1 st2 st3">burden on the healthcare system</tspan></text>
	</g>
</g>
</svg>
