<?xml version="1.0" encoding="utf-8"?>
<!-- Generator: Adobe Illustrator 24.1.0, SVG Export Plug-In . SVG Version: 6.00 Build 0)  -->
<svg version="1.1" id="Layer_1" xmlns="http://www.w3.org/2000/svg" xmlns:xlink="http://www.w3.org/1999/xlink" x="0px" y="0px"
	 viewBox="0 0 509.5 704.3" style="enable-background:new 0 0 509.5 704.3;" xml:space="preserve">
<style type="text/css">
	.st0{fill:none;}
	.st1{fill:#263349;}
	.st2{font-family:'Raleway-Regular';}
	.st3{font-size:12px;}
	.st4{fill:none;stroke:#FF7224;stroke-width:0.5;stroke-miterlimit:10;}
	.st5{fill:none;stroke:#B51A34;stroke-width:0.5;stroke-miterlimit:10;}
	.st6{fill:#1E7D87;}
	.st7{font-family:'Raleway-Medium';}
</style>
<g>
	<rect x="99.3" y="147.4" class="st0" width="296.9" height="20.6"/>
	<text transform="matrix(1 0 0 1 99.3093 155.9578)" class="st1 st2 st3">New cases &lt;3% of total tests</text>
</g>
<g>
	<line class="st4" x1="99.3" y1="310.8" x2="484" y2="310.8"/>
	<rect x="99.3" y="270.2" class="st0" width="301.7" height="15.6"/>
	<text transform="matrix(1 0 0 1 99.3101 278.7234)" class="st1 st2 st3">Continued decline in daily cases</text>
	<rect x="99.3" y="340.8" class="st0" width="296.9" height="17.5"/>
	<text transform="matrix(1 0 0 1 99.3093 349.3279)" class="st1 st2 st3">New cases &lt;3% of total tests</text>
</g>
<g>
	<line class="st5" x1="99.3" y1="477" x2="509.5" y2="477"/>
	<rect x="99.3" y="429.5" class="st0" width="301.7" height="27.1"/>
	<text transform="matrix(1 0 0 1 99.3101 438.0174)"><tspan x="0" y="0" class="st1 st2 st3">Sustained decline in daily cases for 21 consecutive days, as </tspan><tspan x="0" y="14" class="st1 st2 st3">reflected in the 5-day rolling average</tspan></text>
	<rect x="99.3" y="496.3" class="st0" width="296.9" height="17.5"/>
	<text transform="matrix(1 0 0 1 99.3093 504.8279)" class="st1 st2 st3">New cases &lt;10% of total tests</text>
</g>
<g>
	<rect x="20.9" y="18" class="st0" width="113.8" height="37.2"/>
	<text transform="matrix(1 0 0 1 41.6768 26.7989)"><tspan x="0" y="0" class="st6 st7 st3">Rates &amp; New  </tspan><tspan x="-8.8" y="14" class="st6 st7 st3">Cases Declining</tspan></text>
</g>
<g>
	<rect x="20.9" y="576.5" class="st0" width="113.8" height="37.2"/>
	<text transform="matrix(1 0 0 1 41.6768 585.2735)"><tspan x="0" y="0" class="st6 st7 st3">Rates &amp; New </tspan><tspan x="-11.4" y="14" class="st6 st7 st3">Cases Increasing</tspan></text>
</g>
</svg>
