<?xml version="1.0" encoding="utf-8"?>
<!-- Generator: Adobe Illustrator 24.1.0, SVG Export Plug-In . SVG Version: 6.00 Build 0)  -->
<svg version="1.1" id="Layer_1" xmlns="http://www.w3.org/2000/svg" xmlns:xlink="http://www.w3.org/1999/xlink" x="0px" y="0px"
	 viewBox="0 0 491.2 704.3" style="enable-background:new 0 0 491.2 704.3;" xml:space="preserve">
<style type="text/css">
	.st0{fill:none;stroke:#FF7224;stroke-width:0.5;stroke-miterlimit:10;}
	.st1{fill:none;}
	.st2{fill:#263349;}
	.st3{font-family:'Raleway-Regular';}
	.st4{font-size:12px;}
	.st5{fill:none;stroke:#B51A34;stroke-width:0.5;stroke-miterlimit:10;}
	.st6{fill:none;stroke:#FCCA3A;stroke-width:0.5;stroke-miterlimit:10;}
	.st7{fill:#1E7D87;}
	.st8{font-family:'Raleway-Medium';}
</style>
<g>
	<line class="st0" x1="99.3" y1="308.9" x2="468.2" y2="308.9"/>
	<rect x="99.3" y="269.1" class="st1" width="296.9" height="33.1"/>
	<text transform="matrix(1 0 0 1 99.3095 277.6423)"><tspan x="0" y="0" class="st2 st3 st4">Sufficient testing, quarantine, and isolation  </tspan><tspan x="0" y="14" class="st2 st3 st4">in long-term care facilities</tspan></text>
	<rect x="99.3" y="328.2" class="st1" width="296.9" height="38.4"/>
	<text transform="matrix(1 0 0 1 99.3095 336.7241)"><tspan x="0" y="0" class="st2 st3 st4">% of cases reported from long-term care facilities  </tspan><tspan x="0" y="14" class="st2 st3 st4">&lt;10% over last 28 days</tspan></text>
</g>
<g>
	<line class="st5" x1="99.3" y1="465.3" x2="491.2" y2="465.3"/>
	<rect x="99.3" y="425.5" class="st1" width="296.9" height="33.1"/>
	<text transform="matrix(1 0 0 1 99.3095 434.0422)"><tspan x="0" y="0" class="st2 st3 st4">Sufficient testing, quarantine, and isolation  </tspan><tspan x="0" y="14" class="st2 st3 st4">in long-term care facilities</tspan></text>
	<rect x="99.3" y="484.6" class="st1" width="296.9" height="38.4"/>
	<text transform="matrix(1 0 0 1 99.3095 493.1243)"><tspan x="0" y="0" class="st2 st3 st4">% of cases reported from long-term care facilities  </tspan><tspan x="0" y="14" class="st2 st3 st4">&lt;20% over last 28 days</tspan></text>
</g>
<g>
	<line class="st6" x1="99.3" y1="152.3" x2="448.6" y2="152.3"/>
	<rect x="99.3" y="112.5" class="st1" width="296.9" height="33.1"/>
	<text transform="matrix(1 0 0 1 99.3095 121.062)"><tspan x="0" y="0" class="st2 st3 st4">Sufficient testing, quarantine, and isolation  </tspan><tspan x="0" y="14" class="st2 st3 st4">in long-term care facilities</tspan></text>
	<rect x="99.3" y="171.6" class="st1" width="296.9" height="38.4"/>
	<text transform="matrix(1 0 0 1 99.3095 180.1438)"><tspan x="0" y="0" class="st2 st3 st4">% of cases reported from long-term care facilities  </tspan><tspan x="0" y="14" class="st2 st3 st4">&lt;5% over last 28 days</tspan></text>
</g>
<g>
	<rect x="25.2" y="18.1" class="st1" width="105.1" height="37.2"/>
	<text transform="matrix(1 0 0 1 60.8876 26.9055)"><tspan x="0" y="0" class="st7 st8 st4">Cases </tspan><tspan x="-15" y="14" class="st7 st8 st4">Decreasing</tspan></text>
</g>
<g>
	<rect x="25.2" y="576.6" class="st1" width="105.1" height="37.2"/>
	<text transform="matrix(1 0 0 1 60.8876 585.3806)"><tspan x="0" y="0" class="st7 st8 st4">Cases </tspan><tspan x="-12.2" y="14" class="st7 st8 st4">Increasing</tspan></text>
</g>
</svg>
