<?xml version="1.0" encoding="utf-8"?>
<!-- Generator: Adobe Illustrator 24.1.0, SVG Export Plug-In . SVG Version: 6.00 Build 0)  -->
<svg version="1.1" id="Layer_1" xmlns="http://www.w3.org/2000/svg" xmlns:xlink="http://www.w3.org/1999/xlink" x="0px" y="0px"
	 viewBox="0 0 491.2 704.3" style="enable-background:new 0 0 491.2 704.3;" xml:space="preserve">
<style type="text/css">
	.st0{fill:none;stroke:#FF7224;stroke-width:0.5;stroke-miterlimit:10;}
	.st1{fill:none;}
	.st2{fill:#263349;}
	.st3{font-family:'Raleway-Regular';}
	.st4{font-size:12px;}
	.st5{fill:none;stroke:#B51A34;stroke-width:0.5;stroke-miterlimit:10;}
	.st6{fill:none;stroke:#FCCA3A;stroke-width:0.5;stroke-miterlimit:10;}
	.st7{fill:#1E7D87;}
	.st8{font-family:'Raleway-Medium';}
</style>
<line class="st0" x1="99.3" y1="283.1" x2="468.2" y2="283.1"/>
<rect x="99.3" y="246.8" class="st1" width="296.9" height="33.1"/>
<text transform="matrix(1 0 0 1 99.3095 255.3169)"><tspan x="0" y="0" class="st2 st3 st4">Sufficient testing, quarantine, and isolation  </tspan><tspan x="0" y="14" class="st2 st3 st4">in long-term care facilities</tspan></text>
<rect x="99.3" y="292" class="st1" width="296.9" height="38.4"/>
<text transform="matrix(1 0 0 1 99.3095 300.507)"><tspan x="0" y="0" class="st2 st3 st4">% of cases reported from long-term care facilities  </tspan><tspan x="0" y="14" class="st2 st3 st4">&lt;10% over last 28 days</tspan></text>
<line class="st5" x1="99.3" y1="439.2" x2="491.2" y2="439.2"/>
<rect x="100.3" y="405.7" class="st1" width="296.9" height="33.1"/>
<text transform="matrix(1 0 0 1 100.3095 414.2539)"><tspan x="0" y="0" class="st2 st3 st4">Sufficient testing, quarantine, and isolation  </tspan><tspan x="0" y="14" class="st2 st3 st4">in long-term care facilities</tspan></text>
<rect x="99.3" y="452.9" class="st1" width="296.9" height="38.4"/>
<text transform="matrix(1 0 0 1 99.3095 461.45)"><tspan x="0" y="0" class="st2 st3 st4">% of cases reported from long-term care facilities  </tspan><tspan x="0" y="14" class="st2 st3 st4">&lt;20% over last 28 days</tspan></text>
<line class="st6" x1="99.3" y1="126.4" x2="448.6" y2="126.4"/>
<rect x="99.3" y="89.9" class="st1" width="296.9" height="33.1"/>
<text transform="matrix(1 0 0 1 99.3095 98.4118)"><tspan x="0" y="0" class="st2 st3 st4">Sufficient testing, quarantine, and isolation  </tspan><tspan x="0" y="14" class="st2 st3 st4">in long-term care facilities</tspan></text>
<rect x="99.3" y="139" class="st1" width="296.9" height="38.4"/>
<text transform="matrix(1 0 0 1 99.3095 147.5019)"><tspan x="0" y="0" class="st2 st3 st4">% of cases reported from long-term care facilities  </tspan><tspan x="0" y="14" class="st2 st3 st4">&lt;5% over last 28 days</tspan></text>
<g>
	<rect x="25.2" y="18.1" class="st1" width="105.1" height="37.2"/>
	<text transform="matrix(1 0 0 1 60.8876 26.9055)"><tspan x="0" y="0" class="st7 st8 st4">Cases </tspan><tspan x="-15" y="14" class="st7 st8 st4">Decreasing</tspan></text>
</g>
<g>
	<rect x="25.2" y="576.6" class="st1" width="105.1" height="37.2"/>
	<text transform="matrix(1 0 0 1 60.8876 585.3806)"><tspan x="0" y="0" class="st7 st8 st4">Cases </tspan><tspan x="-12.2" y="14" class="st7 st8 st4">Increasing</tspan></text>
</g>
<line class="st6" x1="99" y1="176" x2="428.5" y2="176"/>
<rect x="99.3" y="188" class="st1" width="308.1" height="38.4"/>
<text transform="matrix(1 0 0 1 99.3104 196.5112)"><tspan x="0" y="0" class="st2 st3 st4">Local rapid response teams are avaialble to respond to </tspan><tspan x="0" y="14" class="st2 st3 st4">outbreak hotspots within 24 hours with sufficient PPE</tspan></text>
<rect x="100.8" y="339.3" class="st1" width="308.1" height="38.4"/>
<text transform="matrix(1 0 0 1 100.7819 347.782)"><tspan x="0" y="0" class="st2 st3 st4">Local rapid response teams are avaialble to respond to </tspan><tspan x="0" y="14" class="st2 st3 st4">outbreak hotspots within 24 hours with sufficient PPE</tspan></text>
<line class="st0" x1="99.3" y1="326" x2="465.1" y2="326"/>
<rect x="99" y="503.8" class="st1" width="308.1" height="38.4"/>
<text transform="matrix(1 0 0 1 98.9745 512.3193)"><tspan x="0" y="0" class="st2 st3 st4">Local rapid response teams are avaialble to respond to </tspan><tspan x="0" y="14" class="st2 st3 st4">outbreak hotspots within 24 hours with sufficient PPE</tspan></text>
<line class="st5" x1="99.3" y1="487.6" x2="491.2" y2="487.6"/>
</svg>
