<?xml version="1.0" encoding="utf-8"?>
<!-- Generator: Adobe Illustrator 24.1.0, SVG Export Plug-In . SVG Version: 6.00 Build 0)  -->
<svg version="1.1" id="Layer_1" xmlns="http://www.w3.org/2000/svg" xmlns:xlink="http://www.w3.org/1999/xlink" x="0px" y="0px"
	 viewBox="0 0 513.9 704.3" style="enable-background:new 0 0 513.9 704.3;" xml:space="preserve">
<style type="text/css">
	.st0{fill:none;stroke:#FCCA3A;stroke-width:0.5;stroke-miterlimit:10;}
	.st1{fill:none;}
	.st2{fill:#263349;}
	.st3{font-family:'Raleway-Regular';}
	.st4{font-size:12px;}
	.st5{fill:none;stroke:#FF7224;stroke-width:0.5;stroke-miterlimit:10;}
	.st6{fill:none;stroke:#B51A34;stroke-width:0.5;stroke-miterlimit:10;}
	.st7{fill:#1E7D87;}
	.st8{font-family:'Raleway-Medium';}
</style>
<g>
	<line class="st0" x1="99.3" y1="152.3" x2="448.6" y2="152.3"/>
	<line class="st0" x1="99.3" y1="187.8" x2="459.6" y2="187.8"/>
	<rect x="99.3" y="88.3" class="st1" width="296.9" height="58.1"/>
	<text transform="matrix(1 0 0 1 99.3093 96.8203)"><tspan x="0" y="0" class="st2 st3 st4">All symptomatic people, all asymptomatic  </tspan><tspan x="0" y="14" class="st2 st3 st4">high-risk individuals or contacts, and anyone  </tspan><tspan x="0" y="28" class="st2 st3 st4">who requests a test/any physician who orders  </tspan><tspan x="0" y="42" class="st2 st3 st4">a test can access testing. </tspan></text>
	<rect x="99.3" y="165.9" class="st1" width="296.9" height="17.5"/>
	<text transform="matrix(1 0 0 1 99.3093 174.4257)" class="st2 st3 st4">Tests are readily available for all essential personnel.</text>
	<rect x="99.3" y="201.2" class="st1" width="296.9" height="18.5"/>
	<text transform="matrix(1 0 0 1 99.3093 209.6708)" class="st2 st3 st4">Majority of test results are returned within 24 hours.</text>
</g>
<g>
	<line class="st5" x1="99.3" y1="293.1" x2="484" y2="293.1"/>
	<line class="st5" x1="99.3" y1="336.6" x2="498.1" y2="336.6"/>
	<rect x="99.3" y="253.8" class="st1" width="301.7" height="27.1"/>
	<text transform="matrix(1 0 0 1 99.3101 262.3491)"><tspan x="0" y="0" class="st2 st3 st4">All symptomatic people, all asymptomatic high-risk individ</tspan><tspan x="292.6" y="0" class="st2 st3 st4">-</tspan><tspan x="0" y="14" class="st2 st3 st4">uals or contacts can access testing. </tspan></text>
	<rect x="99.3" y="309.3" class="st1" width="296.9" height="17.5"/>
	<text transform="matrix(1 0 0 1 99.3093 317.78)" class="st2 st3 st4">Tests are readily available for all essential personnel.</text>
	<rect x="99.3" y="352.1" class="st1" width="296.9" height="18.5"/>
	<text transform="matrix(1 0 0 1 99.3093 360.6513)" class="st2 st3 st4">Majority of test results are returned within 24 hours.</text>
</g>
<g>
	<line class="st6" x1="99.3" y1="453.1" x2="509.5" y2="453.1"/>
	<line class="st6" x1="99.3" y1="496.6" x2="513.9" y2="496.6"/>
	<rect x="99.3" y="413.8" class="st1" width="301.7" height="27.1"/>
	<text transform="matrix(1 0 0 1 99.3101 422.2741)"><tspan x="0" y="0" class="st2 st3 st4">All symptomatic people, all asymptomatic high-risk individ</tspan><tspan x="292.6" y="0" class="st2 st3 st4">-</tspan><tspan x="0" y="14" class="st2 st3 st4">uals or contacts can access testing. </tspan></text>
	<rect x="99.3" y="469.2" class="st1" width="296.9" height="17.5"/>
	<text transform="matrix(1 0 0 1 99.3093 477.705)" class="st2 st3 st4">Tests are readily available for all essential personnel.</text>
	<rect x="99.3" y="512.1" class="st1" width="296.9" height="18.5"/>
	<text transform="matrix(1 0 0 1 99.3093 520.5764)" class="st2 st3 st4">Majority of test results are returned within 48 hours.</text>
</g>
<g>
	<rect x="18.7" y="18.1" class="st1" width="118.1" height="37.2"/>
	<text transform="matrix(1 0 0 1 33.0549 26.8605)"><tspan x="0" y="0" class="st7 st8 st4">Faster &amp; Widely  </tspan><tspan x="18.7" y="14" class="st7 st8 st4">Available</tspan></text>
</g>
<g>
	<rect x="18.7" y="576.6" class="st1" width="118.1" height="37.2"/>
	<text transform="matrix(1 0 0 1 31.5129 585.3356)"><tspan x="0" y="0" class="st7 st8 st4">Slower and Less  </tspan><tspan x="20.2" y="14" class="st7 st8 st4">Available</tspan></text>
</g>
</svg>
