<?xml version="1.0" encoding="utf-8"?>
<!-- Generator: Adobe Illustrator 24.1.0, SVG Export Plug-In . SVG Version: 6.00 Build 0)  -->
<svg version="1.1" id="Layer_1" xmlns="http://www.w3.org/2000/svg" xmlns:xlink="http://www.w3.org/1999/xlink" x="0px" y="0px"
	 viewBox="0 0 66 66" style="enable-background:new 0 0 66 66;" xml:space="preserve">
<style type="text/css">
	.st0{fill:#FFFFFF;}
	.st1{fill:#273349;}
</style>
<circle class="st0" cx="33" cy="33" r="33"/>
<path class="st1" d="M33.7,27.7c-1.5,0-3-0.4-4.2-1.2c-2.3-1.5-3.7-4-3.7-6.7c0-4.4,3.5-7.9,7.9-7.9s7.9,3.5,7.9,7.9
	c0,2.7-1.4,5.2-3.7,6.7C36.7,27.2,35.2,27.7,33.7,27.7z M33.7,14.6c-1.4,0-2.5,1.1-2.5,2.5s1.1,2.5,2.5,2.5c1.4,0,2.5-1.1,2.5-2.5
	C36.2,15.7,35.1,14.6,33.7,14.6z M36.4,20.2l-5.3,0c-0.9,0-1.6,0.8-1.6,1.8l0.3,3c1.2,0.7,2.5,1.2,4,1.2c1.5,0,2.8-0.4,4-1.2l0.3-3
	C38,20.9,37.3,20.2,36.4,20.2z M27.8,29.7c-0.5-0.3-0.9-0.6-1.2-1l-1.7,2.5l-1.1-0.8l0.2,3.6l3.4-1.1l-1.1-0.8L27.8,29.7z
	 M49.4,51.3c-1.5,0-3-0.4-4.2-1.2c-2.3-1.5-3.7-4-3.7-6.7c0-4.4,3.5-7.9,7.9-7.9s7.9,3.5,7.9,7.9c0,2.7-1.4,5.2-3.7,6.7
	C52.4,50.9,50.9,51.3,49.4,51.3z M49.4,38.3c-1.4,0-2.5,1.1-2.5,2.5c0,1.4,1.1,2.5,2.5,2.5c1.4,0,2.5-1.1,2.5-2.5
	S50.8,38.3,49.4,38.3z M52.1,43.9l-5.3,0c-0.9,0-1.6,0.8-1.6,1.8l0.3,3c1.2,0.7,2.5,1.2,4,1.2c1.5,0,2.8-0.4,4-1.2l0.3-3
	C53.7,44.6,53,43.8,52.1,43.9z M18.7,51.3c-1.5,0-3-0.4-4.2-1.2c-2.3-1.5-3.7-4-3.7-6.7c0-4.4,3.5-7.9,7.9-7.9s7.9,3.5,7.9,7.9
	c0,2.7-1.4,5.2-3.7,6.7C21.7,50.9,20.2,51.3,18.7,51.3z M18.7,38.3c-1.4,0-2.5,1.1-2.5,2.5c0,1.4,1.1,2.5,2.5,2.5
	c1.4,0,2.5-1.1,2.5-2.5S20.1,38.3,18.7,38.3z M21.4,43.9l-5.3,0c-0.9,0-1.6,0.8-1.6,1.8l0.3,3c1.2,0.7,2.5,1.2,4,1.2
	c1.5,0,2.8-0.4,4-1.2l0.3-3C23,44.6,22.3,43.8,21.4,43.9z M40.8,32.3l-1.1,0.8l3.4,1.1l0.2-3.6l-1.1,0.8l-1.7-2.5
	c-0.4,0.4-0.8,0.7-1.2,1L40.8,32.3z"/>
</svg>
