<?xml version="1.0" encoding="utf-8"?>
<!-- Generator: Adobe Illustrator 24.1.0, SVG Export Plug-In . SVG Version: 6.00 Build 0)  -->
<svg version="1.1" id="Layer_1" xmlns="http://www.w3.org/2000/svg" xmlns:xlink="http://www.w3.org/1999/xlink" x="0px" y="0px"
	 viewBox="0 0 73.5 69.9" style="enable-background:new 0 0 73.5 69.9;" xml:space="preserve">
<path style="fill:#FFFFFF;" d="M19.7,26.3c1.9-0.1,3.5,0.8,4.7,2.1c2.4,2.5,4.9,5.1,7.3,7.7c0.6,0.7,1,0.6,1.6,0
	c8-7.2,15.9-14.4,23.9-21.5c2.3-2.1,4.7-4.2,7-6.3c1.8-1.6,3.9-2,5.9-1c2.2,1.1,3.5,3.1,3.3,5.5c-0.1,1.2-0.6,2.2-1.4,3.1
	c-3.7,4.1-7.5,8.2-11.2,12.2C54.2,35.2,47.6,42.4,41,49.6c-1.2,1.3-2.3,2.5-3.5,3.8c-3.4,3.5-8.4,3.2-11.4-0.6
	c-2.2-2.9-4.4-5.8-6.6-8.6c-1.8-2.3-3.5-4.6-5.3-7c-1.6-2.1-2-4.4-0.7-6.8C14.8,27.9,16.8,26.4,19.7,26.3L19.7,26.3z M62.1,31.7
	v28.5c0,1-0.8,1.9-1.9,1.9H9.6c-1,0-1.8-0.8-1.8-1.9V9.6c0-1,0.8-1.8,1.8-1.8h50.1c2-1.8,4-3.6,6-5.4L66.2,2c-1.6-1.3-3.7-2-5.9-2
	H9.6C4.3,0,0,4.3,0,9.6v50.6c0,5.3,4.3,9.7,9.6,9.7h50.6c5.3,0,9.7-4.3,9.7-9.7v-37C67.3,26.1,64.7,28.9,62.1,31.7L62.1,31.7z"/>
</svg>
