<?xml version="1.0" encoding="utf-8"?>
<!-- Generator: Adobe Illustrator 24.1.0, SVG Export Plug-In . SVG Version: 6.00 Build 0)  -->
<svg version="1.1" id="Layer_1" xmlns="http://www.w3.org/2000/svg" xmlns:xlink="http://www.w3.org/1999/xlink" x="0px" y="0px"
	 viewBox="0 0 66 66" style="enable-background:new 0 0 66 66;" xml:space="preserve">
<style type="text/css">
	.st0{fill:#FFFFFF;}
	.st1{fill:#273349;}
</style>
<circle class="st0" cx="33" cy="33" r="33"/>
<g>
	<path class="st1" d="M48,20.1v2c0,0.2-0.1,0.3-0.3,0.3h-2.4v2.4c0,0.2-0.1,0.3-0.3,0.3h-2c-0.2,0-0.3-0.1-0.3-0.3v-2.4h-2.4
		c-0.2,0-0.3-0.1-0.3-0.3v-2c0-0.2,0.1-0.3,0.3-0.3h2.4v-2.4c0-0.2,0.1-0.3,0.3-0.3h2c0.2,0,0.3,0.1,0.3,0.3v2.4h2.4
		C47.9,19.8,48,20,48,20.1z M32.5,48.4c5.4,0,10.7,0,16.1,0c0.4,0,0.5,0.1,0.5,0.5c0,0.5,0,1,0,1.5c0.1,0.7,0.7,1.1,1.3,1.1
		c0.7,0,1.3-0.5,1.4-1.2c0-0.2,0-0.4,0-0.7c0-3.1,0-6.2,0-9.3c0-1.2,0.1-2.4,0-3.6c-0.1-0.7-0.6-1.2-1.3-1.3c-0.7,0-1.3,0.5-1.4,1.2
		c-0.1,0.6,0,1.2,0,1.8c0,0.6,0,0.6-0.6,0.6c-8.5,0-17.1,0-25.6,0c-2.2,0-4.3,0-6.5,0c-0.4,0-0.5-0.1-0.5-0.5c0-0.5,0-0.9,0-1.4
		c0-1.8,0-3.6,0-5.5c0-0.9-0.6-1.5-1.4-1.5c-0.7,0-1.4,0.6-1.5,1.4c0,0.2,0,0.5,0,0.7c0,5.2,0,10.3,0,15.5c0,0.8-0.1,1.6,0,2.4
		c0.1,0.8,0.7,1.3,1.6,1.3c0.7,0,1.3-0.6,1.4-1.4c0-0.4,0-0.8,0-1.2c0-0.5,0-0.5,0.5-0.5C21.8,48.4,27.2,48.4,32.5,48.4
		C32.5,48.4,32.5,48.4,32.5,48.4z M48.5,42.1c0.5,0,0.5,0,0.5,0.5c0,0.7,0,1.5,0,2.2c0,0.4-0.1,0.5-0.5,0.5c-5.7,0-11.3,0-17,0
		c-5,0-10,0-15,0c-0.6,0-0.6,0-0.6-0.5c0-0.7,0-1.5,0-2.2c0-0.4,0.1-0.5,0.5-0.5c4.9,0,9.8,0,14.7,0c0.4,0,0.9,0,1.3,0
		C37.9,42.1,43.2,42.1,48.5,42.1z M36.9,37.4c3.5,0,7,0,10.5,0c0.4,0,0.5-0.1,0.5-0.5c-0.2-1.8-1.1-3.1-2.6-4
		c-1-0.6-2.1-0.6-3.2-0.6c-2.2-0.1-4.4,0-6.6-0.1c-2.4-0.1-4.8-0.1-7.1-0.1c-0.3,0-0.5-0.1-0.6-0.3c-0.5-0.6-1-1.2-1.5-1.8
		c-1.3-1.5-3.4-1.7-4.9-0.5c-0.3,0.2-0.6,0.5-0.9,0.7c-0.2,0.2-0.2,0.3-0.1,0.5c1.7,2,3.4,4,5.1,6c0.3,0.4,0.6,0.5,1.1,0.5
		C30,37.4,33.4,37.4,36.9,37.4C36.9,37.4,36.9,37.4,36.9,37.4z M43.7,13.5c-4.1,0.1-7.5,3.6-7.5,7.8c0,4.3,3.5,7.8,7.9,7.7
		c4.5,0,7.7-3.8,7.7-7.8C51.8,16.9,48.1,13.3,43.7,13.5z M49.8,21.2c0,3.2-2.5,5.8-5.7,5.8c-3.2,0-5.8-2.4-5.9-5.8
		c0-3.6,2.9-5.9,5.8-5.8C47.2,15.4,49.8,18,49.8,21.2z M22.7,25.5c0-2-1.6-3.6-3.6-3.6c-1.9,0-3.6,1.7-3.6,3.6c0,2,1.6,3.5,3.6,3.6
		C21.1,29.1,22.7,27.5,22.7,25.5z M17.4,34.1c0,1,0,2,0,2.9c0,0.2,0,0.4,0.4,0.4c1.8,0,3.6,0,5.4,0c0.1,0,0.2,0,0.3-0.1
		c0.1-0.1-0.1-0.2-0.1-0.3c-0.3-0.3-0.5-0.6-0.8-0.9c-1.5-1.7-3-3.5-4.4-5.2c-0.1-0.2-0.3-0.3-0.5-0.2c-0.2,0.1-0.2,0.3-0.2,0.5
		C17.4,32.2,17.4,33.2,17.4,34.1C17.4,34.1,17.4,34.1,17.4,34.1z"/>
</g>
</svg>
