<?xml version="1.0" encoding="utf-8"?>
<!-- Generator: Adobe Illustrator 24.1.0, SVG Export Plug-In . SVG Version: 6.00 Build 0)  -->
<svg version="1.1" id="Layer_1" xmlns="http://www.w3.org/2000/svg" xmlns:xlink="http://www.w3.org/1999/xlink" x="0px" y="0px"
	 viewBox="0 0 66 66" style="enable-background:new 0 0 66 66;" xml:space="preserve">
<style type="text/css">
	.st0{fill:#FFFFFF;}
	.st1{fill:#273349;}
</style>
<circle class="st0" cx="33" cy="33" r="33"/>
<g>
	<path class="st1" d="M47.7,32.3c-0.6,0-1.2,0.4-1.4,1h-2.6c0-1.7-0.5-3.3-1.2-4.7l2.1-1.2c0.6,0.5,1.4,0.6,2.1,0.2
		c0.9-0.5,1.2-1.6,0.7-2.5s-1.6-1.2-2.5-0.7c-0.7,0.4-1,1.2-0.9,1.9l-2,1.2c-0.9-1.4-2-2.6-3.4-3.5l1.2-2.1c0.6,0.1,1.2-0.1,1.5-0.7
		c0.4-0.7,0.2-1.6-0.5-2c-0.7-0.4-1.6-0.2-2,0.5c-0.3,0.6-0.2,1.2,0.2,1.7l-1.2,2.1c-1.4-0.8-3-1.2-4.7-1.3v-2.3
		c0.7-0.2,1.2-0.9,1.2-1.7c0-1-0.8-1.8-1.8-1.8c-1,0-1.8,0.8-1.8,1.8c0,0.8,0.5,1.5,1.2,1.7v2.3c-1.7,0.1-3.3,0.5-4.7,1.3l-1.2-2.1
		c0.4-0.5,0.5-1.1,0.2-1.7c-0.4-0.7-1.3-0.9-2-0.5c-0.7,0.4-0.9,1.3-0.5,2c0.3,0.6,0.9,0.8,1.5,0.7l1.2,2.1
		c-1.4,0.9-2.5,2.1-3.4,3.5l-2-1.2c0.1-0.7-0.2-1.5-0.9-1.9c-0.9-0.5-2-0.2-2.5,0.7c-0.5,0.9-0.2,2,0.7,2.5c0.7,0.4,1.5,0.3,2.1-0.2
		l2.1,1.2c-0.7,1.4-1.1,3-1.2,4.7h-2.6c-0.2-0.6-0.7-1-1.4-1c-0.8,0-1.5,0.7-1.5,1.5s0.7,1.5,1.5,1.5c0.6,0,1.2-0.4,1.4-1h2.6
		c0.1,1.7,0.5,3.2,1.3,4.6l-2.2,1.3c-0.6-0.5-1.4-0.6-2.1-0.2c-0.9,0.5-1.2,1.6-0.7,2.5c0.5,0.9,1.6,1.2,2.5,0.7
		c0.7-0.4,1-1.2,0.9-1.9l2.2-1.3c0.9,1.3,2.1,2.4,3.4,3.3l-1.4,2.4c-0.6-0.1-1.2,0.1-1.5,0.7c-0.4,0.7-0.2,1.6,0.5,2
		c0.7,0.4,1.6,0.2,2-0.5c0.3-0.6,0.2-1.2-0.2-1.7l1.4-2.4c1.4,0.7,2.9,1.1,4.6,1.2v2.6c-0.7,0.2-1.2,0.9-1.2,1.7
		c0,1,0.8,1.8,1.8,1.8c1,0,1.8-0.8,1.8-1.8c0-0.8-0.5-1.5-1.2-1.7v-2.6c1.6-0.1,3.2-0.5,4.6-1.2l1.4,2.4c-0.4,0.5-0.5,1.1-0.2,1.7
		c0.4,0.7,1.3,0.9,2,0.5c0.7-0.4,0.9-1.3,0.5-2c-0.3-0.6-0.9-0.8-1.5-0.7l-1.4-2.4c1.4-0.8,2.5-2,3.4-3.3l2.2,1.3
		c-0.1,0.7,0.2,1.5,0.9,1.9c0.9,0.5,2,0.2,2.5-0.7s0.2-2-0.7-2.5c-0.7-0.4-1.5-0.3-2.1,0.2l-2.2-1.3c0.7-1.4,1.2-3,1.3-4.6h2.6
		c0.2,0.6,0.7,1,1.4,1c0.8,0,1.5-0.7,1.5-1.5S48.5,32.3,47.7,32.3z"/>
</g>
</svg>
