<?xml version="1.0" encoding="utf-8"?>
<!-- Generator: Adobe Illustrator 24.1.0, SVG Export Plug-In . SVG Version: 6.00 Build 0)  -->
<svg version="1.1" id="Layer_1" xmlns="http://www.w3.org/2000/svg" xmlns:xlink="http://www.w3.org/1999/xlink" x="0px" y="0px"
	 viewBox="0 0 34.2 37.5" style="enable-background:new 0 0 34.2 37.5;" xml:space="preserve">
<style type="text/css">
	.st0{fill:#FFFFFF;}
</style>
<path class="st0" d="M33.8,17.2L33.8,17.2c-0.2-0.5-0.6-1-1.1-1.4C32,15.2,31.2,15,30.2,15c-0.4,0-0.8,0-1.2,0c-0.5,0-0.5,0-0.5-0.5
	v-3.2c0-5.6-4.2-10.4-9.8-11.2c-6.2-0.9-12,3.4-12.9,9.5c-0.2,1.5-0.1,3.1-0.1,4.6c0,0.8,0,0.8-0.8,0.8c-0.6,0-1.2,0-1.8,0.1
	C2,15.3,1,16,0.5,17v0C0.2,17.5,0,18.1,0,18.8c0,5,0,10,0,15c0,1.8,1.1,3.2,2.8,3.7l0.3,0.1h28c0.7-0.2,1.3-0.5,1.8-0.9
	c0.7-0.7,1.1-1.5,1.3-2.4V18.3C34.1,17.9,34,17.6,33.8,17.2L33.8,17.2z M18.9,31.4c0,0.5,0,0.5-0.5,0.5c-0.9,0-1.8,0-2.8,0
	c-0.3,0-0.4-0.1-0.4-0.4c0-0.6,0-1.2,0-1.7c0-0.5,0-1.1,0-1.6c0-0.3-0.1-0.5-0.4-0.7c-1.2-0.9-1.8-2.4-1.4-3.9
	c0.4-1.5,1.6-2.6,3.2-2.8c1.7-0.2,3.3,0.7,3.9,2.3c0.6,1.6,0.2,3.4-1.2,4.3c-0.3,0.2-0.4,0.5-0.4,0.8C19,29.3,18.9,30.3,18.9,31.4
	L18.9,31.4z M11.5,10.9c0.1-2.5,2.2-4.8,4.8-5.1c2.9-0.4,5.8,1.5,6.4,4.6c0.1,0.6,0.1,1.2,0.1,1.8v2.3c0,0.4,0,0.5-0.5,0.5H12
	c-0.5,0-0.5,0-0.5-0.5C11.5,13.3,11.5,12.1,11.5,10.9L11.5,10.9z"/>
</svg>
