<?xml version="1.0" encoding="utf-8"?>
<svg xmlns="http://www.w3.org/2000/svg" x="0px" y="0px"
	 viewBox="0 0 69.9 69.9">
<path style="fill:#FFFFFF;" d="M54.6,46c1.4,1.4,1.4,3.7,0,5.1l-3.5,3.5c-1.4,1.4-3.7,1.4-5.1,0L35,43.5L23.9,54.6
	c-1.4,1.4-3.7,1.4-5.1,0l-3.5-3.5c-1.4-1.4-1.4-3.7,0-5.1L26.4,35L15.3,23.9c-1.4-1.4-1.4-3.7,0-5.1l3.5-3.5c1.4-1.4,3.7-1.4,5.1,0
	L35,26.4L46,15.3c1.4-1.4,3.7-1.4,5.1,0l3.5,3.5c1.4,1.4,1.4,3.7,0,5.1L43.5,35L54.6,46L54.6,46z M60.3,69.9c5.3,0,9.7-4.3,9.7-9.6
	V9.6c0-5.3-4.3-9.6-9.7-9.6H9.6C4.3,0,0,4.3,0,9.6v50.6c0,5.3,4.3,9.6,9.6,9.6H60.3L60.3,69.9z M9.6,7.8h50.6c1,0,1.8,0.8,1.8,1.8
	v50.6c0,1-0.8,1.8-1.8,1.8H9.6c-1,0-1.8-0.8-1.8-1.8V9.6C7.8,8.6,8.6,7.8,9.6,7.8L9.6,7.8z"/>
</svg>
