<?xml version="1.0" encoding="utf-8"?>
<!-- Generator: Adobe Illustrator 24.1.0, SVG Export Plug-In . SVG Version: 6.00 Build 0)  -->
<svg version="1.1" id="Layer_1" xmlns="http://www.w3.org/2000/svg" xmlns:xlink="http://www.w3.org/1999/xlink" x="0px" y="0px"
	 viewBox="0 0 66 66" style="enable-background:new 0 0 66 66;" xml:space="preserve">
<style type="text/css">
	.st0{fill:#FFFFFF;}
	.st1{fill:#273349;}
</style>
<circle class="st0" cx="33" cy="33" r="33"/>
<g>
	<path class="st1" d="M44.9,28.9c-0.9,0.9-1.6,1.6-2,2.1l-12.6-1.1c0-0.1,0-0.2,0-0.3c0.2-1.3,0.5-2.7,0.9-4
		c0.3-0.9,0.6-1.7,1.2-2.5c0.5-0.6,1.1-1,1.9-0.9c0.3,0,0.5,0.1,0.8,0.3c1.5,1.4,3.5,1.4,5,0.1c0.4-0.4,0.9-0.4,1.4-0.3
		c0.7,0.1,1.1,0.6,1.5,1.1c0.5,0.8,0.9,1.6,1.1,2.5C44.5,26.8,44.8,27.8,44.9,28.9z M41.2,18c-0.2-1.3-0.8-2.4-1.9-3.2
		c-0.5-0.3-1.1-0.5-1.8-0.5c-0.8,0.1-1.5,0.4-2.1,1c-0.9,1-1.3,2.1-1.2,3.4c0.1,1.3,0.7,2.4,1.7,3.2c0.5,0.4,1.1,0.6,1.8,0.6
		c0.9,0,1.7-0.4,2.3-1.1c0.8-0.8,1.2-1.9,1.2-3C41.2,18.4,41.2,18.2,41.2,18z M53.3,27.1c-1.3-1.3-3.4-1.2-5,0.3
		c-1.2,1.1-2.3,2.3-3.4,3.4c-0.2,0.2-0.3,0.3-0.3,0.4c1.2,0.6,2.4,1.6,2.3,3.5c-0.1,1.7-1.4,3.4-2.9,3.5c-0.7,0.1-2.4,0.1-4.4,0.1
		c-3.7,0-8.3-0.1-8.5-0.1c-0.4,0-0.7-0.3-0.7-0.7c0-0.4,0.3-0.7,0.7-0.7c0.1,0,10.7,0.2,12.8,0c0.7-0.1,1.6-1.1,1.7-2.3
		c0.1-1-0.6-1.9-1.8-2.4c-0.2-0.1-0.4-0.1-0.6-0.1c-5.2-0.4-10.4-0.9-15.5-1.3c-1-0.1-1.9,0.3-2.6,1c-2.3,2.3-4.6,4.5-6.9,6.8
		c-0.5,0.5-0.6,0.9,0,1.5c2.2,2.1,4.3,4.3,6.5,6.4c0.5,0.5,0.9,0.5,1.3,0c1.7-2.4,4.2-2.7,6.8-2.8c3.1-0.2,6.3-0.6,9.4-0.8
		c1.1-0.1,1.9-0.6,2.6-1.3c2.9-3.1,5.7-6.3,8.6-9.5C54.6,30.4,54.6,28.4,53.3,27.1z M21.3,52.4c1.2,0,3.1-1.5,3.5-2.5
		c0.4-1.1-0.1-1.9-0.9-2.6c-2.3-2.3-4.6-4.6-6.9-6.9c-1.3-1.3-2.3-1.3-3.6,0c-0.3,0.3-0.6,0.6-0.9,0.9c-0.8,0.9-0.9,2,0,2.9
		c2.6,2.6,5.1,5.1,7.7,7.7C20.5,52.2,21,52.4,21.3,52.4z"/>
</g>
</svg>
