<?xml version="1.0" encoding="utf-8"?>
<!-- Generator: Adobe Illustrator 24.1.0, SVG Export Plug-In . SVG Version: 6.00 Build 0)  -->
<svg version="1.1" id="Layer_1" xmlns="http://www.w3.org/2000/svg" xmlns:xlink="http://www.w3.org/1999/xlink" x="0px" y="0px"
	 viewBox="0 0 66 66" style="enable-background:new 0 0 66 66;" xml:space="preserve">
<style type="text/css">
	.st0{fill:#FFFFFF;}
	.st1{fill:#273349;}
</style>
<circle class="st0" cx="33" cy="33" r="33"/>
<g>
	<path class="st1" d="M24.8,36.3c0-5.8,4.2-10.7,10-11.5c6.4-0.9,12.2,3.3,13.3,9.8c0.5,3.3-0.3,6.3-2.3,8.9c-0.4,0.5-0.4,0.8,0,1.3
		c1.4,1.6,2.7,3.2,4,4.9c0.3,0.4,0.3,0.6-0.1,0.9c-0.6,0.5-1.2,1-1.8,1.5c-0.4,0.3-0.6,0.3-0.9-0.1c-1.3-1.7-2.7-3.3-4-4.9
		c-0.3-0.4-0.6-0.5-1.1-0.2c-7,3.7-15.7-0.8-16.9-8.5C24.8,37.5,24.8,36.9,24.8,36.3z M36.5,44.7c4.6,0.1,8.9-3.9,8.4-9.2
		c-0.4-4.3-4-7.6-8.3-7.6c-0.8,0-0.8,0-0.4,0.7c0.8,1.6,1.3,3.2,1.3,5c0,3.9-1.5,7.2-4.5,9.7c-0.5,0.4-0.3,0.5,0.1,0.7
		C34.1,44.4,35.3,44.7,36.5,44.7z M34.3,34.6c0-2.4-0.5-4.1-1.3-5.3c-0.2-0.4-0.5-0.4-0.8-0.2c-4.1,2.3-5.4,8.2-2.6,12
		c0.3,0.4,0.6,0.4,1,0.1C33,39.4,34.2,36.9,34.3,34.6z M32.7,23.8c-2.5-4-4.9-8-5.3-8.8c-0.2-0.4-0.5-0.8-0.9-0.8
		c-0.4,0-0.6,0.4-0.8,0.8c-0.5,1.1-4.2,7.8-7.8,12.5c-1.9,2.4-2.7,5.2-2.1,8.4c0.9,4.7,5.1,8.4,9.7,8.6c0.1,0,0.2,0,0.3,0
		c0.1,0,0.3,0.1,0.4,0c-1.8-2.2-2.8-5.1-2.8-8.1C23.3,30.4,27.2,25.4,32.7,23.8z"/>
</g>
</svg>
